<svg id="Слой_1" data-name="Слой 1" xmlns="http://www.w3.org/2000/svg" viewBox="0 0 42 42"><defs><style>.cls-1{fill:url(#Безымянный_градиент)}</style><linearGradient id="Безымянный_градиент" x1="-1205.33" y1="-1203.31" x2="-1175.63" y2="-1173.61" gradientTransform="matrix(1 0 0 -1 0 44)" gradientUnits="userSpaceOnUse"><stop offset="0" stop-color="#ff7f00"/><stop offset=".44" stop-color="#ff8200"/><stop offset=".72" stop-color="#ff8a00"/><stop offset=".95" stop-color="#f90"/><stop offset="1" stop-color="#ff9d00"/></linearGradient></defs><title>map-local</title><path id="path19" class="cls-1" d="M21 0a21 21 0 1 0 21 21A21 21 0 0 0 21 0zm0 40.18a19.18 19.18 0 1 1 11.52-34.5L20.86 23.8l-3.69-5.66c-4.68-7.56-11.49-3.59-11.49-3.59l11.44 17.78.39.67a4.88 4.88 0 0 0 1 1.1l.27.19a3.56 3.56 0 0 0 4.2 0l.22-.29a5 5 0 0 0 .94-1.1l.4-.62 13.24-20.53A19.17 19.17 0 0 1 21 40.18z"/></svg>