<svg width="34" height="82" viewBox="0 0 34 82" xmlns="http://www.w3.org/2000/svg"><title>black-pepper-gravel</title><g fill="none" fill-rule="evenodd"><path d="M30.853 59.875c-2.206-10.46-7.452-16.25-4.904-21.549.442-.919 1.275-1.732 1.908-2.259.545-.454.827-1.155.697-1.853-.333-1.784-1.473-5.034-5.377-6.362-2.76-.938-9.813-.938-12.572 0C6.7 29.18 5.56 32.43 5.228 34.214c-.13.698.152 1.4.697 1.853.633.527 1.467 1.34 1.908 2.26 2.548 5.298-2.698 11.088-4.904 21.548C1.206 68.047 1.507 74.688 4.749 82h24.284c3.242-7.312 3.543-13.953 1.82-22.125" fill="#505B63"/><path d="M16.891 34.95c4.003 0 7.664-1.447 10.502-3.84-.803-1.308-2.103-2.59-4.216-3.309-2.759-.938-9.813-.938-12.572 0-2.113.72-3.413 2.001-4.216 3.31a16.234 16.234 0 0 0 10.502 3.84" fill="#0D0D0D"/><path d="M33.203 16.688C33.203 25.697 25.9 33 16.891 33S.579 25.697.579 16.688C.578 7.678 7.881.376 16.892.376c9.009 0 16.311 7.303 16.311 16.312" fill="#505B63"/></g></svg>