<svg width="105" height="90" viewBox="0 0 105 90" xmlns="http://www.w3.org/2000/svg"><title>blueberry</title><g fill="none" fill-rule="evenodd"><path d="M36.175 44.983c0 9.95-8.065 18.014-18.014 18.014-9.95 0-18.014-8.065-18.014-18.014S8.212 26.97 18.16 26.97s18.014 8.065 18.014 18.014" fill="#365B91"/><path d="M19.704 37.852l1.268 2.57c.251.508.735.86 1.296.942l2.835.412c1.412.204 1.976 1.94.954 2.934l-2.051 2a1.721 1.721 0 0 0-.495 1.524l.484 2.825c.241 1.406-1.235 2.477-2.498 1.814l-2.535-1.334a1.72 1.72 0 0 0-1.602 0l-2.536 1.334c-1.263.663-2.739-.408-2.497-1.814l.484-2.825a1.721 1.721 0 0 0-.495-1.523l-2.052-2c-1.021-.995-.457-2.73.954-2.935l2.835-.413a1.725 1.725 0 0 0 1.297-.941l1.267-2.57c.631-1.278 2.456-1.278 3.087 0" fill="#0D0D0D"/><path d="M62.606 71.987C62.606 81.936 54.541 90 44.592 90c-9.948 0-18.013-8.065-18.013-18.014 0-9.95 8.065-18.014 18.013-18.014 9.95 0 18.014 8.065 18.014 18.014" fill="#365B91"/><path d="M46.136 64.855l1.268 2.57c.251.507.735.86 1.296.941l2.835.412c1.412.205 1.976 1.94.954 2.936l-2.052 2a1.72 1.72 0 0 0-.494 1.523l.484 2.824c.241 1.406-1.235 2.478-2.498 1.814l-2.536-1.333a1.717 1.717 0 0 0-1.6 0l-2.537 1.333c-1.263.664-2.739-.408-2.498-1.814l.484-2.824a1.724 1.724 0 0 0-.494-1.524l-2.052-1.999c-1.02-.996-.458-2.73.954-2.936l2.835-.412a1.721 1.721 0 0 0 1.296-.942l1.268-2.569c.631-1.279 2.456-1.279 3.087 0" fill="#0D0D0D"/><path d="M29.1 7.807c6.942 7.251 6.268 19.161 6.268 19.161s-11.928.155-18.87-7.096C9.557 12.621 10.23.711 10.23.711S22.16.556 29.1 7.807" fill="#A0CA4F"/><path d="M72.202 36.893c0 9.949-8.065 18.014-18.014 18.014-9.948 0-18.013-8.065-18.013-18.014s8.065-18.014 18.013-18.014c9.949 0 18.014 8.065 18.014 18.014" fill="#365B91"/><path d="M55.732 29.762L57 32.332c.25.507.735.86 1.296.941l2.835.411c1.412.206 1.976 1.941.954 2.936l-2.052 2a1.719 1.719 0 0 0-.494 1.524l.484 2.824c.24 1.405-1.235 2.478-2.498 1.814l-2.536-1.333a1.717 1.717 0 0 0-1.601 0l-2.536 1.333c-1.263.664-2.74-.409-2.498-1.814l.484-2.824a1.722 1.722 0 0 0-.494-1.524l-2.052-2c-1.021-.995-.458-2.73.954-2.936l2.835-.41a1.721 1.721 0 0 0 1.296-.943l1.268-2.569c.63-1.279 2.456-1.279 3.087 0" fill="#0D0D0D"/><path d="M51.1 20.553c-4.156 4.818-11.713 5.112-11.713 5.112s-.818-7.518 3.338-12.336c4.157-4.818 11.713-5.112 11.713-5.112s.818 7.518-3.338 12.336m-15.723 6.415s-11.929.154-18.87-7.096C9.565 12.622 10.24.71 10.24.71l25.137 26.258z" fill="#4B862D"/><path d="M37.39 7.528V26.97" stroke="#0D0D0D" stroke-width="3" stroke-linecap="round"/><path d="M90.917 46.128C87.685 49.505 88 55.052 88 55.052s5.555.072 8.787-3.305c3.233-3.377 2.92-8.924 2.92-8.924s-5.556-.071-8.789 3.305" fill="#A0CA4F"/><path d="M80.672 52.064c1.936 2.244 5.455 2.38 5.455 2.38s.381-3.5-1.555-5.744c-1.935-2.244-5.455-2.381-5.455-2.381s-.38 3.5 1.555 5.745m7.323 2.988s5.554.072 8.787-3.305c3.234-3.377 2.92-8.924 2.92-8.924L87.994 55.052z" fill="#4B862D"/><path d="M87.058 45.998v9.055" stroke="#0D0D0D" stroke-width="3" stroke-linecap="round"/><path d="M87.014 85.57a4.43 4.43 0 1 1-8.859.001 4.43 4.43 0 0 1 8.86 0m8.958-.001a4.43 4.43 0 1 1-8.859.001 4.43 4.43 0 0 1 8.859 0m3.938-8.368a4.43 4.43 0 1 1-8.859 0 4.43 4.43 0 0 1 8.859 0m4.824-8.86a4.43 4.43 0 1 1-8.86 0 4.43 4.43 0 0 1 8.86 0" fill="#49368E"/><path d="M91.051 77.203a4.43 4.43 0 1 1-8.859 0 4.43 4.43 0 0 1 8.86 0" fill="#A982E8"/><path d="M82.19 77.203a4.43 4.43 0 1 1-8.858 0 4.43 4.43 0 0 1 8.859 0m13.684-8.86a4.43 4.43 0 1 1-8.86 0 4.43 4.43 0 0 1 8.86 0" fill="#49368E"/><path d="M87.014 68.343a4.43 4.43 0 1 1-8.859 0 4.43 4.43 0 0 1 8.86 0" fill="#A982E8"/><path d="M78.155 68.343a4.43 4.43 0 1 1-8.86 0 4.43 4.43 0 0 1 8.86 0m22.15-8.86a4.43 4.43 0 1 1-8.86 0 4.43 4.43 0 0 1 8.86 0" fill="#49368E"/><path d="M91.445 59.483a4.43 4.43 0 1 1-8.86 0 4.43 4.43 0 0 1 8.86 0" fill="#49368E"/><path d="M82.585 59.483a4.43 4.43 0 1 1-8.86 0 4.43 4.43 0 0 1 8.86 0" fill="#49368E"/></g></svg>