<svg xmlns="http://www.w3.org/2000/svg" width="81" height="100" viewBox="0 0 81 100"><g fill="none" fill-rule="evenodd"><path fill="#365B91" d="M40.14 49.98c0 11.056-8.95 20.017-19.99 20.017C9.113 69.997.164 61.037.164 49.98c0-11.053 8.95-20.014 19.988-20.014 11.04 0 19.99 8.96 19.99 20.015"/><path fill="#0D0D0D" d="M21.863 42.058l1.407 2.855c.28.564.816.955 1.438 1.046l3.146.45c1.567.23 2.193 2.15 1.06 3.26l-2.277 2.23c-.45.44-.656 1.07-.55 1.69l.538 3.14c.267 1.56-1.37 2.75-2.772 2.01l-2.813-1.48c-.557-.3-1.222-.3-1.778 0l-2.813 1.48c-1.41.74-3.04-.46-2.78-2.02l.53-3.14c.1-.62-.1-1.254-.55-1.694l-2.28-2.22c-1.137-1.1-.51-3.03 1.054-3.26l3.145-.46c.62-.09 1.16-.48 1.44-1.04l1.403-2.853c.7-1.42 2.724-1.42 3.424 0"/><path fill="#365B91" d="M69.467 79.985C69.467 91.04 60.517 100 49.48 100c-11.04 0-19.988-8.96-19.988-20.015 0-11.054 8.95-20.015 19.987-20.015 11.03 0 19.98 8.96 19.98 20.015"/><path fill="#0D0D0D" d="M51.192 72.062l1.407 2.854c.27.564.81.956 1.43 1.047l3.14.457c1.56.228 2.19 2.156 1.06 3.263l-2.28 2.22c-.45.44-.66 1.074-.55 1.694l.54 3.138c.27 1.562-1.37 2.753-2.77 2.015l-2.82-1.48a1.906 1.906 0 0 0-1.78 0l-2.815 1.48c-1.4.738-3.04-.453-2.77-2.015l.54-3.138a1.92 1.92 0 0 0-.55-1.693l-2.276-2.22c-1.135-1.108-.51-3.036 1.056-3.264l3.15-.457a1.92 1.92 0 0 0 1.44-1.047l1.403-2.854c.7-1.422 2.725-1.422 3.425 0"/><path fill="#A0CA4F" d="M32.29 8.674c7.702 8.057 6.954 21.29 6.954 21.29s-13.235.173-20.938-7.884C10.604 14.023 11.352.79 11.352.79S24.588.618 32.29 8.674"/><path fill="#365B91" d="M80.115 40.992c0 11.055-8.95 20.016-19.99 20.016-11.037 0-19.986-8.96-19.986-20.016 0-11.054 8.94-20.015 19.98-20.015 11.04 0 19.99 8.96 19.99 20.015"/><path fill="#0D0D0D" d="M61.84 33.07l1.406 2.853c.28.565.816.956 1.438 1.047l3.146.457c1.567.23 2.193 2.156 1.06 3.262l-2.278 2.22c-.45.44-.656 1.07-.548 1.69l.537 3.13c.27 1.56-1.37 2.75-2.77 2.01l-2.81-1.48c-.55-.3-1.22-.3-1.77 0l-2.81 1.48c-1.4.74-3.04-.46-2.77-2.02l.54-3.13c.11-.62-.1-1.256-.544-1.695l-2.276-2.22c-1.133-1.106-.51-3.033 1.06-3.26l3.145-.46c.62-.09 1.16-.48 1.433-1.045l1.405-2.853c.7-1.423 2.727-1.423 3.427 0"/><path fill="#4B862D" d="M56.7 22.837c-4.61 5.353-12.997 5.68-12.997 5.68s-.907-8.354 3.704-13.707c4.613-5.353 12.997-5.68 12.997-5.68s.907 8.353-3.704 13.707m-17.446 7.128s-13.236.17-20.938-7.885C10.614 14.024 11.363.79 11.363.79l27.89 29.175z"/><path stroke="#0D0D0D" stroke-width="3.333" d="M41.487 8.365v21.6" stroke-linecap="round"/></g></svg>