<svg width="65" height="250" viewBox="0 0 65 250" xmlns="http://www.w3.org/2000/svg" xmlns:xlink="http://www.w3.org/1999/xlink"><title>bottle-red</title><defs><path d="M21.557 2.786h-.024v.117c-.01.06-.036.119-.036.18 0 .06.025.118.036.178V9.14c-.956.226-1.699 1.683-1.699 3.471s.743 3.25 1.7 3.472v47.471c-3.767 5.73-12.66 12.64-15.448 17.531-3.434 6.023-4.446 15.78-4.696 22.875h-.015v.501a110.76 110.76 0 0 0 0 6.992v126.232c0 6.801 14.467 12.316 32.312 12.316C51.533 250 66 244.485 66 237.684V103.963h-.068c-.248-7.095-1.26-16.85-4.695-22.875-2.775-4.866-11.596-11.734-15.395-17.448V16.099c.988-.176 1.762-1.657 1.762-3.485 0-1.828-.774-3.312-1.762-3.484V3.261c.01-.06.037-.118.037-.179 0-.06-.026-.12-.037-.179v-.117h-.025C45.234 1.226 40.027 0 33.687 0c-6.34 0-11.545 1.222-12.13 2.786z" id="a"/></defs><use fill="#8A1232" xlink:href="#a" transform="translate(-1)" fill-rule="evenodd"/></svg>