<svg width="75" height="250" viewBox="0 0 75 250" xmlns="http://www.w3.org/2000/svg"><title>bottle-white</title><path d="M37.498.011s-8.662-.347-10.96 2.707v2.514l-1.59 1.08v8.078s1.59.721 1.59 3.054L25.3 53.182s-2.125 27.833-15.219 52.794c0 0-10.081 18.318-10.081 50.099v81.889c.001.12.051 7.737 6.547 9.52-.003 0 8.834 2.516 30.948 2.516 22.119 0 30.956-2.516 30.956-2.516C75 245.687 75 237.962 75 237.962v-81.887c0-31.781-10.084-50.099-10.084-50.099-13.094-24.965-15.218-52.794-15.218-52.794l-1.242-35.738c0-2.333 1.595-3.054 1.595-3.054V6.31l-1.595-1.079V2.718C46.586.23 40.498 0 38.3 0c-.502 0-.801.011-.801.011z" fill="#FFDB7E" fill-rule="evenodd"/></svg>