<svg width="61" height="202" viewBox="0 0 61 202" xmlns="http://www.w3.org/2000/svg"><title>bottle-white-text</title><g fill="none" fill-rule="evenodd"><path d="M30.498.01s-7.044-.282-8.913 2.186v2.032L20.29 5.1v6.527s1.294.583 1.294 2.468L20.577 42.97S18.85 65.46 8.2 85.63c0 0-8.199 14.8-8.199 40.48v66.166c0 .096.042 6.251 5.325 7.692-.003 0 7.185 2.033 25.17 2.033 17.99 0 25.179-2.033 25.179-2.033C61 198.515 61 192.274 61 192.274v-66.165c0-25.68-8.202-40.48-8.202-40.48C42.148 65.457 40.421 42.97 40.421 42.97l-1.01-28.876c0-1.885 1.297-2.468 1.297-2.468V5.1l-1.297-.872V2.196C37.891.186 32.938 0 31.15 0c-.409 0-.652.01-.652.01z" fill="#FFDB7E"/><path d="M25.64 145.342v-.949l9.1 3.081v.936l-7.969 2.561 7.969 2.587v.923l-9.1 3.068v-.975l8.151-2.587-8.151-2.574v-.91l8.151-2.587-8.151-2.574zm.013-2.957v-.897h4.16v-5.681h-4.16v-.897h9.087v.897h-4.121v5.681h4.121v.897h-9.087zm0-10.835v-.897h9.087v.897h-9.087zm-.013-2.97v-6.903h.819v3.003h8.281v.897h-8.281v3.003h-.819zm.013-8.976v-6.084h.806v5.187h3.25v-4.641h.806v4.641h3.419v-5.356h.806v6.253h-9.087z" fill="#2C2D2D"/></g></svg>