<svg width="70" height="228" viewBox="0 0 70 228" xmlns="http://www.w3.org/2000/svg"><title>bottle-sparkling-text</title><g fill="none" fill-rule="evenodd"><path d="M34.996 227.796c10.427 0 22.559-1.481 22.559-1.481 9.785-1.271 10.637-10.167 10.637-10.167 7.657-75.813-11.49-107.784-11.49-107.784-10.689-20.33-11.488-36.687-11.488-36.687s-.796-38.914-.796-39.39c0-6.67 1.691-5.509 2.874-6.99C50.767 20.955 44.74 3.22 44.74 3.22 42.66.68 34.999.204 34.999.204S27.337.68 25.26 3.22c0 0-6.029 17.735-2.554 22.077 1.18 1.481 2.875.32 2.875 6.99 0 .476-.8 39.39-.8 39.39s-.796 16.359-11.485 36.687c0 0-19.15 31.971-11.488 107.784 0 0 .849 8.896 10.635 10.167-.002 0 12.13 1.48 22.552 1.48" fill="#ECECEC"/><path d="M31.222 180.014a4.572 4.572 0 0 0-.189 1.248c0 .624.123 1.124.37 1.502.248.377.583.565 1.008.565.373 0 .676-.104.91-.312.234-.208.418-.464.553-.767.134-.303.283-.72.448-1.248a10.68 10.68 0 0 1 .54-1.488c.177-.378.435-.698.773-.962.338-.265.784-.397 1.339-.397.485 0 .914.136 1.287.41.373.273.66.656.865 1.15.203.494.305 1.062.305 1.703 0 .633-.126 1.25-.377 1.853a4.992 4.992 0 0 1-1.001 1.553l-.741-.416c.399-.407.71-.88.936-1.417a4.08 4.08 0 0 0 .338-1.586c0-.693-.14-1.244-.422-1.651-.282-.407-.661-.611-1.138-.611-.381 0-.693.104-.936.312a2.067 2.067 0 0 0-.559.767c-.13.303-.282.728-.455 1.274-.19.615-.37 1.11-.54 1.482-.169.373-.42.689-.753.949-.334.26-.77.39-1.307.39-.46 0-.862-.13-1.209-.39-.347-.26-.613-.624-.8-1.092-.186-.468-.279-1.01-.279-1.625 0-.494.074-.99.221-1.488a5.18 5.18 0 0 1 .585-1.32l.767.39a4.72 4.72 0 0 0-.54 1.222zm-.156-10.549c.524-.615 1.267-.923 2.229-.923.997 0 1.768.308 2.314.923s.819 1.486.819 2.613v2.457h2.938v.897h-9.087v-3.354c0-1.127.262-1.998.787-2.613zm3.965.643c-.395-.472-.965-.708-1.71-.708-.728 0-1.283.234-1.664.702-.381.468-.572 1.14-.572 2.015v2.418h4.537v-2.418c0-.867-.197-1.536-.591-2.008zm4.335-10.165l-2.418 1.079v5.044l2.418 1.066v.962l-9.087-4.095v-.936l9.087-4.095v.975zm-3.224 5.772v-4.342l-4.914 2.184 4.914 2.158zm3.224-14.735l-2.964 1.963c.017.277.026.49.026.637v2.496h2.938v.897h-9.087v-3.393c0-1.135.262-2.013.787-2.633.524-.62 1.267-.929 2.229-.929.754 0 1.382.182 1.885.546.503.364.854.884 1.053 1.56l3.133-2.184v1.04zm-3.744 2.6c0-.867-.197-1.534-.591-2.002-.395-.468-.965-.702-1.71-.702-.728 0-1.283.234-1.664.702-.381.468-.572 1.135-.572 2.002v2.496h4.537v-2.496zm3.744-13.799v1.105l-4.42 3.445 2.002 1.846h2.418v.897h-9.1v-.897h5.538l-5.538-5.044v-1.092l3.978 3.653 5.122-3.913zm-9.087-2.229v-.897h8.281v-4.004h.806v4.901h-9.087zm0-7.169v-.897h9.087v.897h-9.087zm0-10.848v-.884h9.087v.949l-7.696 5.629h7.696v.897h-9.087v-.949l7.696-5.642h-7.696zm4.641-10.64v-.793h3.328c.373.442.665.955.878 1.54.212.586.318 1.181.318 1.788 0 .858-.208 1.649-.624 2.372a4.703 4.703 0 0 1-1.69 1.723 4.454 4.454 0 0 1-2.327.637c-.84 0-1.612-.212-2.314-.637a4.657 4.657 0 0 1-1.67-1.736 4.812 4.812 0 0 1-.618-2.398c0-.615.108-1.211.325-1.788a4.89 4.89 0 0 1 .91-1.527l.637.52a3.948 3.948 0 0 0-.8 1.287 4.178 4.178 0 0 0-.279 1.508c0 .702.171 1.348.514 1.937.342.59.803 1.057 1.384 1.404a3.66 3.66 0 0 0 1.911.52c.702 0 1.345-.173 1.93-.52a3.843 3.843 0 0 0 1.392-1.41 3.823 3.823 0 0 0 .513-1.944c0-.433-.071-.864-.214-1.294a4.462 4.462 0 0 0-.605-1.189H34.92z" fill="#2C2D2D"/></g></svg>