<svg width="82" height="246" viewBox="0 0 82 246" xmlns="http://www.w3.org/2000/svg"><title>bottle-desert</title><path d="M63.124 65.808c-3.71-2.142-6.188-6.12-6.188-10.405V27.554c1.547-.918 2.785-2.448 2.785-4.59V16.23c0-1.836-1.238-3.672-2.785-4.59V7.355c0-2.142-.928-2.448-4.328-4.284 0 0-3.406-2.449-11.45-2.449-8.045 0-11.448 2.449-11.448 2.449-3.094 1.224-4.331 1.836-4.331 3.978v4.284c-1.857.919-3.094 2.755-3.094 4.59v6.427c0 2.143 1.237 3.673 3.094 4.59v28.156c0 4.284-2.163 8.262-5.879 10.405C8.053 72.234.627 84.17.627 97.635v138.937c0 4.897 4.332 9.181 9.9 9.181h62.191c5.26 0 9.282-3.978 9.282-9.18V97.94c-.312-13.465-7.428-25.4-18.876-32.133" fill="#CD540F" fill-rule="evenodd"/></svg>