<svg width="76" height="248" viewBox="0 0 76 248" xmlns="http://www.w3.org/2000/svg"><title>bottle-sparkling</title><path d="M37.996 247.691c11.32 0 24.492-1.61 24.492-1.61 10.624-1.381 11.55-11.05 11.55-11.05 8.313-82.406-12.476-117.157-12.476-117.157C49.957 95.776 49.09 77.997 49.09 77.997s-.865-42.298-.865-42.815c0-7.25 1.836-5.988 3.121-7.598 3.773-4.72-2.773-23.997-2.773-23.997C46.317.827 37.998.309 37.998.309S29.68.826 27.426 3.587c0 0-6.545 19.277-2.773 23.997 1.282 1.61 3.122.347 3.122 7.598 0 .517-.868 42.815-.868 42.815s-.865 17.781-12.47 39.877c0 0-20.791 34.751-12.473 117.157 0 0 .921 9.669 11.547 11.05-.002 0 13.17 1.61 24.485 1.61" fill="#ECECEC" fill-rule="evenodd"/></svg>