<svg width="61" height="184" viewBox="0 0 61 184" xmlns="http://www.w3.org/2000/svg"><title>bottle-desert-text</title><g fill="none" fill-rule="evenodd"><path d="M46.9 48.972c-2.771-1.602-4.622-4.578-4.622-7.783V20.36c1.155-.687 2.08-1.832 2.08-3.434V11.89c0-1.374-.925-2.747-2.08-3.434V5.25c0-1.602-.694-1.831-3.233-3.204 0 0-2.545-1.832-8.554-1.832s-8.55 1.832-8.55 1.832c-2.312.915-3.236 1.373-3.236 2.975v3.205c-1.387.687-2.312 2.06-2.312 3.434v4.807c0 1.602.925 2.747 2.312 3.434v21.06c0 3.204-1.616 6.18-4.392 7.782C5.763 53.78.216 62.707.216 72.78v103.925c0 3.663 3.235 6.867 7.395 6.867h46.456c3.929 0 6.933-2.975 6.933-6.867V73.008c-.233-10.072-5.549-19-14.1-24.036" fill="#CD540F"/><path d="M26.703 135.342a4.432 4.432 0 0 1 1.644-1.69 4.457 4.457 0 0 1 2.308-.618 4.434 4.434 0 0 1 3.939 2.314 4.85 4.85 0 0 1 .598 2.392v3.627h-9.087v-3.653c0-.866.2-1.657.598-2.372zm7.189.461a3.679 3.679 0 0 0-3.237-1.859 3.699 3.699 0 0 0-3.25 1.879 3.771 3.771 0 0 0-.494 1.904v2.743h7.475v-2.782c0-.684-.165-1.313-.494-1.885zm-7.787-5.245v-6.084h.806v5.187h3.25v-4.64h.806v4.64h3.419v-5.356h.806v6.253h-9.087zm9.322-10.573c0 .63-.138 1.437-.413 2.419h-1.32c.49-1.058.736-1.928.736-2.61 0-.524-.137-.946-.412-1.266-.275-.319-.637-.479-1.086-.479a1.45 1.45 0 0 0-.94.314c-.257.21-.545.596-.863 1.159l-.374.647c-.457.8-.888 1.364-1.292 1.692a2.175 2.175 0 0 1-1.412.492c-.724 0-1.32-.262-1.787-.787-.468-.525-.701-1.194-.701-2.006 0-.724.12-1.488.361-2.292h1.22c-.39.99-.585 1.73-.585 2.216 0 .461.123.842.368 1.142.246.3.555.451.927.451.313 0 .59-.11.832-.33.24-.22.529-.622.863-1.206l.38-.673c.462-.812.898-1.38 1.308-1.701.41-.322.904-.483 1.48-.483.816 0 1.472.302 1.967.905.495.603.743 1.402.743 2.396zm-8.38-9.7a4.572 4.572 0 0 0-.188 1.248c0 .624.123 1.124.37 1.502.247.377.583.565 1.008.565.373 0 .676-.104.91-.312.234-.208.418-.464.552-.767.135-.303.284-.72.449-1.248a10.68 10.68 0 0 1 .54-1.488c.177-.378.435-.698.773-.962.338-.265.784-.397 1.339-.397.485 0 .914.136 1.287.41.373.273.66.656.864 1.15.204.494.306 1.062.306 1.703 0 .633-.126 1.25-.377 1.853a4.992 4.992 0 0 1-1.001 1.553l-.741-.416c.399-.407.71-.88.936-1.417a4.08 4.08 0 0 0 .338-1.586c0-.693-.14-1.244-.423-1.651-.281-.407-.66-.611-1.137-.611-.381 0-.693.104-.936.312a2.067 2.067 0 0 0-.559.767c-.13.303-.282.728-.455 1.274-.19.615-.37 1.11-.54 1.482-.169.373-.42.689-.754.949-.333.26-.769.39-1.306.39-.46 0-.862-.13-1.209-.39-.347-.26-.613-.624-.8-1.092-.186-.468-.279-1.01-.279-1.625 0-.494.074-.99.221-1.488a5.18 5.18 0 0 1 .585-1.32l.767.39a4.72 4.72 0 0 0-.54 1.222zm-.942-4.582v-6.084h.806v5.187h3.25v-4.641h.806v4.641h3.419V99.45h.806v6.253h-9.087zm9.087-14.943l-2.964 1.963c.017.277.026.49.026.637v2.496h2.938v.897h-9.087V93.36c0-1.135.262-2.013.786-2.632.525-.62 1.268-.93 2.23-.93.754 0 1.382.182 1.885.546.503.364.854.884 1.053 1.56l3.133-2.184v1.04zm-3.744 2.6c0-.867-.197-1.534-.592-2.002-.394-.468-.964-.702-1.709-.702-.728 0-1.283.234-1.664.702-.381.468-.572 1.135-.572 2.002v2.496h4.537V93.36zm-5.356-5.219v-6.903h.819v3.003h8.281v.897h-8.281v3.003h-.819z" fill="#FFF"/></g></svg>