<svg width="59" height="250" viewBox="0 0 59 250" xmlns="http://www.w3.org/2000/svg"><title>bottle-rose</title><path d="M56.202 83.365c-1.631-4.419-7.456-8.026-11.07-11.746-3.61-3.723-3.378-8.607-3.378-8.607l-.427-10.853h.136s-1.282-37.216-1.047-40.474c.465-.699.815-2.094.815-2.094v-2.79c0-1.51-.234-2.79-.7-3.954 0-3.489-5.477-2.79-5.477-2.79H23.943s-5.477-.699-5.477 2.79c-.466 1.164-.7 2.444-.7 3.954v2.79s.35 1.395.816 2.094c.234 3.258-1.048 40.474-1.048 40.474h.136l-.426 10.853s.234 4.884-3.38 8.607c-3.61 3.723-9.437 7.327-11.07 11.746C1.165 87.784 0 88.133 0 112.905s1.166 127.584 1.166 127.584.234 5.346 6.058 6.394c5.08.916 9.808 2.269 22.275 2.14 12.47.129 17.198-1.224 22.277-2.14 5.824-1.045 6.058-6.394 6.058-6.394S59 137.677 59 112.905c0-24.772-1.166-25.121-2.798-29.54" fill="#FE5C66" fill-rule="evenodd"/></svg>