<svg width="59" height="227" viewBox="0 0 59 227" xmlns="http://www.w3.org/2000/svg" xmlns:xlink="http://www.w3.org/1999/xlink"><title>bottle-red-text</title><defs><path d="M18.597 2.53h-.021v.106c-.01.054-.033.108-.033.163 0 .055.023.108.033.162v5.337c-.87.205-1.545 1.528-1.545 3.152 0 1.623.675 2.95 1.545 3.153v43.103C15.15 62.908 7.067 69.184 4.533 73.625 1.411 79.093.491 87.952.264 94.395H.25v.455a100.449 100.449 0 0 0 0 6.348v114.62C.25 221.992 13.401 227 29.625 227S59 221.993 59 215.817V94.397h-.062c-.225-6.441-1.146-15.299-4.268-20.77-2.522-4.418-10.542-10.653-13.996-15.842V14.618c.899-.16 1.603-1.505 1.603-3.165 0-1.659-.704-3.007-1.603-3.163V2.961c.01-.054.034-.107.034-.162 0-.055-.024-.109-.034-.163V2.53h-.022C40.122 1.113 35.389 0 29.625 0 23.86 0 19.129 1.11 18.597 2.53z" id="a"/></defs><g fill="none" fill-rule="evenodd"><mask id="b" fill="#fff"><use xlink:href="#a"/></mask><use fill="#8A1232" xlink:href="#a"/><path d="M21.423 173l-1.963-2.964c-.277.017-.49.026-.637.026h-2.496V173h-.897v-9.087h3.393c1.135 0 2.013.262 2.633.786.62.525.929 1.268.929 2.23 0 .754-.182 1.382-.546 1.885-.364.503-.884.854-1.56 1.053L22.463 173h-1.04zm-2.6-3.744c.867 0 1.534-.197 2.002-.591.468-.395.702-.965.702-1.71 0-.728-.234-1.283-.702-1.664-.468-.381-1.135-.572-2.002-.572h-2.496v4.537h2.496zm6.506-5.343h6.084v.806h-5.187v3.25h4.641v.806h-4.641v3.419h5.356V173h-6.253v-9.087zm14.975.598a4.432 4.432 0 0 1 1.69 1.644c.412.698.618 1.467.618 2.308a4.434 4.434 0 0 1-2.314 3.939 4.85 4.85 0 0 1-2.392.598h-3.627v-9.087h3.653c.867 0 1.657.2 2.372.598zm-.461 7.189a3.679 3.679 0 0 0 1.859-3.237 3.699 3.699 0 0 0-1.878-3.25 3.771 3.771 0 0 0-1.905-.494h-2.743v7.475h2.782c.685 0 1.313-.165 1.885-.494z" fill="#FFF" mask="url(#b)" transform="rotate(-90 29.021 168.457)"/></g></svg>