<svg width="55" height="233" viewBox="0 0 55 233" xmlns="http://www.w3.org/2000/svg"><title>bottle-rose-text</title><g fill="none" fill-rule="evenodd"><path d="M52.392 77.696c-1.521-4.118-6.95-7.48-10.319-10.947-3.366-3.47-3.15-8.022-3.15-8.022l-.397-10.114h.126s-1.195-34.686-.977-37.723c.435-.651.761-1.951.761-1.951v-2.6c0-1.408-.218-2.6-.653-3.685 0-3.252-5.105-2.6-5.105-2.6H22.319s-5.105-.652-5.105 2.6c-.434 1.084-.653 2.277-.653 3.685v2.6s.327 1.3.76 1.951c.22 3.037-.975 37.723-.975 37.723h.126l-.398 10.114s.219 4.552-3.15 8.022c-3.366 3.47-8.797 6.829-10.319 10.947C1.085 81.815 0 82.14 0 105.227c0 23.088 1.087 118.909 1.087 118.909s.218 4.982 5.648 5.96c4.734.853 9.142 2.114 20.764 1.993 11.624.12 16.032-1.14 20.766-1.994 5.43-.974 5.648-5.96 5.648-5.96S55 128.316 55 105.228c0-23.087-1.087-23.412-2.608-27.53" fill="#FE5C66"/><path d="M31.799 182.276l-2.964 1.963c.017.277.026.49.026.637v2.496h2.938v.897h-9.087v-3.393c0-1.135.262-2.013.787-2.633.524-.62 1.267-.929 2.229-.929.754 0 1.382.182 1.885.546.503.364.854.884 1.053 1.56l3.133-2.184v1.04zm-3.744 2.6c0-.867-.197-1.534-.591-2.002-.395-.468-.965-.702-1.71-.702-.728 0-1.283.234-1.664.702-.381.468-.572 1.135-.572 2.002v2.496h4.537v-2.496zm-4.804-12.753a4.685 4.685 0 0 1 1.671-1.722 4.386 4.386 0 0 1 2.314-.637c.84 0 1.616.212 2.327.637.71.425 1.274.999 1.69 1.722.416.724.624 1.52.624 2.386 0 .867-.208 1.662-.624 2.386a4.703 4.703 0 0 1-1.69 1.722 4.454 4.454 0 0 1-2.327.637c-.84 0-1.612-.212-2.314-.637a4.685 4.685 0 0 1-1.67-1.723 4.74 4.74 0 0 1-.618-2.385c0-.867.206-1.662.617-2.386zm.696 4.297c.338.59.797 1.057 1.378 1.404a3.66 3.66 0 0 0 1.911.52c.693 0 1.335-.173 1.924-.52a3.843 3.843 0 0 0 1.398-1.404c.342-.59.513-1.23.513-1.924 0-.685-.171-1.32-.513-1.905a3.858 3.858 0 0 0-1.398-1.397 3.727 3.727 0 0 0-1.924-.52 3.66 3.66 0 0 0-1.911.52c-.58.347-1.04.812-1.378 1.397a3.741 3.741 0 0 0-.507 1.905 3.8 3.8 0 0 0 .507 1.924zm-.292-12.954a4.572 4.572 0 0 0-.189 1.248c0 .624.123 1.124.37 1.501.248.378.583.566 1.008.566.373 0 .676-.104.91-.312.234-.208.418-.464.552-.767.135-.303.284-.72.449-1.248.182-.615.362-1.111.54-1.489.177-.377.435-.697.773-.962.338-.264.784-.396 1.339-.396.485 0 .914.136 1.287.41.373.273.66.656.865 1.15.203.494.305 1.062.305 1.703a4.77 4.77 0 0 1-.377 1.852 4.992 4.992 0 0 1-1.001 1.554l-.741-.416c.399-.407.71-.88.936-1.417a4.08 4.08 0 0 0 .338-1.586c0-.693-.14-1.244-.422-1.651-.282-.407-.661-.611-1.138-.611-.381 0-.693.104-.936.312a2.067 2.067 0 0 0-.559.767c-.13.303-.282.728-.455 1.274-.19.615-.37 1.11-.54 1.482-.169.373-.42.689-.753.949-.334.26-.77.39-1.307.39-.46 0-.862-.13-1.209-.39-.347-.26-.613-.624-.8-1.092-.186-.468-.279-1.01-.279-1.625 0-.494.074-.99.221-1.489a5.18 5.18 0 0 1 .585-1.319l.767.39a4.72 4.72 0 0 0-.54 1.222zm-.943-4.582V152.8h.806v5.187h3.25v-4.641h.806v4.641h3.419v-5.356h.806v6.253h-9.087z" fill="#FFF"/></g></svg>