<svg width="104" height="91" viewBox="0 0 104 91" xmlns="http://www.w3.org/2000/svg"><title>cranberry-cherry</title><g fill="none" fill-rule="evenodd"><path d="M36.583 45.117c0 9.949-8.065 18.014-18.014 18.014-9.95 0-18.014-8.065-18.014-18.014 0-9.95 8.065-18.014 18.014-18.014s18.014 8.065 18.014 18.014" fill="#FF3956"/><path d="M24.12 42.022l.959 1.944c.19.384.557.65.981.712l2.145.312c1.069.155 1.495 1.468.722 2.22l-1.552 1.515c-.307.299-.447.73-.375 1.152l.367 2.137c.182 1.064-.934 1.875-1.89 1.373l-1.919-1.01a1.305 1.305 0 0 0-1.212 0l-1.918 1.01c-.956.502-2.073-.31-1.89-1.373l.366-2.137a1.3 1.3 0 0 0-.374-1.152l-1.553-1.514c-.773-.753-.346-2.066.722-2.221l2.146-.312c.423-.061.79-.328.98-.712l.96-1.944c.477-.968 1.857-.968 2.335 0" fill="#0D0D0D"/><path d="M63.014 72.12c0 9.948-8.065 18.013-18.014 18.013-9.947 0-18.012-8.064-18.012-18.013 0-9.95 8.065-18.015 18.013-18.015 9.949 0 18.014 8.066 18.014 18.015" fill="#FF3956"/><path d="M44.12 62.454l.959 1.944c.19.384.557.651.981.712l2.145.312c1.069.155 1.495 1.468.722 2.221l-1.552 1.514c-.307.299-.447.73-.375 1.152l.367 2.137c.182 1.064-.934 1.875-1.89 1.373l-1.919-1.009a1.305 1.305 0 0 0-1.212 0l-1.918 1.009c-.956.502-2.073-.309-1.89-1.373l.366-2.137a1.3 1.3 0 0 0-.374-1.152l-1.553-1.514c-.773-.753-.346-2.066.722-2.221l2.146-.312c.423-.061.79-.328.98-.712l.96-1.944c.477-.968 1.857-.968 2.335 0" fill="#0D0D0D"/><path d="M29.51 7.94c6.94 7.25 6.266 19.16 6.266 19.16s-11.928.156-18.87-7.095C9.966 12.754 10.64.844 10.64.844S22.57.689 29.51 7.94" fill="#A0CA4F"/><path d="M72.61 37.026c0 9.949-8.065 18.014-18.014 18.014-9.948 0-18.013-8.065-18.013-18.014 0-9.95 8.065-18.014 18.013-18.014 9.95 0 18.014 8.065 18.014 18.014" fill="#FF3956"/><path d="M51.38 35.9l.96 1.944c.19.385.557.65.98.713l2.146.31c1.069.157 1.495 1.47.722 2.223l-1.552 1.513c-.307.299-.447.73-.375 1.153l.367 2.136c.182 1.064-.934 1.876-1.89 1.373l-1.92-1.01a1.305 1.305 0 0 0-1.211 0l-1.918 1.01c-.956.503-2.073-.31-1.89-1.373l.366-2.136a1.303 1.303 0 0 0-.374-1.153l-1.553-1.513c-.773-.753-.346-2.066.722-2.222l2.145-.311c.424-.062.79-.328.98-.713l.96-1.944c.478-.968 1.858-.968 2.336 0" fill="#0D0D0D"/><path d="M51.508 20.686c-4.156 4.818-11.713 5.112-11.713 5.112s-.818-7.518 3.338-12.336C47.29 8.644 54.846 8.35 54.846 8.35s.818 7.518-3.338 12.336m-15.723 6.415s-11.928.155-18.87-7.096C9.974 12.754 10.648.843 10.648.843l25.137 26.258z" fill="#4B862D"/><path d="M37.798 7.661v19.441" stroke="#0D0D0D" stroke-width="3" stroke-linecap="round"/><path d="M95.569 40.727c-3.17-3.752-9-4.038-9-4.038s-.69 5.795 2.48 9.547c3.17 3.752 9 4.038 9 4.038s.69-5.797-2.48-9.547" fill="#A0CA4F"/><path d="M86.57 36.684s-.69 5.797 2.479 9.547c3.17 3.752 9 4.038 9 4.038l-11.48-13.584z" fill="#4B862D"/><path d="M85.214 37.371l-.12 27.263" stroke="#0D0D0D" stroke-width="3" stroke-linecap="round"/><path d="M81.387 62.345a7.098 7.098 0 0 0 7.808 0c6.117-4.017 14.096-.41 14.096 11.235 0 8.41-8.056 16.554-17.993 16.554l-.007-.001h-.007c-9.938 0-17.993-8.142-17.993-16.553 0-11.644 7.98-15.252 14.096-11.235" fill="#A21948"/><path d="M90.73 64.237c0-1.06-.708-1.736-1.664-2.043-.046.03-.095.05-.14.08a7.098 7.098 0 0 1-7.809 0c-.078-.05-.159-.086-.237-.135-1.047.278-1.842.972-1.842 2.098 0 1.47 2.616 2.892 5.843 2.892h.005c3.227 0 5.843-1.423 5.843-2.892" fill="#6D0C34"/></g></svg>