<svg width="104" height="89" viewBox="0 0 104 89" xmlns="http://www.w3.org/2000/svg"><title>dry-light-citrus</title><g fill="none" fill-rule="evenodd"><path d="M35.143 7.02v-.964c0-3.19-2.61-5.8-5.8-5.8s-5.8 2.61-5.8 5.8v.964C10.665 9.45.843 20.816.843 34.373v19.819c0 13.557 9.822 24.923 22.7 27.352v.69c0 3.19 2.61 5.8 5.8 5.8s5.8-2.61 5.8-5.8v-.69c12.877-2.43 22.7-13.795 22.7-27.352v-19.82c0-13.556-9.823-24.922-22.7-27.352" fill="#FFD527"/><path d="M37.603 31.219a1.807 1.807 0 1 1-3.613-.001 1.807 1.807 0 0 1 3.613 0m1.807-9.599a1.806 1.806 0 1 1-3.612 0 1.806 1.806 0 0 1 3.611 0m6.634 7.538a1.806 1.806 0 1 1-3.612 0 1.806 1.806 0 0 1 3.612 0" fill="#FDBE00"/><path d="M103.468 67.534c0 11.322-9.178 20.5-20.5 20.5s-20.5-9.178-20.5-20.5 9.178-20.5 20.5-20.5 20.5 9.178 20.5 20.5" fill="#FF9242"/><path d="M101.226 67.534c0 10.083-8.174 18.258-18.258 18.258-10.083 0-18.258-8.175-18.258-18.258 0-10.083 8.175-18.258 18.258-18.258 10.084 0 18.258 8.175 18.258 18.258" fill="#FFF"/><path d="M65.584 67.203c.088-2.09.357-4.146 1.243-6.08.64-1.398 1.465-1.752 2.792-1.004 3 1.69 5.972 3.43 8.956 5.149.631.363 1.041.986.945 1.627-.097.653-.698 1.092-1.417 1.22-3.42.61-6.837 1.233-10.26 1.828-1.23.215-2.095-.453-2.252-1.7-.044-.341-.007-.693-.007-1.04M83.347 50.21c.995-.038 2.12.108 3.222.414 1.456.403 1.876 1.232 1.36 2.648-1.11 3.058-2.234 6.11-3.33 9.172-.296.825-.758 1.647-1.62 1.641-.85-.005-1.334-.8-1.63-1.636-1.1-3.094-2.246-6.173-3.353-9.265-.454-1.272.03-2.144 1.357-2.516.454-.127.925-.196 1.39-.286.81-.156 1.63-.187 2.605-.173m17.017 16.956c.017 2.576-.565 3.08-3.252 2.61-2.86-.5-5.718-1.023-8.58-1.513-.92-.158-1.9-.469-2.043-1.399-.14-.925.69-1.493 1.52-1.954 2.563-1.43 5.088-2.93 7.63-4.405.19-.11.377-.229.573-.33 1.484-.774 2.338-.463 2.98 1.102.751 1.83 1.198 3.723 1.172 5.89m-34.06 5.44c-.004-1.139.404-1.686 1.435-1.87 3.483-.627 6.97-1.219 10.458-1.815.683-.116 1.344.137 1.659.676.326.558.094 1.26-.313 1.767-.986 1.234-2.022 2.427-3.034 3.64-1.174 1.408-2.323 2.836-3.517 4.227-1.057 1.233-2.078 1.224-3.185.008-1.578-1.732-2.72-3.714-3.372-5.969-.078-.27-.11-.555-.13-.664m17.124 5.198c0-1.612.005-3.224-.003-4.835-.004-.846.21-1.689 1.02-1.964.762-.259 1.429.257 1.95.882 2.023 2.426 4.067 4.835 6.094 7.26 1.345 1.608 1.206 2.494-.592 3.554-1.754 1.035-3.616 1.802-5.654 2.075-2.12.283-2.81-.309-2.814-2.42-.003-1.517-.001-3.035-.001-4.552m2.938-12.754c-1.168-.044-1.682-.923-1.253-2.141.859-2.445 1.764-4.874 2.65-7.31.29-.802.549-1.617.867-2.41.504-1.255 1.465-1.63 2.674-1.007 2.163 1.115 4.022 2.608 5.459 4.592.853 1.179.71 2.107-.547 2.85-2.965 1.756-5.957 3.465-8.938 5.193-.308.18-.636.276-.912.233m-3.862 12.821c0 1.645.017 3.29-.004 4.935-.02 1.58-.697 2.19-2.262 2.035-2.442-.241-4.668-1.102-6.692-2.468-1.13-.761-1.275-1.752-.388-2.83 2.19-2.66 4.415-5.292 6.636-7.927.462-.548 1.13-.854 1.775-.597.634.254.935.907.935 1.633v5.219M79.604 65.05c-.37.044-.708-.117-1.043-.31-2.877-1.656-5.766-3.293-8.632-4.968-1.498-.875-1.64-1.833-.584-3.18 1.425-1.815 3.117-3.298 5.195-4.337 1.291-.646 2.268-.406 2.767.91a399.555 399.555 0 0 1 3.555 9.81c.424 1.216-.142 2.072-1.258 2.075m6.454 5.214c-.017-.858.696-1.485 1.62-1.333 3.553.589 7.103 1.209 10.642 1.889 1.142.219 1.594 1.096 1.282 2.234-.675 2.457-1.95 4.587-3.704 6.419-.918.96-1.901.936-2.772-.084-2.238-2.62-4.43-5.278-6.654-7.91a1.714 1.714 0 0 1-.414-1.215m-1.08-2.616a1.992 1.992 0 0 1-1.994 1.98c-1.108.006-2.048-.964-2.012-2.074.035-1.066.972-1.95 2.055-1.94 1.046.01 1.968.971 1.95 2.034" fill="#FFC900"/></g></svg>