<svg width="102" height="93" viewBox="0 0 102 93" xmlns="http://www.w3.org/2000/svg"><title>dry-raspberry-blueberry</title><g fill="none" fill-rule="evenodd"><path d="M42.442 7.134c-6.301 6.583-5.688 17.395-5.688 17.395s10.828.14 17.129-6.442c6.302-6.582 5.69-17.395 5.69-17.395s-10.83-.14-17.131 6.442" fill="#A0CA4F"/><path d="M22.471 18.706c3.773 4.373 10.634 4.64 10.634 4.64s.742-6.825-3.03-11.198C26.3 7.774 19.44 7.507 19.44 7.507s-.742 6.825 3.03 11.199m14.275 5.824s10.829.14 17.13-6.443c6.301-6.582 5.69-17.395 5.69-17.395L36.745 24.53z" fill="#4B862D"/><path d="M34.917 6.881v17.65" stroke="#0D0D0D" stroke-width="3" stroke-linecap="round"/><path d="M34.834 84.02a8.636 8.636 0 1 1-17.27 0 8.636 8.636 0 0 1 17.27 0m17.463 0a8.635 8.635 0 1 1-17.27 0 8.635 8.635 0 0 1 17.27 0m7.676-16.312a8.636 8.636 0 1 1-17.27-.002 8.636 8.636 0 0 1 17.27.002m9.403-17.271a8.636 8.636 0 1 1-17.27-.001 8.636 8.636 0 0 1 17.27.001" fill="#FF557E"/><path d="M42.703 67.708a8.636 8.636 0 1 1-17.27-.001 8.636 8.636 0 0 1 17.27.001" fill="#FF8AAB"/><path d="M25.432 67.708a8.635 8.635 0 0 1-8.636 8.635 8.635 8.635 0 0 1-8.635-8.635 8.635 8.635 0 1 1 17.271 0m26.674-17.271a8.635 8.635 0 0 1-8.636 8.635 8.635 8.635 0 1 1 0-17.27 8.635 8.635 0 0 1 8.636 8.635" fill="#FF557E"/><path d="M34.834 50.437a8.636 8.636 0 1 1-17.27-.002 8.636 8.636 0 0 1 17.27.002" fill="#FF8AAB"/><path d="M17.564 50.437a8.636 8.636 0 1 1-17.27-.001 8.636 8.636 0 0 1 17.27.001M60.74 33.166a8.636 8.636 0 1 1-17.27 0 8.636 8.636 0 0 1 17.27 0" fill="#FF557E"/><path d="M43.47 33.166a8.635 8.635 0 1 1-17.27.002 8.635 8.635 0 0 1 17.27-.002" fill="#FF557E"/><path d="M26.2 33.166a8.635 8.635 0 1 1-17.271 0 8.635 8.635 0 0 1 8.635-8.635 8.635 8.635 0 0 1 8.636 8.635" fill="#FF557E"/><path d="M84.643 71.017a8.195 8.195 0 0 1-8.196 8.197 8.196 8.196 0 1 1 8.196-8.196" fill="#365B91"/><path d="M77.149 67.772l.577 1.17a.785.785 0 0 0 .59.428l1.29.187a.783.783 0 0 1 .434 1.336l-.934.91a.78.78 0 0 0-.225.693l.22 1.285a.782.782 0 0 1-1.136.825L76.81 74a.781.781 0 0 0-.728 0l-1.155.606a.782.782 0 0 1-1.135-.825l.219-1.285a.783.783 0 0 0-.224-.693l-.934-.91a.783.783 0 0 1 .434-1.336l1.29-.187a.786.786 0 0 0 .59-.429l.577-1.169a.783.783 0 0 1 1.404 0" fill="#0D0D0D"/><path d="M96.67 83.304a8.197 8.197 0 1 1-16.393 0 8.197 8.197 0 0 1 16.393 0" fill="#365B91"/><path d="M89.176 80.06l.577 1.168a.783.783 0 0 0 .59.43l1.29.186a.783.783 0 0 1 .434 1.337l-.934.91a.78.78 0 0 0-.225.693l.22 1.284a.782.782 0 0 1-1.136.826l-1.154-.607a.781.781 0 0 0-.728 0l-1.155.606a.783.783 0 0 1-1.136-.825l.22-1.284a.782.782 0 0 0-.225-.694l-.933-.91a.783.783 0 0 1 .434-1.336l1.29-.186a.786.786 0 0 0 .59-.43l.577-1.168a.783.783 0 0 1 1.404 0" fill="#0D0D0D"/><path d="M81.425 54.101c3.158 3.299 2.852 8.719 2.852 8.719s-5.428.07-8.587-3.229c-3.159-3.3-2.852-8.719-2.852-8.719s5.428-.07 8.587 3.229" fill="#A0CA4F"/><path d="M101.037 67.336a8.197 8.197 0 1 1-16.393 0 8.197 8.197 0 0 1 16.392 0" fill="#365B91"/><path d="M93.542 64.091l.577 1.17a.783.783 0 0 0 .59.427l1.29.188a.783.783 0 0 1 .434 1.336l-.934.91a.78.78 0 0 0-.225.693l.22 1.285a.783.783 0 0 1-1.136.825l-1.154-.606a.781.781 0 0 0-.728 0l-1.155.606a.782.782 0 0 1-1.135-.825l.22-1.285a.782.782 0 0 0-.225-.693l-.934-.91a.783.783 0 0 1 .434-1.336l1.29-.188a.785.785 0 0 0 .59-.428l.577-1.169a.783.783 0 0 1 1.404 0" fill="#0D0D0D"/><path d="M91.435 59.9c-1.892 2.193-5.33 2.327-5.33 2.327s-.372-3.421 1.519-5.613c1.89-2.192 5.33-2.326 5.33-2.326s.373 3.42-1.52 5.613M84.28 62.82s-5.427.07-8.585-3.23c-3.16-3.298-2.852-8.718-2.852-8.718L84.28 62.82z" fill="#4B862D"/><path d="M85.197 53.974v8.847" stroke="#0D0D0D" stroke-width="3" stroke-linecap="round"/></g></svg>