<svg width="65" height="102" viewBox="0 0 65 102" xmlns="http://www.w3.org/2000/svg"><title>dry-creamy-rich</title><g fill="none" fill-rule="evenodd"><path d="M40.965 90.706c-3.942-1.975-6.074-4.207-5.56-9.28.427-4.197 3.209-6.686 4.695-7.734 12.064-4.926 24.155-14.628 24.308-24.846 0 0-13.248.632-33.29.332C10.497 48.87.474 48.846.474 48.846c.155 10.358 12.575 20.279 24.8 25.036 1.466 1.177 3.805 3.634 4.2 7.543.516 5.075-1.616 7.306-5.557 9.28-7.022 3.519-16.88 3.51-17.458 4.007-1.365 1.172-.838 3.906-.488 4.103 2.217 1.255 11.71 2.54 26.535 2.541 14.796 0 24.189-1.285 26.405-2.54.35-.198.878-2.931-.487-4.105-.58-.496-10.436-.487-17.458-4.005" fill="#F4C28C"/><path d="M.472 48.845s-1.587-21.33 21.054-32.35c11.679-5.685 11.503-7.693 9.21-13.49-.634-1.607.473-3.478 1.597-2.676 5.053 3.602 12.674 9.938 13.415 15.824 1.117 8.877 1.117 9.901 3.726 9.56 2.609-.342 6.149-5.463 7.826-1.707 1.675 3.756 0 10.925 2.049 11.61 2.05.682 5.402-1.709 5.03 3.071a53.73 53.73 0 0 0-.032 7.808c.032.466-.194.9-.594 1.138-2.745 1.633-14.044 7.596-32.773 7.596-16.637 0-30.508-6.384-30.508-6.384" fill="#FFF0E0"/><path d="M48.66 26.08c-1.418-.043-1.801-1.101-2.371-5.302-1.138 3.099-3.232 6.188-9.035 9.883-8.72 5.55-12.918 4.928-12.918 4.928s8.096 2.498 19.794-4.928c1.48-.94 3.078-2.7 4.53-4.58" fill="#FCDCC3"/><path d="M64.153 51.126c-1.643.283-14.418 2.37-33.104 2.213-18.365-.152-28.303-1.81-30.263-2.172-.115.33 14.99 6.992 30.124 6.992 17.998 0 32.805-5.349 32.97-5.967-.016-.309.27-.689.273-1.066" fill="#E5AF7A"/><path d="M59.389 35.615a.998.998 0 0 1-.425-.307c-3.417 1.798-7.948 5.248-13.439 8.113-12.494 6.519-19.722 7.386-34.787 5.966-4.384-.413-8.524-1.273-10.247-1.66-.042 2.68.295 3.44.295 3.44S14.384 55.23 31.02 55.23c18.729 0 30.39-2.47 33.133-4.103.401-.24.267-4.166.234-4.631a53.732 53.732 0 0 1 .033-7.808c.372-4.78-2.981-2.39-5.031-3.073" fill="#FCDCC3"/></g></svg>