<svg width="101" height="75" viewBox="0 0 101 75" xmlns="http://www.w3.org/2000/svg"><title>frutti-oral</title><g fill="none" fill-rule="evenodd"><path d="M75.042 53.8c1.267 2.087 6.993 4.974 9.572 6.197.018.37.032.587.032.587s.228-.1.618-.282c.39.181.619.282.619.282s.013-.217.03-.587c2.58-1.223 8.306-4.11 9.573-6.198a5.75 5.75 0 1 0-9.832-5.964c-.148.244-.632.244-.78 0a5.75 5.75 0 1 0-9.832 5.964" fill="#944F9E"/><path d="M91.66 49.973c-2.089 1.266-4.976 6.993-6.199 9.572l-.587.03s.101.23.282.62c-.18.39-.282.618-.282.618s.217.014.587.032c1.223 2.579 4.11 8.305 6.198 9.572a5.75 5.75 0 0 0 5.964-9.832c-.244-.148-.244-.633 0-.781a5.75 5.75 0 0 0-5.964-9.831" fill="#B97EC4"/><path d="M78.868 70.416c2.089-1.267 4.977-6.993 6.2-9.572.37-.018.585-.032.585-.032s-.1-.228-.282-.618c.181-.39.282-.619.282-.619s-.216-.013-.586-.03c-1.222-2.58-4.11-8.306-6.198-9.573a5.75 5.75 0 1 0-5.964 9.832c.243.148.243.632 0 .78a5.75 5.75 0 0 0 5.963 9.832" fill="#B97EC4"/><path d="M95.486 65.853c-1.267-2.088-6.993-4.976-9.572-6.2-.018-.37-.031-.585-.031-.585s-.23.1-.62.28c-.39-.18-.617-.28-.617-.28s-.014.216-.032.586c-2.58 1.223-8.305 4.11-9.572 6.199a5.75 5.75 0 0 0 9.832 5.964c.148-.245.633-.245.78 0a5.748 5.748 0 0 0 7.898 1.933 5.749 5.749 0 0 0 1.934-7.897" fill="#944F9E"/><path d="M84.995 51.105v3.375m2.453 9.772l2.507 4.666m-7.369-4.666l-2.507 4.666m4.916-4.065v3.375" stroke="#B97EC4" stroke-linecap="round"/><path d="M89.563 57.532l4.666-2.507m-4.066 4.96h3.375m-12.573-2.453l-4.667-2.507m4.067 4.96H76.99" stroke="#944F9E" stroke-linecap="round"/><path d="M86.92 59.826a1.657 1.657 0 1 1-3.314 0 1.657 1.657 0 0 1 3.315 0" fill="#FFCD76"/><path d="M28.35 5.518c5.226 5.458 4.718 14.425 4.718 14.425s-8.98.116-14.206-5.343C13.636 9.143 14.144.175 14.144.175s8.98-.116 14.206 5.343" fill="#A0CA4F"/><path d="M44.912 15.114c-3.129 3.627-8.818 3.849-8.818 3.849s-.616-5.661 2.513-9.288c3.129-3.627 8.818-3.85 8.818-3.85s.616 5.662-2.513 9.289m-11.837 4.829s-8.98.116-14.207-5.343C13.643 9.141 14.15.174 14.15.174l18.925 19.77z" fill="#4B862D"/><path d="M34.59 5.308v14.637" stroke="#0D0D0D" stroke-width="3" stroke-linecap="round"/><path d="M66.314 46.873c0 15.306-12.407 27.712-27.711 27.712-15.305 0-27.712-12.406-27.712-27.711 0-15.305 12.407-27.712 27.712-27.712 15.304 0 27.71 12.408 27.71 27.712" fill="#FF8E53"/><path d="M55.814 46.873c0 15.306-12.407 27.712-27.71 27.712C12.797 74.585.39 62.179.39 46.874c0-15.305 12.407-27.712 27.712-27.712 15.304 0 27.711 12.408 27.711 27.712" fill="#FFB389"/></g></svg>