<svg width="91" height="91" viewBox="0 0 91 91" xmlns="http://www.w3.org/2000/svg"><title>light-grapefruit-oral</title><g fill="none" fill-rule="evenodd"><path d="M90.099 45.38c0 24.853-20.147 45-45 45s-45-20.147-45-45 20.147-45 45-45 45 20.147 45 45" fill="#FF9067"/><path d="M34.413 18.134l1.159 2.348a1.57 1.57 0 0 0 1.183.86l2.592.377c1.29.187 1.806 1.773.871 2.684l-1.875 1.827c-.37.362-.54.882-.452 1.392l.443 2.58c.22 1.286-1.129 2.266-2.283 1.66l-2.318-1.22a1.573 1.573 0 0 0-1.463 0l-2.318 1.22c-1.155.606-2.503-.374-2.283-1.66l.444-2.58a1.574 1.574 0 0 0-.453-1.392l-1.875-1.827c-.934-.911-.419-2.497.872-2.684l2.59-.377a1.57 1.57 0 0 0 1.186-.86l1.159-2.348c.575-1.17 2.244-1.17 2.82 0" fill="#C1422D"/><path d="M60.978 38.429a2.182 2.182 0 1 1-4.364 0 2.182 2.182 0 0 1 4.364 0m2.182-11.596a2.182 2.182 0 1 1-4.364 0 2.182 2.182 0 0 1 4.364 0m8.013 9.105a2.182 2.182 0 1 1-4.364 0 2.182 2.182 0 0 1 4.364 0" fill="#E26D49"/></g></svg>