<svg width="97" height="100" viewBox="0 0 97 100" xmlns="http://www.w3.org/2000/svg"><title>light-herbal-grassy</title><g fill="none" fill-rule="evenodd"><path d="M23.715 26.299l-.283 63.897" stroke="#4B862D" stroke-width="3" stroke-linecap="round"/><path d="M42.397 69.444C37.106 74.996 27.993 74.9 27.993 74.9s-.536-9.098 4.754-14.65c5.29-5.552 14.404-5.455 14.404-5.455s.536 9.098-4.754 14.65" fill="#A0CA4F"/><path d="M29.852 54.218a1.967 1.967 0 1 1 3.935 0 1.967 1.967 0 0 1-3.935 0" fill="#4B862D"/><path d="M42.397 42.925c-5.291 5.552-14.404 5.455-14.404 5.455s-.536-9.1 4.754-14.65c5.29-5.553 14.404-5.455 14.404-5.455s.536 9.098-4.754 14.65" fill="#A0CA4F"/><path d="M29.852 26.307a1.967 1.967 0 1 1 3.935 0 1.967 1.967 0 0 1-3.935 0" fill="#4B862D"/><path d="M4.935 69.444c5.29 5.552 14.404 5.455 14.404 5.455s.536-9.098-4.754-14.65C9.295 54.697.18 54.794.18 54.794s-.536 9.098 4.754 14.65" fill="#A0CA4F"/><path d="M17.48 54.218a1.967 1.967 0 1 0-3.935 0 1.967 1.967 0 0 0 3.934 0" fill="#4B862D"/><path d="M4.935 42.925c5.29 5.552 14.404 5.455 14.404 5.455s.536-9.1-4.754-14.65C9.295 28.177.18 28.275.18 28.275s-.536 9.098 4.754 14.65" fill="#A0CA4F"/><path d="M17.48 26.307a1.967 1.967 0 1 0-3.935 0 1.967 1.967 0 0 0 3.934 0" fill="#4B862D"/><path d="M38.92 15.113c-5.29 5.552-14.404 5.455-14.404 5.455s-.536-9.099 4.754-14.65C34.56.365 43.674.463 43.674.463s.537 9.098-4.754 14.65m-30.508 0c5.29 5.552 14.403 5.455 14.403 5.455s.537-9.099-4.754-14.65C12.771.365 3.658.463 3.658.463s-.538 9.098 4.754 14.65" fill="#A0CA4F"/><path d="M56.922 64.808c-19.186 5.184-30.232 26.06-30.232 26.06s20.058 12.47 39.243 7.285c19.186-5.184 30.233-26.06 30.233-26.06s-20.059-12.47-39.244-7.285" fill="#4B862D"/><path d="M26.675 90.86s20.059 12.47 39.244 7.284c19.185-5.184 30.232-26.06 30.232-26.06L26.675 90.86z" fill="#A0CA4F"/></g></svg>