<svg width="101" height="90" viewBox="0 0 101 90" xmlns="http://www.w3.org/2000/svg"><title>medium-perfume-oral</title><g fill="none" fill-rule="evenodd"><path d="M80.965 83.506C76.97 79.699 77.04 73.14 77.04 73.14s6.547-.385 10.541 3.42c3.995 3.808 3.926 10.366 3.926 10.366s-6.547.386-10.542-3.421M10.793 35.887c10.41 9.805 27.368 8.708 27.368 8.708s.083-16.995-10.326-26.8S.467 9.087.467 9.087s-.083 16.995 10.326 26.8" fill="#A0CA4F"/><path d="M31.014 61.394c6.816-5.977 7.147-16.745 7.147-16.745s-10.718-1.079-17.535 4.897c-6.816 5.977-7.148 16.745-7.148 16.745s10.72 1.08 17.536-4.897m7.147-16.786s.084-16.995-10.326-26.8C17.426 8.003.468 9.1.468 9.1L38.16 44.608z" fill="#4B862D"/><path d="M55.609 47.99s7.147 9.896 10.928 6.848c4.66-3.759-6.398-11.198-6.398-11.198s10.137-7.287 6.848-10.929c-4.003-4.43-11.197 6.398-11.197 6.398s-7.61-9.68-10.93-6.848c-4.414 3.767 6.398 11.198 6.398 11.198s-11.515 7.265-6.847 10.93c4.458 3.497 11.198-6.399 11.198-6.399m27.003 12.793s7.147 9.897 10.928 6.848c4.66-3.758-6.398-11.198-6.398-11.198s10.137-7.287 6.848-10.928c-4.003-4.431-11.197 6.398-11.197 6.398s-7.61-9.681-10.93-6.85c-4.414 3.768 6.398 11.199 6.398 11.199s-11.515 7.265-6.847 10.929c4.458 3.499 11.198-6.398 11.198-6.398" fill="#944F9E"/><path d="M58.807 76.684s12.072 1.811 12.537-3.024c.572-5.959-12.478-3.257-12.478-3.257s1.878-12.342-3.025-12.537c-5.967-.237-3.257 12.479-3.257 12.479s-12.24-1.33-12.537 3.024c-.395 5.789 12.479 3.256 12.479 3.256s-2.86 13.312 3.023 12.538c5.619-.741 3.258-12.479 3.258-12.479m-.001-57.732s12.072 1.81 12.537-3.024c.572-5.96-12.478-3.257-12.478-3.257S60.743.329 55.84.134c-5.966-.237-3.257 12.479-3.257 12.479s-12.239-1.33-12.537 3.024c-.394 5.789 12.479 3.256 12.479 3.256s-2.859 13.312 3.024 12.538c5.618-.741 3.257-12.48 3.257-12.48m29.106 11.115s12.072 1.811 12.536-3.024c.573-5.959-12.477-3.257-12.477-3.257s1.879-12.342-3.025-12.537c-5.966-.237-3.257 12.48-3.257 12.48s-12.24-1.33-12.536 3.023c-.396 5.79 12.478 3.256 12.478 3.256s-2.86 13.312 3.023 12.538c5.618-.74 3.258-12.479 3.258-12.479" fill="#BB89BE"/><path d="M54.284 43.576a1.416 1.416 0 1 1 2.831 0 1.416 1.416 0 0 1-2.831 0m0 29.96a1.416 1.416 0 1 1 2.831 0 1.416 1.416 0 0 1-2.831 0m.001-57.74a1.414 1.414 0 1 1 2.83 0 1.416 1.416 0 1 1-2.83 0M83.39 26.911a1.415 1.415 0 1 1 2.83 0 1.415 1.415 0 0 1-2.83 0m-2.002 29.416a1.416 1.416 0 1 1 2.832 0 1.416 1.416 0 0 1-2.832 0" fill="#FFD527"/></g></svg>