<svg width="86" height="80" viewBox="0 0 86 80" xmlns="http://www.w3.org/2000/svg"><title>nutty-oxidized-fortified-map</title><g fill="#CD5411" fill-rule="evenodd"><path d="M42.494 58.566c0 11.744-9.512 21.266-21.247 21.266C9.513 79.832 0 70.31 0 58.566 0 46.82 9.513 37.3 21.247 37.3c11.735 0 21.247 9.52 21.247 21.266m43.337 0c0 11.744-9.512 21.266-21.247 21.266-11.734 0-21.247-9.522-21.247-21.266 0-11.745 9.513-21.266 21.247-21.266 11.735 0 21.247 9.52 21.247 21.266"/><path d="M64.247 21.266c0 11.745-9.512 21.266-21.247 21.266-11.734 0-21.247-9.521-21.247-21.266C21.753 9.521 31.266 0 43 0c11.735 0 21.247 9.521 21.247 21.266"/></g></svg>