<svg width="100" height="98" viewBox="0 0 100 98" xmlns="http://www.w3.org/2000/svg"><title>off-dry-strawberry-orange</title><g fill="none" fill-rule="evenodd"><path d="M39.59 6.134c-5.086 5.313-4.592 14.04-4.592 14.04s8.74.113 13.826-5.2C53.91 9.661 53.416.934 53.416.934s-8.74-.112-13.826 5.2" fill="#A0CA4F"/><path d="M23.471 15.474c3.045 3.53 8.583 3.746 8.583 3.746s.6-5.51-2.447-9.04c-3.045-3.53-8.582-3.745-8.582-3.745s-.599 5.509 2.446 9.039m11.521 4.7s8.74.113 13.826-5.2C53.904 9.662 53.41.934 53.41.934l-18.418 19.24z" fill="#4B862D"/><path d="M33.517 5.93v14.245" stroke="#0D0D0D" stroke-width="3" stroke-linecap="round"/><path d="M33.428 18.959h-.07C-9.123 18.99.077 47.453 4.212 61.743c5.152 17.8 19.067 34.549 29.146 34.626v.003l.035-.001h.035v-.002c10.079-.077 23.995-16.826 29.146-34.626 4.135-14.29 13.335-42.752-29.146-42.784" fill="#FF6133"/><path d="M59.003 46.45c0 1.828-.91 2.419-2.03 2.419-1.121 0-2.03-.591-2.03-2.42 0-1.826 2.03-4.198 2.03-4.198s2.03 2.372 2.03 4.199M53.22 59.463c0 1.828-.91 2.42-2.03 2.42-1.122 0-2.03-.592-2.03-2.42 0-1.828 2.03-4.199 2.03-4.199s2.03 2.371 2.03 4.2m-11.79-.001c0 1.828-.91 2.42-2.03 2.42-1.122 0-2.03-.592-2.03-2.42 0-1.828 2.03-4.199 2.03-4.199s2.03 2.371 2.03 4.2m-11.791-.001c0 1.828-.909 2.42-2.03 2.42-1.121 0-2.03-.592-2.03-2.42 0-1.828 2.03-4.199 2.03-4.199s2.03 2.371 2.03 4.2m17.574 13.013c0 1.828-.91 2.418-2.03 2.418-1.121 0-2.03-.59-2.03-2.418 0-1.828 2.03-4.199 2.03-4.199s2.03 2.371 2.03 4.199m-11.79 0c0 1.828-.91 2.418-2.03 2.418-1.121 0-2.03-.59-2.03-2.418 0-1.828 2.03-4.199 2.03-4.199s2.03 2.371 2.03 4.199M41.43 85.49c0 1.828-.91 2.419-2.03 2.419-1.122 0-2.03-.591-2.03-2.418 0-1.828 2.03-4.2 2.03-4.2s2.03 2.372 2.03 4.2m-11.791-.001c0 1.828-.909 2.419-2.03 2.419-1.121 0-2.03-.591-2.03-2.418 0-1.828 2.03-4.2 2.03-4.2s2.03 2.372 2.03 4.2m-6.006-13.014c0 1.828-.91 2.418-2.03 2.418-1.121 0-2.03-.59-2.03-2.418 0-1.828 2.03-4.199 2.03-4.199s2.03 2.371 2.03 4.199m-5.784-13.014c0 1.828-.909 2.42-2.03 2.42-1.121 0-2.03-.592-2.03-2.42 0-1.828 2.03-4.199 2.03-4.199s2.03 2.371 2.03 4.2M53.22 33.607c0 1.828-.91 2.419-2.03 2.419-1.122 0-2.03-.591-2.03-2.42 0-1.826 2.03-4.198 2.03-4.198s2.03 2.372 2.03 4.199m-11.79 0c0 1.828-.91 2.419-2.03 2.419-1.122 0-2.03-.591-2.03-2.42 0-1.826 2.03-4.198 2.03-4.198s2.03 2.372 2.03 4.199m-11.791 0c0 1.828-.909 2.419-2.03 2.419-1.121 0-2.03-.591-2.03-2.42 0-1.826 2.03-4.198 2.03-4.198s2.03 2.372 2.03 4.199m-11.79 0c0 1.828-.909 2.419-2.03 2.419-1.121 0-2.03-.591-2.03-2.42 0-1.826 2.03-4.198 2.03-4.198s2.03 2.372 2.03 4.199M47.213 46.45c0 1.828-.91 2.419-2.03 2.419-1.121 0-2.03-.591-2.03-2.42 0-1.826 2.03-4.198 2.03-4.198s2.03 2.372 2.03 4.199m-11.79 0c0 1.828-.91 2.419-2.03 2.419-1.121 0-2.03-.591-2.03-2.42 0-1.826 2.03-4.198 2.03-4.198s2.03 2.372 2.03 4.199m-11.79 0c0 1.828-.91 2.419-2.03 2.419-1.121 0-2.03-.591-2.03-2.42 0-1.826 2.03-4.198 2.03-4.198s2.03 2.372 2.03 4.199m-11.79 0c0 1.828-.91 2.419-2.03 2.419-1.121 0-2.03-.591-2.03-2.42 0-1.826 2.03-4.198 2.03-4.198s2.03 2.372 2.03 4.199" fill="#FFCD76"/><path d="M99.82 78.275c0 10.77-8.73 19.5-19.5 19.5s-19.5-8.73-19.5-19.5 8.73-19.5 19.5-19.5 19.5 8.73 19.5 19.5" fill="#FF9242"/><path d="M97.687 78.275c0 9.592-7.775 17.367-17.367 17.367-9.59 0-17.367-7.775-17.367-17.367S70.73 60.908 80.32 60.908c9.592 0 17.367 7.775 17.367 17.367" fill="#FFF"/><path d="M63.785 77.96c.083-1.988.339-3.943 1.181-5.783.61-1.33 1.395-1.667 2.657-.956 2.852 1.609 5.68 3.263 8.518 4.898.6.346.99.938.9 1.549-.093.62-.665 1.038-1.347 1.16-3.254.58-6.505 1.172-9.76 1.738-1.171.204-1.993-.431-2.143-1.616-.041-.325-.006-.66-.006-.99m16.896-16.164c.945-.035 2.017.103 3.065.394 1.383.384 1.784 1.172 1.294 2.52-1.056 2.908-2.127 5.81-3.169 8.724-.28.784-.72 1.567-1.54 1.56-.809-.004-1.27-.761-1.55-1.555-1.047-2.944-2.138-5.872-3.19-8.813-.431-1.21.029-2.04 1.29-2.393.433-.122.88-.187 1.322-.272.77-.15 1.55-.18 2.478-.165m16.188 16.129c.016 2.45-.538 2.93-3.094 2.482-2.721-.476-5.439-.973-8.162-1.44-.875-.15-1.808-.444-1.943-1.33-.134-.88.657-1.42 1.445-1.858 2.44-1.36 4.841-2.79 7.258-4.19.182-.106.36-.22.546-.315 1.412-.736 2.224-.44 2.835 1.049.714 1.74 1.14 3.542 1.115 5.602M64.47 83.1c-.003-1.083.385-1.604 1.366-1.78 3.312-.595 6.63-1.158 9.947-1.725.649-.111 1.279.13 1.578.642.31.531.089 1.198-.297 1.682-.938 1.173-1.925 2.307-2.886 3.462-1.116 1.339-2.21 2.698-3.345 4.021-1.007 1.173-1.978 1.164-3.031.008-1.5-1.648-2.587-3.533-3.206-5.679-.074-.257-.105-.527-.125-.631m16.289 4.944c0-1.533.004-3.067-.004-4.6-.004-.804.201-1.607.971-1.868.725-.246 1.36.245 1.854.84 1.925 2.307 3.87 4.6 5.797 6.904 1.28 1.531 1.147 2.374-.563 3.383-1.669.984-3.44 1.713-5.378 1.972-2.016.27-2.673-.294-2.677-2.3-.002-1.445 0-2.888 0-4.33m2.795-12.133c-1.112-.042-1.6-.878-1.193-2.037.818-2.325 1.68-4.636 2.521-6.953.276-.763.523-1.538.825-2.291.48-1.195 1.392-1.552 2.544-.959 2.057 1.06 3.825 2.48 5.192 4.368.812 1.121.676 2.003-.52 2.712-2.82 1.669-5.666 3.295-8.5 4.938-.296.171-.608.264-.869.222M79.88 88.108c0 1.565.017 3.129-.003 4.694-.02 1.503-.663 2.083-2.151 1.936-2.323-.23-4.441-1.048-6.366-2.347-1.075-.724-1.213-1.667-.37-2.692 2.084-2.531 4.2-5.035 6.313-7.541.44-.521 1.075-.813 1.689-.567.602.24.889.862.889 1.553v4.964m-2.76-12.196c-.353.042-.673-.111-.992-.295-2.737-1.576-5.486-3.132-8.212-4.726-1.425-.833-1.56-1.744-.555-3.024 1.356-1.727 2.965-3.138 4.941-4.126 1.228-.614 2.158-.386 2.632.866a372.064 372.064 0 0 1 3.382 9.331c.404 1.157-.134 1.971-1.196 1.974m6.139 4.959c-.016-.816.662-1.412 1.541-1.266 3.38.558 6.756 1.148 10.122 1.794 1.086.21 1.517 1.043 1.22 2.126-.643 2.337-1.854 4.363-3.523 6.106-.874.915-1.809.89-2.638-.08-2.128-2.492-4.214-5.02-6.328-7.525a1.627 1.627 0 0 1-.395-1.154m-1.027-2.488a1.895 1.895 0 0 1-1.896 1.883c-1.054.006-1.95-.916-1.914-1.972.033-1.015.924-1.856 1.955-1.846.995.009 1.872.923 1.855 1.935" fill="#FFC900"/></g></svg>