<svg width="101" height="93" viewBox="0 0 101 93" xmlns="http://www.w3.org/2000/svg"><title>off-dry-raspberry-cherry</title><g fill="none" fill-rule="evenodd"><path d="M42.936 6.878c-6.3 6.583-5.689 17.395-5.689 17.395s10.83.14 17.13-6.442C60.68 11.25 60.067.436 60.067.436s-10.829-.14-17.13 6.442" fill="#A0CA4F"/><path d="M22.966 18.45c3.773 4.374 10.633 4.64 10.633 4.64s.742-6.824-3.03-11.198C26.796 7.518 19.935 7.25 19.935 7.25s-.742 6.825 3.03 11.199m14.275 5.824s10.828.14 17.13-6.442C60.67 11.248 60.06.436 60.06.436L37.24 24.273z" fill="#4B862D"/><path d="M35.412 6.625v17.65" stroke="#0D0D0D" stroke-width="3" stroke-linecap="round"/><path d="M35.329 83.764a8.635 8.635 0 0 1-8.635 8.635 8.635 8.635 0 1 1 0-17.27 8.635 8.635 0 0 1 8.635 8.635" fill="#FF557E"/><path d="M52.792 83.764a8.635 8.635 0 0 1-8.636 8.635 8.635 8.635 0 1 1 0-17.27 8.635 8.635 0 0 1 8.636 8.635m7.676-16.312a8.635 8.635 0 1 1-8.635-8.635 8.635 8.635 0 0 1 8.635 8.635m9.402-17.27a8.636 8.636 0 1 1-17.27-.002 8.636 8.636 0 0 1 17.27.002" fill="#FF557E"/><path d="M43.197 67.452a8.636 8.636 0 1 1-17.27 0 8.636 8.636 0 0 1 17.27 0" fill="#FF8AAB"/><path d="M25.926 67.452a8.635 8.635 0 1 1-17.27 0 8.635 8.635 0 0 1 8.634-8.635 8.635 8.635 0 0 1 8.636 8.635M52.6 50.182a8.635 8.635 0 0 1-8.636 8.635 8.635 8.635 0 0 1-8.635-8.635 8.635 8.635 0 1 1 17.271 0" fill="#FF557E"/><path d="M35.329 50.182a8.635 8.635 0 0 1-8.635 8.635 8.635 8.635 0 1 1 8.635-8.635" fill="#FF8AAB"/><path d="M18.058 50.182a8.636 8.636 0 1 1-17.27-.002 8.636 8.636 0 0 1 17.27.002M61.235 32.91a8.635 8.635 0 0 1-8.635 8.636 8.635 8.635 0 1 1 0-17.27 8.635 8.635 0 0 1 8.635 8.635" fill="#FF557E"/><path d="M43.964 32.91a8.636 8.636 0 1 1-17.27-.002 8.636 8.636 0 0 1 17.27.003" fill="#FF557E"/><path d="M26.694 32.91a8.635 8.635 0 0 1-8.636 8.636 8.635 8.635 0 1 1 0-17.27 8.635 8.635 0 0 1 8.636 8.635" fill="#FF557E"/><path d="M93.54 46.036c-2.975-3.52-8.445-3.79-8.445-3.79s-.648 5.44 2.327 8.96c2.974 3.52 8.445 3.789 8.445 3.789s.648-5.44-2.327-8.96" fill="#A0CA4F"/><path d="M85.096 42.243s-.648 5.439 2.326 8.959c2.976 3.52 8.446 3.789 8.446 3.789L85.096 42.243z" fill="#4B862D"/><path d="M83.824 42.887L83.71 68.47" stroke="#0D0D0D" stroke-width="3" stroke-linecap="round"/><path d="M80.233 66.322a6.664 6.664 0 0 0 7.327 0c5.74-3.769 13.228-.384 13.228 10.543 0 7.893-7.56 15.534-16.885 15.534h-.014c-9.324 0-16.884-7.64-16.884-15.534 0-10.927 7.488-14.312 13.228-10.543" fill="#A21948"/><path d="M89 68.099c0-.996-.664-1.63-1.562-1.917-.043.027-.088.046-.132.075a6.666 6.666 0 0 1-7.328 0c-.072-.048-.148-.081-.22-.127-.984.26-1.73.912-1.73 1.969 0 1.378 2.455 2.713 5.484 2.713h.004c3.028 0 5.483-1.335 5.483-2.713" fill="#6D0C34"/></g></svg>