<svg width="101" height="72" viewBox="0 0 101 72" xmlns="http://www.w3.org/2000/svg"><title>off-dry-flowar</title><g fill="none" fill-rule="evenodd"><path d="M7.854 41.625c7.621-7.178 20.036-6.375 20.036-6.375s.061 12.442-7.559 19.62C12.711 62.048.295 61.245.295 61.245s-.06-12.442 7.56-19.62" fill="#A0CA4F"/><path d="M22.423 22.952c4.99 4.375 5.233 12.258 5.233 12.258s-7.848.79-12.837-3.585C9.828 27.25 9.586 19.367 9.586 19.367s7.847-.79 12.837 3.585m5.467 12.289s.061 12.441-7.56 19.62C12.71 62.038.297 61.235.297 61.235L27.89 35.241z" fill="#4B862D"/><path d="M39.127 21.773C42.183 26.81 56 33.778 62.224 36.73c.043.893.076 1.415.076 1.415s.551-.244 1.492-.68c.941.436 1.493.68 1.493.68s.032-.522.076-1.415c6.223-2.952 20.04-9.92 23.097-14.957 3.973-6.551 1.884-15.083-4.667-19.057C77.241-1.258 68.71.83 64.734 7.382c-.357.59-1.526.59-1.884 0C58.876.83 50.344-1.258 43.793 2.716c-6.55 3.974-8.64 12.506-4.666 19.057" fill="#944F9E"/><path d="M79.225 12.539c-5.038 3.056-12.006 16.874-14.959 23.097-.892.043-1.415.076-1.415.076s.245.551.68 1.493c-.434.941-.68 1.492-.68 1.492s.523.033 1.415.076c2.953 6.224 9.92 20.041 14.959 23.097 6.55 3.974 15.083 1.885 19.056-4.666 3.974-6.551 1.884-15.083-4.666-19.057-.59-.358-.59-1.527 0-1.885 6.55-3.973 8.64-12.506 4.666-19.056-3.974-6.551-12.506-8.641-19.056-4.667" fill="#B97EC4"/><path d="M48.36 61.87c5.04-3.056 12.007-16.874 14.96-23.097a106.03 106.03 0 0 0 1.415-.076s-.245-.551-.68-1.493c.435-.941.68-1.492.68-1.492s-.523-.033-1.415-.076c-2.953-6.224-9.92-20.041-14.958-23.097-6.551-3.974-15.083-1.885-19.057 4.666-3.974 6.551-1.884 15.083 4.666 19.058.59.357.59 1.526 0 1.884-6.55 3.973-8.64 12.506-4.666 19.056 3.974 6.552 12.506 8.641 19.057 4.667" fill="#B97EC4"/><path d="M88.458 50.858C85.402 45.82 71.584 38.853 65.36 35.9c-.043-.892-.076-1.415-.076-1.415s-.551.245-1.493.68c-.941-.435-1.492-.68-1.492-.68s-.032.523-.076 1.415C56 38.853 42.184 45.82 39.127 50.858c-3.974 6.551-1.884 15.083 4.666 19.057C50.345 73.89 58.876 71.8 62.85 65.25c.357-.59 1.526-.59 1.884 0 3.973 6.55 12.506 8.64 19.057 4.666 6.55-3.974 8.64-12.506 4.666-19.057" fill="#944F9E"/><path d="M63.143 15.273v8.145m5.919 23.578l6.049 11.26M57.33 46.996l-6.049 11.26m11.862-9.811v8.145" stroke="#B97EC4" stroke-linecap="round"/><path d="M74.166 30.781l11.259-6.049M75.614 36.7h8.145M53.42 30.781l-11.26-6.049M51.971 36.7h-8.145" stroke="#944F9E" stroke-linecap="round"/><path d="M67.79 36.315a4 4 0 1 1-7.997 0 4 4 0 0 1 7.998 0" fill="#FFCD76"/></g></svg>