<svg width="102" height="82" viewBox="0 0 102 82" xmlns="http://www.w3.org/2000/svg"><title>off-dry-apricots-peaches</title><g fill="none" fill-rule="evenodd"><path d="M85.377 48.04c2.544 2.657 2.297 7.02 2.297 7.02s-4.37.057-6.914-2.6c-2.544-2.657-2.297-7.022-2.297-7.022s4.371-.056 6.914 2.601" fill="#A0CA4F"/><path d="M93.439 52.71c-1.523 1.766-4.292 1.873-4.292 1.873s-.3-2.755 1.223-4.52c1.523-1.766 4.292-1.874 4.292-1.874s.299 2.755-1.223 4.52m-5.762 2.351s-4.37.057-6.914-2.6c-2.544-2.657-2.296-7.022-2.296-7.022l9.21 9.622z" fill="#4B862D"/><path d="M88.414 47.937v7.124" stroke="#0D0D0D" stroke-width="3" stroke-linecap="round"/><path d="M96.39 68.038c0 7.066-4.675 12.794-10.442 12.794-5.768 0-10.444-5.728-10.444-12.794 0-7.066 4.676-12.794 10.444-12.794 5.767 0 10.442 5.728 10.442 12.794" fill="#FF9408"/><path d="M101.704 67.977c0 7.336-4.771 13.283-10.656 13.283-5.886 0-10.657-5.947-10.657-13.283 0-7.335 4.77-13.283 10.656-13.283 5.886 0 10.657 5.948 10.657 13.283" fill="#FDBE00"/><path d="M31.025 6.355C36.692 12.275 36.142 22 36.142 22s-9.74.126-15.407-5.794C15.067 10.286 15.618.56 15.618.56s9.74-.126 15.407 5.794" fill="#A0CA4F"/><path d="M48.987 16.762c-3.394 3.934-9.563 4.174-9.563 4.174s-.668-6.138 2.725-10.072c3.394-3.935 9.564-4.175 9.564-4.175s.668 6.14-2.726 10.073M36.15 22s-9.74.126-15.407-5.794C15.075 10.285 15.626.56 15.626.56L36.15 22z" fill="#4B862D"/><path d="M37.793 6.127v15.874" stroke="#0D0D0D" stroke-width="3" stroke-linecap="round"/><path d="M72.198 51.206c0 16.599-13.456 30.054-30.054 30.054S12.09 67.804 12.09 51.206s13.455-30.054 30.053-30.054 30.054 13.456 30.054 30.054" fill="#FF8E53"/><path d="M60.81 51.206c0 16.599-13.455 30.054-30.053 30.054S.704 67.804.704 51.206s13.455-30.054 30.053-30.054S60.81 34.608 60.81 51.206" fill="#FFB389"/></g></svg>