<svg width="63" height="96" viewBox="0 0 63 96" xmlns="http://www.w3.org/2000/svg"><title>off-dry-almond</title><g fill="none" fill-rule="evenodd"><path d="M61.587 49.515C56.965 21.575 40 .751 31.455.751c-8.566 0-25.522 20.831-30.137 48.78A88.306 88.306 0 0 0 .176 61.294c.264 6.017 1.795 11.643 4.281 16.538 5.446 9.432 15.494 17.92 26.998 17.92 9.19 0 17.454-5.062 23.184-11.905 4.717-6.02 7.715-13.886 8.094-22.553a88.047 88.047 0 0 0-1.146-11.779" fill="#EAAE57"/><path d="M34.426 16.702c.172-.504-.063-1.064-.526-1.252-.46-.185-.977.069-1.15.573-4.223 12.376-6.55 28.139-6.55 44.387 0 12.53 1.366 24.634 3.938 35.273.494.032.988.069 1.488.069.127 0 .252-.011.378-.013-2.62-10.61-4.016-22.745-4.016-35.33 0-16.021 2.286-31.543 6.438-43.707M12.583 43.614c.134-.518-.144-1.055-.619-1.2-.474-.144-.968.156-1.102.674-2.259 8.762-3.455 18.74-3.455 28.85 0 3.597.15 7.154.443 10.646.64.82 1.315 1.62 2.023 2.396a124.618 124.618 0 0 1-.678-13.042c0-9.936 1.171-19.73 3.388-28.324M47.9 30.956c-.07-.532-.521-.902-1.011-.826-.488.076-.828.569-.758 1.102 1.429 10.888 2.216 25.014 2.216 39.78 0 6.627-.164 13.075-.471 19.254a35.418 35.418 0 0 0 1.865-1.416c.26-5.746.393-11.721.393-17.838 0-14.855-.793-29.08-2.233-40.056" fill="#FEC065"/></g></svg>