<svg width="101" height="91" viewBox="0 0 101 91" xmlns="http://www.w3.org/2000/svg"><title>raspberry-black-cherry</title><g fill="none" fill-rule="evenodd"><path d="M86.995 47.128c-3.232 3.377-2.918 8.924-2.918 8.924s5.555.072 8.788-3.305c3.232-3.377 2.918-8.924 2.918-8.924s-5.555-.071-8.788 3.305" fill="#A0CA4F"/><path d="M76.75 53.064c1.936 2.244 5.455 2.38 5.455 2.38s.38-3.5-1.555-5.744c-1.935-2.244-5.455-2.381-5.455-2.381s-.381 3.5 1.555 5.745m7.322 2.988s5.556.072 8.788-3.305c3.233-3.377 2.92-8.924 2.92-8.924L84.071 56.052z" fill="#4B862D"/><path d="M83.135 46.998v9.055" stroke="#0D0D0D" stroke-width="3" stroke-linecap="round"/><path d="M83.093 86.57a4.43 4.43 0 1 1-8.86.001 4.43 4.43 0 0 1 8.86 0m8.957-.001a4.43 4.43 0 1 1-8.858.001 4.43 4.43 0 0 1 8.859 0m3.938-8.368a4.43 4.43 0 1 1-8.86 0 4.43 4.43 0 0 1 8.86 0m4.823-8.86a4.43 4.43 0 1 1-8.859 0 4.43 4.43 0 0 1 8.86 0" fill="#FF557E"/><path d="M87.129 78.203a4.43 4.43 0 1 1-8.86 0 4.43 4.43 0 0 1 8.86 0" fill="#FF8AAB"/><path d="M78.268 78.203a4.43 4.43 0 1 1-8.859 0 4.43 4.43 0 0 1 8.86 0m13.684-8.86a4.43 4.43 0 1 1-8.86 0 4.43 4.43 0 0 1 8.86 0" fill="#FF557E"/><path d="M83.093 69.343a4.43 4.43 0 1 1-8.86 0 4.43 4.43 0 0 1 8.86 0" fill="#FF8AAB"/><path d="M74.232 69.343a4.43 4.43 0 1 1-8.859 0 4.43 4.43 0 0 1 8.86 0m22.149-8.86a4.43 4.43 0 1 1-8.86 0 4.43 4.43 0 0 1 8.86 0" fill="#FF557E"/><path d="M87.522 60.483a4.43 4.43 0 1 1-8.86 0 4.43 4.43 0 0 1 8.86 0" fill="#FF557E"/><path d="M78.662 60.483a4.43 4.43 0 1 1-8.86 0 4.43 4.43 0 0 1 8.86 0" fill="#FF557E"/><path d="M48.5 7.68C43.154 1.353 33.323.87 33.323.87s-1.164 9.775 4.181 16.102c5.346 6.326 15.178 6.809 15.178 6.809S53.846 14.006 48.5 7.68" fill="#A0CA4F"/><path d="M33.324.863s-1.165 9.774 4.182 16.101c5.345 6.326 15.177 6.81 15.177 6.81L33.324.863z" fill="#4B862D"/><path d="M31.038 2.02L30.834 48" stroke="#0D0D0D" stroke-width="3" stroke-linecap="round"/><path d="M24.584 44.137a11.975 11.975 0 0 0 13.168 0c10.316-6.774 23.77-.69 23.77 18.947C61.523 77.268 47.939 91 31.18 91h-.024C14.398 91 .813 77.268.813 63.084c0-19.637 13.456-25.72 23.77-18.947" fill="#A21948"/><path d="M40.34 47.329c0-1.789-1.193-2.928-2.806-3.446-.078.05-.16.084-.238.135a11.973 11.973 0 0 1-13.167 0c-.13-.085-.268-.145-.4-.227-1.764.469-3.106 1.639-3.106 3.538 0 2.478 4.412 4.876 9.854 4.876h.008c5.442 0 9.854-2.398 9.854-4.876" fill="#6D0C34"/></g></svg>