<svg width="72" height="96" viewBox="0 0 72 96" xmlns="http://www.w3.org/2000/svg" xmlns:xlink="http://www.w3.org/1999/xlink"><title>raspberry-icon</title><defs><path id="a" d="M.783.154h23.816v24.793H.783V.154z"/><path id="c" d="M24.59.154H.792v24.793h23.8V.154z"/><path id="e" d="M18 17.963H0V0h18z"/><path id="g" d="M18.2 17.963H.2V0h18v17.963z"/></defs><g fill="none" fill-rule="evenodd"><g transform="translate(37.2 .044)"><mask id="b" fill="#fff"><use xlink:href="#a"/></mask><path d="M6.729 6.855C.16 13.7.799 24.947.799 24.947s11.287.145 17.854-6.7C25.221 11.4 24.583.154 24.583.154S13.295.008 6.728 6.854" fill="#A0CA4F" mask="url(#b)"/></g><path d="M23.115 18.933c3.932 4.55 11.082 4.827 11.082 4.827s.774-7.099-3.159-11.648c-3.932-4.55-11.082-4.827-11.082-4.827s-.774 7.099 3.159 11.648" fill="#4B862D"/><g transform="translate(37.2 .044)"><mask id="d" fill="#fff"><use xlink:href="#c"/></mask><path d="M.791 24.947s11.286.146 17.854-6.7C25.212 11.399 24.574.154 24.574.154L.79 24.947z" fill="#4B862D" mask="url(#d)"/></g><path d="M36.087 6.635v18.357" stroke="#0D0D0D" stroke-width="3.593" stroke-linecap="round"/><g transform="translate(18 77.883)"><mask id="f" fill="#fff"><use xlink:href="#e"/></mask><path d="M18 8.982c0 4.96-4.03 8.981-9 8.981s-9-4.021-9-8.981C0 4.02 4.03 0 9 0s9 4.02 9 8.982" fill="#FF557E" mask="url(#f)"/></g><g transform="translate(36 77.883)"><mask id="h" fill="#fff"><use xlink:href="#g"/></mask><path d="M18.2 8.982c0 4.96-4.03 8.981-9 8.981s-9-4.021-9-8.981C.2 4.02 4.23 0 9.2 0s9 4.02 9 8.982" fill="#FF557E" mask="url(#h)"/></g><path d="M62.2 69.9c0 4.96-4.03 8.98-9 8.98s-9-4.02-9-8.98c0-4.962 4.03-8.982 9-8.982s9 4.02 9 8.981M72 51.936c0 4.962-4.03 8.982-9 8.982s-9-4.02-9-8.982c0-4.96 4.03-8.981 9-8.981s9 4.02 9 8.981" fill="#FF557E"/><path d="M44.2 69.9c0 4.96-4.03 8.98-9 8.98s-9-4.02-9-8.98c0-4.962 4.03-8.982 9-8.982s9 4.02 9 8.981" fill="#FF8AAB"/><path d="M26.2 69.9c0 4.96-4.03 8.98-9 8.98s-9-4.02-9-8.98c0-4.962 4.03-8.982 9-8.982s9 4.02 9 8.981M54 51.936c0 4.962-4.03 8.982-9 8.982s-9-4.02-9-8.982c0-4.96 4.03-8.981 9-8.981s9 4.02 9 8.981" fill="#FF557E"/><path d="M36 51.936c0 4.962-4.03 8.982-9 8.982s-9-4.02-9-8.982c0-4.96 4.03-8.981 9-8.981s9 4.02 9 8.981" fill="#FF8AAB"/><path d="M18 51.936c0 4.962-4.03 8.982-9 8.982s-9-4.02-9-8.982c0-4.96 4.03-8.981 9-8.981s9 4.02 9 8.981m45-17.962c0 4.96-4.03 8.981-9 8.981s-9-4.02-9-8.981c0-4.962 4.03-8.982 9-8.982s9 4.02 9 8.982m-18 0c0 4.96-4.03 8.981-9 8.981s-9-4.02-9-8.981c0-4.962 4.03-8.982 9-8.982s9 4.02 9 8.982m-18 0c0 4.96-4.03 8.981-9 8.981s-9-4.02-9-8.981c0-4.962 4.03-8.982 9-8.982s9 4.02 9 8.982" fill="#FF557E"/></g></svg>