<svg width="96" height="102" viewBox="0 0 96 102" xmlns="http://www.w3.org/2000/svg"><title>rich-creamy-nutty</title><g fill="none" fill-rule="evenodd"><path d="M40.86 90.717c-3.941-1.975-6.073-4.206-5.56-9.28.427-4.196 3.209-6.686 4.696-7.734 12.063-4.926 24.154-14.627 24.307-24.846 0 0-13.248.632-33.29.333-20.621-.31-30.645-.333-30.645-.333.155 10.358 12.576 20.279 24.8 25.036 1.466 1.179 3.805 3.635 4.202 7.544.515 5.074-1.617 7.305-5.56 9.28-7.021 3.518-16.878 3.51-17.457 4.006-1.365 1.173-.837 3.906-.487 4.104 2.217 1.256 11.71 2.54 26.534 2.54 14.797 0 24.189-1.284 26.405-2.54.35-.198.878-2.931-.487-4.104-.578-.496-10.436-.488-17.457-4.006" fill="#F4C28C"/><path d="M.368 48.857s-1.587-21.33 21.054-32.351c11.678-5.685 11.503-7.693 9.21-13.49-.634-1.606.472-3.477 1.597-2.675 5.052 3.6 12.673 9.938 13.414 15.824 1.119 8.877 1.119 9.9 3.727 9.56 2.608-.342 6.148-5.463 7.825-1.707 1.677 3.755 0 10.925 2.05 11.608 2.049.683 5.403-1.707 5.03 3.073a53.88 53.88 0 0 0-.033 7.808 1.21 1.21 0 0 1-.594 1.137c-2.744 1.634-14.044 7.597-32.772 7.597-16.637 0-30.508-6.384-30.508-6.384" fill="#FFF0E0"/><path d="M48.555 26.092c-1.418-.044-1.802-1.102-2.37-5.303-1.138 3.099-3.232 6.188-9.036 9.883-8.72 5.55-12.918 4.929-12.918 4.929s8.096 2.497 19.794-4.93c1.481-.94 3.078-2.698 4.53-4.58" fill="#FCDCC3"/><path d="M64.05 51.138c-1.645.283-14.42 2.37-33.105 2.214C12.58 53.199 2.642 51.54.681 51.179c-.114.33 14.99 6.992 30.124 6.992 17.998 0 32.806-5.35 32.971-5.967-.017-.31.27-.69.273-1.066" fill="#E5AF7A"/><path d="M59.285 35.626a.998.998 0 0 1-.425-.307c-3.417 1.798-7.949 5.248-13.44 8.113-12.494 6.519-19.722 7.386-34.787 5.966-4.383-.413-8.523-1.273-10.245-1.66-.044 2.68.292 3.44.292 3.44s13.598 4.063 30.236 4.063c18.728 0 30.39-2.47 33.133-4.103.4-.24.266-4.166.232-4.631a54.03 54.03 0 0 1 .033-7.808c.374-4.78-2.98-2.39-5.03-3.073" fill="#FCDCC3"/><path d="M95.712 83.565c-.31 12.844-13.5 17.348-14.88 17.784a.379.379 0 0 1-.234 0c-1.4-.425-14.88-4.871-14.88-17.784 0-8.464 6.714-15.326 14.997-15.326 8.282 0 15.202 6.864 14.997 15.326" fill="#B15F00"/><path d="M93.165 84.602c-.259 11.752-11.208 15.873-12.354 16.272a.297.297 0 0 1-.193.001c-1.162-.39-12.353-4.458-12.353-16.273 0-7.745 5.574-14.023 12.45-14.023 6.876 0 12.62 6.281 12.45 14.023z" stroke="#D29F5B"/><path d="M89.951 84.306c-.19 11.752-8.313 15.873-9.163 16.272a.169.169 0 0 1-.144.001c-.863-.39-9.165-4.458-9.165-16.273 0-7.745 4.136-14.023 9.237-14.023 5.1 0 9.362 6.281 9.236 14.023z" stroke="#D29F5B"/><path d="M71.48 71.466c2.016 1.284 5.394 2.126 9.22 2.126 3.849 0 7.242-.851 9.255-2.146a14.963 14.963 0 0 0-9.256-3.222 14.73 14.73 0 0 0-9.22 3.242" fill="#D29F5B"/></g></svg>