<svg width="15" height="16" viewBox="0 0 15 16" xmlns="http://www.w3.org/2000/svg" xmlns:xlink="http://www.w3.org/1999/xlink"><title>search-icon</title><defs><path id="a" d="M0 .323h12.5v12.63H0z"/></defs><g fill="none" fill-rule="evenodd"><path d="M-9-8h32v32H-9z"/><g transform="translate(0 .52)"><mask id="b" fill="#fff"><use xlink:href="#a"/></mask><path d="M6.25.322C2.8.322 0 3.15 0 6.638c0 3.49 2.8 6.316 6.25 6.316 3.452 0 6.25-2.827 6.25-6.316C12.5 3.15 9.702.322 6.25.322m0 1.263c2.757 0 5 2.266 5 5.053 0 2.786-2.243 5.053-5 5.053s-5-2.266-5-5.052c0-2.787 2.243-5.053 5-5.053" fill="#989EAE" mask="url(#b)"/></g><path d="M14.695 15.153l-.357.355a.577.577 0 0 1-.824-.006L9.76 11.658l1.185-1.183L14.7 14.32a.596.596 0 0 1-.005.833" fill="#989EAE"/></g></svg>