<svg width="111" height="64" viewBox="0 0 111 64" xmlns="http://www.w3.org/2000/svg"><title>smoke-tobacco-leather</title><g fill="none" fill-rule="evenodd"><g fill="#505B63"><path d="M9.432 58.468c1.163-2.044 1.658-3.096 2.312-4.037 5.441-7.831 5.488-7.853.181-15.251-2.12-2.956-1.612-5.533.594-8.115 4.823-5.645 4.799-7.51.016-13.455-.915-1.136-1.696-2.38-2.981-4.2-.15 2.89 1.161 4.345 2.459 5.84 3.59 4.139 3.608 6.006.178 10.107-4.128 4.935-4.098 7.388.155 12.564 3.172 3.86 3.163 5.944-.178 9.818-1.368 1.587-2.757 3.113-2.736 6.729M6.617 46.614c.777-2.988-1.048-4.44-2.46-6.084-3.325-3.871-3.344-6.09-.132-9.786 4.1-4.718 4.116-7.85.148-12.55-1.125-1.331-2.107-2.786-3.501-4.648-.126 3.14 1.592 4.768 3.112 6.474 2.612 2.93 2.589 5.769.035 8.793-4.867 5.763-4.802 7.735-.066 13.52.998 1.22 1.767 2.626 2.864 4.28"/><path d="M24.4 24.356c-.737 1.358-.986 2.283-1.581 2.839-5.827 5.456-6.01 10.708-.227 16.522 2.327 2.337.995 5.347-1.086 7.672-1.476 1.649-3.216 3.144-3.137 6.215 2.033-2.542 4.038-4.581 5.477-6.961 1.989-3.29 1.47-6.48-1.177-9.43-4.395-4.894-4.322-6.506.008-11.41 1.169-1.324 2.577-2.566 1.724-5.447"/></g><path d="M47.591 31.255c0-8.002-4.064-14.88-9.182-19a.602.602 0 0 1-.09-.846l4.238-5.228a.56.56 0 0 1 .64-.172A16.268 16.268 0 0 0 49.022 7.1c5.362 0 10.227-2.637 13.843-6.926a.56.56 0 0 1 .868 0C67.35 4.464 72.213 7.1 77.575 7.1c2.028 0 3.981-.387 5.826-1.09a.56.56 0 0 1 .64.171l4.238 5.228a.602.602 0 0 1-.09.846c-5.118 4.12-9.182 10.998-9.182 19s4.064 14.88 9.181 19c.258.208.3.586.091.846L84.04 56.33a.56.56 0 0 1-.639.172 16.274 16.274 0 0 0-5.826-1.09c-5.362 0-10.226 2.637-13.842 6.925a.56.56 0 0 1-.868 0c-3.616-4.288-8.48-6.926-13.843-6.926-2.028 0-3.98.387-5.825 1.091a.56.56 0 0 1-.64-.172l-4.238-5.228a.602.602 0 0 1 .09-.846c5.118-4.12 9.182-10.998 9.182-19" fill="#AD680D"/><path d="M76.101 33.742c-14.693 8.605-19.126 28.351-19.126 28.351s19.391 5.793 34.084-2.812c14.693-8.606 19.126-28.352 19.126-28.352s-19.391-5.792-34.084 2.813" fill="#E0AA4B"/><path d="M56.96 62.088s19.391 5.793 34.084-2.812c14.693-8.605 19.126-28.35 19.126-28.35L56.96 62.087z" fill="#B78300"/></g></svg>