<svg width="53" height="140" viewBox="0 0 53 140" xmlns="http://www.w3.org/2000/svg"><title>soft</title><g fill="none" fill-rule="evenodd"><path d="M33.345 129.902c-3.197-1.599-4.53-3.524-4.825-6.645-.395-4.19-.1-46.79.317-50.897.345-3.396 2.601-5.412 3.806-6.26 9.846-4.012 19.72-14.976 19.72-23.266 0-23.5-7.167-40-8.834-42.334H9.333C7.667 2.834.5 19.334.5 42.834c0 8.402 10.142 19.546 20.118 23.42 1.19.954 3.086 2.942 3.408 6.106.418 4.107.712 46.706.317 50.897-.295 3.121-1.628 5.046-4.825 6.645-5.695 2.847-13.689 2.841-14.158 3.242-1.107.95-.68 3.162-.395 3.322 1.797 1.016 9.497 2.056 21.518 2.057 12 0 19.617-1.04 21.415-2.057.284-.16.712-2.373-.395-3.322-.47-.4-8.463-.395-14.158-3.242z" stroke="#1F2021"/><path d="M3.193 26.637a104.323 104.323 0 0 0-1.25 16.129c0 9.087 13.013 21.637 23.624 22.923v.115c.284 0 .574-.016.864-.032.29.016.58.031.866.031l-.003-.114c10.611-1.285 23.627-13.836 23.627-22.923 0-5.898-.498-11.314-1.25-16.128H3.192z" fill="#C80037"/></g></svg>