<svg width="64" height="156" viewBox="0 0 64 156" xmlns="http://www.w3.org/2000/svg"><title>spicy</title><g fill="none" fill-rule="evenodd"><path d="M39.06 145.495c-3.367-1.684-4.773-3.713-5.083-7-.416-4.417-.106-38.756.334-43.083.5-4.917 4.81-7.1 4.81-7.1l.127-.073c12.424-4 24.702-17.957 23.875-46.057C62.57 23.357 55.31.5 55.31.5H8.351S1.092 23.357.538 42.18c-.824 28 11.76 41.957 23.953 46.012l.137.073s4.114 2.229 4.614 7.146c.44 4.327.75 38.666.334 43.083-.31 3.287-1.716 5.316-5.084 7-6 3-14.423 2.993-14.917 3.417-1.165 1-.715 3.33-.415 3.5 1.893 1.07 10.006 2.166 22.671 2.166 12.643 0 20.668-1.096 22.563-2.166.3-.17.75-2.5-.416-3.5-.495-.424-8.918-.417-14.918-3.417z" stroke="#1F2021"/><path d="M3.73 56.496C5.944 72.91 17.277 85.829 31.536 85.829c14.224 0 26.034-12.955 28.396-29.333H3.73z" fill="#551313"/></g></svg>