<svg width="63" height="94" viewBox="0 0 63 94" xmlns="http://www.w3.org/2000/svg" xmlns:xlink="http://www.w3.org/1999/xlink"><title>strawberry</title><defs><path id="a" d="M1.017 1.034h17.617v18.88H1.017V1.034z"/></defs><g fill="none" fill-rule="evenodd"><g transform="translate(32 -.718)"><mask id="b" fill="#fff"><use xlink:href="#a"/></mask><path d="M5.416 6.136C.56 11.35 1.03 19.914 1.03 19.914s8.35.11 13.207-5.103C19.095 9.597 18.62 1.033 18.62 1.033S10.274.923 5.416 6.136" fill="#A0CA4F" mask="url(#b)"/></g><path d="M22.021 14.582c2.909 3.465 8.196 3.675 8.196 3.675s.574-5.405-2.336-8.868c-2.908-3.466-8.196-3.676-8.196-3.676s-.572 5.405 2.336 8.869m11.003 4.613s8.348.11 13.206-5.103C51.087 8.878 50.615.316 50.615.316L33.024 19.195z" fill="#4B862D"/><path d="M31.616 5.217v13.98" stroke="#0D0D0D" stroke-width="3.945" stroke-linecap="round"/><path d="M31.53 18.002h-.066C-9.111 18.033-.324 45.964 3.626 59.985c4.92 17.467 18.212 33.904 27.838 33.979v.003l.034-.002.032.002v-.003c9.627-.075 22.919-16.512 27.838-33.979 3.95-14.021 12.737-41.952-27.838-41.983" fill="#FF6133"/><path d="M55.958 44.979c0 1.792-.868 2.373-1.94 2.373-1.07 0-1.937-.581-1.937-2.373 0-1.793 1.937-4.122 1.937-4.122s1.94 2.33 1.94 4.122M50.434 57.75c0 1.792-.87 2.373-1.94 2.373-1.07 0-1.937-.581-1.937-2.374 0-1.794 1.938-4.121 1.938-4.121s1.939 2.327 1.939 4.121m-11.261.001c0 1.792-.868 2.373-1.94 2.373-1.07 0-1.937-.581-1.937-2.374 0-1.794 1.938-4.121 1.938-4.121s1.939 2.327 1.939 4.121m-11.262.001c0 1.792-.867 2.373-1.939 2.373-1.07 0-1.938-.581-1.938-2.374 0-1.794 1.938-4.121 1.938-4.121s1.94 2.327 1.94 4.121m16.784 12.769c0 1.794-.867 2.374-1.939 2.374-1.07 0-1.938-.58-1.938-2.374 0-1.792 1.938-4.121 1.938-4.121s1.94 2.329 1.94 4.121m-11.261 0c0 1.794-.869 2.374-1.939 2.374-1.071 0-1.938-.58-1.938-2.374 0-1.792 1.938-4.121 1.938-4.121s1.94 2.329 1.94 4.121m5.736 12.771c0 1.792-.868 2.374-1.94 2.374-1.07 0-1.937-.582-1.937-2.374 0-1.794 1.938-4.122 1.938-4.122s1.939 2.328 1.939 4.122m-11.262 0c0 1.792-.867 2.374-1.939 2.374-1.07 0-1.938-.582-1.938-2.374 0-1.794 1.938-4.122 1.938-4.122s1.94 2.328 1.94 4.122m-5.737-12.771c0 1.794-.868 2.374-1.939 2.374-1.071 0-1.938-.58-1.938-2.374 0-1.792 1.938-4.121 1.938-4.121s1.94 2.329 1.94 4.121M16.651 57.75c0 1.792-.869 2.373-1.939 2.373-1.071 0-1.938-.581-1.938-2.374 0-1.794 1.938-4.121 1.938-4.121s1.94 2.327 1.94 4.121m33.782-25.373c0 1.793-.87 2.374-1.94 2.374-1.07 0-1.937-.581-1.937-2.374 0-1.792 1.938-4.121 1.938-4.121s1.939 2.329 1.939 4.121m-11.261 0c0 1.793-.868 2.374-1.94 2.374-1.07 0-1.937-.581-1.937-2.374 0-1.792 1.938-4.121 1.938-4.121s1.939 2.329 1.939 4.121m-11.262 0c0 1.793-.867 2.374-1.939 2.374-1.07 0-1.938-.581-1.938-2.374 0-1.792 1.938-4.121 1.938-4.121s1.94 2.329 1.94 4.121m-11.261 0c0 1.793-.869 2.374-1.939 2.374-1.071 0-1.938-.581-1.938-2.374 0-1.792 1.938-4.121 1.938-4.121s1.94 2.329 1.94 4.121m28.044 12.603c0 1.792-.867 2.373-1.939 2.373-1.07 0-1.938-.581-1.938-2.373 0-1.793 1.938-4.122 1.938-4.122s1.94 2.33 1.94 4.122m-11.261 0c0 1.792-.869 2.373-1.939 2.373-1.071 0-1.938-.581-1.938-2.373 0-1.793 1.938-4.122 1.938-4.122s1.94 2.33 1.94 4.122m-11.262 0c0 1.792-.868 2.373-1.939 2.373-1.071 0-1.938-.581-1.938-2.373 0-1.793 1.938-4.122 1.938-4.122s1.94 2.33 1.94 4.122m-11.262 0c0 1.792-.868 2.373-1.94 2.373-1.07 0-1.937-.581-1.937-2.373 0-1.793 1.938-4.122 1.938-4.122s1.939 2.33 1.939 4.122" fill="#FFCD76"/></g></svg>