<svg width="54" height="101" viewBox="0 0 54 101" xmlns="http://www.w3.org/2000/svg"><title>sweet-tropical-honey</title><g fill="none" fill-rule="evenodd"><path d="M53.075 57.35c0-13.226-7.18-29.695-24.048-28.933h-2.343C9.816 27.655 2.637 44.124 2.637 57.35c0 3.553-.085 10.66 0 14.21.492 20.605 10.82 28.968 24.047 28.968h2.343c13.227 0 23.555-8.364 24.048-28.968.085-3.55 0-10.657 0-14.21" fill="#E88819"/><path d="M43.194 26.608c-7.386 4.417-16.038 3.543-16.038 3.543s3.324-8.035 10.71-12.453c7.387-4.417 16.038-3.543 16.038-3.543s-3.324 8.036-10.71 12.453" fill="#A0CA4F"/><path d="M27.154 30.158s3.323-8.036 10.71-12.453C45.25 13.288 53.9 14.162 53.9 14.162L27.154 30.158z" fill="#4B862D"/><path d="M40.688 18.116C36.5 25.636 28.57 29.204 28.57 29.204s-1.14-8.62 3.049-16.139C35.807 5.546 43.737 1.977 43.737 1.977s1.138 8.621-3.05 16.14" fill="#A0CA4F"/><path d="M28.57 29.21s-1.138-8.62 3.05-16.139S43.737 1.983 43.737 1.983L28.57 29.21z" fill="#4B862D"/><path d="M11.614 26.608C19 31.025 27.65 30.151 27.65 30.151s-3.323-8.035-10.71-12.453C9.556 13.281.905 14.155.905 14.155s3.323 8.036 10.71 12.453" fill="#A0CA4F"/><path d="M27.654 30.158s-3.323-8.036-10.71-12.453C9.558 13.288.906 14.162.906 14.162l26.748 15.996z" fill="#4B862D"/><path d="M14.12 18.116c4.188 7.52 12.117 11.088 12.117 11.088s1.14-8.62-3.048-16.139C19 5.546 11.07 1.977 11.07 1.977s-1.138 8.621 3.05 16.14" fill="#A0CA4F"/><path d="M26.236 29.21s1.14-8.62-3.048-16.139S11.07 1.983 11.07 1.983L26.236 29.21z" fill="#4B862D"/><path d="M32.592 15.51c.132 8.605-4.95 15.661-4.95 15.661s-5.298-6.896-5.43-15.5C22.08 7.064 27.162.008 27.162.008s5.297 6.896 5.43 15.501" fill="#A0CA4F"/><path d="M27.646 31.176s-5.298-6.896-5.43-15.5C22.084 7.07 27.166.013 27.166.013l.48 31.162z" fill="#4B862D"/><path d="M41.849 53.973A608.863 608.863 0 0 0 53.106 64.48c-.011-2.672-.031-5.347-.031-7.129 0-4.019-.668-8.336-2.065-12.38l-9.161 9.003z" fill="#F9AC2D"/><path d="M28.736 40.812a495.13 495.13 0 0 0 10.117 10.25c.724.712 1.462 1.43 2.21 2.153l9.535-9.372C48.406 38.146 44.7 33.126 39.28 30.449L28.736 40.812zm24.376 26.637l-.001-1.488c-3.648-3.318-7.947-7.288-12.041-11.221L28.607 66.989c4.22 4.1 8.784 8.346 12.773 11.99l11.732-11.53zM2.673 66.426c3.676 3.32 8.336 7.59 12.847 11.892l11.524-11.327-.633-.619A522.8 522.8 0 0 1 14.767 54.54L2.673 66.426z" fill="#FDBE00"/><path d="M27.98 40.023l10.235-10.06c-2.67-1.121-5.721-1.702-9.19-1.545h-2.342c-3.116-.141-5.9.31-8.371 1.216a521.95 521.95 0 0 0 9.668 10.389m.717 51.421l11.9-11.697c-3.99-3.647-8.551-7.892-12.77-11.992L16.31 79.073a381.404 381.404 0 0 1 3.413 3.309 488.214 488.214 0 0 1 8.974 9.062m-1.52-25.852l.647.634L40.282 53.98a352.248 352.248 0 0 1-2.195-2.138 493.947 493.947 0 0 1-10.13-10.265l-12.41 12.197c3.4 3.562 7.366 7.627 11.63 11.817" fill="#F9AC2D"/><path d="M41.407 80.484L29.455 92.23a543.058 543.058 0 0 1 6.906 7.316c5.676-1.63 10.37-5.359 13.329-11.609a846.854 846.854 0 0 1-8.283-7.453" fill="#FDBE00"/><path d="M28.675 92.997l-7.18 7.057c1.666.315 3.4.474 5.188.474h2.343c2.13 0 4.182-.22 6.132-.67a545.061 545.061 0 0 0-6.483-6.861m13.512-13.28a831.527 831.527 0 0 0 7.972 7.174c1.73-4.08 2.767-9.152 2.916-15.33.016-.728.027-1.61.032-2.576l-10.92 10.732zM14.013 53.749a536.255 536.255 0 0 1-8.987-9.68c-1.619 4.299-2.39 8.962-2.39 13.282 0 1.889-.024 4.783-.034 7.613l11.411-11.215z" fill="#F9AC2D"/><path d="M14.793 52.983L27.2 40.789a521.167 521.167 0 0 1-9.967-10.718c-5.562 2.433-9.414 7.27-11.757 12.866a529.921 529.921 0 0 0 9.317 10.046" fill="#FDBE00"/><path d="M14.74 79.084A658.234 658.234 0 0 0 2.6 67.833c.002 1.419.012 2.719.037 3.728.158 6.616 1.335 11.964 3.292 16.184l8.813-8.661z" fill="#F9AC2D"/><path d="M27.917 92.21a486.712 486.712 0 0 0-8.96-9.048 384.526 384.526 0 0 0-3.427-3.323L6.432 88.78c3.131 6.05 7.985 9.569 13.787 10.994l7.698-7.565z" fill="#FDBE00"/></g></svg>