<svg width="72" height="99" viewBox="0 0 72 99" xmlns="http://www.w3.org/2000/svg"><title>sweet-apricots-rich</title><g fill="none" fill-rule="evenodd"><path d="M27.19 7.462c6.942 7.25 6.269 19.161 6.269 19.161s-11.93.154-18.871-7.096C7.647 12.277 8.322.365 8.322.365S20.25.211 27.19 7.462" fill="#A0CA4F"/><path d="M49.19 20.208c-4.156 4.818-11.713 5.112-11.713 5.112s-.817-7.518 3.339-12.336c4.156-4.818 11.713-5.112 11.713-5.112s.817 7.518-3.34 12.336m-15.722 6.415s-11.929.154-18.87-7.097C7.655 12.276 8.33.366 8.33.366l25.137 26.258z" fill="#4B862D"/><path d="M35.48 7.184v19.44" stroke="#0D0D0D" stroke-width="3" stroke-linecap="round"/><path d="M57.246 62.04c0 19.285-12.76 34.918-28.5 34.918S.247 81.325.247 62.04c0-19.284 12.76-34.917 28.5-34.917s28.5 15.633 28.5 34.917" fill="#FF9408"/><path d="M71.746 61.874c0 20.02-13.02 36.25-29.083 36.25-16.062 0-29.083-16.23-29.083-36.25s13.02-36.25 29.083-36.25 29.084 16.23 29.084 36.25" fill="#FDBE00"/></g></svg>