<svg width="81" height="90" viewBox="0 0 81 90" xmlns="http://www.w3.org/2000/svg"><title>sweet-huzelnut</title><g fill="none" fill-rule="evenodd"><path d="M80.627 41.723c-.829 34.251-36.003 46.261-39.684 47.425a1.047 1.047 0 0 1-.622.003C36.591 88.013.64 76.157.64 41.723.64 19.151 18.545.854 40.633.854c22.09 0 40.541 18.304 39.994 40.87" fill="#B15F00"/><path d="M73.834 44.489c-.688 31.339-29.887 42.328-32.942 43.393a.796.796 0 0 1-.517.003c-3.097-1.042-32.94-11.89-32.94-43.396 0-20.652 14.863-37.394 33.2-37.394 18.335 0 33.653 16.748 33.2 37.394z" stroke="#D29F5B" stroke-width="1.5"/><path d="M65.264 43.7c-.511 31.339-22.171 42.328-24.437 43.393a.447.447 0 0 1-.383.002c-2.298-1.041-24.437-11.89-24.437-43.395 0-20.652 11.027-37.394 24.629-37.394 13.602 0 24.965 16.748 24.628 37.394z" stroke="#D29F5B" stroke-width="1.5"/><path d="M16.007 9.459c5.375 3.424 14.381 5.67 24.59 5.67 10.26 0 19.31-2.27 24.675-5.723C58.43 4.026 49.832.814 40.59.814c-9.272 0-17.8 3.234-24.583 8.645" fill="#D29F5B"/></g></svg>