<svg width="105" height="91" viewBox="0 0 105 91" xmlns="http://www.w3.org/2000/svg"><title>sweet-blueberry-cherry</title><g fill="none" fill-rule="evenodd"><path d="M36.975 45.245c0 9.949-8.064 18.014-18.014 18.014-9.948 0-18.013-8.065-18.013-18.014s8.065-18.014 18.013-18.014c9.95 0 18.014 8.065 18.014 18.014" fill="#365B91"/><path d="M20.505 38.114l1.268 2.569c.251.508.735.86 1.295.942l2.835.412c1.413.205 1.976 1.94.955 2.936l-2.052 1.999a1.724 1.724 0 0 0-.495 1.524l.484 2.824c.241 1.406-1.234 2.478-2.497 1.814L19.762 51.8a1.72 1.72 0 0 0-1.602 0l-2.536 1.333c-1.263.664-2.738-.408-2.497-1.814l.484-2.824a1.721 1.721 0 0 0-.495-1.524l-2.05-2c-1.023-.995-.459-2.73.953-2.935l2.835-.412a1.725 1.725 0 0 0 1.296-.942l1.268-2.57c.631-1.278 2.455-1.278 3.087 0" fill="#0D0D0D"/><path d="M63.408 72.248c0 9.949-8.065 18.014-18.015 18.014-9.948 0-18.013-8.065-18.013-18.014s8.065-18.014 18.013-18.014c9.95 0 18.015 8.065 18.015 18.014" fill="#365B91"/><path d="M46.937 65.117l1.268 2.569a1.72 1.72 0 0 0 1.295.942l2.836.412c1.412.205 1.975 1.94.954 2.936l-2.051 1.999a1.721 1.721 0 0 0-.495 1.524l.484 2.824c.24 1.406-1.235 2.478-2.498 1.814l-2.535-1.333a1.721 1.721 0 0 0-1.603 0l-2.536 1.333c-1.263.664-2.738-.408-2.497-1.814l.484-2.824a1.719 1.719 0 0 0-.495-1.524l-2.051-2c-1.022-.995-.457-2.73.954-2.935l2.835-.412a1.722 1.722 0 0 0 1.297-.942l1.267-2.57c.63-1.278 2.455-1.278 3.087 0" fill="#0D0D0D"/><path d="M29.902 8.068c6.94 7.251 6.268 19.161 6.268 19.161s-11.93.155-18.871-7.096c-6.941-7.25-6.267-19.16-6.267-19.16S22.96.816 29.902 8.067" fill="#A0CA4F"/><path d="M73.003 37.154c0 9.95-8.065 18.014-18.015 18.014-9.948 0-18.013-8.065-18.013-18.014S45.04 19.14 54.988 19.14c9.95 0 18.015 8.065 18.015 18.014" fill="#365B91"/><path d="M56.533 30.023l1.268 2.57c.25.507.735.86 1.295.941l2.836.412c1.412.205 1.975 1.94.954 2.935l-2.051 2a1.72 1.72 0 0 0-.495 1.524l.484 2.824c.24 1.406-1.235 2.478-2.498 1.814L55.79 43.71a1.721 1.721 0 0 0-1.603 0l-2.536 1.333c-1.263.664-2.738-.408-2.497-1.814l.484-2.824a1.718 1.718 0 0 0-.495-1.524l-2.051-2c-1.022-.995-.457-2.73.954-2.935l2.835-.412a1.723 1.723 0 0 0 1.296-.942l1.268-2.569c.63-1.279 2.455-1.279 3.087 0" fill="#0D0D0D"/><path d="M51.9 20.814c-4.155 4.818-11.712 5.112-11.712 5.112s-.818-7.518 3.338-12.336c4.156-4.818 11.713-5.112 11.713-5.112s.818 7.518-3.338 12.336M36.178 27.23s-11.929.154-18.87-7.097C10.366 12.883 11.041.971 11.041.971L36.178 27.23z" fill="#4B862D"/><path d="M38.19 7.79v19.44" stroke="#0D0D0D" stroke-width="3" stroke-linecap="round"/><path d="M97.314 43.29c-2.976-3.52-8.446-3.788-8.446-3.788s-.648 5.439 2.327 8.959c2.974 3.52 8.445 3.789 8.445 3.789s.649-5.44-2.326-8.96" fill="#A0CA4F"/><path d="M88.868 39.498s-.646 5.439 2.328 8.959c2.975 3.52 8.445 3.789 8.445 3.789L88.868 39.498z" fill="#4B862D"/><path d="M87.597 40.142l-.113 25.584" stroke="#0D0D0D" stroke-width="3" stroke-linecap="round"/><path d="M84.005 63.578a6.664 6.664 0 0 0 7.327 0c5.74-3.77 13.228-.384 13.228 10.543 0 7.893-7.56 15.534-16.885 15.534h-.013c-9.325 0-16.885-7.641-16.885-15.534 0-10.927 7.488-14.312 13.228-10.543" fill="#A21948"/><path d="M92.772 65.354c0-.996-.663-1.63-1.561-1.917-.043.027-.088.046-.132.075a6.666 6.666 0 0 1-7.328 0c-.072-.048-.148-.081-.221-.127-.982.26-1.73.912-1.73 1.969 0 1.378 2.456 2.713 5.485 2.713h.004c3.028 0 5.483-1.335 5.483-2.713" fill="#6D0C34"/></g></svg>