<svg width="100" height="73" viewBox="0 0 100 73" xmlns="http://www.w3.org/2000/svg"><title>trufle-forest</title><g fill="none" fill-rule="evenodd"><path d="M69.978 71.113l.146-24.105" stroke="#0D0D0D" stroke-width="3" stroke-linecap="round"/><path d="M77.681 55.526c7.058 6.001 16.172 8.388 20.576 9.23.831.158 1.332-1.06.725-1.757L70.101 29.891c-.014.256-8.044 12.353 7.58 25.635" fill="#3C6B1D"/><path d="M41.895 63.099c-.623.734.01 1.848.957 1.676 4.366-.796 13.15-3.096 19.827-9.249 14.415-13.282 7.379-25.379 7.365-25.635l-28.15 33.208zm-1.6-3.533c-.283 3.334-.157 5.592-.157 5.592h.011s-.125-2.25.146-5.592" fill="#3C6B1D"/><path d="M77.533 41.078c7.076 6.293 16.226 8.778 20.593 9.643.823.164 1.335-1.03.745-1.737L69.97 14.33c-.013.267-8.023 12.888 7.562 26.748" fill="#4B862D"/><path d="M41.752 49.082c-.602.743.041 1.835.98 1.657 4.334-.819 13.146-3.213 19.835-9.66 14.38-13.86 7.362-26.483 7.348-26.75L41.752 49.082zm-1.512-3.789c-.282 3.48-.156 5.835-.156 5.835h.01s-.124-2.348.147-5.835" fill="#4B862D"/><path d="M76.761 24.577c6.162 5.48 14.087 7.724 18.085 8.545.823.169 1.336-1.03.746-1.738L70.016.713c-.013.239-7.159 11.499 6.745 23.864" fill="#A0CA4F"/><path d="M45.03 31.482c-.605.75.059 1.84 1.004 1.651 3.968-.786 11.568-2.958 17.377-8.557C76.239 12.211 69.977.951 69.966.712L45.03 31.482z" fill="#A0CA4F"/><path d="M40.058 73H20.2a8 8 0 0 1-8-8v-7.66a8 8 0 0 1 8-8h19.858a8 8 0 0 1 8 8V65a8 8 0 0 1-8 8" fill="#CBB2A2"/><path fill="#2C1C27" d="M59.236 58.574l-1.19 1.344 1.033 1.47-1.364 1.166.739 1.637-1.61.78.144 1.786-1.786.04-.676 1.652-1.645-.714-1.187 1.338-1.42-1.093-1.395 1.12-1.285-1.25-1.482 1.007-1.22-1.317-1.517.956-1.196-1.34-1.525.949-1.203-1.334-1.512.968-1.225-1.31-1.487 1.008-1.274-1.267-1.447 1.065-1.332-1.21-1.393 1.136-1.4-1.134-1.332 1.212-1.456-1.06-1.272 1.276-1.5-.997-1.228 1.319-1.53-.953-1.197 1.347-1.543-.931-1.191 1.353-1.538-.94-1.213 1.332-1.502-.991-1.287 1.264-1.42-1.111L7.74 69.24l-1.191-1.344-1.663.686-.637-1.671-1.786-.102.195-1.784-1.592-.822.764-1.627-1.355-1.18 1.039-1.47-1.188-1.353 1.21-1.65-.982-1.792 1.417-1.475-.733-1.908 1.6-1.273-.474-1.988 1.754-1.051-.213-2.033 1.874-.817.047-2.044 1.96-.576.299-2.022 2.016-.334.537-1.973 2.042-.092.765-1.896 2.04.145.978-1.796 2.009.377 1.176-1.673 1.953.6 1.356-1.53 1.876.814 1.515-1.372 1.777 1.014 1.657-1.2 1.656 1.2 1.776-1.015 1.516 1.373 1.877-.814 1.356 1.53 1.955-.6 1.175 1.674 2.01-.376.979 1.796 2.039-.145.764 1.896 2.043.093.538 1.973 2.017.335.297 2.022 1.96.578.047 2.043 1.874.817-.213 2.033 1.753 1.05-.476 1.988 1.6 1.27-.734 1.909 1.417 1.474-.981 1.793z"/><path fill="#160600" d="M40.505 36.923l.524-.163-.38-.543-.6.185zm-3.177-.713l.718-.316-.48-.543-.797.345zm6.254 1.782l.308-.058-.277-.508-.376.07zm-9.489-2.139l.881-.51-.567-.512-.96.548zm12.426 3.552l.08-.006-.177-.437-.136.01zM4.077 62.724l-.145.206.685.598.07-.099zm.2-3.083l-.483.659.556.634.359-.494zM27.602 36.21l1.085-.996-.671-.383-1.16 1.05zM5.988 54.02l-.227-.963-1.12.89.34.884zm1.257-3.025l-.1-.956-1.455.872.213.898zm-2.109 6.192l-.345-.91-.786.819.445.813zm19.291-20.264l1.114-1.276-.682-.296-1.184 1.338zM8.878 48.157l.045-2.035 1.928-.574.292-2.014 1.982-.332.528-1.963 2.007-.092.751-1.888 2.004.145.961-1.788 1.976.374 1.09-1.57-.664-.203-1.093 1.557-1.87-.35-.912 1.671-1.898-.135-.712 1.765-1.9.086-.5 1.836-1.878.311-.278 1.883-1.826.537-.043 1.902-1.744.76.09.852zm21.959-12.304l1.006-.738-.63-.456-1.084.784z"/><path d="M49.762 52.675c-1.129 2.182-3.499-.42-7.115-2.291-3.617-1.871-7.142-2.241-5.983-4.482 1.054-2.038 4.84-2.173 8.457-.303 3.617 1.87 5.695 5.038 4.641 7.076m-31.964.407c1.076.932-.712 1.915-2.257 3.699-1.545 1.785-2.23 3.72-3.338 2.764-1.005-.871-.568-3.023.977-4.808 1.545-1.784 3.612-2.526 4.618-1.655" fill="#432C3B"/></g></svg>