<?xml version="1.0" standalone="no"?>
<!DOCTYPE svg PUBLIC "-//W3C//DTD SVG 20010904//EN"
 "http://www.w3.org/TR/2001/REC-SVG-20010904/DTD/svg10.dtd">
<svg version="1.0" xmlns="http://www.w3.org/2000/svg"
 width="386.000000pt" height="386.000000pt" viewBox="0 0 386.000000 386.000000"
 preserveAspectRatio="xMidYMid meet">
<metadata>
Created by potrace 1.11, written by Peter Selinger 2001-2013
</metadata>
<g transform="translate(0.000000,386.000000) scale(0.100000,-0.100000)"
fill="#000000" stroke="none">
<path d="M1580 2311 c5 -9 20 -28 35 -43 14 -15 25 -30 25 -33 0 -3 7 -22 15
-42 9 -20 13 -43 11 -50 -3 -7 -2 -14 2 -17 9 -6 7 -97 -4 -134 -4 -15 -8 -33
-10 -41 -4 -21 -65 -102 -104 -139 -19 -18 -92 -70 -161 -116 -130 -87 -199
-141 -199 -157 0 -5 84 -9 188 -9 154 0 192 3 210 16 24 16 62 83 62 109 0 8
5 15 12 15 6 0 9 3 6 6 -4 3 -2 20 4 37 5 18 11 41 13 52 5 31 28 121 42 169
5 18 6 18 15 2 6 -10 11 -25 13 -34 2 -10 4 -18 5 -19 2 -2 4 -7 5 -13 1 -5 4
-12 5 -15 1 -3 3 -9 4 -14 0 -5 4 -13 9 -17 4 -4 7 -15 7 -25 0 -9 7 -30 15
-45 8 -16 15 -37 15 -46 0 -9 5 -20 10 -23 6 -4 8 -11 4 -16 -3 -5 -1 -15 4
-22 5 -7 12 -25 16 -41 9 -36 53 -76 84 -76 28 0 82 51 82 78 0 10 3 22 8 26
4 4 7 11 7 14 0 4 13 44 29 90 46 138 50 175 35 276 -9 55 -7 77 7 64 3 -4 7
-12 8 -20 2 -7 6 -20 9 -28 3 -8 20 -62 37 -120 37 -121 70 -228 78 -250 6
-18 11 -35 15 -55 2 -8 13 -28 25 -45 18 -23 30 -30 57 -30 52 0 78 33 110
140 1 3 5 13 9 22 4 9 9 22 10 30 2 7 6 20 9 28 18 49 42 116 43 123 1 4 3 10
4 15 1 4 2 10 1 15 0 4 4 7 10 7 6 0 9 6 6 13 -3 7 1 21 9 32 8 10 14 17 15
14 0 -2 3 -13 5 -24 2 -11 5 -28 6 -37 1 -10 6 -18 10 -18 4 0 8 -11 8 -24 0
-14 5 -28 11 -31 6 -4 8 -13 5 -21 -3 -7 0 -16 5 -20 6 -3 9 -14 6 -24 -3 -11
2 -21 10 -24 8 -3 12 -9 9 -14 -6 -10 40 -149 59 -176 8 -11 15 -16 15 -11 0
5 5 4 12 -3 21 -21 58 -13 89 17 16 16 29 38 29 48 0 11 4 23 9 29 11 12 47
107 43 117 -1 4 3 7 8 7 6 0 10 8 10 18 0 10 4 22 9 28 10 11 31 70 37 105 3
14 -2 39 -11 55 -8 16 -15 25 -15 20 0 -5 -6 -4 -13 2 -7 6 -27 10 -46 10 -24
-1 -38 -9 -54 -31 -12 -16 -21 -33 -20 -38 2 -5 -2 -9 -8 -9 -5 0 -8 -3 -5 -8
2 -4 -2 -18 -10 -32 -7 -14 -14 -22 -15 -17 -1 4 -2 10 -3 15 -1 4 -12 39 -25
77 -13 39 -24 75 -26 80 -10 44 -19 72 -28 83 -5 6 -7 12 -4 12 3 0 -3 24 -13
52 -10 29 -16 56 -14 60 3 5 0 8 -5 8 -6 0 -11 6 -11 13 0 20 -36 49 -62 52
-52 4 -75 -23 -114 -134 -21 -58 -42 -115 -48 -126 -5 -11 -11 -27 -12 -35 -1
-8 -11 -40 -22 -72 -11 -31 -17 -59 -14 -63 4 -3 -1 -3 -10 0 -10 4 -17 10
-16 13 0 4 -1 10 -2 15 -1 4 -3 10 -4 15 -2 4 -13 41 -26 82 -13 41 -23 78
-22 83 1 4 -3 7 -9 7 -5 0 -8 4 -5 8 3 5 -5 38 -18 73 -13 35 -24 69 -25 74
-2 6 -10 22 -18 36 -21 36 -83 37 -118 1 -14 -14 -26 -31 -26 -38 -1 -8 -2
-17 -3 -21 -4 -18 -39 -119 -45 -128 -3 -5 -7 -21 -9 -35 -2 -13 -8 -30 -14
-37 -5 -7 -7 -17 -3 -23 3 -5 3 -10 -2 -10 -9 0 -33 -70 -33 -95 0 -25 -17
-17 -28 13 -9 23 -44 128 -47 142 -1 3 -4 12 -7 20 -4 8 -18 51 -33 95 -48
144 -52 148 -182 150 -71 1 -80 -1 -73 -14z m520 -206 c7 -9 8 -15 2 -15 -5 0
-12 7 -16 15 -3 8 -4 15 -2 15 2 0 9 -7 16 -15z"/>
<path d="M2922 2318 c-7 -7 -12 -18 -12 -26 0 -12 3 -12 15 -2 8 7 12 16 9 21
-9 15 14 10 31 -7 15 -15 14 -18 -7 -38 -12 -11 -27 -21 -32 -21 -12 0 -18
-45 -6 -46 37 -5 70 0 70 10 0 5 -13 7 -30 5 -39 -7 -38 0 4 37 24 21 33 36
29 47 -12 32 -49 42 -71 20z"/>
<path d="M3019 2303 c0 -16 -1 -41 -2 -58 -1 -16 3 -31 8 -32 6 -2 10 6 10 16
0 34 15 36 27 3 7 -18 18 -32 26 -32 7 0 10 5 7 10 -3 6 -2 10 4 10 6 0 8 7 5
15 -4 8 -1 15 6 15 6 0 8 5 5 10 -3 6 -2 10 4 10 15 0 23 -18 11 -25 -8 -5 -8
-11 -1 -19 6 -7 8 -16 4 -19 -3 -4 -1 -7 5 -7 7 0 11 23 11 66 -1 54 -4 65
-16 62 -9 -2 -17 -10 -19 -18 -8 -51 -41 -92 -46 -57 -8 70 -47 109 -49 50z
m31 -23 c0 -5 -5 -10 -11 -10 -5 0 -7 5 -4 10 3 6 8 10 11 10 2 0 4 -4 4 -10z"/>
<path d="M3274 2267 c0 -42 4 -64 11 -64 7 0 10 9 7 19 -6 25 14 23 32 -4 21
-30 29 -19 11 16 -13 24 -13 30 0 43 31 30 9 27 -27 -5 -17 -14 -18 -12 -18
21 0 21 -4 37 -8 37 -5 0 -8 -28 -8 -63z"/>
<path d="M3466 2295 c4 -22 7 -46 7 -52 0 -7 4 -13 9 -13 4 0 7 -6 6 -12 -2
-7 3 -13 11 -13 8 0 16 10 18 23 2 13 8 33 14 44 9 16 13 18 19 7 5 -7 6 -17
3 -21 -2 -5 1 -16 9 -25 7 -9 12 -18 10 -21 -1 -3 4 -7 12 -8 9 -1 15 1 14 4
-5 18 14 102 23 102 5 0 9 4 9 9 0 5 -8 8 -17 7 -11 -2 -18 -11 -17 -25 1 -11
-2 -21 -7 -21 -4 0 -6 -9 -4 -20 8 -40 -11 -19 -23 26 -8 28 -17 44 -25 41 -6
-2 -11 -11 -9 -21 2 -9 -2 -16 -9 -16 -6 0 -9 -7 -5 -15 3 -8 1 -15 -5 -15 -6
0 -7 -4 -4 -10 3 -5 1 -10 -4 -10 -6 0 -12 11 -12 25 -2 40 -3 43 -17 57 -11
11 -12 6 -6 -27z"/>
<path d="M3198 2293 c-9 -2 -19 -11 -22 -20 -6 -14 -4 -14 18 1 17 10 27 12
31 5 8 -12 9 -11 -27 -27 -16 -7 -28 -19 -28 -30 0 -15 8 -19 43 -20 l43 -2
-4 43 c-3 23 -10 45 -16 49 -12 8 -12 8 -38 1z m34 -65 c-5 -20 -11 -22 -32
-8 -12 8 -12 12 -2 18 22 15 40 10 34 -10z"/>
<path d="M3390 2289 c0 -5 9 -9 20 -9 11 0 20 -7 20 -15 0 -18 -17 -20 -22 -3
-3 7 -7 5 -11 -6 -4 -10 -3 -15 3 -11 6 3 10 1 10 -5 0 -8 6 -8 20 0 21 11 27
35 10 45 -18 11 -50 14 -50 4z"/>
<path d="M3700 2291 c-21 -5 -25 -12 -27 -43 -1 -22 4 -38 12 -42 9 -3 12 3 9
23 -3 17 1 33 10 40 21 18 34 6 31 -29 -1 -18 2 -30 9 -30 10 0 13 26 8 66 -3
16 -22 21 -52 15z"/>
<path d="M3798 2293 c-10 -2 -18 -12 -19 -21 0 -9 -2 -27 -3 -39 -3 -28 34
-47 58 -30 24 17 29 62 10 81 -16 17 -17 17 -46 9z m30 -34 c-16 -10 -33 5
-23 21 5 8 11 8 21 -1 12 -10 12 -14 2 -20z m16 -18 c13 -1 -15 -31 -29 -31
-14 0 -27 24 -19 33 3 3 13 4 22 2 9 -2 21 -4 26 -4z"/>
<path d="M999 2248 c-35 -23 -67 -47 -71 -53 -4 -5 -8 -6 -8 -2 0 4 -10 -1
-22 -13 -12 -11 -28 -20 -35 -20 -7 0 -13 -4 -13 -10 0 -5 -7 -10 -15 -10 -8
0 -15 -4 -15 -10 0 -5 -3 -9 -7 -8 -5 1 -26 -6 -48 -15 -29 -13 -72 -18 -167
-20 -70 -1 -128 2 -128 7 0 4 -7 3 -15 -4 -12 -10 -15 -10 -15 1 0 11 -3 11
-11 -1 -8 -12 -12 -12 -16 -2 -4 10 -8 10 -19 1 -11 -9 -14 -8 -14 2 0 11 -3
11 -11 -1 -8 -12 -12 -12 -16 -2 -4 10 -8 10 -19 1 -11 -9 -14 -8 -14 2 0 11
-3 11 -11 -1 -8 -12 -12 -12 -16 -2 -4 10 -8 10 -19 1 -11 -9 -14 -8 -14 2 0
11 -3 11 -11 -1 -8 -11 -12 -12 -16 -2 -2 6 -9 9 -15 6 -16 -10 -88 -10 -88
-1 0 5 -4 6 -9 2 -6 -3 -14 2 -20 12 -7 12 -23 18 -55 18 l-46 1 0 -179 c0
-107 4 -176 9 -172 5 3 12 1 16 -4 4 -7 15 -7 30 -1 14 5 25 7 25 3 0 -4 10 3
22 14 22 20 33 20 328 19 168 -1 314 -6 325 -11 28 -12 109 -67 113 -77 2 -4
8 -6 13 -2 5 3 9 1 9 -3 0 -5 29 -31 65 -58 36 -27 65 -52 65 -56 0 -4 9 -5
20 -2 11 3 20 9 20 13 0 25 149 149 317 263 121 83 168 201 122 305 -18 42
-84 74 -145 71 -25 -2 -47 -7 -50 -11 -3 -5 -9 -6 -14 -3 -4 3 -27 -10 -50
-27 -46 -36 -70 -87 -70 -151 0 -40 -26 -96 -45 -98 -5 0 -18 -2 -28 -4 -32
-6 -82 14 -93 39 -18 39 -8 142 21 198 8 17 15 37 15 45 0 7 4 13 10 13 5 0
14 9 20 20 16 30 -1 25 -71 -22z"/>
<path d="M3369 2276 c-1 -9 -2 -22 -3 -28 -6 -39 43 -68 70 -41 8 8 12 18 8
22 -4 3 -9 0 -11 -6 -3 -7 -13 -13 -24 -13 -18 0 -23 14 -20 52 1 9 -3 19 -9
23 -5 3 -11 -1 -11 -9z"/>
<path d="M3634 2245 c0 -24 4 -41 8 -37 12 12 18 50 11 67 -10 28 -19 15 -19
-30z"/>
</g>
</svg>
