<svg xmlns="http://www.w3.org/2000/svg" width="6" height="21" viewBox="0 0 6 21"><g fill="none" fill-rule="evenodd"><path d="M-13-6h32v32h-32z"/><path fill="#3B3C3C" d="M1.74.234h-.003v.01L1.734.26l.003.014v.493c-.082.02-.146.142-.146.293 0 .15.07.272.15.29v3.99C1.415 5.82.65 6.4.41 6.81.115 7.318.027 8.137.006 8.734H.004v.042c-.007.256-.003.466 0 .587v10.604c0 .57 1.244 1.034 2.778 1.034 1.535 0 2.777-.46 2.777-1.03V8.734h-.01c-.02-.596-.11-1.416-.405-1.92-.24-.41-.997-.987-1.324-1.467V1.353c.086-.015.153-.14.153-.293 0-.154-.07-.278-.154-.294V.274L3.83.26c0-.006-.002-.01-.003-.016v-.01h-.002C3.775.104 3.327 0 2.782 0 2.237 0 1.79.103 1.74.234z"/></g></svg>