<svg xmlns="http://www.w3.org/2000/svg" width="15" height="21" viewBox="0 0 15 21" xmlns:xlink="http://www.w3.org/1999/xlink"><defs><path id="a" d="M14.736 25.24c0 .94.785 1.703 1.753 1.703.964 0 1.75-.763 1.75-1.703 0-.94-.786-1.7-1.754-1.7-.97-.002-1.754.76-1.754 1.7z"/></defs><g fill="none" fill-rule="evenodd" transform="translate(-9 -6)"><path d="M0 0h32v32H0z"/><path fill="#3B3C3C" d="M15.773 6v2.558c-1.412.29-4.163 1.312-4.605 4.875-.493 3.976.24 5.167-1.016 7.316a6.024 6.024 0 0 1-1.136 1.372v.83h14.946v-.83a5.958 5.958 0 0 1-1.135-1.376c-1.254-2.15-.522-3.338-1.015-7.317-.442-3.563-3.194-4.584-4.604-4.875V6h-1.435z"/><use fill="#3B3C3C" xlink:href="#a"/></g></svg>