<svg xmlns="http://www.w3.org/2000/svg" width="20" height="20" viewBox="0 0 20 20" xmlns:xlink="http://www.w3.org/1999/xlink"><defs><path id="a" d="M14.906 6.06a10.063 10.063 0 0 1 2.248.006c.293.034.508.29.49.583-.053.93.49 1.802 1.35 2.17.826.34 1.896.1 2.49-.56.2-.22.533-.25.76-.068a9.83 9.83 0 0 1 1.584 1.6.556.556 0 0 1-.06.753 2.224 2.224 0 0 0-.56 2.47c.34.83 1.154 1.37 2.07 1.37.282 0 .61.21.642.49.084.758.083 1.52-.005 2.274a.56.56 0 0 1-.585.49l-.123-.005c-.884 0-1.705.543-2.044 1.354-.36.86-.136 1.864.56 2.492.217.197.244.53.06.76a9.936 9.936 0 0 1-1.617 1.598.56.56 0 0 1-.754-.06c-.594-.652-1.652-.9-2.475-.562a2.218 2.218 0 0 0-1.367 2.13c.01.29-.205.54-.494.57a10.095 10.095 0 0 1-2.255-.005.554.554 0 0 1-.49-.583 2.217 2.217 0 0 0-1.352-2.17c-.823-.344-1.892-.1-2.49.56a.556.556 0 0 1-.76.06 9.922 9.922 0 0 1-1.58-1.6.555.555 0 0 1 .06-.752c.685-.626.91-1.62.56-2.47-.35-.853-1.186-1.39-2.056-1.37-.287 0-.624-.21-.655-.49a9.93 9.93 0 0 1 .003-2.273c.035-.287.26-.5.577-.49.977 0 1.83-.53 2.175-1.35a2.208 2.208 0 0 0-.56-2.492.56.56 0 0 1-.06-.76c.474-.59 1.02-1.13 1.618-1.6a.56.56 0 0 1 .754.065c.593.655 1.655.898 2.472.564a2.22 2.22 0 0 0 1.366-2.13.554.554 0 0 1 .496-.57zm-2.232 9.953a3.334 3.334 0 0 0 6.666 0c0-1.838-1.495-3.333-3.333-3.333s-3.333 1.495-3.333 3.333z"/></defs><g fill="none" fill-rule="evenodd" transform="translate(-6 -6)"><path d="M0 0h32v32H0z"/><use fill="#3B3C3C" xlink:href="#a"/></g></svg>