<svg xmlns="http://www.w3.org/2000/svg" width="28" height="28" viewBox="0 0 28 28"><g fill="none" fill-rule="evenodd"><path d="M-2-2h32v32H-2z"/><path fill="#3B3C3C" d="M10.026 10.954c0-2.6 1.685-4.463 4.017-4.437 2.326.025 3.97 1.916 3.93 4.52-.04 2.7-1.936 5.33-3.89 5.394-2.04.07-4.057-2.65-4.057-5.472"/><path fill="#3B3C3C" d="M13.79 20.48H9.57c-.914 0-1.908.09-2.355-.945-.39-.902.133-1.663.772-2.178.802-.646 1.844-1.94 2.878-1.146 2.172 1.67 4.094 1.72 6.27 0 1.008-.792 1.993.488 2.82 1.107.662.494 1.203 1.253.856 2.153-.453 1.19-1.57 1.003-2.55 1.01-1.49.01-2.98.003-4.47.003"/><path fill="#3B3C3C" d="M14 0C6.268 0 0 6.27 0 14c0 7.732 6.268 14 14 14s14-6.268 14-14c0-7.73-6.268-14-14-14m0 1.1c7.113 0 12.9 5.788 12.9 12.9 0 7.113-5.787 12.9-12.9 12.9S1.1 21.113 1.1 14C1.1 6.888 6.887 1.1 14 1.1"/></g></svg>