<?xml version="1.0" standalone="no"?>
<!DOCTYPE svg PUBLIC "-//W3C//DTD SVG 1.1//EN" "http://www.w3.org/Graphics/SVG/1.1/DTD/svg11.dtd" >
<svg>
<metadata>
Created by FontForge 20120731 at Wed Sep  6 06:29:51 2017
 By www-data
 The digitally encoded machine readable software for producing the
 Typefaces licensed to you is copyrighted (c) 1991, 1992, 2002 Adobe Systems.
 All Rights Reserved. This software is the property of Adobe Systems
 Incorporated and its licensors, and may not be reproduced, used, 
 displayed, modified, disclosed or transferred without the express 
 written approval of Adobe.
 
 The digitally encoded machine readable outline data for producing the Typefaces 
 provided as part of your laser printer is copyrighted (c) 1981, 2002 Heidelberger Druckmaschinen AG. 
 All rights reserved. This data is the property of Heidelberger Druckmaschinen AG, 
 and may not be reproduced, used, displayed, modified, disclosed or transferred 
 without the express written approval of Heidelberger Druckmaschinen AG. 
</metadata>
<defs>
<font id="SerlioLTStd" horiz-adv-x="259" >
  <font-face 
    font-family="Serlio LT Std"
    font-weight="400"
    font-stretch="normal"
    units-per-em="1000"
    panose-1="0 0 5 0 0 0 0 0 0 0"
    ascent="524"
    descent="-476"
    x-height="425"
    cap-height="524"
    bbox="-166 -250 1031 750"
    underline-thickness="50"
    underline-position="-50"
    stemh="19"
    stemv="51"
    unicode-range="U+0020-FB02"
  />
<missing-glyph horiz-adv-x="500" 
d="M0 0v700h500v-700h-500zM250 395l170 255h-340zM280 350l170 -255v510zM80 50h340l-170 255zM50 605v-510l170 255z" />
    <glyph glyph-name=".notdef" horiz-adv-x="500" 
d="M0 0v700h500v-700h-500zM250 395l170 255h-340zM280 350l170 -255v510zM80 50h340l-170 255zM50 605v-510l170 255z" />
    <glyph glyph-name="space" unicode=" " horiz-adv-x="287" 
 />
    <glyph glyph-name="exclam" unicode="!" horiz-adv-x="222" 
d="M78 30c0 19 15 34 34 34c18 0 34 -15 34 -34s-16 -34 -34 -34c-19 0 -34 15 -34 34zM190 525v-11c-15 0 -26 -1 -30 -2c-2 -1 -23 -23 -23 -58v-342h-49l-1 341c0 37 -13 50 -24 61c-5 1 -10 1 -15 1s-8 0 -13 -1v10c7 1 14 1 21 1c9 0 47 -5 55 -5c13 0 40 5 79 5z" />
    <glyph glyph-name="quotedbl" unicode="&#x22;" 
d="M74 418l-5 51c-1 13 -3 25 -3 36c0 16 9 25 21 25c13 0 21 -9 21 -25c0 -11 -2 -23 -3 -36l-5 -51c-1 -10 -6 -14 -13 -14s-12 4 -13 14zM159 418l-5 51c-1 13 -3 25 -3 36c0 16 9 25 21 25c13 0 21 -9 21 -25c0 -11 -2 -23 -3 -36l-5 -51c-1 -10 -6 -14 -13 -14
s-12 4 -13 14z" />
    <glyph glyph-name="numbersign" unicode="#" horiz-adv-x="500" 
d="M291 194l18 128h-101l-17 -128h100zM139 0l22 168h-90v26h94l17 128h-90v26h94l22 168h26l-22 -168h100l23 168h26l-22 -168h90v-26h-94l-17 -128h90v-26h-94l-23 -168h-26l23 168h-101l-22 -168h-26z" />
    <glyph glyph-name="dollar" unicode="$" horiz-adv-x="407" 
d="M194 14v233c-85 68 -106 86 -106 136c0 62 42 92 105 98v68h19v-68c32 -4 42 -6 89 -27c4 -23 7 -39 7 -65c0 -18 -2 -24 -8 -38l-8 3c3 9 7 19 7 28c0 4 -28 76 -88 79v-161c75 -57 138 -106 138 -180c0 -80 -77 -120 -137 -126v-81h-19v81c-20 0 -26 2 -78 19l-46 15
c0 30 -17 77 -17 89c0 17 7 33 8 36l11 -5c-4 -10 -7 -19 -7 -29c0 -42 60 -99 130 -105zM194 313v150c-20 -3 -64 -9 -64 -64c0 -15 7 -33 16 -45c9 -11 33 -31 48 -41zM211 231v-217c51 4 88 34 88 89c0 47 -25 83 -88 128z" />
    <glyph glyph-name="percent" unicode="%" horiz-adv-x="815" 
d="M90 394c0 -66 24 -140 101 -140c36 0 89 21 89 121c0 11 -5 135 -96 135c-73 0 -94 -60 -94 -116zM45 375c0 83 56 153 142 153c69 0 138 -58 138 -147c0 -83 -62 -145 -140 -145c-68 0 -140 48 -140 139zM168 -11l441 541h35l-437 -541h-39zM533 152
c0 -66 24 -140 101 -140c36 0 89 21 89 121c0 11 -5 135 -96 135c-73 0 -94 -60 -94 -116zM488 133c0 83 56 153 142 153c69 0 138 -58 138 -147c0 -83 -62 -145 -140 -145c-68 0 -140 48 -140 139z" />
    <glyph glyph-name="ampersand" unicode="&#x26;" horiz-adv-x="556" 
d="M282 365v-12c-53 -23 -91 -47 -127 -83c-25 -25 -37 -69 -37 -96c0 -91 91 -161 186 -161c75 0 154 33 154 118c0 72 -51 103 -96 103c-61 0 -121 -48 -121 -101c0 -22 12 -32 32 -32c23 0 38 21 44 27l7 -6c-16 -24 -38 -44 -68 -44c-31 0 -41 27 -41 46
c0 72 92 121 132 149c28 19 86 76 86 115c0 21 -7 31 -22 31c-13 0 -21 -12 -27 -21l-8 2c9 23 38 57 63 57c18 0 30 -15 30 -41c0 -58 -64 -125 -117 -157l2 -2c12 2 26 2 40 2c22 0 42 -5 55 -11c40 -18 59 -55 59 -98c0 -36 -20 -63 -44 -90c-37 -41 -105 -64 -169 -64
c-127 0 -232 65 -232 170c0 73 54 132 135 159v2c-42 9 -89 38 -89 84c0 59 57 118 134 118c36 0 69 -18 84 -18c5 0 15 4 16 4c1 -6 14 -25 14 -52c0 -17 -5 -30 -11 -38l-9 4c4 7 7 14 10 21c-20 30 -48 62 -98 62c-39 0 -85 -19 -85 -81c0 -40 29 -72 80 -72
c23 0 31 3 38 6z" />
    <glyph glyph-name="quoteright" unicode="&#x2019;" horiz-adv-x="148" 
d="M72 404l-9 8c26 25 30 32 39 53c-6 -1 -11 -3 -17 -3c-23 0 -36 17 -36 33c0 17 13 35 36 35c21 0 36 -17 36 -42c0 -26 -17 -56 -49 -84z" />
    <glyph glyph-name="parenleft" unicode="(" horiz-adv-x="222" 
d="M147 535h35c-52 -110 -80 -184 -80 -312c0 -144 41 -223 70 -286h-31c-29 60 -74 157 -74 299c0 101 33 205 80 299z" />
    <glyph glyph-name="parenright" unicode=")" horiz-adv-x="222" 
d="M75 -63h-35c52 110 80 184 80 312c0 144 -41 223 -70 286h31c29 -60 74 -157 74 -299c0 -101 -33 -205 -80 -299z" />
    <glyph glyph-name="asterisk" unicode="*" horiz-adv-x="332" 
d="M49 457c0 12 11 21 23 21c10 0 17 -4 55 -40l36 -34l2 2c-7 56 -21 83 -21 97c0 17 10 27 22 27s22 -10 22 -27c0 -14 -14 -41 -21 -97l2 -2l36 34c38 36 45 40 55 40c12 0 23 -9 23 -21s-11 -20 -23 -25c-30 -11 -58 -19 -90 -33c27 -8 53 -18 81 -25
c21 -6 29 -15 29 -26s-7 -22 -22 -22c-18 0 -50 39 -89 70l-2 -2c7 -56 21 -83 21 -97c0 -17 -10 -27 -22 -27s-22 10 -22 27c0 14 14 41 21 97l-2 2c-39 -31 -71 -70 -89 -70c-15 0 -22 11 -22 22s8 20 29 26c28 7 54 17 81 25c-32 14 -60 22 -90 33c-12 5 -23 13 -23 25z
" />
    <glyph glyph-name="plus" unicode="+" horiz-adv-x="600" 
d="M282 234v198h36v-198h198v-36h-198v-198h-36v198h-198v36h198z" />
    <glyph glyph-name="comma" unicode="," horiz-adv-x="186" 
d="M83 -65l-7 8c20 21 36 44 36 63h-2c-2 -5 -8 -10 -21 -10c-20 0 -31 15 -31 34c0 18 14 34 34 34c24 0 38 -16 38 -42c0 -34 -23 -65 -47 -87z" />
    <glyph glyph-name="hyphen" unicode="-" horiz-adv-x="296" 
d="M51 244h145c23 0 53 2 67 4l-19 -36h-143c-22 0 -37 -1 -62 -4c-3 -4 -7 -12 -10 -16h-10c4 11 20 36 32 52z" />
    <glyph glyph-name="period" unicode="." horiz-adv-x="186" 
d="M59 30c0 19 15 34 34 34c18 0 34 -15 34 -34s-16 -34 -34 -34c-19 0 -34 15 -34 34z" />
    <glyph glyph-name="slash" unicode="/" horiz-adv-x="278" 
d="M68 -6h-37l182 536h37z" />
    <glyph glyph-name="zero" unicode="0" horiz-adv-x="574" 
d="M97 289c0 -139 89 -279 200 -279c21 0 70 2 119 42c45 37 62 106 62 167c0 169 -97 296 -206 296c-83 0 -175 -67 -175 -226zM39 254c0 140 94 276 238 276c154 0 258 -135 258 -263c0 -109 -76 -276 -249 -276c-118 0 -247 92 -247 263z" />
    <glyph glyph-name="one" unicode="1" horiz-adv-x="278" 
d="M53 0v12c20 -2 22 -2 28 -2c8 0 15 1 23 2c19 23 21 33 21 66v370c0 10 -9 17 -16 17c-4 0 -19 -7 -22 -10c-8 -7 -18 -16 -31 -27c-2 4 -5 7 -7 8c34 31 35 33 91 66c17 10 30 20 43 29v-463c0 -32 3 -39 18 -56c8 -1 16 -2 23 -2c9 0 18 1 26 2v-10
c-11 -2 -20 -2 -30 -2c-16 0 -54 3 -68 3c-12 0 -62 -3 -77 -3h-22z" />
    <glyph glyph-name="two" unicode="2" horiz-adv-x="407" 
d="M89 53h226c33 0 42 5 58 42h11c-4 -18 -6 -23 -32 -56c-11 -15 -15 -26 -20 -39h-285c-5 0 -9 5 -9 8c0 4 9 15 12 19c35 47 119 144 136 167c44 60 95 129 95 196c0 52 -36 118 -105 118c-43 0 -95 -34 -95 -96c0 -8 5 -29 7 -31c6 -7 13 -12 23 -21l-10 -6
c-6 6 -16 14 -22 20c-11 11 -15 18 -26 36c-8 14 -15 18 -23 24c23 43 71 94 150 94c102 0 165 -70 165 -133c0 -86 -63 -149 -214 -300z" />
    <glyph glyph-name="three" unicode="3" horiz-adv-x="444" 
d="M30 178h9c-1 -9 -2 -17 -2 -26c0 -6 1 -18 2 -20c11 -41 79 -123 162 -123c54 0 143 43 143 134c0 105 -63 128 -116 128c-6 0 -14 -1 -23 -2c-4 1 -6 2 -6 5c0 4 76 49 76 137c0 40 -26 99 -87 99c-71 0 -76 -67 -76 -83c0 -5 1 -12 4 -16c5 -6 12 -12 19 -19l-10 -5
c-30 28 -48 63 -61 75c58 65 103 67 134 67c70 0 138 -35 138 -102c0 -21 -8 -65 -74 -114v-2c39 0 57 -2 87 -24c29 -21 54 -60 54 -110c0 -115 -101 -182 -201 -182c-23 0 -66 6 -105 24c-11 5 -46 23 -62 26c0 23 -11 63 -11 92c0 15 2 26 6 41z" />
    <glyph glyph-name="four" unicode="4" horiz-adv-x="500" 
d="M331 188v276l-264 -252c-3 -3 -4 -8 -4 -15c0 -6 5 -9 11 -9h257zM387 164v-95c0 -35 8 -48 18 -55c2 -1 15 -4 19 -4c5 0 13 1 20 2v-10c-8 0 -16 -2 -24 -2c-12 0 -52 7 -65 7c-23 0 -46 -7 -69 -7c-8 0 -14 1 -22 2v10c8 -2 13 -3 18 -3s22 2 23 3c18 12 26 32 26 70
v85h-323c-4 0 -8 2 -8 4c0 3 1 8 2 12l366 344c4 4 9 4 12 4s5 -3 5 -8v-335c72 0 88 8 94 62h7c0 -17 -2 -42 -10 -53c-7 -10 -20 -30 -21 -40c-21 7 -25 7 -68 7z" />
    <glyph glyph-name="five" unicode="5" horiz-adv-x="463" 
d="M78 263l18 257c21 1 43 2 64 2c22 0 102 -6 129 -6c21 0 60 0 64 1c8 2 10 6 13 13l9 -1c-4 -17 -18 -66 -69 -66c-36 0 -99 7 -142 7c-29 0 -37 -1 -52 -4l-14 -177c40 30 81 55 158 55c97 0 170 -56 170 -154c0 -91 -68 -195 -215 -195c-30 0 -73 5 -100 19
c-41 20 -45 22 -72 28c-1 26 -18 59 -18 83c0 14 4 25 10 39h8c-1 -3 -5 -18 -5 -25c0 -18 65 -130 171 -130c63 0 164 30 164 152c0 103 -87 153 -157 153c-46 0 -77 -21 -95 -33c-26 -18 -28 -19 -39 -18z" />
    <glyph glyph-name="six" unicode="6" horiz-adv-x="519" 
d="M113 189c14 -93 89 -180 170 -180c91 0 143 69 143 146c0 64 -51 155 -162 155c-59 0 -88 -29 -153 -92c1 -8 1 -21 2 -29zM425 396h-9c4 7 7 14 7 22c0 22 -50 94 -148 94c-74 0 -119 -42 -148 -109c-22 -50 -22 -110 -21 -161c70 67 122 98 197 98
c89 0 174 -54 174 -157c0 -93 -78 -188 -204 -188c-117 0 -230 99 -230 253c0 55 18 121 48 169c46 73 110 112 186 112c35 0 44 -3 93 -20c36 -13 40 -14 49 -14c4 0 8 1 13 2c0 -10 4 -56 4 -65c0 -15 -4 -23 -11 -36z" />
    <glyph glyph-name="seven" unicode="7" horiz-adv-x="389" 
d="M160 515h97c57 0 100 6 104 6s7 0 12 -2c2 -3 3 -6 3 -9c0 -2 -1 -5 -2 -7l-53 -87c-98 -161 -139 -307 -139 -369c0 -29 21 -32 29 -35c12 0 24 3 34 6v-11c-12 -4 -24 -7 -57 -7c-22 0 -38 6 -76 6c-2 2 -6 5 -6 10c0 13 27 120 61 191c41 86 74 135 170 262
c-50 -3 -65 -4 -84 -4c-44 0 -108 4 -124 4c-78 0 -79 -16 -86 -44h-12c7 28 9 32 42 72c5 6 12 18 16 25c25 -5 37 -7 71 -7z" />
    <glyph glyph-name="eight" unicode="8" horiz-adv-x="500" 
d="M341 389c10 17 11 36 11 42c0 18 -12 81 -96 81c-59 0 -89 -36 -89 -74c0 -56 55 -81 108 -105c17 9 48 26 66 56zM100 250c29 21 53 34 112 58c-55 31 -97 61 -97 116c0 67 60 101 134 101c68 0 140 -25 140 -94c0 -54 -54 -84 -94 -106c169 -72 169 -139 169 -175
c0 -4 -4 -158 -230 -158c-118 0 -206 72 -206 148c0 59 47 92 72 110zM220 9c10 -1 24 -2 30 -2c97 0 166 55 166 127c0 78 -75 114 -186 165c-72 -30 -143 -77 -143 -162c0 -62 43 -115 133 -128z" />
    <glyph glyph-name="nine" unicode="9" horiz-adv-x="519" 
d="M100 373c0 -18 0 -74 50 -121c24 -23 59 -40 97 -40c89 0 161 90 161 107c0 48 -53 193 -171 193c-95 0 -137 -75 -137 -139zM87 144l10 -5c-4 -7 -12 -24 -12 -30c0 -8 32 -97 153 -97c70 0 145 46 166 149c8 39 8 66 8 125h-2c-78 -98 -183 -102 -201 -102
c-94 0 -167 62 -167 160c0 33 4 92 74 146c36 28 80 40 125 40c160 0 235 -149 235 -245c0 -123 -87 -290 -245 -290c-28 0 -66 11 -83 17c-41 15 -46 16 -76 22c-2 11 -3 21 -3 32c0 36 8 57 18 78z" />
    <glyph glyph-name="colon" unicode=":" horiz-adv-x="186" 
d="M60 298c0 19 15 34 34 34c18 0 34 -15 34 -34s-16 -34 -34 -34c-19 0 -34 15 -34 34zM58 30c0 19 15 34 34 34c18 0 34 -15 34 -34s-16 -34 -34 -34c-19 0 -34 15 -34 34z" />
    <glyph glyph-name="semicolon" unicode=";" horiz-adv-x="186" 
d="M83 -65l-7 8c20 21 36 44 36 63h-2c-2 -5 -8 -10 -21 -10c-20 0 -31 15 -31 34c0 18 14 34 34 34c24 0 38 -16 38 -42c0 -34 -23 -65 -47 -87zM58 298c0 19 15 34 34 34c18 0 34 -15 34 -34s-16 -34 -34 -34c-19 0 -34 15 -34 34z" />
    <glyph glyph-name="less" unicode="&#x3c;" horiz-adv-x="600" 
d="M84 199v34l432 206v-34l-396 -189l396 -189v-34z" />
    <glyph glyph-name="equal" unicode="=" horiz-adv-x="600" 
d="M516 320v-36h-432v36h432zM516 148v-36h-432v36h432z" />
    <glyph glyph-name="greater" unicode="&#x3e;" horiz-adv-x="600" 
d="M516 233v-34l-432 -206v34l396 189l-396 189v34z" />
    <glyph glyph-name="question" unicode="?" horiz-adv-x="407" 
d="M167 110v196c19 -8 34 -14 54 -14c60 0 92 49 92 100c0 49 -34 115 -122 115c-92 0 -140 -107 -140 -113c0 -9 2 -24 2 -33h-9c-3 23 -5 39 -5 48c0 12 11 62 11 72c24 5 28 7 62 24c32 16 50 19 83 19c106 0 173 -69 173 -154c0 -78 -54 -111 -111 -111
c-12 0 -25 2 -37 4v-153h-53zM159 30c0 19 15 34 34 34c18 0 34 -15 34 -34s-16 -34 -34 -34c-19 0 -34 15 -34 34z" />
    <glyph glyph-name="at" unicode="@" horiz-adv-x="600" 
d="M393 318c0 33 -16 58 -48 58c-48 0 -117 -58 -117 -166c0 -34 17 -66 53 -66c54 0 112 78 112 174zM455 393l-52 -205c-1 -7 -2 -15 -2 -21c0 -18 14 -27 32 -27c66 0 117 81 117 163c0 94 -80 210 -234 210c-139 0 -234 -97 -234 -268c0 -118 86 -229 242 -229
c59 0 107 14 151 37l11 -15c-51 -26 -111 -44 -164 -44c-201 0 -290 152 -290 258c0 166 130 278 282 278c146 0 254 -98 254 -227c0 -95 -61 -185 -142 -185c-36 0 -62 20 -70 51h-2c-22 -34 -60 -51 -91 -51c-52 0 -78 37 -78 84c0 109 78 200 157 200c28 0 51 -15 60 -41
h2l7 32h44z" />
    <glyph glyph-name="A" unicode="A" horiz-adv-x="519" 
d="M71 69l176 456c1 2 2 4 4 5h8c2 -2 4 -4 5 -7l182 -469c10 -26 13 -29 24 -40c9 -4 14 -4 20 -4c5 0 10 0 15 1v-10c-3 0 -7 -1 -11 -1c-2 0 -60 4 -72 4c-10 0 -54 -4 -63 -4c-12 0 -13 0 -21 1v11c15 -2 18 -2 35 -1c12 7 16 11 16 23c0 3 0 14 -4 25l-68 174h-162
l-53 -135c-4 -10 -13 -38 -13 -54c0 -17 7 -25 13 -31c8 -3 15 -3 21 -3h18v-9c-6 -1 -7 -1 -19 -1c-8 0 -44 4 -54 4c-17 0 -42 -4 -52 -4c-11 0 -12 0 -17 1v11c9 -2 11 -2 29 -1c10 7 29 22 43 58zM162 251h149l-75 189z" />
    <glyph glyph-name="B" unicode="B" horiz-adv-x="500" 
d="M171 478v-171h48c64 0 121 18 121 96c0 55 -28 100 -116 100c-32 0 -53 0 -53 -25zM120 104v343c0 40 -12 67 -46 66c-5 0 -11 -1 -16 -1v11h26c26 0 50 -5 65 -5c27 0 65 5 113 5c124 0 138 -75 138 -105c0 -75 -80 -113 -113 -118v-2c71 -9 151 -61 151 -149
c0 -36 -32 -149 -173 -149c-72 0 -103 5 -117 5c-21 0 -41 -5 -76 -5c-6 0 -12 0 -19 1v12c7 -1 12 -2 18 -2s13 1 23 3c14 14 20 27 24 40c1 3 2 29 2 50zM171 288v-264c20 -6 38 -11 74 -11c79 0 130 49 130 137c0 49 -25 102 -76 123c-37 15 -86 15 -128 15z" />
    <glyph glyph-name="C" unicode="C" horiz-adv-x="574" 
d="M530 97l11 -4c-29 -46 -66 -66 -94 -78c-40 -17 -79 -20 -128 -20c-186 0 -275 140 -275 248c0 235 189 287 272 287c35 0 56 -7 98 -21c24 -8 30 -10 51 -10c15 0 22 2 36 8c0 -36 16 -56 16 -99c0 -18 -2 -30 -5 -42c-2 1 -6 1 -9 2c2 7 4 13 4 22
c0 56 -106 122 -188 122c-88 0 -208 -66 -208 -237c0 -122 61 -261 228 -261c16 0 47 0 95 15c42 13 80 40 96 68z" />
    <glyph glyph-name="D" unicode="D" horiz-adv-x="611" 
d="M49 1v11c7 -1 13 -1 20 -1c23 0 42 15 42 76v371c0 51 -24 55 -60 55v11c39 0 64 -7 86 -7c17 0 75 7 153 7c54 0 139 0 206 -74c43 -49 69 -115 69 -184c0 -96 -59 -266 -270 -266c-62 0 -101 5 -140 5c-20 0 -69 -5 -82 -5c-11 0 -17 1 -24 1zM167 485v-418
c0 -30 5 -51 86 -51c52 0 99 3 136 20c102 47 115 155 115 214c0 67 -24 145 -61 186c-54 61 -101 66 -170 66h-91c-9 0 -15 -9 -15 -17z" />
    <glyph glyph-name="E" unicode="E" horiz-adv-x="481" 
d="M311 521l51 1c4 -11 25 -57 29 -67c7 -17 7 -23 7 -38h-8c-1 70 -109 87 -176 87c-11 0 -36 -1 -36 -19v-201h88c48 0 58 26 58 38c0 8 -3 17 -5 26l6 4c7 -11 7 -14 9 -42c3 -41 3 -46 10 -66c6 -17 6 -32 6 -45h-7c-4 68 -34 68 -165 66v-214c0 -23 19 -34 38 -34h51
c2 0 52 0 102 24c55 27 56 35 59 57h10c-3 -19 -5 -28 -17 -46c-6 -9 -35 -47 -39 -56c-41 5 -182 7 -230 7c-12 0 -24 -1 -36 -1c-13 -1 -25 -2 -37 -2c-7 0 -15 0 -23 2v12c6 -1 13 -2 19 -2c8 0 21 2 30 8c13 13 18 32 18 63v371c0 29 -2 58 -42 58c-11 0 -12 0 -21 -1
v11c9 2 16 3 29 3c16 0 87 -4 102 -4h120z" />
    <glyph glyph-name="F" unicode="F" horiz-adv-x="426" 
d="M171 265v-200c0 -19 0 -53 41 -53c8 0 15 2 22 4v-12c-11 -3 -17 -4 -27 -4s-54 5 -63 5c-12 0 -64 -5 -75 -5c-6 0 -13 0 -20 1v11c39 0 67 0 67 71v371c0 29 -2 58 -42 58c-11 0 -12 0 -21 -1v11c9 2 16 3 29 3c16 0 87 -4 102 -4h120c17 0 31 0 51 4
c4 -14 25 -60 29 -70c7 -17 7 -23 7 -38h-8c-1 70 -109 87 -176 87c-11 0 -36 -1 -36 -19v-201c115 0 142 0 142 40c0 7 -2 14 -4 21l8 4c4 -8 7 -15 7 -26c0 -5 -2 -28 -2 -32c0 -20 1 -23 9 -43c8 -18 8 -21 9 -50h-8c-5 67 -20 67 -161 67z" />
    <glyph glyph-name="G" unicode="G" horiz-adv-x="593" 
d="M492 361h-8c4 24 5 26 5 33c0 22 -64 120 -178 120c-130 0 -206 -126 -206 -252c0 -148 84 -251 208 -251c142 0 142 72 142 146c0 26 0 66 -44 66l-20 -1v11c9 1 10 1 21 1s61 -4 71 -4c9 0 48 4 57 4c15 0 16 0 27 -3v-11c-7 1 -15 3 -22 3c-35 0 -36 -34 -36 -54v-56
c0 -24 0 -26 5 -37c-9 -11 -16 -19 -41 -35c-24 -15 -72 -47 -160 -47c-158 0 -276 119 -276 259c0 165 141 277 273 277c33 0 60 -8 80 -15c41 -15 46 -16 57 -16c20 0 26 2 36 6c1 -17 16 -89 16 -105c0 -18 -3 -27 -7 -39z" />
    <glyph glyph-name="H" unicode="H" horiz-adv-x="630" 
d="M168 264v-196c0 -36 26 -54 37 -56h30v-10c-7 -1 -15 -2 -27 -2s-42 3 -66 3c-21 0 -37 -3 -60 -3c-8 0 -17 1 -25 1v12c7 -1 12 -1 19 -1c6 0 15 1 21 6c8 8 15 20 15 52v386c0 40 -18 56 -33 56c-4 0 -6 0 -27 -1v12c9 1 10 1 21 1c10 0 57 -5 67 -5s54 5 63 5
c19 0 21 0 34 -3v-11c-5 1 -9 2 -15 2c-54 0 -54 -46 -54 -68v-162h291v166c0 33 -13 64 -35 64c-10 0 -21 -1 -31 -1v11c18 1 24 2 37 2c14 0 41 -5 57 -5c17 0 39 5 75 5c8 0 9 0 16 -1v-12c-5 1 -10 1 -15 1c-10 0 -24 -3 -29 -7c-6 -4 -19 -20 -19 -57v-372
c0 -37 13 -53 19 -57c5 -4 19 -7 29 -7c5 0 10 0 15 1v-12c-7 -1 -8 -1 -16 -1c-36 0 -58 5 -75 5c-16 0 -43 -5 -57 -5c-13 0 -19 1 -37 2v11c10 0 21 -1 31 -1c22 0 35 31 35 64v188h-291z" />
    <glyph glyph-name="I" unicode="I" horiz-adv-x="296" 
d="M243 523v-12c-7 1 -14 1 -20 1c-45 0 -47 -44 -47 -68v-369c0 -20 0 -63 48 -63c4 0 9 0 14 1v-13h-34c-9 0 -47 4 -55 4c-7 0 -39 -4 -45 -4h-44v13c6 -1 13 -1 20 -1c40 0 40 29 40 64v367c0 38 0 69 -44 69c-6 0 -12 0 -18 -1v12l15 1c22 0 56 -4 78 -4
c11 0 60 4 71 4s12 0 21 -1z" />
    <glyph glyph-name="J" unicode="J" horiz-adv-x="278" 
d="M34 -185v9c79 24 86 120 86 178v445c0 26 0 65 -48 65c-6 0 -13 0 -19 -1v10c10 2 19 3 32 3c10 0 51 -4 60 -4c12 0 64 3 74 3c11 0 14 -1 21 -3v-11c-6 2 -13 3 -19 3c-41 0 -46 -31 -46 -59l-1 -444c0 -60 -30 -156 -140 -194z" />
    <glyph glyph-name="K" unicode="K" horiz-adv-x="519" 
d="M123 73v385c0 22 0 54 -39 54c-8 0 -17 -1 -24 -2v12l7 1c6 1 13 1 17 1c9 0 49 -6 63 -6c15 0 52 6 61 6s18 0 35 -3v-11c-7 1 -14 2 -20 2c-14 0 -47 -11 -47 -60v-164l142 138c20 20 45 46 45 68c0 6 -3 20 -24 20c-5 0 -9 0 -13 -1v9c6 1 13 2 21 2c4 0 47 -4 56 -4
c4 0 42 4 50 4c10 0 15 -1 22 -3v-10c-6 1 -11 2 -17 2c-11 0 -26 -5 -46 -22l-203 -194l180 -218c57 -68 81 -68 102 -68c13 0 19 2 26 4c1 -2 1 -6 2 -9c-22 -7 -45 -10 -68 -10c-38 0 -73 25 -104 62l-171 207h-2v-186c0 -36 20 -68 50 -68c7 0 14 1 24 3v-9
c-13 -5 -16 -5 -34 -5c-11 0 -58 5 -68 5c-11 0 -60 -5 -70 -5c-8 0 -12 1 -18 4v9c8 -1 16 -2 24 -2c34 0 41 32 41 62z" />
    <glyph glyph-name="L" unicode="L" horiz-adv-x="463" 
d="M176 471v-415c0 -23 6 -39 71 -39c58 0 101 9 144 36c28 17 46 32 49 65h7c0 -16 0 -29 -16 -54c-7 -11 -36 -49 -40 -66c-29 1 -59 2 -88 2h-210c-8 -1 -13 -2 -18 -2c-6 0 -12 1 -17 2v11c6 -1 12 -1 18 -1c34 0 44 17 44 48v370c0 40 0 84 -51 84c-5 0 -11 0 -16 -1
v11c8 1 16 2 25 2c29 0 57 -6 67 -6c9 0 35 6 57 6c13 0 24 -1 36 -2v-11c-7 1 -9 1 -20 1c-16 0 -24 -2 -29 -7c-6 -6 -13 -16 -13 -34z" />
    <glyph glyph-name="M" unicode="M" horiz-adv-x="685" 
d="M37 2v11c7 -1 14 -2 21 -2c15 0 44 0 50 80l25 367c4 53 -26 55 -54 55v9c25 2 28 2 36 2c18 0 58 -1 66 -22l158 -404l147 375c18 47 55 51 85 51c14 0 22 -1 31 -2v-10c-6 0 -12 1 -18 1c-7 0 -13 0 -20 -1c-14 -14 -24 -24 -20 -66l31 -362c3 -40 11 -73 47 -73
c7 0 15 1 22 3v-11c-10 -2 -18 -3 -31 -3c-10 0 -52 6 -60 6c-11 0 -59 -6 -69 -6c-12 0 -14 0 -19 1v11c6 -1 12 -1 18 -1c38 0 41 26 41 55c0 3 0 20 -2 43l-29 327h-2l-163 -412l-15 -3l-162 418h-2l-19 -357c-2 -40 1 -71 39 -71c5 0 9 0 14 1v-12c-21 0 -60 6 -71 6
c-10 0 -31 -6 -47 -6c-15 0 -17 0 -28 2z" />
    <glyph glyph-name="N" unicode="N" horiz-adv-x="648" 
d="M113 97v378l-19 19c-15 15 -19 18 -40 18h-12v11c6 0 17 1 38 1c27 0 49 -2 55 -6c6 -3 15 -9 20 -15l364 -422v346c0 44 -5 59 -15 70c-6 9 -24 15 -35 15c-6 0 -14 0 -20 -1v12c5 1 24 1 37 1c11 0 25 -3 47 -3c19 0 36 3 51 3c8 0 13 0 20 -1v-12c-5 1 -10 1 -15 1
c-37 0 -49 -17 -49 -85v-421c0 -3 -1 -8 -6 -11c0 0 -4 -1 -6 -1s-7 0 -11 2l-383 454v-353c0 -44 5 -59 15 -70c6 -9 24 -15 35 -15c6 0 14 0 20 1v-12c-5 -1 -24 -1 -37 -1c-11 0 -25 3 -47 3c-19 0 -36 -3 -51 -3c-8 0 -13 0 -20 1v12c5 -1 10 -1 15 -1c37 0 49 17 49 85
z" />
    <glyph glyph-name="O" unicode="O" horiz-adv-x="630" 
d="M590 265c0 -112 -93 -271 -271 -271c-185 0 -278 123 -278 260c0 142 121 276 276 276c160 0 273 -103 273 -265zM535 228c0 100 -56 285 -227 285c-122 0 -212 -103 -212 -243c0 -110 72 -258 230 -258c126 0 209 92 209 216z" />
    <glyph glyph-name="P" unicode="P" horiz-adv-x="444" 
d="M46 3v11c10 -2 15 -3 19 -3c6 0 23 2 24 3c9 6 22 14 22 52v373c0 57 -5 73 -45 73c-8 0 -14 0 -22 -1v13c15 0 84 -5 97 -5c20 0 64 5 112 5c77 0 154 -29 154 -122c0 -77 -71 -132 -169 -132c-35 0 -49 5 -71 12v-213c0 -23 7 -38 25 -54c2 -1 10 -4 16 -4s21 3 30 6
v-10c-11 -4 -26 -7 -39 -7c-10 0 -55 5 -61 5c-11 0 -49 -5 -64 -5c-16 0 -21 1 -28 3zM167 481v-178c15 -7 31 -16 63 -16c42 0 118 24 118 105c0 82 -62 116 -133 116c-34 0 -48 -5 -48 -27z" />
    <glyph glyph-name="Q" unicode="Q" horiz-adv-x="630" 
d="M662 -63h9c-37 -90 -124 -114 -171 -114c-56 0 -92 20 -157 66c-77 54 -86 60 -108 60c-35 0 -46 -15 -54 -28l-9 5c19 31 43 47 79 47c33 0 47 -5 131 -54c48 -28 86 -50 139 -50c46 0 112 16 141 68zM41 238c0 163 121 292 276 292c160 0 273 -103 273 -265
c0 -112 -93 -270 -271 -270c-192 0 -278 122 -278 243zM96 270c0 -105 72 -257 230 -257c126 0 209 91 209 215c0 89 -56 285 -227 285c-122 0 -212 -103 -212 -243z" />
    <glyph glyph-name="R" unicode="R" horiz-adv-x="519" 
d="M171 281v-225c0 -24 12 -39 33 -45c10 0 19 1 27 2v-11c-8 -1 -15 -2 -24 -2c-11 0 -49 5 -71 5c-15 0 -48 -5 -61 -5c-8 0 -14 0 -24 2v12c8 -1 14 -2 21 -2c8 0 16 1 24 2c18 19 22 29 22 62v387c0 21 -2 49 -37 49c-7 0 -15 -1 -21 -1v12c12 1 12 1 27 1
c9 0 49 -3 57 -3l79 3c13 0 28 1 40 1c97 0 158 -53 158 -130c0 -64 -55 -119 -155 -125c39 -44 46 -55 104 -152c32 -53 67 -112 113 -112c13 0 19 3 31 8v-8c-14 -6 -26 -10 -59 -10c-62 0 -87 26 -162 155c-17 29 -66 108 -82 117c-6 3 -35 10 -40 13zM171 476v-176
c18 -10 36 -20 75 -20c49 0 115 33 115 110c0 31 -18 117 -130 117c-60 0 -60 -14 -60 -31z" />
    <glyph glyph-name="S" unicode="S" horiz-adv-x="389" 
d="M216 319l40 -33c61 -50 89 -98 89 -155c0 -44 -26 -132 -160 -132c-60 0 -88 30 -132 30c0 27 -14 67 -14 94c0 9 0 23 4 33h9c-1 -9 -2 -16 -2 -25c0 -16 2 -34 7 -44c1 -2 24 -29 47 -45c13 -10 38 -28 85 -28c60 0 110 41 110 103c0 64 -55 111 -90 141l-41 35
c-59 50 -91 78 -91 133c0 47 40 103 114 103c31 0 47 -6 105 -28c6 -19 7 -28 7 -47c0 -9 0 -25 -7 -48h-10c1 7 5 30 5 43c0 4 -34 64 -96 64c-42 0 -76 -27 -76 -66c0 -21 5 -52 97 -128z" />
    <glyph glyph-name="T" unicode="T" horiz-adv-x="444" 
d="M201 83v395c0 12 -11 22 -23 22h-78c-6 0 -54 -20 -76 -75l-5 1c3 23 7 31 44 98c41 -7 80 -7 111 -7c33 0 181 5 217 5c19 0 34 -8 34 -34c0 -6 -6 -36 -35 -68c-2 1 -5 4 -7 5c9 10 16 22 20 28v8c0 40 -27 40 -43 40h-60c-33 0 -45 -4 -45 -30v-415
c0 -22 10 -34 21 -43c7 -1 18 -2 23 -2c8 0 12 1 18 4v-12c-7 -3 -12 -3 -21 -3c-22 0 -49 3 -74 3c-11 0 -57 -3 -66 -3c-12 0 -16 1 -24 3v12c9 -2 18 -3 27 -3c7 0 15 1 27 3c12 17 15 31 15 68z" />
    <glyph glyph-name="U" unicode="U" horiz-adv-x="593" 
d="M96 179v274c0 54 -31 59 -37 59c-5 0 -17 -2 -30 -4v13c9 2 18 3 30 3c11 0 60 -5 70 -5s21 0 30 1c6 1 31 4 36 4c10 0 19 -1 27 -2v-13c-10 2 -14 3 -28 3c-40 0 -44 -41 -44 -77l-1 -246c0 -35 0 -175 167 -175c56 0 123 36 145 92c15 38 15 82 15 108v224
c0 27 -7 60 -35 72c-1 1 -9 2 -15 2s-17 -2 -23 -4v13c7 2 13 3 24 3c17 0 41 -5 58 -5c15 0 43 5 54 5s15 -1 21 -3v-13c-7 2 -14 4 -19 4c-4 0 -12 -1 -14 -2c-27 -21 -30 -32 -30 -98v-174c0 -83 -4 -141 -54 -191c-45 -45 -111 -52 -136 -52c-131 0 -211 64 -211 184z
" />
    <glyph glyph-name="V" unicode="V" horiz-adv-x="537" 
d="M271 -6l-132 324c-45 108 -68 164 -93 193c-6 1 -12 1 -18 1s-11 -1 -19 -2v13c8 1 14 1 23 1c10 0 51 -3 59 -3c11 0 59 3 69 3c12 0 16 -1 25 -3v-12c-7 1 -12 3 -20 3c-25 0 -39 -10 -39 -20c0 -3 1 -9 4 -16l164 -386l146 343c6 13 7 26 7 36c0 21 -6 32 -13 41
c-9 2 -10 2 -21 2c-9 0 -10 0 -17 -1v12c9 1 16 1 25 1c7 0 38 -3 45 -3c8 0 43 3 50 3s12 0 19 -1v-13c-4 1 -7 2 -11 2c-28 0 -46 -42 -55 -62l-195 -456h-3z" />
    <glyph glyph-name="W" unicode="W" horiz-adv-x="741" 
d="M261 -6l-173 451c-15 40 -26 58 -36 65c-3 2 -12 2 -18 2c-9 0 -16 -1 -25 -2v13c9 1 11 1 26 1c18 0 51 -4 59 -4c13 0 39 4 61 4c10 0 15 0 26 -2v-12c-5 1 -12 2 -21 2l-14 -3c-6 -4 -12 -7 -12 -20c0 -9 3 -17 6 -25l142 -371l84 215l-60 155c-10 26 -19 42 -26 46
c-5 3 -16 3 -25 3c-6 0 -13 0 -19 -1v12c5 0 11 1 16 1c9 0 53 -4 58 -4c17 0 33 4 53 4c8 0 16 0 21 -1v-12c-4 1 -8 1 -11 1c-5 0 -9 0 -13 -1c-5 -2 -8 -7 -8 -15c0 -5 1 -10 3 -16l40 -99l34 87c4 11 6 20 6 25s0 10 -1 13c-2 3 -4 4 -7 5c-4 1 -7 1 -10 1
c-2 0 -4 0 -7 -1v12c5 1 11 1 16 1c8 0 32 -4 42 -4c6 0 28 4 35 4s15 -1 22 -2v-11c-8 1 -11 1 -19 1c-20 0 -42 -4 -64 -61l-37 -97l101 -261l138 351c2 6 8 32 8 40c0 14 -7 23 -13 26c-8 1 -14 2 -22 2c-5 0 -11 0 -17 -1v12c6 0 13 1 19 1c8 0 44 -4 51 -5
c9 0 45 5 52 5c4 0 8 -1 15 -2c0 -2 -1 -6 -1 -11c-4 1 -7 1 -11 1c-33 0 -54 -49 -63 -73l-172 -445h-3l-111 286l-112 -286h-3z" />
    <glyph glyph-name="X" unicode="X" horiz-adv-x="500" 
d="M21 2v11c11 -1 13 -1 36 2c29 19 58 64 58 65l114 187l-99 161c-19 30 -54 84 -76 84c-4 0 -22 -2 -26 -2v12c18 2 22 2 29 2c10 0 53 -3 61 -3c3 0 14 1 25 2c12 1 24 1 28 1c14 0 20 -1 28 -3v-12c-6 1 -11 3 -17 3c-10 0 -26 -5 -26 -18c0 -11 11 -30 15 -36l88 -142
l84 134c6 10 10 23 10 33c0 2 -1 29 -25 29c-7 0 -14 -1 -22 -3v13c8 1 14 2 22 2c10 0 52 -5 61 -5c8 0 44 5 52 5c10 0 11 0 17 -1v-13c-5 1 -10 2 -16 2c-38 0 -76 -57 -82 -67l-90 -145l147 -240c31 -48 41 -48 63 -48c11 0 12 0 20 1v-13c-24 0 -87 5 -96 5
c-11 0 -55 -5 -65 -5c-6 0 -16 1 -22 2v11c7 0 15 -1 22 -1c8 0 15 0 23 1c4 3 7 8 7 15c0 12 -6 22 -15 36l-114 186l-103 -169c-8 -14 -12 -28 -12 -40c0 -29 17 -29 30 -29c11 0 12 0 21 1v-12c-16 -1 -16 -1 -30 -1s-46 5 -52 5c-12 0 -52 -5 -57 -5c-4 0 -12 1 -16 2z
" />
    <glyph glyph-name="Y" unicode="Y" horiz-adv-x="463" 
d="M137 3v13c10 -3 19 -4 32 -4c3 0 8 0 9 1c20 15 26 52 26 84v175l-133 207c-9 14 -22 26 -32 33c-20 0 -23 0 -32 -1v11c9 1 18 2 29 2c15 0 43 -4 55 -4c17 0 36 4 57 4c16 0 24 -1 33 -3v-14c-8 3 -18 5 -28 5c-9 0 -14 -2 -20 -6c-2 -2 -5 -8 -5 -13
c0 -7 12 -23 16 -30l111 -171l89 138c8 13 25 41 25 56c0 10 -3 16 -8 24c-9 1 -16 2 -25 2c-6 0 -13 0 -19 -1v12c8 1 12 1 23 1c21 0 45 -4 53 -4c9 0 36 4 48 4c14 0 18 -1 24 -4v-11c-6 2 -10 3 -17 3c-14 0 -22 -6 -26 -9c-5 -3 -19 -14 -43 -52l-120 -186v-185
c0 -32 14 -56 33 -67c1 -1 12 -1 16 -1c3 0 11 1 18 2v-12c-10 -1 -20 -2 -30 -2c-22 0 -52 4 -66 4s-41 -4 -62 -4c-10 0 -20 1 -31 3z" />
    <glyph glyph-name="Z" unicode="Z" horiz-adv-x="500" 
d="M32 13l334 487c-14 0 -27 -1 -41 -1c-16 0 -89 4 -104 4c-79 0 -107 -16 -134 -33c-23 -13 -20 -16 -30 -48h-11c5 30 7 34 29 68c14 22 16 24 20 38c26 -5 206 -11 237 -11c3 0 45 0 99 5c1 -3 1 -6 1 -8c0 -9 -10 -27 -15 -34l-316 -460h222c81 0 130 39 131 40
c21 17 23 33 24 55h12c-3 -33 -6 -41 -24 -65c-27 -35 -30 -39 -34 -54c-12 2 -32 3 -53 4c-20 1 -41 1 -54 1h-283c-3 0 -7 1 -10 2c0 3 -2 8 0 10z" />
    <glyph glyph-name="bracketleft" unicode="[" horiz-adv-x="222" 
d="M74 -58v588h114v-21h-82v-546h84v-21h-116z" />
    <glyph glyph-name="backslash" unicode="\" horiz-adv-x="278" 
d="M247 -6h-37l-182 536h37z" />
    <glyph glyph-name="bracketright" unicode="]" horiz-adv-x="222" 
d="M148 530v-588h-114v21h82v546h-84v21h116z" />
    <glyph glyph-name="asciicircum" unicode="^" horiz-adv-x="600" 
d="M482 137l-182 351l-183 -351h-39l202 387h41l201 -387h-40z" />
    <glyph glyph-name="underscore" unicode="_" horiz-adv-x="500" 
d="M500 -125h-500v50h500v-50z" />
    <glyph glyph-name="quoteleft" unicode="&#x2018;" horiz-adv-x="148" 
d="M100 539l9 -8c-26 -25 -30 -32 -39 -53c6 1 11 3 17 3c23 0 36 -17 36 -33c0 -17 -13 -35 -36 -35c-21 0 -36 17 -36 42c0 26 17 56 49 84z" />
    <glyph glyph-name="a" unicode="a" horiz-adv-x="444" 
d="M2 1v9c5 0 10 -1 15 -1s15 1 16 2s15 11 16 13c8 12 19 28 23 39l139 368h11l139 -351c16 -40 22 -51 33 -67c1 -2 15 -3 20 -3s16 3 19 3v-11c-6 -1 -12 -2 -20 -2c-9 0 -38 4 -60 4c-23 0 -43 -4 -57 -4c-6 0 -11 0 -18 1v11c6 -1 13 -2 18 -2c4 0 11 1 15 2
c5 1 12 9 12 22c0 10 -3 18 -5 23l-54 134h-125l-44 -118c-5 -14 -7 -26 -7 -33c0 -14 6 -31 25 -31c7 0 14 1 21 1v-9c-5 -1 -11 -1 -17 -1c-16 0 -39 2 -54 2c-19 0 -34 -2 -44 -2c-9 0 -12 0 -17 1zM147 207h111l-58 144z" />
    <glyph glyph-name="b" unicode="b" horiz-adv-x="426" 
d="M37 1v11c6 -1 11 -2 17 -2c45 0 44 34 44 69v287c0 18 -2 48 -30 48c-5 0 -13 0 -24 -1v10c6 1 10 2 20 2c12 0 63 -4 73 -4l84 1c30 0 118 1 118 -82c0 -73 -71 -88 -101 -94v-2c121 -15 128 -97 128 -116c0 -78 -66 -128 -139 -128c-21 0 -113 3 -131 3
c-8 0 -40 -3 -47 -3c-5 0 -8 0 -12 1zM207 235h-61v-178c0 -23 0 -43 47 -43c51 0 120 0 120 103c0 91 -61 118 -106 118zM146 383v-132h52c15 0 30 2 44 7c22 9 44 28 44 68c0 80 -71 80 -109 80c-17 0 -31 -3 -31 -23z" />
    <glyph glyph-name="c" unicode="c" horiz-adv-x="500" 
d="M443 285h-9c1 8 1 20 1 30c0 4 -18 35 -34 52c-23 23 -69 45 -123 45c-101 0 -175 -78 -175 -201c0 -86 48 -201 185 -201c72 0 129 27 146 41c15 12 22 24 29 37l8 -6c-8 -15 -15 -28 -27 -40c-13 -13 -58 -47 -164 -47c-172 0 -238 104 -238 206c0 125 100 230 227 230
c70 0 106 -28 136 -28c9 0 18 2 23 4h8c0 -19 9 -47 10 -56c1 -6 1 -27 1 -35c0 -18 -2 -25 -4 -31z" />
    <glyph glyph-name="d" unicode="d" horiz-adv-x="537" 
d="M37 2v10c5 -1 14 -2 20 -2c4 0 19 1 25 5c8 7 15 18 15 52v309c0 20 -11 35 -19 37c-5 1 -11 1 -18 1c-10 0 -14 -2 -21 -2v11c10 2 14 2 22 2c25 0 42 -5 72 -5c23 0 53 5 121 5c196 0 233 -157 233 -214s-23 -118 -78 -165c-45 -38 -93 -46 -143 -46
c-32 0 -116 3 -135 3c-20 0 -58 -3 -69 -3c-10 0 -20 1 -25 2zM148 382v-326c0 -24 0 -39 92 -39c39 0 191 0 191 176c0 76 -35 213 -192 213c-91 0 -91 -2 -91 -24z" />
    <glyph glyph-name="e" unicode="e" horiz-adv-x="407" 
d="M334 339h-6c-6 69 -117 72 -140 72c-17 0 -25 -3 -35 -8c-2 -5 -5 -10 -5 -15v-148h61c27 0 57 0 57 29c0 8 -3 16 -6 24c2 1 5 1 7 2c3 -4 6 -7 8 -16c3 -12 1 -31 3 -43c1 -9 16 -47 16 -54v-14h-7c-12 48 -36 51 -139 51v-177c0 -22 15 -22 44 -22c48 0 154 0 169 73
h7c-1 -25 -4 -29 -25 -59c-16 -22 -18 -25 -24 -39c-11 2 -21 3 -31 4c-13 1 -52 1 -70 1c-33 0 -67 2 -100 2c-18 0 -36 -2 -54 -2c-22 0 -24 0 -32 1v11c7 -1 12 -2 19 -2c41 0 46 23 46 55v308c0 27 -4 44 -32 44l-28 -2v12l15 1c21 1 111 -1 130 -1c85 0 90 1 125 6
c3 -11 25 -67 25 -68c2 -8 2 -17 2 -26z" />
    <glyph glyph-name="f" unicode="f" horiz-adv-x="370" 
d="M102 68v295c0 49 -11 56 -32 56c-17 0 -24 -1 -31 -1v10c11 2 19 3 34 3c10 0 26 -1 49 -3c23 -1 53 -3 89 -3c31 0 62 2 91 6c19 -27 35 -60 36 -95l-7 -1c-4 28 -10 48 -61 63c-24 7 -61 10 -86 10c-31 0 -31 -13 -31 -21v-153c64 0 116 0 116 31c0 5 -6 24 -7 28l8 3
c13 -34 7 -62 18 -87c8 -18 8 -44 8 -52h-8c0 18 0 20 -3 33c-31 23 -39 27 -132 25v-148c0 -46 25 -57 42 -57c9 0 10 0 20 1v-11c-31 0 -61 0 -92 1c-9 0 -49 -3 -57 -3c-7 0 -15 1 -27 2v11c9 -2 13 -3 28 -3c24 0 35 27 35 60z" />
    <glyph glyph-name="g" unicode="g" horiz-adv-x="519" 
d="M387 84v66c0 31 -22 32 -33 32c-7 0 -14 -1 -21 -3v11c6 1 9 2 21 2c9 0 46 -4 54 -4c9 0 46 4 54 4c10 0 16 -1 24 -3v-10c-8 2 -13 3 -22 3c-26 0 -26 -41 -26 -65v-33c0 -9 2 -18 3 -24c-29 -25 -76 -65 -178 -65c-159 0 -228 118 -228 213c0 44 14 80 21 95
c31 67 109 128 203 128c58 0 105 -27 133 -27c11 0 16 5 19 8h3c0 -25 13 -60 13 -86c0 -15 -2 -25 -5 -34h-9c2 7 4 13 4 21c0 31 -61 99 -147 99c-79 0 -178 -48 -178 -196c0 -80 53 -206 178 -206c58 0 117 29 117 74z" />
    <glyph glyph-name="h" unicode="h" horiz-adv-x="537" 
d="M97 57v319c0 16 -11 35 -19 37c-5 1 -11 1 -18 1c-10 0 -19 -2 -23 -2v10c10 2 19 3 27 3c12 0 32 -5 48 -5s41 5 56 5c13 0 25 -1 36 -4v-9c-10 2 -10 2 -22 2c-27 0 -34 -27 -34 -36v-142h241c0 132 0 178 -37 178c-5 0 -24 -2 -28 -2v9c10 3 13 4 24 4
c18 0 48 -5 56 -5c11 0 44 5 66 5c19 0 21 0 29 -3v-10c-7 1 -13 1 -20 1c-8 0 -15 -1 -24 -2c-8 -10 -15 -19 -15 -38v-310c0 -38 23 -55 35 -55c4 0 21 2 25 2v-9c-9 -1 -11 -1 -22 -1s-58 5 -68 5c-9 0 -48 -5 -56 -5c-17 0 -19 0 -28 1v11l31 -3c32 0 32 45 32 66v143
h-241v-150c0 -30 12 -58 33 -58c9 0 18 1 27 2v-10c-7 -1 -17 -2 -28 -2c-10 0 -53 5 -62 5c-10 0 -52 -5 -60 -5c-6 0 -13 1 -19 1v11c8 -1 17 -2 24 -2c34 0 34 26 34 47z" />
    <glyph glyph-name="i" unicode="i" 
d="M44 2v10c7 -1 15 -1 22 -1s13 0 20 1c13 13 18 20 18 64v278c0 35 -4 44 -21 59c-8 1 -15 1 -23 1c-7 0 -13 0 -21 -1v9c10 2 17 3 32 3c9 0 50 -4 58 -4c10 0 52 4 60 4s19 -2 26 -3v-9c-9 1 -11 1 -22 1c-25 0 -38 -17 -38 -42v-315c0 -22 11 -37 19 -45
c7 -1 13 -2 20 -2s14 1 21 2v-10c-6 -2 -7 -2 -17 -2c-12 0 -62 4 -72 4s-54 -4 -63 -4c-5 0 -14 1 -19 2z" />
    <glyph glyph-name="j" unicode="j" 
d="M16 -185v12c50 25 88 45 88 158v374c0 30 -3 38 -20 54c-7 1 -15 1 -22 1s-13 0 -20 -1v9c7 2 10 3 22 3c9 0 50 -5 58 -5c9 0 50 6 58 6c10 0 29 -2 38 -6v-8c-6 1 -19 2 -30 2c-27 0 -33 -41 -33 -52v-359c0 -117 -90 -174 -139 -188z" />
    <glyph glyph-name="k" unicode="k" horiz-adv-x="444" 
d="M102 68v299c-1 23 -11 48 -30 48c-9 0 -17 0 -26 -1v9l7 1c9 1 14 1 20 1c8 0 34 -5 53 -5c17 0 44 5 52 5c6 0 16 -1 21 -2v-10c-6 1 -14 2 -21 2c-21 0 -28 -20 -28 -35v-151l123 125c8 8 26 27 26 42c0 13 -5 20 -18 19c-5 0 -10 -1 -15 -1v10c6 0 12 1 18 1
c12 0 28 -5 49 -5c22 0 39 5 52 5c9 0 15 -2 18 -4v-9c-5 1 -9 2 -14 2c-32 0 -70 -38 -102 -70l-99 -100l156 -187c20 -24 41 -50 73 -50c3 0 20 5 23 6c1 -2 1 -6 2 -8c-15 -6 -18 -7 -49 -7c-58 0 -77 23 -102 52l-141 168v-157c0 -32 13 -42 28 -54c9 0 25 1 34 2v-9
c-8 0 -22 -2 -32 -2c-14 0 -47 4 -61 4c-27 0 -49 -4 -62 -4c-8 0 -14 1 -18 2v9c7 -1 13 -1 20 -1s15 0 22 1c18 19 21 28 21 59z" />
    <glyph glyph-name="l" unicode="l" horiz-adv-x="407" 
d="M222 15c51 0 79 11 102 21c18 8 36 17 42 24c13 15 19 30 19 44h9c-4 -32 -18 -57 -22 -61c-6 -7 -23 -31 -31 -45c-44 1 -183 4 -215 4c-11 0 -27 -1 -42 -2c-14 -1 -27 -2 -32 -2c-3 0 -7 1 -10 1v10c6 0 12 -1 18 -1c4 0 18 2 19 3c23 13 23 32 23 59v284
c0 28 -3 40 -21 60c-6 1 -13 1 -19 1c-9 0 -16 -1 -25 -2v9c7 1 15 3 30 3c13 0 41 -5 56 -5c11 0 42 5 68 5c7 0 10 0 17 -1v-9c-6 0 -13 1 -19 1c-29 0 -39 -22 -39 -45v-320c0 -30 35 -36 72 -36z" />
    <glyph glyph-name="m" unicode="m" horiz-adv-x="574" 
d="M16 2v11c6 -1 12 -2 18 -2c23 0 25 3 29 7c23 23 27 70 27 76l15 250c1 15 2 29 2 44c0 12 -3 16 -10 23c-8 1 -15 1 -23 1c-7 0 -13 0 -21 -1v10c6 0 39 3 41 3c15 0 56 0 63 -18l128 -310l122 295c8 19 14 35 61 35c20 0 34 -2 48 -5v-10c-9 1 -16 3 -23 3
c-34 0 -34 -27 -34 -37c0 -6 1 -18 2 -27l25 -266c4 -46 12 -59 31 -73c11 -4 23 -3 36 -1v-9c-6 -1 -7 -1 -17 -1c-24 0 -59 4 -67 4c-17 0 -40 -4 -56 -4c-17 0 -18 0 -29 1v9l25 -1c12 0 32 0 32 39c0 6 0 18 -2 36l-25 274h-2l-140 -337h-7l-140 342h-2l-17 -299
c-1 -23 -2 -52 29 -53l27 1v-11c-11 -1 -12 -1 -27 -1c-13 0 -34 4 -51 4c-11 0 -38 -4 -43 -4c-15 0 -16 0 -25 2z" />
    <glyph glyph-name="n" unicode="n" horiz-adv-x="556" 
d="M32 0v10c5 -1 15 -2 22 -2c3 0 19 1 21 2c24 15 25 80 25 83v291l-10 11c-12 13 -18 18 -36 18c-8 0 -14 -1 -22 -2v10c14 3 30 4 46 4c31 0 53 -2 69 -20l295 -334v269c0 28 -2 56 -22 74c-7 1 -13 1 -20 1c-6 0 -12 0 -18 -1v9c10 2 18 2 26 2c18 0 32 -5 47 -5
c11 0 27 5 38 5c12 0 19 -1 28 -3v-10c-12 2 -14 2 -35 2c-15 -10 -25 -17 -25 -66v-345c0 -7 -7 -9 -12 -9c-3 0 -7 1 -11 6l-320 365v-299c0 -19 8 -58 45 -58c7 0 14 1 20 2v-10c-8 -1 -17 -2 -27 -2c-11 0 -21 4 -48 4c-23 0 -42 -4 -52 -4c-13 0 -17 1 -24 2z" />
    <glyph glyph-name="o" unicode="o" horiz-adv-x="537" 
d="M35 193c0 100 62 238 234 238c160 0 234 -104 234 -199c0 -100 -62 -238 -234 -238c-160 0 -234 104 -234 199zM81 235c0 -111 82 -223 200 -223c95 0 171 62 171 176c0 111 -82 223 -200 223c-95 0 -171 -62 -171 -176z" />
    <glyph glyph-name="p" unicode="p" horiz-adv-x="389" 
d="M37 1v11c7 -1 13 -2 20 -2s20 2 25 4c9 11 13 20 13 50v291c0 30 -2 61 -41 61c-6 0 -12 -1 -19 -2v10c3 1 14 1 25 1c12 0 51 -5 59 -5c27 0 58 2 114 2c63 0 117 -24 117 -90s-59 -117 -140 -117c-30 0 -48 7 -64 14v-173c0 -23 9 -33 26 -46c15 -1 29 1 36 2v-10
c-11 -2 -17 -2 -34 -2c-20 0 -45 5 -56 5c-13 0 -44 -5 -57 -5c-10 0 -17 1 -24 1zM146 383v-135c14 -8 27 -15 58 -15c72 0 92 49 92 88c0 42 -24 85 -102 85c-25 0 -48 -3 -48 -23z" />
    <glyph glyph-name="q" unicode="q" horiz-adv-x="537" 
d="M576 -59h10c-34 -73 -91 -111 -160 -111c-50 0 -81 20 -126 58c-56 48 -74 63 -106 63c-25 0 -32 -7 -45 -25c-2 1 -6 1 -9 2c11 16 23 36 49 43c11 3 23 3 26 3c28 0 37 -7 121 -67c38 -27 53 -39 102 -39c32 0 108 11 138 73zM35 193c0 100 62 238 234 238
c160 0 234 -104 234 -199c0 -100 -62 -238 -234 -238c-160 0 -234 104 -234 199zM81 235c0 -111 82 -223 200 -223c95 0 171 62 171 176c0 111 -82 223 -200 223c-95 0 -171 -62 -171 -176z" />
    <glyph glyph-name="r" unicode="r" horiz-adv-x="463" 
d="M102 59v309c0 23 -7 36 -16 42c-9 5 -26 5 -31 5c-3 0 -8 0 -13 -1v9c4 1 8 2 13 2c14 0 47 -6 65 -5l51 3c20 1 51 3 61 3c26 0 127 -1 127 -102c0 -60 -48 -97 -125 -104v-2c8 -4 12 -6 19 -17l92 -140c28 -42 57 -54 83 -54c7 0 17 3 21 6c1 -2 1 -6 2 -9
c-8 -3 -24 -7 -57 -7c-28 0 -62 0 -101 61l-84 133c-4 6 -20 25 -27 28c-5 2 -28 5 -32 7v-142c0 -41 1 -76 36 -76c7 0 13 1 20 1v-10c-13 -2 -15 -2 -20 -2c-4 0 -10 1 -18 2c-7 1 -16 2 -37 3c-10 0 -25 -1 -36 -2c-10 -1 -17 -2 -23 -2c-12 0 -20 0 -28 1v10
c7 -1 15 -1 20 -1c8 0 15 1 24 4c14 16 14 22 14 47zM150 386v-143c16 -5 28 -9 52 -9c58 0 104 27 104 86c0 87 -89 87 -131 87c-13 0 -25 -4 -25 -21z" />
    <glyph glyph-name="s" unicode="s" horiz-adv-x="352" 
d="M41 140l8 -1c-3 -8 -5 -17 -5 -26c0 -30 45 -103 120 -103c59 0 89 44 89 87c0 47 -28 71 -83 117c-78 66 -99 84 -99 129c0 9 2 86 96 86c21 0 40 -3 68 -13l25 -9c-2 -15 -2 -16 -2 -28l1 -33c0 -13 -2 -19 -7 -30l-8 3c3 7 6 14 6 21c0 10 -16 73 -79 73
c-32 0 -61 -16 -61 -49c0 -34 24 -53 74 -95c88 -73 115 -105 115 -160c0 -80 -73 -114 -125 -114c-37 0 -40 1 -132 36c-5 34 -7 54 -7 59c0 31 0 34 6 50z" />
    <glyph glyph-name="t" unicode="t" horiz-adv-x="389" 
d="M167 96v274c0 30 0 38 -39 38c-79 0 -102 -38 -116 -62c-2 1 -4 4 -6 5c13 23 25 43 29 52c4 8 9 20 12 28c4 1 8 1 11 1s45 -5 54 -5c19 -1 69 -3 93 -3c10 0 43 1 58 2l53 5c33 0 42 -11 42 -34c0 -11 -11 -31 -36 -60l-7 3c12 18 17 25 17 37c0 30 -35 30 -79 30
c-34 0 -35 -9 -35 -19v-316c0 -50 21 -62 34 -62l26 1v-10c-17 -1 -17 -1 -30 -1c-14 0 -47 4 -60 4s-45 -4 -52 -4h-34v11c7 -1 12 -1 19 -1c6 0 13 0 20 1c18 21 26 29 26 85z" />
    <glyph glyph-name="u" unicode="u" horiz-adv-x="519" 
d="M25 413v9c3 1 8 2 11 2l23 1c8 0 41 -5 47 -5c10 0 55 5 64 5c20 0 26 -2 31 -4v-9c-7 2 -13 3 -23 3c-23 0 -39 -35 -39 -56v-214c0 -55 33 -132 133 -132c140 0 140 120 140 156v162c0 39 -9 83 -52 83c-4 0 -8 0 -13 -1v9c6 2 12 3 18 3c15 0 43 -5 52 -5
c11 0 36 5 52 5c13 0 14 0 22 -3v-9c-4 1 -9 1 -13 1c-28 0 -47 -17 -47 -72v-171c0 -65 -12 -176 -176 -176c-165 0 -165 121 -165 175l-1 177c0 36 -9 68 -34 68c-12 0 -20 -1 -30 -2z" />
    <glyph glyph-name="v" unicode="v" horiz-adv-x="444" 
d="M215 -6l-156 350c-30 67 -34 67 -63 69v9c4 1 9 2 13 2c9 0 32 -4 52 -4c12 0 38 4 45 4c9 0 19 -2 31 -4v-9c-7 1 -18 2 -23 2c-17 0 -21 -10 -21 -22c0 -9 2 -12 9 -29l136 -298l113 268c9 20 10 38 10 49c0 15 -9 31 -14 32c-3 0 -9 1 -16 1c-6 0 -11 -1 -16 -1v8
c2 1 12 3 17 3c9 0 34 -4 42 -4c9 0 35 5 45 5c6 0 13 0 21 -1v-10c-4 1 -7 1 -10 1c-5 0 -28 0 -50 -52l-154 -369h-11z" />
    <glyph glyph-name="w" unicode="w" horiz-adv-x="630" 
d="M219 -6l-158 388c-6 15 -13 32 -39 32c-7 0 -13 -1 -20 -1v9c3 1 11 2 19 2c11 0 27 -4 50 -4c20 0 48 4 61 4c4 0 10 -1 16 -2v-9c-4 0 -8 1 -12 1c-2 0 -9 0 -14 -2c-2 -1 -12 -8 -12 -15c0 -8 3 -14 5 -20l127 -314l69 177l-47 119c-5 12 -18 46 -34 53
c-2 1 -9 2 -18 2c-4 0 -9 -1 -13 -1v9c4 1 10 2 14 2c8 0 26 -3 37 -3c24 0 37 2 46 2c10 0 21 -1 28 -2v-9c-3 1 -6 1 -9 1c-5 0 -8 -1 -13 -4c-2 -4 -3 -8 -3 -11c0 -2 3 -8 7 -17l32 -77l27 64c4 9 5 23 5 31c0 3 0 7 -1 10c-4 3 -8 6 -13 6c-3 0 -6 -1 -9 -2v9
c3 1 8 2 12 2c5 0 21 -3 30 -3c15 0 29 4 44 4c5 0 12 0 16 -3v-9c-5 1 -11 3 -17 3c-32 0 -45 -29 -51 -42l-37 -88l90 -217l108 274c10 24 8 32 10 39c0 14 -6 22 -14 30c-6 1 -12 2 -17 2s-9 0 -14 -1v9c6 2 13 2 20 2c9 0 22 -3 33 -3c18 0 31 4 50 4c10 0 12 0 20 -3
v-8c-8 2 -9 2 -16 2c-12 0 -36 -23 -51 -60l-144 -362h-9l-91 228l-91 -228h-9z" />
    <glyph glyph-name="x" unicode="x" horiz-adv-x="444" 
d="M23 3v10c6 -2 12 -3 18 -3c29 0 58 41 70 60l94 148l-118 179c-11 17 -21 17 -28 17c-13 0 -13 0 -24 -1v9c8 2 15 3 26 3c8 0 42 -4 49 -4c8 0 44 4 52 4c9 0 10 0 16 -3v-8c-4 1 -10 2 -14 2c-12 0 -15 -11 -15 -18c0 -9 5 -17 7 -20l76 -116l59 92c9 14 15 34 15 42
c0 10 -4 20 -20 20c-6 0 -13 -1 -20 -2v8c9 2 13 2 20 2c9 0 29 -4 45 -4c10 0 36 4 43 4c9 0 25 -2 29 -3v-9c-7 1 -14 2 -21 2c-30 0 -50 -25 -70 -54l-73 -114l123 -189c23 -35 32 -49 71 -47v-9c-5 -1 -7 -1 -23 -1c-10 0 -53 2 -61 2s-41 -2 -48 -2c-10 0 -14 1 -19 2
v11c12 -3 15 -4 28 -3c3 6 6 10 6 17c0 16 -13 36 -21 48l-83 128l-89 -142c-5 -9 -10 -22 -10 -30c0 -11 7 -21 19 -21l28 3v-10c-16 -3 -17 -3 -32 -3c-1 0 -33 3 -39 3l-47 -2c-11 0 -12 0 -19 2z" />
    <glyph glyph-name="y" unicode="y" horiz-adv-x="407" 
d="M9 412v12l16 1c10 0 54 -5 63 -4l52 4c10 1 16 -1 22 -3v-8c-5 1 -11 2 -17 2c-16 0 -22 -9 -22 -17c0 -6 3 -15 7 -21l97 -142l80 124c5 9 12 20 12 33c0 20 -12 20 -20 20c-10 0 -10 0 -19 -1v10c5 1 13 3 19 3c8 0 41 -4 48 -4c8 0 40 4 47 4c3 0 6 -1 11 -3v-10
c-5 1 -9 1 -14 1c-22 0 -37 -9 -65 -53l-95 -148v-153c0 -22 11 -48 40 -48c13 -2 13 0 23 1v-10c-5 -2 -6 -2 -16 -2c-11 0 -59 5 -69 5c-9 0 -49 -5 -57 -5c-15 0 -16 0 -27 2v10c11 -1 14 -1 36 -1c12 9 20 17 20 55v154l-117 170c-16 23 -26 23 -33 23z" />
    <glyph glyph-name="z" unicode="z" horiz-adv-x="426" 
d="M333 0h-291c-4 0 -7 1 -11 1l-1 8l269 398h-165c-4 0 -80 -7 -91 -70h-7c1 20 4 24 23 63c8 15 9 18 13 32c9 -3 14 -5 20 -6s14 -1 27 -1h156c45 0 49 0 78 5l10 -14l-269 -397h180c85 0 132 42 143 69h8c-8 -25 -11 -28 -33 -56c-16 -20 -18 -22 -23 -33z" />
    <glyph glyph-name="braceleft" unicode="{" horiz-adv-x="222" 
d="M197 530v-8c-64 -8 -82 -34 -82 -82v-115c0 -48 -12 -76 -69 -88v-2c57 -12 69 -40 69 -88v-115c0 -48 18 -74 82 -82v-8c-63 0 -118 14 -118 96v119c0 44 -14 66 -76 79c62 13 76 35 76 79v119c0 82 55 96 118 96z" />
    <glyph glyph-name="bar" unicode="|" horiz-adv-x="222" 
d="M93 -250v1000h36v-1000h-36z" />
    <glyph glyph-name="braceright" unicode="}" horiz-adv-x="222" 
d="M25 -56v8c64 8 82 34 82 82v115c0 48 12 76 69 88v2c-57 12 -69 40 -69 88v115c0 48 -18 74 -82 82v8c63 0 118 -14 118 -96v-119c0 -44 14 -66 76 -79c-62 -13 -76 -35 -76 -79v-119c0 -82 -55 -96 -118 -96z" />
    <glyph glyph-name="asciitilde" unicode="~" horiz-adv-x="600" 
d="M469 267l27 -24c-25 -38 -57 -76 -109 -76c-33 0 -64 13 -92 29c-28 15 -57 29 -86 29c-36 0 -66 -37 -78 -60l-27 24c23 34 54 72 106 72c34 0 65 -13 93 -29c29 -15 58 -29 85 -29c36 0 67 37 81 64z" />
    <glyph glyph-name="exclamdown" unicode="&#xa1;" horiz-adv-x="222" 
d="M144 397c0 -19 -15 -34 -34 -34c-18 0 -34 15 -34 34s16 34 34 34c19 0 34 -15 34 -34zM32 -98v11c15 0 26 1 30 2c2 1 23 23 23 58v342h49l1 -341c0 -37 13 -50 24 -61c5 -1 10 -1 15 -1s8 0 13 1v-10c-7 -1 -14 -1 -21 -1c-9 0 -47 5 -55 5c-13 0 -40 -5 -79 -5z" />
    <glyph glyph-name="cent" unicode="&#xa2;" horiz-adv-x="407" 
d="M269 372l40 111h23l-43 -117c31 -13 37 -15 51 -15c5 0 10 1 16 2l18 -67c2 -8 1 -12 -7 -35l-8 1c2 6 3 12 3 18c0 15 -31 64 -80 77l-116 -317c30 -16 69 -16 79 -16c34 0 64 7 93 18c8 4 29 17 38 36l10 -4c-13 -28 -35 -42 -60 -52c-47 -18 -95 -18 -104 -18
c-25 0 -45 4 -67 8l-47 -125h-24l51 132c-94 45 -106 122 -106 163c0 63 24 144 103 183c23 12 55 21 87 21c17 0 33 -2 50 -4zM148 42l114 311c-11 1 -21 2 -32 2c-63 0 -139 -41 -139 -181c0 -20 6 -58 15 -77c13 -27 30 -44 42 -55z" />
    <glyph glyph-name="sterling" unicode="&#xa3;" horiz-adv-x="463" 
d="M46 255v23h50c-18 30 -39 68 -39 115c0 90 91 138 169 138c107 0 142 -55 163 -95c-8 -8 -37 -48 -44 -56c-6 -6 -17 -16 -26 -24c-1 2 -4 4 -5 6c24 26 26 28 26 39c0 23 0 108 -98 108c-57 0 -115 -39 -115 -120c0 -52 16 -88 26 -111h97v-23h-91c16 -30 29 -54 29 -93
c0 -44 -32 -79 -62 -106h190c49 0 61 3 75 42h11c-10 -25 -12 -27 -32 -52c-7 -9 -22 -29 -27 -46h-284c-3 0 -5 1 -8 2v10c30 25 106 89 106 136c0 36 -21 68 -48 107h-63z" />
    <glyph glyph-name="fraction" unicode="&#x2044;" horiz-adv-x="167" 
d="M-166 -11l464 539h35l-464 -539h-35z" />
    <glyph glyph-name="yen" unicode="&#xa5;" horiz-adv-x="574" 
d="M125 165v17h130v76h-130v17h128l-131 204c-9 14 -22 26 -32 33c-20 0 -23 0 -32 -1v11c9 1 18 2 29 2c15 0 43 -4 55 -4c17 0 36 4 57 4c16 0 24 -1 33 -3v-14c-8 3 -18 5 -28 5c-9 0 -14 -2 -20 -6c-2 -2 -5 -8 -5 -13c0 -7 12 -23 16 -30l111 -171l89 138
c8 13 25 41 25 56c0 10 -3 16 -8 24c-9 1 -16 2 -25 2c-6 0 -13 0 -19 -1v12c8 1 12 1 23 1c21 0 45 -4 53 -4c9 0 36 4 48 4c14 0 18 -1 24 -4v-13c-6 2 -11 3 -17 3c-8 0 -22 -6 -26 -9c-5 -3 -30 -31 -44 -52l-112 -174h123v-17h-130v-76h130v-17h-130v-85
c0 -32 14 -56 33 -67c1 -1 12 -1 16 -1c3 0 11 1 18 2v-12c-10 -1 -20 -2 -30 -2c-22 0 -52 4 -66 4s-41 -4 -62 -4c-10 0 -20 1 -31 3v13c10 -3 19 -4 32 -4c3 0 8 0 9 1c20 15 26 52 26 84v68h-130z" />
    <glyph glyph-name="florin" unicode="&#x192;" horiz-adv-x="407" 
d="M192 299h-109l3 18h110c24 137 39 223 140 223c32 0 52 -20 74 -52c-21 -34 -24 -43 -32 -68l-5 1c0 2 7 27 7 28c0 18 -15 69 -51 69c-25 0 -49 -4 -73 -201h100l-3 -18h-101c-3 -25 -36 -206 -44 -249c-19 -102 -39 -210 -132 -210c-48 0 -69 41 -77 56
c10 19 11 22 17 44c1 4 7 19 8 22h10c-5 -12 -7 -17 -7 -24c0 -22 18 -79 55 -79c36 0 46 44 62 135c5 27 23 145 27 169l12 74c5 29 5 34 9 62z" />
    <glyph glyph-name="section" unicode="&#xa7;" horiz-adv-x="407" 
d="M81 427c0 49 48 103 138 103c65 0 110 -38 110 -79c0 -29 -17 -44 -39 -44c-15 0 -32 11 -32 28c0 9 4 18 13 24c11 8 20 12 20 20c0 16 -29 40 -72 40c-58 0 -88 -35 -88 -70c0 -43 22 -61 111 -131c72 -56 114 -89 114 -147c0 -57 -43 -107 -108 -107
c-10 0 -18 1 -27 3l-2 -2l32 -26c48 -42 68 -67 68 -104c0 -77 -82 -100 -127 -100c-63 0 -118 32 -118 79c0 30 20 45 39 45c18 0 31 -14 31 -30c0 -14 -11 -22 -16 -26c-6 -4 -15 -10 -15 -23c0 -16 33 -33 73 -33c41 0 88 19 88 66c0 36 -9 50 -111 135
c-85 71 -112 99 -112 154c0 40 29 100 105 100c6 0 16 -1 24 -3l2 2l-29 22c-49 40 -72 76 -72 104zM84 228c0 -47 69 -117 120 -145c11 -6 20 -10 45 -10c23 0 42 9 53 20s21 21 21 51c0 39 -72 108 -114 132c-23 13 -32 18 -53 18c-27 0 -72 -18 -72 -66z" />
    <glyph glyph-name="currency" unicode="&#xa4;" horiz-adv-x="574" 
d="M80 76l47 48c-33 36 -52 84 -52 136c0 53 19 101 52 138l-47 47l23 23l47 -47c36 31 84 51 137 51c52 0 100 -19 137 -51l47 47l23 -23l-46 -47c31 -37 51 -85 51 -138s-19 -101 -51 -136l46 -48l-23 -23l-47 47c-35 -32 -84 -52 -137 -52s-101 19 -137 52l-47 -47z
M287 79c100 0 181 81 181 181s-81 181 -181 181s-181 -81 -181 -181s81 -181 181 -181z" />
    <glyph glyph-name="quotesingle" unicode="'" horiz-adv-x="148" 
d="M61 418l-5 51c-1 13 -3 25 -3 36c0 16 9 25 21 25c13 0 21 -9 21 -25c0 -11 -2 -23 -3 -36l-5 -51c-1 -10 -6 -14 -13 -14s-12 4 -13 14z" />
    <glyph glyph-name="quotedblleft" unicode="&#x201c;" 
d="M82 539l9 -8c-26 -25 -30 -32 -39 -53c6 1 11 3 17 3c23 0 36 -17 36 -33c0 -17 -13 -35 -36 -35c-21 0 -36 17 -36 42c0 26 17 56 49 84zM197 539l9 -8c-26 -25 -30 -32 -39 -53c6 1 11 3 17 3c23 0 36 -17 36 -33c0 -17 -13 -35 -36 -35c-21 0 -36 17 -36 42
c0 26 17 56 49 84z" />
    <glyph glyph-name="guillemotleft" unicode="&#xab;" horiz-adv-x="389" 
d="M200 218l134 125v-26l-92 -109l94 -106v-26l-136 122v20zM56 201v15l138 127v-24l-93 -111l93 -106v-24z" />
    <glyph glyph-name="guilsinglleft" unicode="&#x2039;" horiz-adv-x="241" 
d="M53 199v19l137 120v-22l-92 -109l92 -105v-26z" />
    <glyph glyph-name="guilsinglright" unicode="&#x203a;" horiz-adv-x="241" 
d="M53 317v24l139 -123v-15l-136 -127v26l90 109z" />
    <glyph glyph-name="fi" unicode="&#xfb01;" horiz-adv-x="629" 
d="M102 68v289c0 49 -11 56 -32 56c-17 0 -24 -1 -31 -1v10c11 2 19 3 34 3c20 0 65 -6 138 -6c31 0 62 2 91 6c19 -27 35 -60 36 -95l-7 -1c-4 28 -10 48 -61 63c-24 7 -61 10 -86 10c-31 0 -31 -13 -31 -21v-147c64 0 116 0 116 31c0 5 -6 24 -7 28l8 3
c13 -34 7 -62 18 -87c8 -18 8 -44 8 -52h-8c0 18 0 20 -3 33c-31 23 -39 27 -132 25v-148c0 -46 25 -57 42 -57c9 0 10 0 20 1v-11c-31 0 -61 0 -92 1c-9 0 -49 -3 -57 -3c-7 0 -15 1 -27 2v11c9 -2 13 -3 28 -3c24 0 35 27 35 60zM414 2v10c7 -1 15 -1 22 -1s13 0 20 1
c13 13 18 20 18 64v278c0 35 -4 44 -21 59c-8 1 -15 1 -23 1c-7 0 -13 0 -21 -1v9c10 2 17 3 32 3c9 0 50 -4 58 -4c10 0 52 4 60 4s19 -2 26 -3v-9c-9 1 -11 1 -22 1c-25 0 -38 -17 -38 -42v-315c0 -22 11 -37 19 -45c7 -1 13 -2 20 -2s14 1 21 2v-10c-6 -2 -7 -2 -17 -2
c-12 0 -62 4 -72 4s-54 -4 -63 -4c-5 0 -14 1 -19 2z" />
    <glyph glyph-name="fl" unicode="&#xfb02;" horiz-adv-x="784" 
d="M102 68v289c0 49 -11 56 -32 56c-17 0 -24 -1 -31 -1v10c11 2 19 3 34 3c20 0 65 -6 138 -6c31 0 62 2 91 6c19 -27 35 -60 36 -95l-7 -1c-4 28 -10 48 -61 63c-24 7 -61 10 -86 10c-31 0 -31 -13 -31 -21v-147c64 0 116 0 116 31c0 5 -6 24 -7 28l8 3
c13 -34 7 -62 18 -87c8 -18 8 -44 8 -52h-8c0 18 0 20 -3 33c-31 23 -39 27 -132 25v-148c0 -46 25 -57 42 -57c9 0 10 0 20 1v-11c-31 0 -61 0 -92 1c-9 0 -49 -3 -57 -3c-7 0 -15 1 -27 2v11c9 -2 13 -3 28 -3c24 0 35 27 35 60zM419 0v10c6 0 12 -1 18 -1c4 0 18 2 19 3
c23 13 23 32 23 59v283c0 28 -3 40 -21 60c-6 1 -13 1 -19 1c-9 0 -16 -1 -25 -2v9c7 1 15 3 30 3c13 0 41 -5 56 -5c11 0 42 5 68 5c7 0 10 0 17 -1v-9c-6 0 -13 1 -19 1c-29 0 -39 -22 -39 -45v-320c0 -30 35 -36 72 -36c51 0 79 11 102 21c18 8 36 17 42 24
c13 15 19 30 19 44h9c-4 -32 -18 -57 -22 -61c-6 -7 -23 -31 -31 -45c-44 1 -141 3 -185 3c-46 0 -100 -2 -104 -2c-3 0 -7 1 -10 1z" />
    <glyph glyph-name="endash" unicode="&#x2013;" horiz-adv-x="574" 
d="M-1 244h577v-32h-577v32z" />
    <glyph glyph-name="dagger" unicode="&#x2020;" horiz-adv-x="462" 
d="M225 -166v165c0 147 -18 201 -28 234c26 31 28 42 28 99c-33 0 -53 -1 -75 -9c-26 -8 -40 -18 -61 -18c-23 0 -33 19 -33 34c0 18 13 34 35 34s40 -19 73 -27c25 -6 42 -7 61 -7v52c0 56 -28 78 -28 105c0 22 17 34 34 34s34 -12 34 -34c0 -27 -28 -49 -28 -105v-52
c19 0 36 1 61 7c33 8 51 27 73 27s35 -16 35 -34c0 -15 -10 -34 -33 -34c-21 0 -35 10 -61 18c-22 8 -42 9 -75 9c0 -57 2 -68 28 -99c-10 -33 -28 -87 -28 -234v-165h-12z" />
    <glyph glyph-name="daggerdbl" unicode="&#x2021;" horiz-adv-x="462" 
d="M225 366v31c0 45 -28 69 -28 98c0 24 17 35 35 35c16 0 33 -11 33 -35c0 -29 -28 -53 -28 -98v-31h38c53 0 60 31 97 31c22 0 36 -17 36 -36c0 -15 -15 -32 -33 -32c-28 0 -44 27 -100 27h-38c0 -103 11 -130 28 -174c-17 -44 -28 -71 -28 -174h38c56 0 72 27 100 27
c18 0 33 -17 33 -32c0 -19 -14 -36 -36 -36c-37 0 -44 31 -97 31h-38v-31c0 -45 28 -69 28 -98c0 -24 -17 -35 -33 -35c-18 0 -35 11 -35 35c0 29 28 53 28 98v31h-38c-53 0 -60 -31 -97 -31c-22 0 -36 17 -36 36c0 15 15 32 33 32c28 0 44 -27 100 -27h38
c0 103 -11 130 -28 174c17 44 28 71 28 174h-38c-56 0 -72 -27 -100 -27c-18 0 -33 17 -33 32c0 19 14 36 36 36c37 0 44 -31 97 -31h38z" />
    <glyph glyph-name="periodcentered" unicode="&#xb7;" horiz-adv-x="186" 
d="M59 238c0 19 15 34 34 34c18 0 34 -15 34 -34s-16 -34 -34 -34c-19 0 -34 15 -34 34z" />
    <glyph glyph-name="paragraph" unicode="&#xb6;" horiz-adv-x="600" 
d="M267 218v291c-99 0 -142 -30 -142 -141c0 -114 60 -150 142 -150zM383 -165v674h-80v-674h-115v10c68 6 79 11 79 47v311c-132 0 -190 74 -190 166c0 105 56 155 194 155h227v-10c-68 -6 -79 -11 -79 -47v-575c0 -36 11 -41 79 -47v-10h-115z" />
    <glyph glyph-name="bullet" unicode="&#x2022;" horiz-adv-x="500" 
d="M119 262c0 72 59 131 131 131s131 -59 131 -131s-59 -131 -131 -131s-131 59 -131 131z" />
    <glyph glyph-name="quotesinglbase" unicode="&#x201a;" horiz-adv-x="148" 
d="M61 -58l-9 8c26 25 30 32 39 53c-6 -1 -11 -3 -17 -3c-23 0 -36 17 -36 33c0 17 13 35 36 35c21 0 36 -17 36 -42c0 -26 -17 -56 -49 -84z" />
    <glyph glyph-name="quotedblbase" unicode="&#x201e;" 
d="M183 -58l-9 8c26 25 30 32 39 53c-6 -1 -11 -3 -17 -3c-23 0 -36 17 -36 33c0 17 13 35 36 35c21 0 36 -17 36 -42c0 -26 -17 -56 -49 -84zM68 -58l-9 8c26 25 30 32 39 53c-6 -1 -11 -3 -17 -3c-23 0 -36 17 -36 33c0 17 13 35 36 35c21 0 36 -17 36 -42
c0 -26 -17 -56 -49 -84z" />
    <glyph glyph-name="quotedblright" unicode="&#x201d;" 
d="M183 404l-9 8c26 25 30 32 39 53c-6 -1 -11 -3 -17 -3c-23 0 -36 17 -36 33c0 17 13 35 36 35c21 0 36 -17 36 -42c0 -26 -17 -56 -49 -84zM68 404l-9 8c26 25 30 32 39 53c-6 -1 -11 -3 -17 -3c-23 0 -36 17 -36 33c0 17 13 35 36 35c21 0 36 -17 36 -42
c0 -26 -17 -56 -49 -84z" />
    <glyph glyph-name="guillemotright" unicode="&#xbb;" horiz-adv-x="389" 
d="M150 211l-94 105v27l135 -123v-20l-135 -126v26zM292 212l-94 103v28l136 -123v-19l-136 -126v27z" />
    <glyph glyph-name="ellipsis" unicode="&#x2026;" horiz-adv-x="1000" 
d="M133 30c0 19 15 34 34 34c18 0 34 -15 34 -34s-16 -34 -34 -34c-19 0 -34 15 -34 34zM466 30c0 19 15 34 34 34c18 0 34 -15 34 -34s-16 -34 -34 -34c-19 0 -34 15 -34 34zM799 30c0 19 15 34 34 34c18 0 34 -15 34 -34s-16 -34 -34 -34c-19 0 -34 15 -34 34z" />
    <glyph glyph-name="perthousand" unicode="&#x2030;" horiz-adv-x="1056" 
d="M68 394c0 -66 24 -140 101 -140c36 0 89 21 89 121c0 11 -5 135 -96 135c-73 0 -94 -60 -94 -116zM23 375c0 83 56 153 142 153c69 0 138 -58 138 -147c0 -83 -62 -145 -140 -145c-68 0 -140 48 -140 139zM118 -11l441 541h35l-437 -541h-39zM400 133
c0 83 56 153 142 153c69 0 138 -58 138 -147c0 -83 -62 -145 -140 -145c-68 0 -140 48 -140 139zM445 152c0 -66 24 -140 101 -140c36 0 89 21 89 121c0 11 -5 135 -96 135c-73 0 -94 -60 -94 -116zM751 133c0 83 56 153 142 153c69 0 138 -58 138 -147
c0 -83 -62 -145 -140 -145c-68 0 -140 48 -140 139zM796 152c0 -66 24 -140 101 -140c36 0 89 21 89 121c0 11 -5 135 -96 135c-73 0 -94 -60 -94 -116z" />
    <glyph glyph-name="questiondown" unicode="&#xbf;" horiz-adv-x="407" 
d="M240 317v-196c-19 8 -34 14 -54 14c-60 0 -92 -49 -92 -100c0 -49 34 -115 122 -115c92 0 140 107 140 113c0 9 -2 24 -2 33h9c3 -23 5 -39 5 -48c0 -12 -11 -62 -11 -72c-24 -5 -28 -7 -62 -24c-32 -16 -50 -19 -83 -19c-106 0 -173 69 -173 154c0 78 54 111 111 111
c12 0 25 -2 37 -4v153h53zM248 397c0 -19 -15 -34 -34 -34c-18 0 -34 15 -34 34s16 34 34 34c19 0 34 -15 34 -34z" />
    <glyph glyph-name="grave" unicode="`" 
d="M232 480l-208 71l16 35l195 -99z" />
    <glyph glyph-name="acute" unicode="&#xb4;" 
d="M235 551l-208 -71l-3 7l195 99z" />
    <glyph glyph-name="circumflex" unicode="&#x2c6;" 
d="M2 480l112 123h33l110 -123h-23l-105 87l-100 -87h-27z" />
    <glyph glyph-name="tilde" unicode="&#x2dc;" 
d="M223 576h25c-13 -56 -55 -65 -74 -65c-13 0 -33 7 -52 13s-37 12 -50 12c-31 0 -36 -24 -39 -41h-22c3 19 11 66 60 66c21 0 42 -5 60 -13c17 -8 34 -12 46 -12c32 0 42 27 46 40z" />
    <glyph glyph-name="macron" unicode="&#xaf;" 
d="M11 523v26h237v-26h-237z" />
    <glyph glyph-name="breve" unicode="&#x2d8;" 
d="M225 586h23c-11 -33 -38 -91 -119 -91c-80 0 -107 58 -118 91h23c8 -19 30 -62 95 -62c66 0 88 43 96 62z" />
    <glyph glyph-name="dotaccent" unicode="&#x2d9;" 
d="M100 535c0 17 13 30 30 30s30 -13 30 -30s-13 -30 -30 -30s-30 13 -30 30z" />
    <glyph glyph-name="dieresis" unicode="&#xa8;" 
d="M182 535c0 17 13 30 30 30s30 -13 30 -30s-13 -30 -30 -30s-30 13 -30 30zM17 535c0 17 13 30 30 30s30 -13 30 -30s-13 -30 -30 -30s-30 13 -30 30z" />
    <glyph glyph-name="ring" unicode="&#x2da;" 
d="M66 535c0 35 29 64 64 64s64 -29 64 -64s-29 -64 -64 -64s-64 29 -64 64zM86 535c0 -24 20 -44 44 -44s44 20 44 44s-20 44 -44 44s-44 -20 -44 -44z" />
    <glyph glyph-name="cedilla" unicode="&#xb8;" 
d="M76 -75l21 74h20l-14 -54c36 0 104 0 104 -64c0 -52 -54 -69 -104 -69c-35 0 -74 15 -103 28l8 20c31 -15 63 -28 110 -28c38 0 56 24 56 44c0 37 -36 49 -67 49h-31z" />
    <glyph glyph-name="hungarumlaut" unicode="&#x2dd;" 
d="M155 551l-208 -71l-3 7l195 99zM315 551l-208 -71l-3 7l195 99z" />
    <glyph glyph-name="ogonek" unicode="&#x2db;" 
d="M290 -148l6 -18c-26 -12 -52 -22 -82 -22c-52 0 -87 17 -87 69c0 55 55 93 90 118h20c-32 -29 -77 -71 -77 -113c0 -30 18 -54 54 -54c32 0 54 8 76 20z" />
    <glyph glyph-name="caron" unicode="&#x2c7;" 
d="M2 603h23l105 -87l100 87h27l-112 -123h-33z" />
    <glyph glyph-name="emdash" unicode="&#x2014;" horiz-adv-x="1000" 
d="M125 244h750v-32h-750v32z" />
    <glyph glyph-name="AE" unicode="&#xc6;" horiz-adv-x="778" 
d="M475 266v-213c0 -14 0 -36 39 -36h43c58 0 132 24 156 56c8 10 11 21 12 27h9c0 -10 -5 -31 -13 -40c-11 -12 -37 -50 -49 -68c-29 8 -37 9 -72 9h-152c-31 0 -53 -2 -64 -2c-14 0 -22 1 -30 2v12c4 0 15 -2 26 -2c21 0 37 44 37 46v172h-181l-117 -173
c-3 -5 -13 -22 -13 -31c0 -10 11 -14 22 -14c4 0 7 1 11 1v-12c-4 0 -9 -1 -13 -1c-10 0 -43 2 -61 2c-16 0 -40 -2 -49 -2c-5 0 -11 1 -16 1v13c4 0 13 -2 21 -2c19 0 58 17 94 70l273 400c4 6 6 12 6 17c0 16 -10 16 -19 16c-14 0 -14 0 -25 -1v10c18 1 26 2 34 2
c16 0 42 -4 102 -4h97c35 0 51 2 74 6c7 -21 9 -24 26 -56c10 -18 11 -31 11 -53h-9c3 68 -112 87 -173 87h-24c-7 0 -13 -7 -13 -17v-203h105c21 2 32 16 37 27c5 14 1 27 -4 38h11c5 -10 8 -16 8 -30c0 -6 -2 -31 -2 -36c0 -24 12 -35 15 -49c3 -12 3 -14 3 -34h-10
c0 21 0 23 -3 30c-8 18 -41 35 -59 35h-101zM417 250v242h-2l-164 -242h166z" />
    <glyph glyph-name="ordfeminine" unicode="&#xaa;" horiz-adv-x="289" 
d="M4 272v5c5 0 8 -1 11 -1s10 1 10 2c1 0 10 6 11 7c5 8 12 17 15 24l90 221h7l91 -211c10 -24 14 -31 21 -40c1 -1 10 -2 13 -2s11 2 12 2v-7c-3 0 -7 -1 -13 -1c-5 0 -24 2 -39 2c-14 0 -27 -2 -37 -2c-3 0 -7 0 -11 1v6c4 0 8 -1 11 -1s8 1 10 1c3 1 8 6 8 13
c0 6 -2 11 -3 14l-35 81h-82l-28 -71c-3 -9 -5 -16 -5 -20c0 -8 4 -19 16 -19c5 0 10 1 14 1v-5c-3 -1 -7 -1 -11 -1c-10 0 -25 1 -35 1c-12 0 -22 -1 -29 -1c-5 0 -7 0 -12 1zM100 395h72l-38 87z" />
    <glyph glyph-name="Lslash" unicode="&#x141;" horiz-adv-x="463" 
d="M58 -2v9c6 -1 12 -1 18 -1c34 0 44 17 44 50v163l-67 -51v17l67 51v192c0 40 0 86 -51 86c-5 0 -11 0 -16 -1v9c8 1 16 2 25 2c29 0 57 -6 67 -6c9 0 35 6 57 6c13 0 24 -1 36 -2v-10c-7 1 -9 1 -20 1c-16 0 -26 -2 -27 -3c-8 -11 -15 -21 -15 -39v-193l134 101v-17
l-134 -101v-205c0 -23 6 -39 71 -39c58 0 101 9 144 36c28 17 46 32 49 65h7c0 -16 0 -29 -16 -54c-7 -11 -36 -49 -40 -66c-29 1 -59 2 -88 2h-182c-11 0 -21 -1 -28 -2c-8 -1 -13 -2 -18 -2c-6 0 -12 1 -17 2z" />
    <glyph glyph-name="Oslash" unicode="&#xd8;" horiz-adv-x="630" 
d="M458 445l-268 -384c35 -30 80 -49 136 -49c126 0 209 92 209 216c0 61 -21 154 -77 217zM172 76l269 385c-33 32 -77 52 -133 52c-122 0 -212 -103 -212 -243c0 -64 25 -141 76 -194zM60 -85l88 126c-71 49 -107 128 -107 213c0 142 121 276 276 276
c56 0 106 -13 147 -36l72 103h28l-80 -115c66 -45 106 -121 106 -217c0 -112 -93 -271 -271 -271c-60 0 -111 13 -151 36l-80 -115h-28z" />
    <glyph glyph-name="OE" unicode="&#x152;" horiz-adv-x="833" 
d="M781 106l11 -1c-6 -31 -18 -55 -61 -106c-28 3 -34 4 -74 4h-125c-29 0 -65 -2 -102 -4c-37 -3 -75 -5 -108 -5c-191 0 -293 110 -293 239c0 99 50 191 130 247c67 47 118 50 175 50c38 0 76 -2 115 -3c38 -2 76 -4 114 -4c46 0 76 1 149 5c2 -13 25 -59 28 -65
c9 -18 8 -27 9 -43h-12c-2 27 -7 47 -58 67c-42 17 -86 20 -111 20c-38 0 -38 -8 -38 -22v-197h85c23 0 59 8 59 39c0 5 -2 14 -7 24l12 2c3 -7 6 -13 6 -26c0 -11 -1 -22 -1 -33c0 -12 2 -20 7 -31c10 -21 13 -32 13 -57h-11c0 27 -5 64 -69 64h-94v-213
c0 -35 29 -35 63 -35c56 0 99 10 123 21c43 20 58 34 65 63zM472 79v374c0 61 -16 61 -121 61c-66 0 -130 -3 -187 -58c-55 -53 -70 -114 -70 -179c0 -32 4 -63 11 -87c18 -67 84 -181 250 -181c111 0 117 12 117 70z" />
    <glyph glyph-name="ordmasculine" unicode="&#xba;" horiz-adv-x="349" 
d="M23 389c0 91 69 141 152 141c106 0 152 -60 152 -122c0 -91 -69 -141 -152 -141c-105 0 -152 60 -152 122zM53 412c0 -67 53 -134 130 -134c68 0 112 48 112 115c0 64 -64 125 -132 125c-61 0 -110 -38 -110 -106z" />
    <glyph glyph-name="ae" unicode="&#xe6;" horiz-adv-x="630" 
d="M2 0v9c6 -1 9 -1 19 -1c18 0 55 26 63 38l213 345c2 3 3 7 3 11c0 5 -8 11 -20 11c-10 0 -15 -1 -21 -3v11c4 1 13 3 23 3s43 -3 81 -3c102 0 147 3 165 4c1 -14 17 -38 21 -47c8 -19 8 -29 9 -41h-8c-13 66 -97 66 -126 66h-36c-9 0 -15 -6 -15 -16v-147h61
c27 0 57 0 57 29c0 8 -3 16 -6 24c2 1 5 1 7 2c3 -4 6 -7 8 -16c3 -12 1 -31 3 -43c1 -9 16 -47 16 -54v-14h-7c-12 48 -36 51 -139 51v-176c0 -6 2 -11 4 -16c12 -6 18 -8 34 -8c38 0 155 4 172 75h8c-4 -20 -8 -35 -19 -51c-5 -7 -27 -36 -31 -43l-124 1l-151 -1v11
c55 -4 55 -3 53 180h-127l-95 -157c-3 -6 -3 -12 -2 -17c7 -6 12 -10 23 -10c4 0 8 0 12 1v-8c-4 -1 -9 -1 -13 -1l-34 1l-69 -1c-4 0 -8 1 -12 1zM319 207v191h-2l-113 -191h115z" />
    <glyph glyph-name="dotlessi" unicode="&#x131;" 
d="M44 2v10c7 -1 15 -1 22 -1s13 0 20 1c13 13 18 20 18 64v278c0 35 -4 44 -21 59c-8 1 -15 1 -23 1c-7 0 -13 0 -21 -1v9c10 2 17 3 32 3c9 0 50 -4 58 -4c10 0 52 4 60 4s19 -2 26 -3v-9c-9 1 -11 1 -22 1c-25 0 -38 -17 -38 -42v-315c0 -22 11 -37 19 -45
c7 -1 13 -2 20 -2s14 1 21 2v-10c-6 -2 -7 -2 -17 -2c-12 0 -62 4 -72 4s-54 -4 -63 -4c-5 0 -14 1 -19 2z" />
    <glyph glyph-name="lslash" unicode="&#x142;" horiz-adv-x="407" 
d="M42 127v17l60 44v166c0 28 -3 40 -21 60c-6 1 -13 1 -19 1c-9 0 -16 -1 -25 -2v9c7 1 15 3 30 3c13 0 41 -5 56 -5c11 0 42 5 68 5c7 0 10 0 17 -1v-9c-6 0 -13 1 -19 1c-29 0 -39 -22 -39 -45v-147l114 85v-17l-114 -85v-156c0 -30 35 -36 72 -36c51 0 79 11 102 21
c18 8 36 17 42 24c13 15 19 30 19 44h9c-4 -32 -18 -57 -22 -61c-6 -7 -23 -31 -31 -45c-44 1 -183 4 -215 4c-11 0 -27 -1 -42 -2c-14 -1 -27 -2 -32 -2c-3 0 -7 1 -10 1v10c6 0 12 -1 18 -1c4 0 18 2 19 3c23 13 23 32 23 59v101z" />
    <glyph glyph-name="oslash" unicode="&#xf8;" horiz-adv-x="537" 
d="M152 67l211 305c-30 24 -68 39 -111 39c-95 0 -171 -62 -171 -176c0 -63 27 -127 71 -168zM379 358l-211 -305c31 -26 69 -41 113 -41c95 0 171 62 171 176c0 63 -27 127 -73 170zM62 -62l65 94c-62 37 -92 101 -92 161c0 100 62 238 234 238c47 0 86 -9 118 -24l50 72
h26l-57 -82c66 -39 97 -104 97 -165c0 -100 -62 -238 -234 -238c-49 0 -90 10 -123 27l-58 -83h-26z" />
    <glyph glyph-name="oe" unicode="&#x153;" horiz-adv-x="685" 
d="M375 80v278c0 43 0 55 -118 55c-131 0 -169 -92 -169 -191c0 -101 79 -214 177 -209c19 0 44 6 57 11c53 22 53 39 53 56zM428 219v-175c0 -26 26 -26 34 -26c47 0 164 5 176 75h9c-3 -16 -5 -33 -17 -49c-5 -8 -30 -41 -34 -48c-21 2 -35 4 -51 4h-169
c-22 0 -44 -1 -65 -3c-22 -1 -43 -3 -66 -3c-100 0 -214 67 -214 214c0 28 12 93 55 145c64 78 133 78 159 78c27 0 146 -10 173 -10c102 0 147 3 165 4c1 -14 17 -38 21 -47c8 -19 8 -29 9 -41h-8c-13 66 -97 66 -126 66h-36c-9 0 -15 -6 -15 -16v-147h61c27 0 57 0 57 29
c0 8 -3 16 -6 24c2 1 5 1 7 2c3 -4 6 -7 8 -16c3 -12 1 -31 3 -43c1 -9 16 -47 16 -54v-14h-7c-12 48 -36 51 -139 51z" />
    <glyph glyph-name="germandbls" unicode="&#xdf;" horiz-adv-x="704" 
d="M393 140l8 -1c-3 -8 -5 -17 -5 -26c0 -30 45 -103 120 -103c59 0 89 44 89 87c0 47 -28 71 -83 117c-78 66 -99 84 -99 129c0 9 2 86 96 86c21 0 40 -3 68 -13l25 -9c-2 -15 -2 -16 -2 -28l1 -33c0 -13 -2 -19 -7 -30l-8 3c3 7 6 14 6 21c0 10 -16 73 -79 73
c-32 0 -61 -16 -61 -49c0 -34 24 -53 74 -95c88 -73 115 -105 115 -160c0 -80 -73 -114 -125 -114c-37 0 -40 1 -132 36c-5 34 -7 54 -7 59c0 31 0 34 6 50zM41 140l8 -1c-3 -8 -5 -17 -5 -26c0 -30 45 -103 120 -103c59 0 89 44 89 87c0 47 -28 71 -83 117
c-78 66 -99 84 -99 129c0 9 2 86 96 86c21 0 40 -3 68 -13l25 -9c-2 -15 -2 -16 -2 -28l1 -33c0 -13 -2 -19 -7 -30l-8 3c3 7 6 14 6 21c0 10 -16 73 -79 73c-32 0 -61 -16 -61 -49c0 -34 24 -53 74 -95c88 -73 115 -105 115 -160c0 -80 -73 -114 -125 -114
c-37 0 -40 1 -132 36c-5 34 -7 54 -7 59c0 31 0 34 6 50z" />
    <glyph glyph-name="onesuperior" unicode="&#xb9;" horiz-adv-x="181" 
d="M34 214v5c13 -1 15 -1 19 -1c5 0 9 1 15 1c12 16 13 22 13 42v224c0 6 -6 10 -10 10c-3 0 -12 -4 -14 -6c-6 -4 -12 -10 -21 -16c-1 0 -3 2 -4 3c22 18 23 19 59 39c11 6 20 12 28 18v-278c0 -19 2 -24 12 -36c5 0 10 -1 15 -1s11 1 17 1v-4c-8 -1 -13 -1 -20 -1
c-10 0 -35 2 -44 2c-8 0 -40 -2 -50 -2h-15z" />
    <glyph glyph-name="logicalnot" unicode="&#xac;" horiz-adv-x="600" 
d="M480 92v192h-396v36h432v-228h-36z" />
    <glyph glyph-name="mu" unicode="&#xb5;" horiz-adv-x="519" 
d="M404 425v-338c0 -40 7 -58 31 -58c38 0 40 73 40 95h22c0 -53 -9 -130 -80 -130c-61 0 -63 69 -67 152h-2c-24 -60 -59 -152 -142 -152c-54 0 -80 39 -94 90h-2c0 -111 29 -193 29 -256c0 -28 -16 -39 -34 -39c-23 0 -28 23 -28 51c0 82 15 165 15 248v337h56v-307
c0 -64 35 -94 69 -94c91 0 131 169 131 229v172h56z" />
    <glyph glyph-name="trademark" unicode="&#x2122;" horiz-adv-x="715" 
d="M135 264v246h-48c-31 0 -43 -23 -49 -51h-9v65h243v-65h-9c-6 28 -18 51 -49 51h-48v-246c0 -21 2 -24 41 -28v-9h-113v9c39 4 41 7 41 28zM614 281v179h-2l-117 -233h-2l-120 233h-2v-179c0 -31 7 -42 43 -45v-9h-98v9c36 3 42 14 42 45v200c-9 17 -19 30 -49 34v9h69
l124 -248l123 248h60v-9c-25 -2 -41 -15 -41 -42v-192c0 -31 7 -42 42 -45v-9h-115v9c36 3 43 14 43 45z" />
    <glyph glyph-name="Eth" unicode="&#xd0;" horiz-adv-x="611" 
d="M49 274v17h62v167c0 51 -24 55 -60 55v11c39 0 64 -7 86 -7c17 0 75 7 153 7c54 0 139 0 206 -74c43 -49 69 -115 69 -184c0 -96 -59 -266 -270 -266c-62 0 -101 5 -140 5c-20 0 -69 -5 -82 -5c-11 0 -17 1 -24 1v11c7 -1 13 -1 20 -1c23 0 42 15 42 76v187h-62zM314 291
v-17h-147v-207c0 -30 5 -51 86 -51c52 0 99 3 136 20c102 47 115 155 115 214c0 67 -24 145 -61 186c-54 61 -101 66 -170 66h-91c-9 0 -15 -9 -15 -17v-194h147z" />
    <glyph glyph-name="onehalf" unicode="&#xbd;" horiz-adv-x="861" 
d="M141 -11l464 539h35l-464 -539h-35zM113 214v5c13 -1 15 -1 19 -1c5 0 9 1 15 1c12 16 13 22 13 42v224c0 6 -6 10 -10 10c-3 0 -12 -4 -14 -6c-6 -4 -12 -10 -21 -16c-1 0 -3 2 -4 3c22 18 23 19 59 39c11 6 20 12 28 18v-278c0 -19 2 -24 12 -36c5 0 10 -1 15 -1
s11 1 17 1v-4c-8 -1 -13 -1 -20 -1c-10 0 -35 2 -44 2c-8 0 -40 -2 -50 -2h-15zM558 32h149c22 0 30 3 38 25h5c-3 -11 -4 -14 -21 -34c-7 -9 -10 -15 -13 -23h-185c-4 0 -6 3 -6 5s6 9 8 11c22 28 77 87 88 100c29 36 62 78 62 118c0 31 -24 71 -72 71
c-28 0 -62 -21 -62 -58c0 -5 4 -17 5 -18c4 -5 8 -8 15 -13c-1 -1 -3 -2 -3 -4c-4 4 -11 9 -15 12c-7 7 -9 11 -17 22c-5 8 -9 11 -14 14c14 26 46 57 97 57c66 0 107 -42 107 -80c0 -52 -41 -89 -139 -180z" />
    <glyph glyph-name="plusminus" unicode="&#xb1;" horiz-adv-x="600" 
d="M282 279v153h36v-153h198v-36h-198v-153h-36v153h-198v36h198zM84 0v36h432v-36h-432z" />
    <glyph glyph-name="Thorn" unicode="&#xde;" horiz-adv-x="444" 
d="M111 66v392c0 38 -13 46 -22 53c-1 1 -18 3 -24 3c-4 0 -9 -1 -19 -3v10c7 2 12 3 28 3c15 0 53 -5 64 -5c6 0 51 5 61 5c13 0 28 -3 39 -7v-9c-9 3 -24 6 -30 6s-14 -3 -16 -4c-18 -17 -25 -32 -25 -55v-44c27 1 56 3 86 3c77 0 154 -29 154 -122
c0 -77 -71 -132 -169 -132c-35 0 -49 5 -71 12v-103c0 -23 7 -38 25 -55c2 -1 10 -4 16 -4s21 3 30 6v-9c-11 -4 -26 -7 -39 -7c-10 0 -55 5 -61 5c-11 0 -49 -5 -64 -5c-16 0 -21 1 -28 3v10c10 -2 15 -3 19 -3c6 0 23 2 24 3c9 7 22 15 22 53zM167 371v-178
c15 -7 31 -16 63 -16c42 0 118 24 118 105c0 82 -62 116 -133 116c-34 0 -48 -5 -48 -27z" />
    <glyph glyph-name="onequarter" unicode="&#xbc;" horiz-adv-x="861" 
d="M649 113v165l-171 -151c-2 -2 -3 -5 -3 -9c0 -3 3 -5 7 -5h167zM686 98v-57c0 -21 5 -28 11 -33c2 0 10 -2 13 -2s8 1 13 1v-6c-6 0 -11 -1 -16 -1c-8 0 -34 4 -42 4c-15 0 -30 -4 -45 -4c-5 0 -9 1 -14 1v6c5 -1 8 -2 11 -2c4 0 13 1 15 2c12 7 17 19 17 42v51h-210
c-2 0 -5 1 -5 3c0 1 1 4 1 7l238 206c3 3 6 3 8 3s3 -2 3 -5v-201c47 0 56 3 61 37h5c0 -10 -1 -25 -7 -32c-4 -6 -13 -18 -13 -24c-14 4 -16 4 -44 4zM141 -11l464 539h35l-464 -539h-35zM113 214v5c13 -1 15 -1 19 -1c5 0 9 1 15 1c12 16 13 22 13 42v224
c0 6 -6 10 -10 10c-3 0 -12 -4 -14 -6c-6 -4 -12 -10 -21 -16c-1 0 -3 2 -4 3c22 18 23 19 59 39c11 6 20 12 28 18v-278c0 -19 2 -24 12 -36c5 0 10 -1 15 -1s11 1 17 1v-4c-8 -1 -13 -1 -20 -1c-10 0 -35 2 -44 2c-8 0 -40 -2 -50 -2h-15z" />
    <glyph glyph-name="divide" unicode="&#xf7;" horiz-adv-x="600" 
d="M516 198h-432v36h432v-36zM249 393c0 28 23 51 51 51s51 -23 51 -51s-23 -51 -51 -51s-51 23 -51 51zM249 39c0 28 23 51 51 51s51 -23 51 -51s-23 -51 -51 -51s-51 23 -51 51z" />
    <glyph glyph-name="brokenbar" unicode="&#xa6;" horiz-adv-x="222" 
d="M93 -175v350h36v-350h-36zM93 325v350h36v-350h-36z" />
    <glyph glyph-name="degree" unicode="&#xb0;" horiz-adv-x="400" 
d="M85 415c0 64 51 115 115 115s115 -51 115 -115s-51 -115 -115 -115s-115 51 -115 115zM115 415c0 -47 38 -85 85 -85s85 38 85 85s-38 85 -85 85s-85 -38 -85 -85z" />
    <glyph glyph-name="thorn" unicode="&#xfe;" horiz-adv-x="389" 
d="M95 76v278c0 35 -4 44 -21 59c-8 1 -15 1 -23 1c-7 0 -13 0 -21 -1v9c10 2 17 3 32 3c9 0 50 -4 58 -4c10 0 52 4 60 4s19 -2 26 -3v-9c-9 1 -11 1 -22 1c-25 0 -38 -17 -38 -42v-42c26 0 58 2 87 2c63 0 117 -24 117 -90s-59 -117 -140 -117c-30 0 -48 7 -64 14v-82
c0 -22 11 -37 19 -45c7 -1 13 -2 20 -2s14 1 21 2v-10c-6 -2 -7 -2 -17 -2c-12 0 -62 4 -72 4s-54 -4 -63 -4c-5 0 -14 1 -19 2v10c7 -1 15 -1 22 -1s13 0 20 1c13 13 18 20 18 64zM146 293v-135c14 -8 27 -15 58 -15c72 0 92 49 92 88c0 42 -24 85 -102 85
c-25 0 -48 -3 -48 -23z" />
    <glyph glyph-name="threequarters" unicode="&#xbe;" horiz-adv-x="861" 
d="M679 113v165l-171 -151c-2 -2 -3 -5 -3 -9c0 -3 3 -5 7 -5h167zM716 98v-57c0 -21 5 -28 11 -33c2 0 10 -2 13 -2s8 1 13 1v-6c-6 0 -11 -1 -16 -1c-8 0 -34 4 -42 4c-15 0 -30 -4 -45 -4c-5 0 -9 1 -14 1v6c5 -1 8 -2 11 -2c4 0 13 1 15 2c12 7 17 19 17 42v51h-210
c-2 0 -5 1 -5 3c0 1 1 4 1 7l238 206c3 3 6 3 8 3s3 -2 3 -5v-201c47 0 56 3 61 37h5c0 -10 -1 -25 -7 -32c-4 -6 -13 -18 -13 -24c-14 4 -16 4 -44 4zM171 -11l464 539h35l-464 -539h-35zM60 321h5c0 -6 -1 -10 -1 -16c0 -3 1 -11 1 -12c8 -24 52 -74 106 -74
c35 0 93 26 93 81c0 63 -41 77 -76 77c-4 0 -9 -1 -15 -2c-2 1 -4 2 -4 3c0 3 50 30 50 83c0 24 -17 59 -59 59c-46 0 -49 -40 -49 -50c0 -3 1 -7 2 -9c4 -4 8 -8 13 -12l-5 -3c-19 17 -31 38 -39 45c37 39 67 40 87 40c45 0 89 -21 89 -61c0 -12 -10 -45 -48 -67v-2
c26 0 37 -2 57 -15c19 -12 35 -36 35 -66c0 -69 -66 -109 -131 -109c-15 0 -43 4 -68 14c-7 3 -30 14 -40 16c0 14 -7 38 -7 55c0 9 1 16 4 25z" />
    <glyph glyph-name="twosuperior" unicode="&#xb2;" horiz-adv-x="265" 
d="M58 246h149c22 0 30 3 38 25h5c-3 -11 -4 -14 -21 -34c-7 -9 -10 -15 -13 -23h-185c-4 0 -6 3 -6 5s6 9 8 11c22 28 77 87 88 100c29 36 62 78 62 118c0 31 -24 71 -72 71c-28 0 -62 -21 -62 -58c0 -5 4 -17 5 -18c4 -5 8 -8 15 -13c-1 -1 -3 -2 -3 -4c-4 4 -11 9 -15 12
c-7 7 -9 11 -17 22c-5 8 -9 11 -14 14c14 26 46 57 97 57c66 0 107 -42 107 -80c0 -52 -41 -89 -139 -180z" />
    <glyph glyph-name="registered" unicode="&#xae;" horiz-adv-x="600" 
d="M209 159v216c0 23 -3 26 -35 27v9h135c48 0 92 -22 92 -73c0 -40 -28 -69 -64 -81l55 -84c17 -28 33 -39 55 -42v-9h-38c-21 0 -32 10 -38 19l-72 109h-54v-91c0 -23 2 -26 34 -28v-9h-105v9c32 2 35 5 35 28zM245 264h53c40 0 64 24 64 74c0 46 -29 60 -62 60h-55v-134z
M32 262c0 148 120 268 268 268s268 -120 268 -268s-120 -268 -268 -268s-268 120 -268 268zM62 262c0 -131 107 -238 238 -238s238 107 238 238s-107 238 -238 238s-238 -107 -238 -238z" />
    <glyph glyph-name="minus" unicode="&#x2212;" horiz-adv-x="600" 
d="M516 198h-432v36h432v-36z" />
    <glyph glyph-name="eth" unicode="&#xf0;" horiz-adv-x="537" 
d="M37 215v17h60v144c0 20 -11 35 -19 37c-5 1 -11 1 -18 1c-10 0 -14 -2 -21 -2v11c10 2 14 2 22 2c25 0 42 -5 72 -5c23 0 53 5 121 5c196 0 233 -157 233 -214s-23 -118 -78 -165c-45 -38 -93 -46 -143 -46c-32 0 -116 3 -135 3c-20 0 -58 -3 -69 -3c-10 0 -20 1 -25 2
v10c5 -1 14 -2 20 -2c4 0 19 1 25 5c8 7 15 18 15 52v148h-60zM268 232v-17h-120v-159c0 -24 0 -39 92 -39c39 0 191 0 191 176c0 76 -35 213 -192 213c-91 0 -91 -2 -91 -24v-150h120z" />
    <glyph glyph-name="multiply" unicode="&#xd7;" horiz-adv-x="600" 
d="M102 389l25 25l173 -173l173 172l25 -25l-173 -172l173 -173l-25 -25l-173 173l-173 -173l-25 24l173 174z" />
    <glyph glyph-name="threesuperior" unicode="&#xb3;" horiz-adv-x="289" 
d="M30 321h5c0 -6 -1 -10 -1 -16c0 -3 1 -11 1 -12c8 -24 52 -74 106 -74c35 0 93 26 93 81c0 63 -41 77 -76 77c-4 0 -9 -1 -15 -2c-2 1 -4 2 -4 3c0 3 50 30 50 83c0 24 -17 59 -59 59c-46 0 -49 -40 -49 -50c0 -3 1 -7 2 -9c4 -4 8 -8 13 -12l-5 -3c-19 17 -31 38 -39 45
c37 39 67 40 87 40c45 0 89 -21 89 -61c0 -12 -10 -45 -48 -67v-2c26 0 37 -2 57 -15c19 -12 35 -36 35 -66c0 -69 -66 -109 -131 -109c-15 0 -43 4 -68 14c-7 3 -30 14 -40 16c0 14 -7 38 -7 55c0 9 1 16 4 25z" />
    <glyph glyph-name="copyright" unicode="&#xa9;" horiz-adv-x="600" 
d="M417 387v-52h-9c-2 32 -23 66 -91 66c-81 0 -119 -56 -119 -130c0 -82 38 -140 125 -140c59 0 85 27 98 61h8l-11 -51c-2 -7 -5 -11 -15 -14c-24 -7 -55 -13 -85 -13c-105 0 -159 66 -159 154c0 94 71 150 161 150c27 0 55 -4 84 -16c11 -4 13 -8 13 -15zM32 262
c0 148 120 268 268 268s268 -120 268 -268s-120 -268 -268 -268s-268 120 -268 268zM62 262c0 -131 107 -238 238 -238s238 107 238 238s-107 238 -238 238s-238 -107 -238 -238z" />
    <glyph glyph-name="Aacute" unicode="&#xc1;" horiz-adv-x="519" 
d="M71 69l176 456c1 2 2 4 4 5h8c2 -2 4 -4 5 -7l182 -469c10 -26 13 -29 24 -40c9 -4 14 -4 20 -4c5 0 10 0 15 1v-10c-3 0 -7 -1 -11 -1c-2 0 -60 4 -72 4c-10 0 -54 -4 -63 -4c-12 0 -13 0 -21 1v11c15 -2 18 -2 35 -1c12 7 16 11 16 23c0 3 0 14 -4 25l-68 174h-162
l-53 -135c-4 -10 -13 -38 -13 -54c0 -17 7 -25 13 -31c8 -3 15 -3 21 -3h18v-9c-6 -1 -7 -1 -19 -1c-8 0 -44 4 -54 4c-17 0 -42 -4 -52 -4c-11 0 -12 0 -17 1v11c9 -2 11 -2 29 -1c10 7 29 22 43 58zM162 251h149l-75 189zM365 625l-208 -71l-3 7l195 99z" />
    <glyph glyph-name="Acircumflex" unicode="&#xc2;" horiz-adv-x="519" 
d="M71 69l176 456c1 2 2 4 4 5h8c2 -2 4 -4 5 -7l182 -469c10 -26 13 -29 24 -40c9 -4 14 -4 20 -4c5 0 10 0 15 1v-10c-3 0 -7 -1 -11 -1c-2 0 -60 4 -72 4c-10 0 -54 -4 -63 -4c-12 0 -13 0 -21 1v11c15 -2 18 -2 35 -1c12 7 16 11 16 23c0 3 0 14 -4 25l-68 174h-162
l-53 -135c-4 -10 -13 -38 -13 -54c0 -17 7 -25 13 -31c8 -3 15 -3 21 -3h18v-9c-6 -1 -7 -1 -19 -1c-8 0 -44 4 -54 4c-17 0 -42 -4 -52 -4c-11 0 -12 0 -17 1v11c9 -2 11 -2 29 -1c10 7 29 22 43 58zM162 251h149l-75 189zM132 554l112 123h33l110 -123h-23l-105 87
l-100 -87h-27z" />
    <glyph glyph-name="Adieresis" unicode="&#xc4;" horiz-adv-x="519" 
d="M71 69l176 456c1 2 2 4 4 5h8c2 -2 4 -4 5 -7l182 -469c10 -26 13 -29 24 -40c9 -4 14 -4 20 -4c5 0 10 0 15 1v-10c-3 0 -7 -1 -11 -1c-2 0 -60 4 -72 4c-10 0 -54 -4 -63 -4c-12 0 -13 0 -21 1v11c15 -2 18 -2 35 -1c12 7 16 11 16 23c0 3 0 14 -4 25l-68 174h-162
l-53 -135c-4 -10 -13 -38 -13 -54c0 -17 7 -25 13 -31c8 -3 15 -3 21 -3h18v-9c-6 -1 -7 -1 -19 -1c-8 0 -44 4 -54 4c-17 0 -42 -4 -52 -4c-11 0 -12 0 -17 1v11c9 -2 11 -2 29 -1c10 7 29 22 43 58zM162 251h149l-75 189zM312 609c0 17 13 30 30 30s30 -13 30 -30
s-13 -30 -30 -30s-30 13 -30 30zM147 609c0 17 13 30 30 30s30 -13 30 -30s-13 -30 -30 -30s-30 13 -30 30z" />
    <glyph glyph-name="Agrave" unicode="&#xc0;" horiz-adv-x="519" 
d="M71 69l176 456c1 2 2 4 4 5h8c2 -2 4 -4 5 -7l182 -469c10 -26 13 -29 24 -40c9 -4 14 -4 20 -4c5 0 10 0 15 1v-10c-3 0 -7 -1 -11 -1c-2 0 -60 4 -72 4c-10 0 -54 -4 -63 -4c-12 0 -13 0 -21 1v11c15 -2 18 -2 35 -1c12 7 16 11 16 23c0 3 0 14 -4 25l-68 174h-162
l-53 -135c-4 -10 -13 -38 -13 -54c0 -17 7 -25 13 -31c8 -3 15 -3 21 -3h18v-9c-6 -1 -7 -1 -19 -1c-8 0 -44 4 -54 4c-17 0 -42 -4 -52 -4c-11 0 -12 0 -17 1v11c9 -2 11 -2 29 -1c10 7 29 22 43 58zM162 251h149l-75 189zM362 554l-208 71l16 35l195 -99z" />
    <glyph glyph-name="Aring" unicode="&#xc5;" horiz-adv-x="519" 
d="M71 69l176 456c1 2 2 4 4 5h8c2 -2 4 -4 5 -7l182 -469c10 -26 13 -29 24 -40c9 -4 14 -4 20 -4c5 0 10 0 15 1v-10c-3 0 -7 -1 -11 -1c-2 0 -60 4 -72 4c-10 0 -54 -4 -63 -4c-12 0 -13 0 -21 1v11c15 -2 18 -2 35 -1c12 7 16 11 16 23c0 3 0 14 -4 25l-68 174h-162
l-53 -135c-4 -10 -13 -38 -13 -54c0 -17 7 -25 13 -31c8 -3 15 -3 21 -3h18v-9c-6 -1 -7 -1 -19 -1c-8 0 -44 4 -54 4c-17 0 -42 -4 -52 -4c-11 0 -12 0 -17 1v11c9 -2 11 -2 29 -1c10 7 29 22 43 58zM162 251h149l-75 189zM188 634c0 35 29 64 64 64s64 -29 64 -64
s-29 -64 -64 -64s-64 29 -64 64zM208 634c0 -24 20 -44 44 -44s44 20 44 44s-20 44 -44 44s-44 -20 -44 -44z" />
    <glyph glyph-name="Atilde" unicode="&#xc3;" horiz-adv-x="519" 
d="M71 69l176 456c1 2 2 4 4 5h8c2 -2 4 -4 5 -7l182 -469c10 -26 13 -29 24 -40c9 -4 14 -4 20 -4c5 0 10 0 15 1v-10c-3 0 -7 -1 -11 -1c-2 0 -60 4 -72 4c-10 0 -54 -4 -63 -4c-12 0 -13 0 -21 1v11c15 -2 18 -2 35 -1c12 7 16 11 16 23c0 3 0 14 -4 25l-68 174h-162
l-53 -135c-4 -10 -13 -38 -13 -54c0 -17 7 -25 13 -31c8 -3 15 -3 21 -3h18v-9c-6 -1 -7 -1 -19 -1c-8 0 -44 4 -54 4c-17 0 -42 -4 -52 -4c-11 0 -12 0 -17 1v11c9 -2 11 -2 29 -1c10 7 29 22 43 58zM162 251h149l-75 189zM353 650h25c-13 -56 -55 -65 -74 -65
c-13 0 -33 7 -52 13s-37 12 -50 12c-31 0 -36 -24 -39 -41h-22c3 19 11 66 60 66c21 0 42 -5 60 -13c17 -8 34 -12 46 -12c32 0 42 27 46 40z" />
    <glyph glyph-name="Ccedilla" unicode="&#xc7;" horiz-adv-x="574" 
d="M198 -160l8 20c31 -15 63 -28 110 -28c38 0 56 24 56 44c0 37 -36 49 -67 49h-31l18 71c-167 12 -248 144 -248 247c0 235 189 287 272 287c35 0 56 -7 98 -21c24 -8 30 -10 51 -10c15 0 22 2 36 8c0 -36 16 -56 16 -99c0 -18 -2 -30 -5 -42c-2 1 -6 1 -9 2
c2 7 4 13 4 22c0 56 -106 122 -188 122c-88 0 -208 -66 -208 -237c0 -122 61 -261 228 -261c16 0 47 0 95 15c42 13 80 40 96 68l11 -4c-29 -46 -66 -66 -94 -78c-40 -17 -79 -20 -128 -20h-5l-13 -50c36 0 104 0 104 -64c0 -52 -54 -69 -104 -69c-35 0 -74 15 -103 28z" />
    <glyph glyph-name="Eacute" unicode="&#xc9;" horiz-adv-x="481" 
d="M311 521l51 1c4 -11 25 -57 29 -67c7 -17 7 -23 7 -38h-8c-1 70 -109 87 -176 87c-11 0 -36 -1 -36 -19v-201h88c48 0 58 26 58 38c0 8 -3 17 -5 26l6 4c7 -11 7 -14 9 -42c3 -41 3 -46 10 -66c6 -17 6 -32 6 -45h-7c-4 68 -34 68 -165 66v-214c0 -23 19 -34 38 -34h51
c2 0 52 0 102 24c55 27 56 35 59 57h10c-3 -19 -5 -28 -17 -46c-6 -9 -35 -47 -39 -56c-41 5 -182 7 -230 7c-12 0 -24 -1 -36 -1c-13 -1 -25 -2 -37 -2c-7 0 -15 0 -23 2v12c6 -1 13 -2 19 -2c8 0 21 2 30 8c13 13 18 32 18 63v371c0 29 -2 58 -42 58c-11 0 -12 0 -21 -1
v11c9 2 16 3 29 3c16 0 87 -4 102 -4h120zM346 625l-208 -71l-3 7l195 99z" />
    <glyph glyph-name="Ecircumflex" unicode="&#xca;" horiz-adv-x="481" 
d="M311 521l51 1c4 -11 25 -57 29 -67c7 -17 7 -23 7 -38h-8c-1 70 -109 87 -176 87c-11 0 -36 -1 -36 -19v-201h88c48 0 58 26 58 38c0 8 -3 17 -5 26l6 4c7 -11 7 -14 9 -42c3 -41 3 -46 10 -66c6 -17 6 -32 6 -45h-7c-4 68 -34 68 -165 66v-214c0 -23 19 -34 38 -34h51
c2 0 52 0 102 24c55 27 56 35 59 57h10c-3 -19 -5 -28 -17 -46c-6 -9 -35 -47 -39 -56c-41 5 -182 7 -230 7c-12 0 -24 -1 -36 -1c-13 -1 -25 -2 -37 -2c-7 0 -15 0 -23 2v12c6 -1 13 -2 19 -2c8 0 21 2 30 8c13 13 18 32 18 63v371c0 29 -2 58 -42 58c-11 0 -12 0 -21 -1
v11c9 2 16 3 29 3c16 0 87 -4 102 -4h120zM113 554l112 123h33l110 -123h-23l-105 87l-100 -87h-27z" />
    <glyph glyph-name="Edieresis" unicode="&#xcb;" horiz-adv-x="481" 
d="M311 521l51 1c4 -11 25 -57 29 -67c7 -17 7 -23 7 -38h-8c-1 70 -109 87 -176 87c-11 0 -36 -1 -36 -19v-201h88c48 0 58 26 58 38c0 8 -3 17 -5 26l6 4c7 -11 7 -14 9 -42c3 -41 3 -46 10 -66c6 -17 6 -32 6 -45h-7c-4 68 -34 68 -165 66v-214c0 -23 19 -34 38 -34h51
c2 0 52 0 102 24c55 27 56 35 59 57h10c-3 -19 -5 -28 -17 -46c-6 -9 -35 -47 -39 -56c-41 5 -182 7 -230 7c-12 0 -24 -1 -36 -1c-13 -1 -25 -2 -37 -2c-7 0 -15 0 -23 2v12c6 -1 13 -2 19 -2c8 0 21 2 30 8c13 13 18 32 18 63v371c0 29 -2 58 -42 58c-11 0 -12 0 -21 -1
v11c9 2 16 3 29 3c16 0 87 -4 102 -4h120zM293 609c0 17 13 30 30 30s30 -13 30 -30s-13 -30 -30 -30s-30 13 -30 30zM128 609c0 17 13 30 30 30s30 -13 30 -30s-13 -30 -30 -30s-30 13 -30 30z" />
    <glyph glyph-name="Egrave" unicode="&#xc8;" horiz-adv-x="481" 
d="M311 521l51 1c4 -11 25 -57 29 -67c7 -17 7 -23 7 -38h-8c-1 70 -109 87 -176 87c-11 0 -36 -1 -36 -19v-201h88c48 0 58 26 58 38c0 8 -3 17 -5 26l6 4c7 -11 7 -14 9 -42c3 -41 3 -46 10 -66c6 -17 6 -32 6 -45h-7c-4 68 -34 68 -165 66v-214c0 -23 19 -34 38 -34h51
c2 0 52 0 102 24c55 27 56 35 59 57h10c-3 -19 -5 -28 -17 -46c-6 -9 -35 -47 -39 -56c-41 5 -182 7 -230 7c-12 0 -24 -1 -36 -1c-13 -1 -25 -2 -37 -2c-7 0 -15 0 -23 2v12c6 -1 13 -2 19 -2c8 0 21 2 30 8c13 13 18 32 18 63v371c0 29 -2 58 -42 58c-11 0 -12 0 -21 -1
v11c9 2 16 3 29 3c16 0 87 -4 102 -4h120zM343 554l-208 71l16 35l195 -99z" />
    <glyph glyph-name="Iacute" unicode="&#xcd;" horiz-adv-x="296" 
d="M243 523v-12c-7 1 -14 1 -20 1c-45 0 -47 -44 -47 -68v-369c0 -20 0 -63 48 -63c4 0 9 0 14 1v-13h-34c-9 0 -47 4 -55 4c-7 0 -39 -4 -45 -4h-44v13c6 -1 13 -1 20 -1c40 0 40 29 40 64v367c0 38 0 69 -44 69c-6 0 -12 0 -18 -1v12l15 1c22 0 56 -4 78 -4
c11 0 60 4 71 4s12 0 21 -1zM254 625l-208 -71l-3 7l195 99z" />
    <glyph glyph-name="Icircumflex" unicode="&#xce;" horiz-adv-x="296" 
d="M243 523v-12c-7 1 -14 1 -20 1c-45 0 -47 -44 -47 -68v-369c0 -20 0 -63 48 -63c4 0 9 0 14 1v-13h-34c-9 0 -47 4 -55 4c-7 0 -39 -4 -45 -4h-44v13c6 -1 13 -1 20 -1c40 0 40 29 40 64v367c0 38 0 69 -44 69c-6 0 -12 0 -18 -1v12l15 1c22 0 56 -4 78 -4
c11 0 60 4 71 4s12 0 21 -1zM21 554l112 123h33l110 -123h-23l-105 87l-100 -87h-27z" />
    <glyph glyph-name="Idieresis" unicode="&#xcf;" horiz-adv-x="296" 
d="M243 523v-12c-7 1 -14 1 -20 1c-45 0 -47 -44 -47 -68v-369c0 -20 0 -63 48 -63c4 0 9 0 14 1v-13h-34c-9 0 -47 4 -55 4c-7 0 -39 -4 -45 -4h-44v13c6 -1 13 -1 20 -1c40 0 40 29 40 64v367c0 38 0 69 -44 69c-6 0 -12 0 -18 -1v12l15 1c22 0 56 -4 78 -4
c11 0 60 4 71 4s12 0 21 -1zM201 609c0 17 13 30 30 30s30 -13 30 -30s-13 -30 -30 -30s-30 13 -30 30zM36 609c0 17 13 30 30 30s30 -13 30 -30s-13 -30 -30 -30s-30 13 -30 30z" />
    <glyph glyph-name="Igrave" unicode="&#xcc;" horiz-adv-x="296" 
d="M243 523v-12c-7 1 -14 1 -20 1c-45 0 -47 -44 -47 -68v-369c0 -20 0 -63 48 -63c4 0 9 0 14 1v-13h-34c-9 0 -47 4 -55 4c-7 0 -39 -4 -45 -4h-44v13c6 -1 13 -1 20 -1c40 0 40 29 40 64v367c0 38 0 69 -44 69c-6 0 -12 0 -18 -1v12l15 1c22 0 56 -4 78 -4
c11 0 60 4 71 4s12 0 21 -1zM251 554l-208 71l16 35l195 -99z" />
    <glyph glyph-name="Ntilde" unicode="&#xd1;" horiz-adv-x="648" 
d="M113 97v378l-19 19c-15 15 -19 18 -40 18h-12v11c6 0 17 1 38 1c27 0 49 -2 55 -6c6 -3 15 -9 20 -15l364 -422v346c0 44 -5 59 -15 70c-6 9 -24 15 -35 15c-6 0 -14 0 -20 -1v12c5 1 24 1 37 1c11 0 25 -3 47 -3c19 0 36 3 51 3c8 0 13 0 20 -1v-12c-5 1 -10 1 -15 1
c-37 0 -49 -17 -49 -85v-421c0 -3 -1 -8 -6 -11c0 0 -4 -1 -6 -1s-7 0 -11 2l-383 454v-353c0 -44 5 -59 15 -70c6 -9 24 -15 35 -15c6 0 14 0 20 1v-12c-5 -1 -24 -1 -37 -1c-11 0 -25 3 -47 3c-19 0 -36 -3 -51 -3c-8 0 -13 0 -20 1v12c5 -1 10 -1 15 -1c37 0 49 17 49 85
zM418 650h25c-13 -56 -55 -65 -74 -65c-13 0 -33 7 -52 13s-37 12 -50 12c-31 0 -36 -24 -39 -41h-22c3 19 11 66 60 66c21 0 42 -5 60 -13c17 -8 34 -12 46 -12c32 0 42 27 46 40z" />
    <glyph glyph-name="Oacute" unicode="&#xd3;" horiz-adv-x="630" 
d="M590 265c0 -112 -93 -271 -271 -271c-185 0 -278 123 -278 260c0 142 121 276 276 276c160 0 273 -103 273 -265zM535 228c0 100 -56 285 -227 285c-122 0 -212 -103 -212 -243c0 -110 72 -258 230 -258c126 0 209 92 209 216zM421 625l-208 -71l-3 7l195 99z" />
    <glyph glyph-name="Ocircumflex" unicode="&#xd4;" horiz-adv-x="630" 
d="M590 265c0 -112 -93 -271 -271 -271c-185 0 -278 123 -278 260c0 142 121 276 276 276c160 0 273 -103 273 -265zM535 228c0 100 -56 285 -227 285c-122 0 -212 -103 -212 -243c0 -110 72 -258 230 -258c126 0 209 92 209 216zM188 554l112 123h33l110 -123h-23l-105 87
l-100 -87h-27z" />
    <glyph glyph-name="Odieresis" unicode="&#xd6;" horiz-adv-x="630" 
d="M590 265c0 -112 -93 -271 -271 -271c-185 0 -278 123 -278 260c0 142 121 276 276 276c160 0 273 -103 273 -265zM535 228c0 100 -56 285 -227 285c-122 0 -212 -103 -212 -243c0 -110 72 -258 230 -258c126 0 209 92 209 216zM368 609c0 17 13 30 30 30s30 -13 30 -30
s-13 -30 -30 -30s-30 13 -30 30zM203 609c0 17 13 30 30 30s30 -13 30 -30s-13 -30 -30 -30s-30 13 -30 30z" />
    <glyph glyph-name="Ograve" unicode="&#xd2;" horiz-adv-x="630" 
d="M590 265c0 -112 -93 -271 -271 -271c-185 0 -278 123 -278 260c0 142 121 276 276 276c160 0 273 -103 273 -265zM535 228c0 100 -56 285 -227 285c-122 0 -212 -103 -212 -243c0 -110 72 -258 230 -258c126 0 209 92 209 216zM418 554l-208 71l16 35l195 -99z" />
    <glyph glyph-name="Otilde" unicode="&#xd5;" horiz-adv-x="630" 
d="M590 265c0 -112 -93 -271 -271 -271c-185 0 -278 123 -278 260c0 142 121 276 276 276c160 0 273 -103 273 -265zM535 228c0 100 -56 285 -227 285c-122 0 -212 -103 -212 -243c0 -110 72 -258 230 -258c126 0 209 92 209 216zM409 650h25c-13 -56 -55 -65 -74 -65
c-13 0 -33 7 -52 13s-37 12 -50 12c-31 0 -36 -24 -39 -41h-22c3 19 11 66 60 66c21 0 42 -5 60 -13c17 -8 34 -12 46 -12c32 0 42 27 46 40z" />
    <glyph glyph-name="Scaron" unicode="&#x160;" horiz-adv-x="389" 
d="M216 319l40 -33c61 -50 89 -98 89 -155c0 -44 -26 -132 -160 -132c-60 0 -88 30 -132 30c0 27 -14 67 -14 94c0 9 0 23 4 33h9c-1 -9 -2 -16 -2 -25c0 -16 2 -34 7 -44c1 -2 24 -29 47 -45c13 -10 38 -28 85 -28c60 0 110 41 110 103c0 64 -55 111 -90 141l-41 35
c-59 50 -91 78 -91 133c0 47 40 103 114 103c31 0 47 -6 105 -28c6 -19 7 -28 7 -47c0 -9 0 -25 -7 -48h-10c1 7 5 30 5 43c0 4 -34 64 -96 64c-42 0 -76 -27 -76 -66c0 -21 5 -52 97 -128zM67 677h23l105 -87l100 87h27l-112 -123h-33z" />
    <glyph glyph-name="Uacute" unicode="&#xda;" horiz-adv-x="593" 
d="M96 179v274c0 54 -31 59 -37 59c-5 0 -17 -2 -30 -4v13c9 2 18 3 30 3c11 0 60 -5 70 -5s21 0 30 1c6 1 31 4 36 4c10 0 19 -1 27 -2v-13c-10 2 -14 3 -28 3c-40 0 -44 -41 -44 -77l-1 -246c0 -35 0 -175 167 -175c56 0 123 36 145 92c15 38 15 82 15 108v224
c0 27 -7 60 -35 72c-1 1 -9 2 -15 2s-17 -2 -23 -4v13c7 2 13 3 24 3c17 0 41 -5 58 -5c15 0 43 5 54 5s15 -1 21 -3v-13c-7 2 -14 4 -19 4c-4 0 -12 -1 -14 -2c-27 -21 -30 -32 -30 -98v-174c0 -83 -4 -141 -54 -191c-45 -45 -111 -52 -136 -52c-131 0 -211 64 -211 184z
M402 625l-208 -71l-3 7l195 99z" />
    <glyph glyph-name="Ucircumflex" unicode="&#xdb;" horiz-adv-x="593" 
d="M96 179v274c0 54 -31 59 -37 59c-5 0 -17 -2 -30 -4v13c9 2 18 3 30 3c11 0 60 -5 70 -5s21 0 30 1c6 1 31 4 36 4c10 0 19 -1 27 -2v-13c-10 2 -14 3 -28 3c-40 0 -44 -41 -44 -77l-1 -246c0 -35 0 -175 167 -175c56 0 123 36 145 92c15 38 15 82 15 108v224
c0 27 -7 60 -35 72c-1 1 -9 2 -15 2s-17 -2 -23 -4v13c7 2 13 3 24 3c17 0 41 -5 58 -5c15 0 43 5 54 5s15 -1 21 -3v-13c-7 2 -14 4 -19 4c-4 0 -12 -1 -14 -2c-27 -21 -30 -32 -30 -98v-174c0 -83 -4 -141 -54 -191c-45 -45 -111 -52 -136 -52c-131 0 -211 64 -211 184z
M169 554l112 123h33l110 -123h-23l-105 87l-100 -87h-27z" />
    <glyph glyph-name="Udieresis" unicode="&#xdc;" horiz-adv-x="593" 
d="M96 179v274c0 54 -31 59 -37 59c-5 0 -17 -2 -30 -4v13c9 2 18 3 30 3c11 0 60 -5 70 -5s21 0 30 1c6 1 31 4 36 4c10 0 19 -1 27 -2v-13c-10 2 -14 3 -28 3c-40 0 -44 -41 -44 -77l-1 -246c0 -35 0 -175 167 -175c56 0 123 36 145 92c15 38 15 82 15 108v224
c0 27 -7 60 -35 72c-1 1 -9 2 -15 2s-17 -2 -23 -4v13c7 2 13 3 24 3c17 0 41 -5 58 -5c15 0 43 5 54 5s15 -1 21 -3v-13c-7 2 -14 4 -19 4c-4 0 -12 -1 -14 -2c-27 -21 -30 -32 -30 -98v-174c0 -83 -4 -141 -54 -191c-45 -45 -111 -52 -136 -52c-131 0 -211 64 -211 184z
M349 609c0 17 13 30 30 30s30 -13 30 -30s-13 -30 -30 -30s-30 13 -30 30zM184 609c0 17 13 30 30 30s30 -13 30 -30s-13 -30 -30 -30s-30 13 -30 30z" />
    <glyph glyph-name="Ugrave" unicode="&#xd9;" horiz-adv-x="593" 
d="M96 179v274c0 54 -31 59 -37 59c-5 0 -17 -2 -30 -4v13c9 2 18 3 30 3c11 0 60 -5 70 -5s21 0 30 1c6 1 31 4 36 4c10 0 19 -1 27 -2v-13c-10 2 -14 3 -28 3c-40 0 -44 -41 -44 -77l-1 -246c0 -35 0 -175 167 -175c56 0 123 36 145 92c15 38 15 82 15 108v224
c0 27 -7 60 -35 72c-1 1 -9 2 -15 2s-17 -2 -23 -4v13c7 2 13 3 24 3c17 0 41 -5 58 -5c15 0 43 5 54 5s15 -1 21 -3v-13c-7 2 -14 4 -19 4c-4 0 -12 -1 -14 -2c-27 -21 -30 -32 -30 -98v-174c0 -83 -4 -141 -54 -191c-45 -45 -111 -52 -136 -52c-131 0 -211 64 -211 184z
M399 554l-208 71l16 35l195 -99z" />
    <glyph glyph-name="Yacute" unicode="&#xdd;" horiz-adv-x="463" 
d="M137 3v13c10 -3 19 -4 32 -4c3 0 8 0 9 1c20 15 26 52 26 84v175l-133 207c-9 14 -22 26 -32 33c-20 0 -23 0 -32 -1v11c9 1 18 2 29 2c15 0 43 -4 55 -4c17 0 36 4 57 4c16 0 24 -1 33 -3v-14c-8 3 -18 5 -28 5c-9 0 -14 -2 -20 -6c-2 -2 -5 -8 -5 -13
c0 -7 12 -23 16 -30l111 -171l89 138c8 13 25 41 25 56c0 10 -3 16 -8 24c-9 1 -16 2 -25 2c-6 0 -13 0 -19 -1v12c8 1 12 1 23 1c21 0 45 -4 53 -4c9 0 36 4 48 4c14 0 18 -1 24 -4v-11c-6 2 -10 3 -17 3c-14 0 -22 -6 -26 -9c-5 -3 -19 -14 -43 -52l-120 -186v-185
c0 -32 14 -56 33 -67c1 -1 12 -1 16 -1c3 0 11 1 18 2v-12c-10 -1 -20 -2 -30 -2c-22 0 -52 4 -66 4s-41 -4 -62 -4c-10 0 -20 1 -31 3zM337 625l-208 -71l-3 7l195 99z" />
    <glyph glyph-name="Ydieresis" unicode="&#x178;" horiz-adv-x="463" 
d="M137 3v13c10 -3 19 -4 32 -4c3 0 8 0 9 1c20 15 26 52 26 84v175l-133 207c-9 14 -22 26 -32 33c-20 0 -23 0 -32 -1v11c9 1 18 2 29 2c15 0 43 -4 55 -4c17 0 36 4 57 4c16 0 24 -1 33 -3v-14c-8 3 -18 5 -28 5c-9 0 -14 -2 -20 -6c-2 -2 -5 -8 -5 -13
c0 -7 12 -23 16 -30l111 -171l89 138c8 13 25 41 25 56c0 10 -3 16 -8 24c-9 1 -16 2 -25 2c-6 0 -13 0 -19 -1v12c8 1 12 1 23 1c21 0 45 -4 53 -4c9 0 36 4 48 4c14 0 18 -1 24 -4v-11c-6 2 -10 3 -17 3c-14 0 -22 -6 -26 -9c-5 -3 -19 -14 -43 -52l-120 -186v-185
c0 -32 14 -56 33 -67c1 -1 12 -1 16 -1c3 0 11 1 18 2v-12c-10 -1 -20 -2 -30 -2c-22 0 -52 4 -66 4s-41 -4 -62 -4c-10 0 -20 1 -31 3zM284 609c0 17 13 30 30 30s30 -13 30 -30s-13 -30 -30 -30s-30 13 -30 30zM119 609c0 17 13 30 30 30s30 -13 30 -30s-13 -30 -30 -30
s-30 13 -30 30z" />
    <glyph glyph-name="Zcaron" unicode="&#x17d;" horiz-adv-x="500" 
d="M32 13l334 487c-14 0 -27 -1 -41 -1c-16 0 -89 4 -104 4c-79 0 -107 -16 -134 -33c-23 -13 -20 -16 -30 -48h-11c5 30 7 34 29 68c14 22 16 24 20 38c26 -5 206 -11 237 -11c3 0 45 0 99 5c1 -3 1 -6 1 -8c0 -9 -10 -27 -15 -34l-316 -460h222c81 0 130 39 131 40
c21 17 23 33 24 55h12c-3 -33 -6 -41 -24 -65c-27 -35 -30 -39 -34 -54c-12 2 -32 3 -53 4c-20 1 -41 1 -54 1h-283c-3 0 -7 1 -10 2c0 3 -2 8 0 10zM123 677h23l105 -87l100 87h27l-112 -123h-33z" />
    <glyph glyph-name="aacute" unicode="&#xe1;" horiz-adv-x="444" 
d="M2 1v9c5 0 10 -1 15 -1s15 1 16 2s15 11 16 13c8 12 19 28 23 39l139 368h11l139 -351c16 -40 22 -51 33 -67c1 -2 15 -3 20 -3s16 3 19 3v-11c-6 -1 -12 -2 -20 -2c-9 0 -38 4 -60 4c-23 0 -43 -4 -57 -4c-6 0 -11 0 -18 1v11c6 -1 13 -2 18 -2c4 0 11 1 15 2
c5 1 12 9 12 22c0 10 -3 18 -5 23l-54 134h-125l-44 -118c-5 -14 -7 -26 -7 -33c0 -14 6 -31 25 -31c7 0 14 1 21 1v-9c-5 -1 -11 -1 -17 -1c-16 0 -39 2 -54 2c-19 0 -34 -2 -44 -2c-9 0 -12 0 -17 1zM147 207h111l-58 144zM328 551l-208 -71l-3 7l195 99z" />
    <glyph glyph-name="acircumflex" unicode="&#xe2;" horiz-adv-x="444" 
d="M2 1v9c5 0 10 -1 15 -1s15 1 16 2s15 11 16 13c8 12 19 28 23 39l139 368h11l139 -351c16 -40 22 -51 33 -67c1 -2 15 -3 20 -3s16 3 19 3v-11c-6 -1 -12 -2 -20 -2c-9 0 -38 4 -60 4c-23 0 -43 -4 -57 -4c-6 0 -11 0 -18 1v11c6 -1 13 -2 18 -2c4 0 11 1 15 2
c5 1 12 9 12 22c0 10 -3 18 -5 23l-54 134h-125l-44 -118c-5 -14 -7 -26 -7 -33c0 -14 6 -31 25 -31c7 0 14 1 21 1v-9c-5 -1 -11 -1 -17 -1c-16 0 -39 2 -54 2c-19 0 -34 -2 -44 -2c-9 0 -12 0 -17 1zM147 207h111l-58 144zM95 480l112 123h33l110 -123h-23l-105 87
l-100 -87h-27z" />
    <glyph glyph-name="adieresis" unicode="&#xe4;" horiz-adv-x="444" 
d="M2 1v9c5 0 10 -1 15 -1s15 1 16 2s15 11 16 13c8 12 19 28 23 39l139 368h11l139 -351c16 -40 22 -51 33 -67c1 -2 15 -3 20 -3s16 3 19 3v-11c-6 -1 -12 -2 -20 -2c-9 0 -38 4 -60 4c-23 0 -43 -4 -57 -4c-6 0 -11 0 -18 1v11c6 -1 13 -2 18 -2c4 0 11 1 15 2
c5 1 12 9 12 22c0 10 -3 18 -5 23l-54 134h-125l-44 -118c-5 -14 -7 -26 -7 -33c0 -14 6 -31 25 -31c7 0 14 1 21 1v-9c-5 -1 -11 -1 -17 -1c-16 0 -39 2 -54 2c-19 0 -34 -2 -44 -2c-9 0 -12 0 -17 1zM147 207h111l-58 144zM275 535c0 17 13 30 30 30s30 -13 30 -30
s-13 -30 -30 -30s-30 13 -30 30zM110 535c0 17 13 30 30 30s30 -13 30 -30s-13 -30 -30 -30s-30 13 -30 30z" />
    <glyph glyph-name="agrave" unicode="&#xe0;" horiz-adv-x="444" 
d="M2 1v9c5 0 10 -1 15 -1s15 1 16 2s15 11 16 13c8 12 19 28 23 39l139 368h11l139 -351c16 -40 22 -51 33 -67c1 -2 15 -3 20 -3s16 3 19 3v-11c-6 -1 -12 -2 -20 -2c-9 0 -38 4 -60 4c-23 0 -43 -4 -57 -4c-6 0 -11 0 -18 1v11c6 -1 13 -2 18 -2c4 0 11 1 15 2
c5 1 12 9 12 22c0 10 -3 18 -5 23l-54 134h-125l-44 -118c-5 -14 -7 -26 -7 -33c0 -14 6 -31 25 -31c7 0 14 1 21 1v-9c-5 -1 -11 -1 -17 -1c-16 0 -39 2 -54 2c-19 0 -34 -2 -44 -2c-9 0 -12 0 -17 1zM147 207h111l-58 144zM325 480l-208 71l16 35l195 -99z" />
    <glyph glyph-name="aring" unicode="&#xe5;" horiz-adv-x="444" 
d="M2 1v9c5 0 10 -1 15 -1s15 1 16 2s15 11 16 13c8 12 19 28 23 39l139 368h11l139 -351c16 -40 22 -51 33 -67c1 -2 15 -3 20 -3s16 3 19 3v-11c-6 -1 -12 -2 -20 -2c-9 0 -38 4 -60 4c-23 0 -43 -4 -57 -4c-6 0 -11 0 -18 1v11c6 -1 13 -2 18 -2c4 0 11 1 15 2
c5 1 12 9 12 22c0 10 -3 18 -5 23l-54 134h-125l-44 -118c-5 -14 -7 -26 -7 -33c0 -14 6 -31 25 -31c7 0 14 1 21 1v-9c-5 -1 -11 -1 -17 -1c-16 0 -39 2 -54 2c-19 0 -34 -2 -44 -2c-9 0 -12 0 -17 1zM147 207h111l-58 144zM149 535c0 35 29 64 64 64s64 -29 64 -64
s-29 -64 -64 -64s-64 29 -64 64zM169 535c0 -24 20 -44 44 -44s44 20 44 44s-20 44 -44 44s-44 -20 -44 -44z" />
    <glyph glyph-name="atilde" unicode="&#xe3;" horiz-adv-x="444" 
d="M2 1v9c5 0 10 -1 15 -1s15 1 16 2s15 11 16 13c8 12 19 28 23 39l139 368h11l139 -351c16 -40 22 -51 33 -67c1 -2 15 -3 20 -3s16 3 19 3v-11c-6 -1 -12 -2 -20 -2c-9 0 -38 4 -60 4c-23 0 -43 -4 -57 -4c-6 0 -11 0 -18 1v11c6 -1 13 -2 18 -2c4 0 11 1 15 2
c5 1 12 9 12 22c0 10 -3 18 -5 23l-54 134h-125l-44 -118c-5 -14 -7 -26 -7 -33c0 -14 6 -31 25 -31c7 0 14 1 21 1v-9c-5 -1 -11 -1 -17 -1c-16 0 -39 2 -54 2c-19 0 -34 -2 -44 -2c-9 0 -12 0 -17 1zM147 207h111l-58 144zM316 576h25c-13 -56 -55 -65 -74 -65
c-13 0 -33 7 -52 13s-37 12 -50 12c-31 0 -36 -24 -39 -41h-22c3 19 11 66 60 66c21 0 42 -5 60 -13c17 -8 34 -12 46 -12c32 0 42 27 46 40z" />
    <glyph glyph-name="ccedilla" unicode="&#xe7;" horiz-adv-x="500" 
d="M151 -160l8 20c31 -15 63 -28 110 -28c38 0 56 24 56 44c0 37 -36 49 -67 49h-31l20 73c-148 12 -205 108 -205 203c0 125 100 230 227 230c70 0 106 -28 136 -28c9 0 18 2 23 4h8c0 -19 9 -47 10 -56c1 -6 1 -27 1 -35c0 -18 -2 -25 -4 -31h-9c1 8 1 20 1 30
c0 4 -18 35 -34 52c-23 23 -69 45 -123 45c-101 0 -175 -78 -175 -201c0 -86 48 -201 185 -201c72 0 129 27 146 41c15 12 22 24 29 37l8 -6c-8 -15 -15 -28 -27 -40c-13 -13 -58 -47 -164 -47c-5 0 -10 0 -14 1l-12 -51c36 0 104 0 104 -64c0 -52 -54 -69 -104 -69
c-35 0 -74 15 -103 28z" />
    <glyph glyph-name="eacute" unicode="&#xe9;" horiz-adv-x="407" 
d="M334 339h-6c-6 69 -117 72 -140 72c-17 0 -25 -3 -35 -8c-2 -5 -5 -10 -5 -15v-148h61c27 0 57 0 57 29c0 8 -3 16 -6 24c2 1 5 1 7 2c3 -4 6 -7 8 -16c3 -12 1 -31 3 -43c1 -9 16 -47 16 -54v-14h-7c-12 48 -36 51 -139 51v-177c0 -22 15 -22 44 -22c48 0 154 0 169 73
h7c-1 -25 -4 -29 -25 -59c-16 -22 -18 -25 -24 -39c-11 2 -21 3 -31 4c-13 1 -52 1 -70 1c-33 0 -67 2 -100 2c-18 0 -36 -2 -54 -2c-22 0 -24 0 -32 1v11c7 -1 12 -2 19 -2c41 0 46 23 46 55v308c0 27 -4 44 -32 44l-28 -2v12l15 1c21 1 111 -1 130 -1c85 0 90 1 125 6
c3 -11 25 -67 25 -68c2 -8 2 -17 2 -26zM309 551l-208 -71l-3 7l195 99z" />
    <glyph glyph-name="ecircumflex" unicode="&#xea;" horiz-adv-x="407" 
d="M334 339h-6c-6 69 -117 72 -140 72c-17 0 -25 -3 -35 -8c-2 -5 -5 -10 -5 -15v-148h61c27 0 57 0 57 29c0 8 -3 16 -6 24c2 1 5 1 7 2c3 -4 6 -7 8 -16c3 -12 1 -31 3 -43c1 -9 16 -47 16 -54v-14h-7c-12 48 -36 51 -139 51v-177c0 -22 15 -22 44 -22c48 0 154 0 169 73
h7c-1 -25 -4 -29 -25 -59c-16 -22 -18 -25 -24 -39c-11 2 -21 3 -31 4c-13 1 -52 1 -70 1c-33 0 -67 2 -100 2c-18 0 -36 -2 -54 -2c-22 0 -24 0 -32 1v11c7 -1 12 -2 19 -2c41 0 46 23 46 55v308c0 27 -4 44 -32 44l-28 -2v12l15 1c21 1 111 -1 130 -1c85 0 90 1 125 6
c3 -11 25 -67 25 -68c2 -8 2 -17 2 -26zM76 480l112 123h33l110 -123h-23l-105 87l-100 -87h-27z" />
    <glyph glyph-name="edieresis" unicode="&#xeb;" horiz-adv-x="407" 
d="M334 339h-6c-6 69 -117 72 -140 72c-17 0 -25 -3 -35 -8c-2 -5 -5 -10 -5 -15v-148h61c27 0 57 0 57 29c0 8 -3 16 -6 24c2 1 5 1 7 2c3 -4 6 -7 8 -16c3 -12 1 -31 3 -43c1 -9 16 -47 16 -54v-14h-7c-12 48 -36 51 -139 51v-177c0 -22 15 -22 44 -22c48 0 154 0 169 73
h7c-1 -25 -4 -29 -25 -59c-16 -22 -18 -25 -24 -39c-11 2 -21 3 -31 4c-13 1 -52 1 -70 1c-33 0 -67 2 -100 2c-18 0 -36 -2 -54 -2c-22 0 -24 0 -32 1v11c7 -1 12 -2 19 -2c41 0 46 23 46 55v308c0 27 -4 44 -32 44l-28 -2v12l15 1c21 1 111 -1 130 -1c85 0 90 1 125 6
c3 -11 25 -67 25 -68c2 -8 2 -17 2 -26zM256 535c0 17 13 30 30 30s30 -13 30 -30s-13 -30 -30 -30s-30 13 -30 30zM91 535c0 17 13 30 30 30s30 -13 30 -30s-13 -30 -30 -30s-30 13 -30 30z" />
    <glyph glyph-name="egrave" unicode="&#xe8;" horiz-adv-x="407" 
d="M334 339h-6c-6 69 -117 72 -140 72c-17 0 -25 -3 -35 -8c-2 -5 -5 -10 -5 -15v-148h61c27 0 57 0 57 29c0 8 -3 16 -6 24c2 1 5 1 7 2c3 -4 6 -7 8 -16c3 -12 1 -31 3 -43c1 -9 16 -47 16 -54v-14h-7c-12 48 -36 51 -139 51v-177c0 -22 15 -22 44 -22c48 0 154 0 169 73
h7c-1 -25 -4 -29 -25 -59c-16 -22 -18 -25 -24 -39c-11 2 -21 3 -31 4c-13 1 -52 1 -70 1c-33 0 -67 2 -100 2c-18 0 -36 -2 -54 -2c-22 0 -24 0 -32 1v11c7 -1 12 -2 19 -2c41 0 46 23 46 55v308c0 27 -4 44 -32 44l-28 -2v12l15 1c21 1 111 -1 130 -1c85 0 90 1 125 6
c3 -11 25 -67 25 -68c2 -8 2 -17 2 -26zM306 480l-208 71l16 35l195 -99z" />
    <glyph glyph-name="iacute" unicode="&#xed;" 
d="M44 2v10c7 -1 15 -1 22 -1s13 0 20 1c13 13 18 20 18 64v278c0 35 -4 44 -21 59c-8 1 -15 1 -23 1c-7 0 -13 0 -21 -1v9c10 2 17 3 32 3c9 0 50 -4 58 -4c10 0 52 4 60 4s19 -2 26 -3v-9c-9 1 -11 1 -22 1c-25 0 -38 -17 -38 -42v-315c0 -22 11 -37 19 -45
c7 -1 13 -2 20 -2s14 1 21 2v-10c-6 -2 -7 -2 -17 -2c-12 0 -62 4 -72 4s-54 -4 -63 -4c-5 0 -14 1 -19 2zM235 551l-208 -71l-3 7l195 99z" />
    <glyph glyph-name="icircumflex" unicode="&#xee;" 
d="M44 2v10c7 -1 15 -1 22 -1s13 0 20 1c13 13 18 20 18 64v278c0 35 -4 44 -21 59c-8 1 -15 1 -23 1c-7 0 -13 0 -21 -1v9c10 2 17 3 32 3c9 0 50 -4 58 -4c10 0 52 4 60 4s19 -2 26 -3v-9c-9 1 -11 1 -22 1c-25 0 -38 -17 -38 -42v-315c0 -22 11 -37 19 -45
c7 -1 13 -2 20 -2s14 1 21 2v-10c-6 -2 -7 -2 -17 -2c-12 0 -62 4 -72 4s-54 -4 -63 -4c-5 0 -14 1 -19 2zM2 480l112 123h33l110 -123h-23l-105 87l-100 -87h-27z" />
    <glyph glyph-name="idieresis" unicode="&#xef;" 
d="M44 2v10c7 -1 15 -1 22 -1s13 0 20 1c13 13 18 20 18 64v278c0 35 -4 44 -21 59c-8 1 -15 1 -23 1c-7 0 -13 0 -21 -1v9c10 2 17 3 32 3c9 0 50 -4 58 -4c10 0 52 4 60 4s19 -2 26 -3v-9c-9 1 -11 1 -22 1c-25 0 -38 -17 -38 -42v-315c0 -22 11 -37 19 -45
c7 -1 13 -2 20 -2s14 1 21 2v-10c-6 -2 -7 -2 -17 -2c-12 0 -62 4 -72 4s-54 -4 -63 -4c-5 0 -14 1 -19 2zM182 535c0 17 13 30 30 30s30 -13 30 -30s-13 -30 -30 -30s-30 13 -30 30zM17 535c0 17 13 30 30 30s30 -13 30 -30s-13 -30 -30 -30s-30 13 -30 30z" />
    <glyph glyph-name="igrave" unicode="&#xec;" 
d="M44 2v10c7 -1 15 -1 22 -1s13 0 20 1c13 13 18 20 18 64v278c0 35 -4 44 -21 59c-8 1 -15 1 -23 1c-7 0 -13 0 -21 -1v9c10 2 17 3 32 3c9 0 50 -4 58 -4c10 0 52 4 60 4s19 -2 26 -3v-9c-9 1 -11 1 -22 1c-25 0 -38 -17 -38 -42v-315c0 -22 11 -37 19 -45
c7 -1 13 -2 20 -2s14 1 21 2v-10c-6 -2 -7 -2 -17 -2c-12 0 -62 4 -72 4s-54 -4 -63 -4c-5 0 -14 1 -19 2zM232 480l-208 71l16 35l195 -99z" />
    <glyph glyph-name="ntilde" unicode="&#xf1;" horiz-adv-x="556" 
d="M32 0v10c5 -1 15 -2 22 -2c3 0 19 1 21 2c24 15 25 80 25 83v291l-10 11c-12 13 -18 18 -36 18c-8 0 -14 -1 -22 -2v10c14 3 30 4 46 4c31 0 53 -2 69 -20l295 -334v269c0 28 -2 56 -22 74c-7 1 -13 1 -20 1c-6 0 -12 0 -18 -1v9c10 2 18 2 26 2c18 0 32 -5 47 -5
c11 0 27 5 38 5c12 0 19 -1 28 -3v-10c-12 2 -14 2 -35 2c-15 -10 -25 -17 -25 -66v-345c0 -7 -7 -9 -12 -9c-3 0 -7 1 -11 6l-320 365v-299c0 -19 8 -58 45 -58c7 0 14 1 20 2v-10c-8 -1 -17 -2 -27 -2c-11 0 -21 4 -48 4c-23 0 -42 -4 -52 -4c-13 0 -17 1 -24 2zM372 576
h25c-13 -56 -55 -65 -74 -65c-13 0 -33 7 -52 13s-37 12 -50 12c-31 0 -36 -24 -39 -41h-22c3 19 11 66 60 66c21 0 42 -5 60 -13c17 -8 34 -12 46 -12c32 0 42 27 46 40z" />
    <glyph glyph-name="oacute" unicode="&#xf3;" horiz-adv-x="537" 
d="M35 193c0 100 62 238 234 238c160 0 234 -104 234 -199c0 -100 -62 -238 -234 -238c-160 0 -234 104 -234 199zM81 235c0 -111 82 -223 200 -223c95 0 171 62 171 176c0 111 -82 223 -200 223c-95 0 -171 -62 -171 -176zM374 551l-208 -71l-3 7l195 99z" />
    <glyph glyph-name="ocircumflex" unicode="&#xf4;" horiz-adv-x="537" 
d="M35 193c0 100 62 238 234 238c160 0 234 -104 234 -199c0 -100 -62 -238 -234 -238c-160 0 -234 104 -234 199zM81 235c0 -111 82 -223 200 -223c95 0 171 62 171 176c0 111 -82 223 -200 223c-95 0 -171 -62 -171 -176zM141 480l112 123h33l110 -123h-23l-105 87
l-100 -87h-27z" />
    <glyph glyph-name="odieresis" unicode="&#xf6;" horiz-adv-x="537" 
d="M35 193c0 100 62 238 234 238c160 0 234 -104 234 -199c0 -100 -62 -238 -234 -238c-160 0 -234 104 -234 199zM81 235c0 -111 82 -223 200 -223c95 0 171 62 171 176c0 111 -82 223 -200 223c-95 0 -171 -62 -171 -176zM321 535c0 17 13 30 30 30s30 -13 30 -30
s-13 -30 -30 -30s-30 13 -30 30zM156 535c0 17 13 30 30 30s30 -13 30 -30s-13 -30 -30 -30s-30 13 -30 30z" />
    <glyph glyph-name="ograve" unicode="&#xf2;" horiz-adv-x="537" 
d="M35 193c0 100 62 238 234 238c160 0 234 -104 234 -199c0 -100 -62 -238 -234 -238c-160 0 -234 104 -234 199zM81 235c0 -111 82 -223 200 -223c95 0 171 62 171 176c0 111 -82 223 -200 223c-95 0 -171 -62 -171 -176zM371 480l-208 71l16 35l195 -99z" />
    <glyph glyph-name="otilde" unicode="&#xf5;" horiz-adv-x="537" 
d="M35 193c0 100 62 238 234 238c160 0 234 -104 234 -199c0 -100 -62 -238 -234 -238c-160 0 -234 104 -234 199zM81 235c0 -111 82 -223 200 -223c95 0 171 62 171 176c0 111 -82 223 -200 223c-95 0 -171 -62 -171 -176zM362 576h25c-13 -56 -55 -65 -74 -65
c-13 0 -33 7 -52 13s-37 12 -50 12c-31 0 -36 -24 -39 -41h-22c3 19 11 66 60 66c21 0 42 -5 60 -13c17 -8 34 -12 46 -12c32 0 42 27 46 40z" />
    <glyph glyph-name="scaron" unicode="&#x161;" horiz-adv-x="352" 
d="M41 140l8 -1c-3 -8 -5 -17 -5 -26c0 -30 45 -103 120 -103c59 0 89 44 89 87c0 47 -28 71 -83 117c-78 66 -99 84 -99 129c0 9 2 86 96 86c21 0 40 -3 68 -13l25 -9c-2 -15 -2 -16 -2 -28l1 -33c0 -13 -2 -19 -7 -30l-8 3c3 7 6 14 6 21c0 10 -16 73 -79 73
c-32 0 -61 -16 -61 -49c0 -34 24 -53 74 -95c88 -73 115 -105 115 -160c0 -80 -73 -114 -125 -114c-37 0 -40 1 -132 36c-5 34 -7 54 -7 59c0 31 0 34 6 50zM49 603h23l105 -87l100 87h27l-112 -123h-33z" />
    <glyph glyph-name="uacute" unicode="&#xfa;" horiz-adv-x="519" 
d="M25 413v9c3 1 8 2 11 2l23 1c8 0 41 -5 47 -5c10 0 55 5 64 5c20 0 26 -2 31 -4v-9c-7 2 -13 3 -23 3c-23 0 -39 -35 -39 -56v-214c0 -55 33 -132 133 -132c140 0 140 120 140 156v162c0 39 -9 83 -52 83c-4 0 -8 0 -13 -1v9c6 2 12 3 18 3c15 0 43 -5 52 -5
c11 0 36 5 52 5c13 0 14 0 22 -3v-9c-4 1 -9 1 -13 1c-28 0 -47 -17 -47 -72v-171c0 -65 -12 -176 -176 -176c-165 0 -165 121 -165 175l-1 177c0 36 -9 68 -34 68c-12 0 -20 -1 -30 -2zM365 551l-208 -71l-3 7l195 99z" />
    <glyph glyph-name="ucircumflex" unicode="&#xfb;" horiz-adv-x="519" 
d="M25 413v9c3 1 8 2 11 2l23 1c8 0 41 -5 47 -5c10 0 55 5 64 5c20 0 26 -2 31 -4v-9c-7 2 -13 3 -23 3c-23 0 -39 -35 -39 -56v-214c0 -55 33 -132 133 -132c140 0 140 120 140 156v162c0 39 -9 83 -52 83c-4 0 -8 0 -13 -1v9c6 2 12 3 18 3c15 0 43 -5 52 -5
c11 0 36 5 52 5c13 0 14 0 22 -3v-9c-4 1 -9 1 -13 1c-28 0 -47 -17 -47 -72v-171c0 -65 -12 -176 -176 -176c-165 0 -165 121 -165 175l-1 177c0 36 -9 68 -34 68c-12 0 -20 -1 -30 -2zM132 480l112 123h33l110 -123h-23l-105 87l-100 -87h-27z" />
    <glyph glyph-name="udieresis" unicode="&#xfc;" horiz-adv-x="519" 
d="M25 413v9c3 1 8 2 11 2l23 1c8 0 41 -5 47 -5c10 0 55 5 64 5c20 0 26 -2 31 -4v-9c-7 2 -13 3 -23 3c-23 0 -39 -35 -39 -56v-214c0 -55 33 -132 133 -132c140 0 140 120 140 156v162c0 39 -9 83 -52 83c-4 0 -8 0 -13 -1v9c6 2 12 3 18 3c15 0 43 -5 52 -5
c11 0 36 5 52 5c13 0 14 0 22 -3v-9c-4 1 -9 1 -13 1c-28 0 -47 -17 -47 -72v-171c0 -65 -12 -176 -176 -176c-165 0 -165 121 -165 175l-1 177c0 36 -9 68 -34 68c-12 0 -20 -1 -30 -2zM312 535c0 17 13 30 30 30s30 -13 30 -30s-13 -30 -30 -30s-30 13 -30 30zM147 535
c0 17 13 30 30 30s30 -13 30 -30s-13 -30 -30 -30s-30 13 -30 30z" />
    <glyph glyph-name="ugrave" unicode="&#xf9;" horiz-adv-x="519" 
d="M25 413v9c3 1 8 2 11 2l23 1c8 0 41 -5 47 -5c10 0 55 5 64 5c20 0 26 -2 31 -4v-9c-7 2 -13 3 -23 3c-23 0 -39 -35 -39 -56v-214c0 -55 33 -132 133 -132c140 0 140 120 140 156v162c0 39 -9 83 -52 83c-4 0 -8 0 -13 -1v9c6 2 12 3 18 3c15 0 43 -5 52 -5
c11 0 36 5 52 5c13 0 14 0 22 -3v-9c-4 1 -9 1 -13 1c-28 0 -47 -17 -47 -72v-171c0 -65 -12 -176 -176 -176c-165 0 -165 121 -165 175l-1 177c0 36 -9 68 -34 68c-12 0 -20 -1 -30 -2zM362 480l-208 71l16 35l195 -99z" />
    <glyph glyph-name="yacute" unicode="&#xfd;" horiz-adv-x="407" 
d="M9 412v12l16 1c10 0 54 -5 63 -4l52 4c10 1 16 -1 22 -3v-8c-5 1 -11 2 -17 2c-16 0 -22 -9 -22 -17c0 -6 3 -15 7 -21l97 -142l80 124c5 9 12 20 12 33c0 20 -12 20 -20 20c-10 0 -10 0 -19 -1v10c5 1 13 3 19 3c8 0 41 -4 48 -4c8 0 40 4 47 4c3 0 6 -1 11 -3v-10
c-5 1 -9 1 -14 1c-22 0 -37 -9 -65 -53l-95 -148v-153c0 -22 11 -48 40 -48c13 -2 13 0 23 1v-10c-5 -2 -6 -2 -16 -2c-11 0 -59 5 -69 5c-9 0 -49 -5 -57 -5c-15 0 -16 0 -27 2v10c11 -1 14 -1 36 -1c12 9 20 17 20 55v154l-117 170c-16 23 -26 23 -33 23zM309 551
l-208 -71l-3 7l195 99z" />
    <glyph glyph-name="ydieresis" unicode="&#xff;" horiz-adv-x="407" 
d="M9 412v12l16 1c10 0 54 -5 63 -4l52 4c10 1 16 -1 22 -3v-8c-5 1 -11 2 -17 2c-16 0 -22 -9 -22 -17c0 -6 3 -15 7 -21l97 -142l80 124c5 9 12 20 12 33c0 20 -12 20 -20 20c-10 0 -10 0 -19 -1v10c5 1 13 3 19 3c8 0 41 -4 48 -4c8 0 40 4 47 4c3 0 6 -1 11 -3v-10
c-5 1 -9 1 -14 1c-22 0 -37 -9 -65 -53l-95 -148v-153c0 -22 11 -48 40 -48c13 -2 13 0 23 1v-10c-5 -2 -6 -2 -16 -2c-11 0 -59 5 -69 5c-9 0 -49 -5 -57 -5c-15 0 -16 0 -27 2v10c11 -1 14 -1 36 -1c12 9 20 17 20 55v154l-117 170c-16 23 -26 23 -33 23zM256 535
c0 17 13 30 30 30s30 -13 30 -30s-13 -30 -30 -30s-30 13 -30 30zM91 535c0 17 13 30 30 30s30 -13 30 -30s-13 -30 -30 -30s-30 13 -30 30z" />
    <glyph glyph-name="zcaron" unicode="&#x17e;" horiz-adv-x="426" 
d="M333 0h-291c-4 0 -7 1 -11 1l-1 8l269 398h-165c-4 0 -80 -7 -91 -70h-7c1 20 4 24 23 63c8 15 9 18 13 32c9 -3 14 -5 20 -6s14 -1 27 -1h156c45 0 49 0 78 5l10 -14l-269 -397h180c85 0 132 42 143 69h8c-8 -25 -11 -28 -33 -56c-16 -20 -18 -22 -23 -33zM86 603h23
l105 -87l100 87h27l-112 -123h-33z" />
    <glyph glyph-name="exclamsmall" unicode="&#xf721;" horiz-adv-x="222" 
d="M78 30c0 19 15 34 34 34c18 0 34 -15 34 -34s-16 -34 -34 -34c-19 0 -34 15 -34 34zM190 525v-11c-15 0 -26 -1 -30 -2c-2 -1 -23 -23 -23 -58v-342h-49l-1 341c0 37 -13 50 -24 61c-5 1 -10 1 -15 1s-8 0 -13 -1v10c7 1 14 1 21 1c9 0 47 -5 55 -5c13 0 40 5 79 5z" />
    <glyph glyph-name="Hungarumlautsmall" unicode="&#xf6f8;" 
d="M155 551l-208 -71l-3 7l195 99zM315 551l-208 -71l-3 7l195 99z" />
    <glyph glyph-name="ampersandsmall" unicode="&#xf726;" horiz-adv-x="556" 
d="M282 365v-12c-53 -23 -91 -47 -127 -83c-25 -25 -37 -69 -37 -96c0 -91 91 -161 186 -161c75 0 154 33 154 118c0 72 -51 103 -96 103c-61 0 -121 -48 -121 -101c0 -22 12 -32 32 -32c23 0 38 21 44 27l7 -6c-16 -24 -38 -44 -68 -44c-31 0 -41 27 -41 46
c0 72 92 121 132 149c28 19 86 76 86 115c0 21 -7 31 -22 31c-13 0 -21 -12 -27 -21l-8 2c9 23 38 57 63 57c18 0 30 -15 30 -41c0 -58 -64 -125 -117 -157l2 -2c12 2 26 2 40 2c22 0 42 -5 55 -11c40 -18 59 -55 59 -98c0 -36 -20 -63 -44 -90c-37 -41 -105 -64 -169 -64
c-127 0 -232 65 -232 170c0 73 54 132 135 159v2c-42 9 -89 38 -89 84c0 59 57 118 134 118c36 0 69 -18 84 -18c5 0 15 4 16 4c1 -6 14 -25 14 -52c0 -17 -5 -30 -11 -38l-9 4c4 7 7 14 10 21c-20 30 -48 62 -98 62c-39 0 -85 -19 -85 -81c0 -40 29 -72 80 -72
c23 0 31 3 38 6z" />
    <glyph glyph-name="Acutesmall" unicode="&#xf7b4;" 
d="M235 551l-208 -71l-3 7l195 99z" />
    <glyph glyph-name="questionsmall" unicode="&#xf73f;" horiz-adv-x="407" 
d="M167 110v196c19 -8 34 -14 54 -14c60 0 92 49 92 100c0 49 -34 115 -122 115c-92 0 -140 -107 -140 -113c0 -9 2 -24 2 -33h-9c-3 23 -5 39 -5 48c0 12 11 62 11 72c24 5 28 7 62 24c32 16 50 19 83 19c106 0 173 -69 173 -154c0 -78 -54 -111 -111 -111
c-12 0 -25 2 -37 4v-153h-53zM159 30c0 19 15 34 34 34c18 0 34 -15 34 -34s-16 -34 -34 -34c-19 0 -34 15 -34 34z" />
    <glyph glyph-name="Circumflexsmall" unicode="&#xf6f6;" 
d="M2 480l112 123h33l110 -123h-23l-105 87l-100 -87h-27z" />
    <glyph glyph-name="Gravesmall" unicode="&#xf760;" 
d="M232 480l-208 71l16 35l195 -99z" />
    <glyph glyph-name="Asmall" unicode="&#xf761;" horiz-adv-x="444" 
d="M2 1v9c5 0 10 -1 15 -1s15 1 16 2s15 11 16 13c8 12 19 28 23 39l139 368h11l139 -351c16 -40 22 -51 33 -67c1 -2 15 -3 20 -3s16 3 19 3v-11c-6 -1 -12 -2 -20 -2c-9 0 -38 4 -60 4c-23 0 -43 -4 -57 -4c-6 0 -11 0 -18 1v11c6 -1 13 -2 18 -2c4 0 11 1 15 2
c5 1 12 9 12 22c0 10 -3 18 -5 23l-54 134h-125l-44 -118c-5 -14 -7 -26 -7 -33c0 -14 6 -31 25 -31c7 0 14 1 21 1v-9c-5 -1 -11 -1 -17 -1c-16 0 -39 2 -54 2c-19 0 -34 -2 -44 -2c-9 0 -12 0 -17 1zM147 207h111l-58 144z" />
    <glyph glyph-name="Bsmall" unicode="&#xf762;" horiz-adv-x="426" 
d="M37 1v11c6 -1 11 -2 17 -2c45 0 44 34 44 69v287c0 18 -2 48 -30 48c-5 0 -13 0 -24 -1v10c6 1 10 2 20 2c12 0 63 -4 73 -4l84 1c30 0 118 1 118 -82c0 -73 -71 -88 -101 -94v-2c121 -15 128 -97 128 -116c0 -78 -66 -128 -139 -128c-21 0 -113 3 -131 3
c-8 0 -40 -3 -47 -3c-5 0 -8 0 -12 1zM207 235h-61v-178c0 -23 0 -43 47 -43c51 0 120 0 120 103c0 91 -61 118 -106 118zM146 383v-132h52c15 0 30 2 44 7c22 9 44 28 44 68c0 80 -71 80 -109 80c-17 0 -31 -3 -31 -23z" />
    <glyph glyph-name="Csmall" unicode="&#xf763;" horiz-adv-x="500" 
d="M443 285h-9c1 8 1 20 1 30c0 4 -18 35 -34 52c-23 23 -69 45 -123 45c-101 0 -175 -78 -175 -201c0 -86 48 -201 185 -201c72 0 129 27 146 41c15 12 22 24 29 37l8 -6c-8 -15 -15 -28 -27 -40c-13 -13 -58 -47 -164 -47c-172 0 -238 104 -238 206c0 125 100 230 227 230
c70 0 106 -28 136 -28c9 0 18 2 23 4h8c0 -19 9 -47 10 -56c1 -6 1 -27 1 -35c0 -18 -2 -25 -4 -31z" />
    <glyph glyph-name="Dsmall" unicode="&#xf764;" horiz-adv-x="537" 
d="M37 2v10c5 -1 14 -2 20 -2c4 0 19 1 25 5c8 7 15 18 15 52v309c0 20 -11 35 -19 37c-5 1 -11 1 -18 1c-10 0 -14 -2 -21 -2v11c10 2 14 2 22 2c25 0 42 -5 72 -5c23 0 53 5 121 5c196 0 233 -157 233 -214s-23 -118 -78 -165c-45 -38 -93 -46 -143 -46
c-32 0 -116 3 -135 3c-20 0 -58 -3 -69 -3c-10 0 -20 1 -25 2zM148 382v-326c0 -24 0 -39 92 -39c39 0 191 0 191 176c0 76 -35 213 -192 213c-91 0 -91 -2 -91 -24z" />
    <glyph glyph-name="Esmall" unicode="&#xf765;" horiz-adv-x="407" 
d="M334 339h-6c-6 69 -117 72 -140 72c-17 0 -25 -3 -35 -8c-2 -5 -5 -10 -5 -15v-148h61c27 0 57 0 57 29c0 8 -3 16 -6 24c2 1 5 1 7 2c3 -4 6 -7 8 -16c3 -12 1 -31 3 -43c1 -9 16 -47 16 -54v-14h-7c-12 48 -36 51 -139 51v-177c0 -22 15 -22 44 -22c48 0 154 0 169 73
h7c-1 -25 -4 -29 -25 -59c-16 -22 -18 -25 -24 -39c-11 2 -21 3 -31 4c-13 1 -52 1 -70 1c-33 0 -67 2 -100 2c-18 0 -36 -2 -54 -2c-22 0 -24 0 -32 1v11c7 -1 12 -2 19 -2c41 0 46 23 46 55v308c0 27 -4 44 -32 44l-28 -2v12l15 1c21 1 111 -1 130 -1c85 0 90 1 125 6
c3 -11 25 -67 25 -68c2 -8 2 -17 2 -26z" />
    <glyph glyph-name="Fsmall" unicode="&#xf766;" horiz-adv-x="370" 
d="M102 68v295c0 49 -11 56 -32 56c-17 0 -24 -1 -31 -1v10c11 2 19 3 34 3c10 0 26 -1 49 -3c23 -1 53 -3 89 -3c31 0 62 2 91 6c19 -27 35 -60 36 -95l-7 -1c-4 28 -10 48 -61 63c-24 7 -61 10 -86 10c-31 0 -31 -13 -31 -21v-153c64 0 116 0 116 31c0 5 -6 24 -7 28l8 3
c13 -34 7 -62 18 -87c8 -18 8 -44 8 -52h-8c0 18 0 20 -3 33c-31 23 -39 27 -132 25v-148c0 -46 25 -57 42 -57c9 0 10 0 20 1v-11c-31 0 -61 0 -92 1c-9 0 -49 -3 -57 -3c-7 0 -15 1 -27 2v11c9 -2 13 -3 28 -3c24 0 35 27 35 60z" />
    <glyph glyph-name="Gsmall" unicode="&#xf767;" horiz-adv-x="519" 
d="M387 84v66c0 31 -22 32 -33 32c-7 0 -14 -1 -21 -3v11c6 1 9 2 21 2c9 0 46 -4 54 -4c9 0 46 4 54 4c10 0 16 -1 24 -3v-10c-8 2 -13 3 -22 3c-26 0 -26 -41 -26 -65v-33c0 -9 2 -18 3 -24c-29 -25 -76 -65 -178 -65c-159 0 -228 118 -228 213c0 44 14 80 21 95
c31 67 109 128 203 128c58 0 105 -27 133 -27c11 0 16 5 19 8h3c0 -25 13 -60 13 -86c0 -15 -2 -25 -5 -34h-9c2 7 4 13 4 21c0 31 -61 99 -147 99c-79 0 -178 -48 -178 -196c0 -80 53 -206 178 -206c58 0 117 29 117 74z" />
    <glyph glyph-name="Hsmall" unicode="&#xf768;" horiz-adv-x="537" 
d="M97 57v319c0 16 -11 35 -19 37c-5 1 -11 1 -18 1c-10 0 -19 -2 -23 -2v10c10 2 19 3 27 3c12 0 32 -5 48 -5s41 5 56 5c13 0 25 -1 36 -4v-9c-10 2 -10 2 -22 2c-27 0 -34 -27 -34 -36v-142h241c0 132 0 178 -37 178c-5 0 -24 -2 -28 -2v9c10 3 13 4 24 4
c18 0 48 -5 56 -5c11 0 44 5 66 5c19 0 21 0 29 -3v-10c-7 1 -13 1 -20 1c-8 0 -15 -1 -24 -2c-8 -10 -15 -19 -15 -38v-310c0 -38 23 -55 35 -55c4 0 21 2 25 2v-9c-9 -1 -11 -1 -22 -1s-58 5 -68 5c-9 0 -48 -5 -56 -5c-17 0 -19 0 -28 1v11l31 -3c32 0 32 45 32 66v143
h-241v-150c0 -30 12 -58 33 -58c9 0 18 1 27 2v-10c-7 -1 -17 -2 -28 -2c-10 0 -53 5 -62 5c-10 0 -52 -5 -60 -5c-6 0 -13 1 -19 1v11c8 -1 17 -2 24 -2c34 0 34 26 34 47z" />
    <glyph glyph-name="Ismall" unicode="&#xf769;" 
d="M44 2v10c7 -1 15 -1 22 -1s13 0 20 1c13 13 18 20 18 64v278c0 35 -4 44 -21 59c-8 1 -15 1 -23 1c-7 0 -13 0 -21 -1v9c10 2 17 3 32 3c9 0 50 -4 58 -4c10 0 52 4 60 4s19 -2 26 -3v-9c-9 1 -11 1 -22 1c-25 0 -38 -17 -38 -42v-315c0 -22 11 -37 19 -45
c7 -1 13 -2 20 -2s14 1 21 2v-10c-6 -2 -7 -2 -17 -2c-12 0 -62 4 -72 4s-54 -4 -63 -4c-5 0 -14 1 -19 2z" />
    <glyph glyph-name="Jsmall" unicode="&#xf76a;" 
d="M16 -185v12c50 25 88 45 88 158v374c0 30 -3 38 -20 54c-7 1 -15 1 -22 1s-13 0 -20 -1v9c7 2 10 3 22 3c9 0 50 -5 58 -5c9 0 50 6 58 6c10 0 29 -2 38 -6v-8c-6 1 -19 2 -30 2c-27 0 -33 -41 -33 -52v-359c0 -117 -90 -174 -139 -188z" />
    <glyph glyph-name="Ksmall" unicode="&#xf76b;" horiz-adv-x="444" 
d="M102 68v299c-1 23 -11 48 -30 48c-9 0 -17 0 -26 -1v9l7 1c9 1 14 1 20 1c8 0 34 -5 53 -5c17 0 44 5 52 5c6 0 16 -1 21 -2v-10c-6 1 -14 2 -21 2c-21 0 -28 -20 -28 -35v-151l123 125c8 8 26 27 26 42c0 13 -5 20 -18 19c-5 0 -10 -1 -15 -1v10c6 0 12 1 18 1
c12 0 28 -5 49 -5c22 0 39 5 52 5c9 0 15 -2 18 -4v-9c-5 1 -9 2 -14 2c-32 0 -70 -38 -102 -70l-99 -100l156 -187c20 -24 41 -50 73 -50c3 0 20 5 23 6c1 -2 1 -6 2 -8c-15 -6 -18 -7 -49 -7c-58 0 -77 23 -102 52l-141 168v-157c0 -32 13 -42 28 -54c9 0 25 1 34 2v-9
c-8 0 -22 -2 -32 -2c-14 0 -47 4 -61 4c-27 0 -49 -4 -62 -4c-8 0 -14 1 -18 2v9c7 -1 13 -1 20 -1s15 0 22 1c18 19 21 28 21 59z" />
    <glyph glyph-name="Lsmall" unicode="&#xf76c;" horiz-adv-x="407" 
d="M222 15c51 0 79 11 102 21c18 8 36 17 42 24c13 15 19 30 19 44h9c-4 -32 -18 -57 -22 -61c-6 -7 -23 -31 -31 -45c-44 1 -183 4 -215 4c-11 0 -27 -1 -42 -2c-14 -1 -27 -2 -32 -2c-3 0 -7 1 -10 1v10c6 0 12 -1 18 -1c4 0 18 2 19 3c23 13 23 32 23 59v284
c0 28 -3 40 -21 60c-6 1 -13 1 -19 1c-9 0 -16 -1 -25 -2v9c7 1 15 3 30 3c13 0 41 -5 56 -5c11 0 42 5 68 5c7 0 10 0 17 -1v-9c-6 0 -13 1 -19 1c-29 0 -39 -22 -39 -45v-320c0 -30 35 -36 72 -36z" />
    <glyph glyph-name="Msmall" unicode="&#xf76d;" horiz-adv-x="574" 
d="M16 2v11c6 -1 12 -2 18 -2c23 0 25 3 29 7c23 23 27 70 27 76l15 250c1 15 2 29 2 44c0 12 -3 16 -10 23c-8 1 -15 1 -23 1c-7 0 -13 0 -21 -1v10c6 0 39 3 41 3c15 0 56 0 63 -18l128 -310l122 295c8 19 14 35 61 35c20 0 34 -2 48 -5v-10c-9 1 -16 3 -23 3
c-34 0 -34 -27 -34 -37c0 -6 1 -18 2 -27l25 -266c4 -46 12 -59 31 -73c11 -4 23 -3 36 -1v-9c-6 -1 -7 -1 -17 -1c-24 0 -59 4 -67 4c-17 0 -40 -4 -56 -4c-17 0 -18 0 -29 1v9l25 -1c12 0 32 0 32 39c0 6 0 18 -2 36l-25 274h-2l-140 -337h-7l-140 342h-2l-17 -299
c-1 -23 -2 -52 29 -53l27 1v-11c-11 -1 -12 -1 -27 -1c-13 0 -34 4 -51 4c-11 0 -38 -4 -43 -4c-15 0 -16 0 -25 2z" />
    <glyph glyph-name="Nsmall" unicode="&#xf76e;" horiz-adv-x="556" 
d="M32 0v10c5 -1 15 -2 22 -2c3 0 19 1 21 2c24 15 25 80 25 83v291l-10 11c-12 13 -18 18 -36 18c-8 0 -14 -1 -22 -2v10c14 3 30 4 46 4c31 0 53 -2 69 -20l295 -334v269c0 28 -2 56 -22 74c-7 1 -13 1 -20 1c-6 0 -12 0 -18 -1v9c10 2 18 2 26 2c18 0 32 -5 47 -5
c11 0 27 5 38 5c12 0 19 -1 28 -3v-10c-12 2 -14 2 -35 2c-15 -10 -25 -17 -25 -66v-345c0 -7 -7 -9 -12 -9c-3 0 -7 1 -11 6l-320 365v-299c0 -19 8 -58 45 -58c7 0 14 1 20 2v-10c-8 -1 -17 -2 -27 -2c-11 0 -21 4 -48 4c-23 0 -42 -4 -52 -4c-13 0 -17 1 -24 2z" />
    <glyph glyph-name="Osmall" unicode="&#xf76f;" horiz-adv-x="537" 
d="M35 193c0 100 62 238 234 238c160 0 234 -104 234 -199c0 -100 -62 -238 -234 -238c-160 0 -234 104 -234 199zM81 235c0 -111 82 -223 200 -223c95 0 171 62 171 176c0 111 -82 223 -200 223c-95 0 -171 -62 -171 -176z" />
    <glyph glyph-name="Psmall" unicode="&#xf770;" horiz-adv-x="389" 
d="M37 1v11c7 -1 13 -2 20 -2s20 2 25 4c9 11 13 20 13 50v291c0 30 -2 61 -41 61c-6 0 -12 -1 -19 -2v10c3 1 14 1 25 1c12 0 51 -5 59 -5c27 0 58 2 114 2c63 0 117 -24 117 -90s-59 -117 -140 -117c-30 0 -48 7 -64 14v-173c0 -23 9 -33 26 -46c15 -1 29 1 36 2v-10
c-11 -2 -17 -2 -34 -2c-20 0 -45 5 -56 5c-13 0 -44 -5 -57 -5c-10 0 -17 1 -24 1zM146 383v-135c14 -8 27 -15 58 -15c72 0 92 49 92 88c0 42 -24 85 -102 85c-25 0 -48 -3 -48 -23z" />
    <glyph glyph-name="Qsmall" unicode="&#xf771;" horiz-adv-x="537" 
d="M576 -59h10c-34 -73 -91 -111 -160 -111c-50 0 -81 20 -126 58c-56 48 -74 63 -106 63c-25 0 -32 -7 -45 -25c-2 1 -6 1 -9 2c11 16 23 36 49 43c11 3 23 3 26 3c28 0 37 -7 121 -67c38 -27 53 -39 102 -39c32 0 108 11 138 73zM35 193c0 100 62 238 234 238
c160 0 234 -104 234 -199c0 -100 -62 -238 -234 -238c-160 0 -234 104 -234 199zM81 235c0 -111 82 -223 200 -223c95 0 171 62 171 176c0 111 -82 223 -200 223c-95 0 -171 -62 -171 -176z" />
    <glyph glyph-name="Rsmall" unicode="&#xf772;" horiz-adv-x="463" 
d="M102 59v309c0 23 -7 36 -16 42c-9 5 -26 5 -31 5c-3 0 -8 0 -13 -1v9c4 1 8 2 13 2c14 0 47 -6 65 -5l51 3c20 1 51 3 61 3c26 0 127 -1 127 -102c0 -60 -48 -97 -125 -104v-2c8 -4 12 -6 19 -17l92 -140c28 -42 57 -54 83 -54c7 0 17 3 21 6c1 -2 1 -6 2 -9
c-8 -3 -24 -7 -57 -7c-28 0 -62 0 -101 61l-84 133c-4 6 -20 25 -27 28c-5 2 -28 5 -32 7v-142c0 -41 1 -76 36 -76c7 0 13 1 20 1v-10c-13 -2 -15 -2 -20 -2c-4 0 -10 1 -18 2c-7 1 -16 2 -37 3c-10 0 -25 -1 -36 -2c-10 -1 -17 -2 -23 -2c-12 0 -20 0 -28 1v10
c7 -1 15 -1 20 -1c8 0 15 1 24 4c14 16 14 22 14 47zM150 386v-143c16 -5 28 -9 52 -9c58 0 104 27 104 86c0 87 -89 87 -131 87c-13 0 -25 -4 -25 -21z" />
    <glyph glyph-name="Ssmall" unicode="&#xf773;" horiz-adv-x="352" 
d="M41 140l8 -1c-3 -8 -5 -17 -5 -26c0 -30 45 -103 120 -103c59 0 89 44 89 87c0 47 -28 71 -83 117c-78 66 -99 84 -99 129c0 9 2 86 96 86c21 0 40 -3 68 -13l25 -9c-2 -15 -2 -16 -2 -28l1 -33c0 -13 -2 -19 -7 -30l-8 3c3 7 6 14 6 21c0 10 -16 73 -79 73
c-32 0 -61 -16 -61 -49c0 -34 24 -53 74 -95c88 -73 115 -105 115 -160c0 -80 -73 -114 -125 -114c-37 0 -40 1 -132 36c-5 34 -7 54 -7 59c0 31 0 34 6 50z" />
    <glyph glyph-name="Tsmall" unicode="&#xf774;" horiz-adv-x="389" 
d="M167 96v274c0 30 0 38 -39 38c-79 0 -102 -38 -116 -62c-2 1 -4 4 -6 5c13 23 25 43 29 52c4 8 9 20 12 28c4 1 8 1 11 1s45 -5 54 -5c19 -1 69 -3 93 -3c10 0 43 1 58 2l53 5c33 0 42 -11 42 -34c0 -11 -11 -31 -36 -60l-7 3c12 18 17 25 17 37c0 30 -35 30 -79 30
c-34 0 -35 -9 -35 -19v-316c0 -50 21 -62 34 -62l26 1v-10c-17 -1 -17 -1 -30 -1c-14 0 -47 4 -60 4s-45 -4 -52 -4h-34v11c7 -1 12 -1 19 -1c6 0 13 0 20 1c18 21 26 29 26 85z" />
    <glyph glyph-name="Usmall" unicode="&#xf775;" horiz-adv-x="519" 
d="M25 413v9c3 1 8 2 11 2l23 1c8 0 41 -5 47 -5c10 0 55 5 64 5c20 0 26 -2 31 -4v-9c-7 2 -13 3 -23 3c-23 0 -39 -35 -39 -56v-214c0 -55 33 -132 133 -132c140 0 140 120 140 156v162c0 39 -9 83 -52 83c-4 0 -8 0 -13 -1v9c6 2 12 3 18 3c15 0 43 -5 52 -5
c11 0 36 5 52 5c13 0 14 0 22 -3v-9c-4 1 -9 1 -13 1c-28 0 -47 -17 -47 -72v-171c0 -65 -12 -176 -176 -176c-165 0 -165 121 -165 175l-1 177c0 36 -9 68 -34 68c-12 0 -20 -1 -30 -2z" />
    <glyph glyph-name="Vsmall" unicode="&#xf776;" horiz-adv-x="444" 
d="M215 -6l-156 350c-30 67 -34 67 -63 69v9c4 1 9 2 13 2c9 0 32 -4 52 -4c12 0 38 4 45 4c9 0 19 -2 31 -4v-9c-7 1 -18 2 -23 2c-17 0 -21 -10 -21 -22c0 -9 2 -12 9 -29l136 -298l113 268c9 20 10 38 10 49c0 15 -9 31 -14 32c-3 0 -9 1 -16 1c-6 0 -11 -1 -16 -1v8
c2 1 12 3 17 3c9 0 34 -4 42 -4c9 0 35 5 45 5c6 0 13 0 21 -1v-10c-4 1 -7 1 -10 1c-5 0 -28 0 -50 -52l-154 -369h-11z" />
    <glyph glyph-name="Wsmall" unicode="&#xf777;" horiz-adv-x="630" 
d="M219 -6l-158 388c-6 15 -13 32 -39 32c-7 0 -13 -1 -20 -1v9c3 1 11 2 19 2c11 0 27 -4 50 -4c20 0 48 4 61 4c4 0 10 -1 16 -2v-9c-4 0 -8 1 -12 1c-2 0 -9 0 -14 -2c-2 -1 -12 -8 -12 -15c0 -8 3 -14 5 -20l127 -314l69 177l-47 119c-5 12 -18 46 -34 53
c-2 1 -9 2 -18 2c-4 0 -9 -1 -13 -1v9c4 1 10 2 14 2c8 0 26 -3 37 -3c24 0 37 2 46 2c10 0 21 -1 28 -2v-9c-3 1 -6 1 -9 1c-5 0 -8 -1 -13 -4c-2 -4 -3 -8 -3 -11c0 -2 3 -8 7 -17l32 -77l27 64c4 9 5 23 5 31c0 3 0 7 -1 10c-4 3 -8 6 -13 6c-3 0 -6 -1 -9 -2v9
c3 1 8 2 12 2c5 0 21 -3 30 -3c15 0 29 4 44 4c5 0 12 0 16 -3v-9c-5 1 -11 3 -17 3c-32 0 -45 -29 -51 -42l-37 -88l90 -217l108 274c10 24 8 32 10 39c0 14 -6 22 -14 30c-6 1 -12 2 -17 2s-9 0 -14 -1v9c6 2 13 2 20 2c9 0 22 -3 33 -3c18 0 31 4 50 4c10 0 12 0 20 -3
v-8c-8 2 -9 2 -16 2c-12 0 -36 -23 -51 -60l-144 -362h-9l-91 228l-91 -228h-9z" />
    <glyph glyph-name="Xsmall" unicode="&#xf778;" horiz-adv-x="444" 
d="M23 3v10c6 -2 12 -3 18 -3c29 0 58 41 70 60l94 148l-118 179c-11 17 -21 17 -28 17c-13 0 -13 0 -24 -1v9c8 2 15 3 26 3c8 0 42 -4 49 -4c8 0 44 4 52 4c9 0 10 0 16 -3v-8c-4 1 -10 2 -14 2c-12 0 -15 -11 -15 -18c0 -9 5 -17 7 -20l76 -116l59 92c9 14 15 34 15 42
c0 10 -4 20 -20 20c-6 0 -13 -1 -20 -2v8c9 2 13 2 20 2c9 0 29 -4 45 -4c10 0 36 4 43 4c9 0 25 -2 29 -3v-9c-7 1 -14 2 -21 2c-30 0 -50 -25 -70 -54l-73 -114l123 -189c23 -35 32 -49 71 -47v-9c-5 -1 -7 -1 -23 -1c-10 0 -53 2 -61 2s-41 -2 -48 -2c-10 0 -14 1 -19 2
v11c12 -3 15 -4 28 -3c3 6 6 10 6 17c0 16 -13 36 -21 48l-83 128l-89 -142c-5 -9 -10 -22 -10 -30c0 -11 7 -21 19 -21l28 3v-10c-16 -3 -17 -3 -32 -3c-1 0 -33 3 -39 3l-47 -2c-11 0 -12 0 -19 2z" />
    <glyph glyph-name="Ysmall" unicode="&#xf779;" horiz-adv-x="407" 
d="M9 412v12l16 1c10 0 54 -5 63 -4l52 4c10 1 16 -1 22 -3v-8c-5 1 -11 2 -17 2c-16 0 -22 -9 -22 -17c0 -6 3 -15 7 -21l97 -142l80 124c5 9 12 20 12 33c0 20 -12 20 -20 20c-10 0 -10 0 -19 -1v10c5 1 13 3 19 3c8 0 41 -4 48 -4c8 0 40 4 47 4c3 0 6 -1 11 -3v-10
c-5 1 -9 1 -14 1c-22 0 -37 -9 -65 -53l-95 -148v-153c0 -22 11 -48 40 -48c13 -2 13 0 23 1v-10c-5 -2 -6 -2 -16 -2c-11 0 -59 5 -69 5c-9 0 -49 -5 -57 -5c-15 0 -16 0 -27 2v10c11 -1 14 -1 36 -1c12 9 20 17 20 55v154l-117 170c-16 23 -26 23 -33 23z" />
    <glyph glyph-name="Zsmall" unicode="&#xf77a;" horiz-adv-x="426" 
d="M333 0h-291c-4 0 -7 1 -11 1l-1 8l269 398h-165c-4 0 -80 -7 -91 -70h-7c1 20 4 24 23 63c8 15 9 18 13 32c9 -3 14 -5 20 -6s14 -1 27 -1h156c45 0 49 0 78 5l10 -14l-269 -397h180c85 0 132 42 143 69h8c-8 -25 -11 -28 -33 -56c-16 -20 -18 -22 -23 -33z" />
    <glyph glyph-name="Tildesmall" unicode="&#xf6fe;" 
d="M223 576h25c-13 -56 -55 -65 -74 -65c-13 0 -33 7 -52 13s-37 12 -50 12c-31 0 -36 -24 -39 -41h-22c3 19 11 66 60 66c21 0 42 -5 60 -13c17 -8 34 -12 46 -12c32 0 42 27 46 40z" />
    <glyph glyph-name="exclamdownsmall" unicode="&#xf7a1;" horiz-adv-x="222" 
d="M144 397c0 -19 -15 -34 -34 -34c-18 0 -34 15 -34 34s16 34 34 34c19 0 34 -15 34 -34zM32 -98v11c15 0 26 1 30 2c2 1 23 23 23 58v342h49l1 -341c0 -37 13 -50 24 -61c5 -1 10 -1 15 -1s8 0 13 1v-10c-7 -1 -14 -1 -21 -1c-9 0 -47 5 -55 5c-13 0 -40 -5 -79 -5z" />
    <glyph glyph-name="Lslashsmall" unicode="&#xf6f9;" horiz-adv-x="407" 
d="M42 127v17l60 44v166c0 28 -3 40 -21 60c-6 1 -13 1 -19 1c-9 0 -16 -1 -25 -2v9c7 1 15 3 30 3c13 0 41 -5 56 -5c11 0 42 5 68 5c7 0 10 0 17 -1v-9c-6 0 -13 1 -19 1c-29 0 -39 -22 -39 -45v-147l114 85v-17l-114 -85v-156c0 -30 35 -36 72 -36c51 0 79 11 102 21
c18 8 36 17 42 24c13 15 19 30 19 44h9c-4 -32 -18 -57 -22 -61c-6 -7 -23 -31 -31 -45c-44 1 -183 4 -215 4c-11 0 -27 -1 -42 -2c-14 -1 -27 -2 -32 -2c-3 0 -7 1 -10 1v10c6 0 12 -1 18 -1c4 0 18 2 19 3c23 13 23 32 23 59v101z" />
    <glyph glyph-name="Scaronsmall" unicode="&#xf6fd;" horiz-adv-x="352" 
d="M41 140l8 -1c-3 -8 -5 -17 -5 -26c0 -30 45 -103 120 -103c59 0 89 44 89 87c0 47 -28 71 -83 117c-78 66 -99 84 -99 129c0 9 2 86 96 86c21 0 40 -3 68 -13l25 -9c-2 -15 -2 -16 -2 -28l1 -33c0 -13 -2 -19 -7 -30l-8 3c3 7 6 14 6 21c0 10 -16 73 -79 73
c-32 0 -61 -16 -61 -49c0 -34 24 -53 74 -95c88 -73 115 -105 115 -160c0 -80 -73 -114 -125 -114c-37 0 -40 1 -132 36c-5 34 -7 54 -7 59c0 31 0 34 6 50zM49 603h23l105 -87l100 87h27l-112 -123h-33z" />
    <glyph glyph-name="Zcaronsmall" unicode="&#xf6ff;" horiz-adv-x="426" 
d="M333 0h-291c-4 0 -7 1 -11 1l-1 8l269 398h-165c-4 0 -80 -7 -91 -70h-7c1 20 4 24 23 63c8 15 9 18 13 32c9 -3 14 -5 20 -6s14 -1 27 -1h156c45 0 49 0 78 5l10 -14l-269 -397h180c85 0 132 42 143 69h8c-8 -25 -11 -28 -33 -56c-16 -20 -18 -22 -23 -33zM86 603h23
l105 -87l100 87h27l-112 -123h-33z" />
    <glyph glyph-name="Dieresissmall" unicode="&#xf7a8;" 
d="M182 535c0 17 13 30 30 30s30 -13 30 -30s-13 -30 -30 -30s-30 13 -30 30zM17 535c0 17 13 30 30 30s30 -13 30 -30s-13 -30 -30 -30s-30 13 -30 30z" />
    <glyph glyph-name="Brevesmall" unicode="&#xf6f4;" 
d="M225 586h23c-11 -33 -38 -91 -119 -91c-80 0 -107 58 -118 91h23c8 -19 30 -62 95 -62c66 0 88 43 96 62z" />
    <glyph glyph-name="Caronsmall" unicode="&#xf6f5;" 
d="M2 603h23l105 -87l100 87h27l-112 -123h-33z" />
    <glyph glyph-name="Dotaccentsmall" unicode="&#xf6f7;" 
d="M100 535c0 17 13 30 30 30s30 -13 30 -30s-13 -30 -30 -30s-30 13 -30 30z" />
    <glyph glyph-name="Macronsmall" unicode="&#xf7af;" 
d="M11 523v26h237v-26h-237z" />
    <glyph glyph-name="Ogoneksmall" unicode="&#xf6fb;" 
d="M290 -148l6 -18c-26 -12 -52 -22 -82 -22c-52 0 -87 17 -87 69c0 55 55 93 90 118h20c-32 -29 -77 -71 -77 -113c0 -30 18 -54 54 -54c32 0 54 8 76 20z" />
    <glyph glyph-name="Ringsmall" unicode="&#xf6fc;" 
d="M66 535c0 35 29 64 64 64s64 -29 64 -64s-29 -64 -64 -64s-64 29 -64 64zM86 535c0 -24 20 -44 44 -44s44 20 44 44s-20 44 -44 44s-44 -20 -44 -44z" />
    <glyph glyph-name="Cedillasmall" unicode="&#xf7b8;" 
d="M76 -75l21 74h20l-14 -54c36 0 104 0 104 -64c0 -52 -54 -69 -104 -69c-35 0 -74 15 -103 28l8 20c31 -15 63 -28 110 -28c38 0 56 24 56 44c0 37 -36 49 -67 49h-31z" />
    <glyph glyph-name="questiondownsmall" unicode="&#xf7bf;" horiz-adv-x="407" 
d="M240 317v-196c-19 8 -34 14 -54 14c-60 0 -92 -49 -92 -100c0 -49 34 -115 122 -115c92 0 140 107 140 113c0 9 -2 24 -2 33h9c3 -23 5 -39 5 -48c0 -12 -11 -62 -11 -72c-24 -5 -28 -7 -62 -24c-32 -16 -50 -19 -83 -19c-106 0 -173 69 -173 154c0 78 54 111 111 111
c12 0 25 -2 37 -4v153h53zM248 397c0 -19 -15 -34 -34 -34c-18 0 -34 15 -34 34s16 34 34 34c19 0 34 -15 34 -34z" />
    <glyph glyph-name="Agravesmall" unicode="&#xf7e0;" horiz-adv-x="444" 
d="M2 1v9c5 0 10 -1 15 -1s15 1 16 2s15 11 16 13c8 12 19 28 23 39l139 368h11l139 -351c16 -40 22 -51 33 -67c1 -2 15 -3 20 -3s16 3 19 3v-11c-6 -1 -12 -2 -20 -2c-9 0 -38 4 -60 4c-23 0 -43 -4 -57 -4c-6 0 -11 0 -18 1v11c6 -1 13 -2 18 -2c4 0 11 1 15 2
c5 1 12 9 12 22c0 10 -3 18 -5 23l-54 134h-125l-44 -118c-5 -14 -7 -26 -7 -33c0 -14 6 -31 25 -31c7 0 14 1 21 1v-9c-5 -1 -11 -1 -17 -1c-16 0 -39 2 -54 2c-19 0 -34 -2 -44 -2c-9 0 -12 0 -17 1zM147 207h111l-58 144zM325 480l-208 71l16 35l195 -99z" />
    <glyph glyph-name="Aacutesmall" unicode="&#xf7e1;" horiz-adv-x="444" 
d="M2 1v9c5 0 10 -1 15 -1s15 1 16 2s15 11 16 13c8 12 19 28 23 39l139 368h11l139 -351c16 -40 22 -51 33 -67c1 -2 15 -3 20 -3s16 3 19 3v-11c-6 -1 -12 -2 -20 -2c-9 0 -38 4 -60 4c-23 0 -43 -4 -57 -4c-6 0 -11 0 -18 1v11c6 -1 13 -2 18 -2c4 0 11 1 15 2
c5 1 12 9 12 22c0 10 -3 18 -5 23l-54 134h-125l-44 -118c-5 -14 -7 -26 -7 -33c0 -14 6 -31 25 -31c7 0 14 1 21 1v-9c-5 -1 -11 -1 -17 -1c-16 0 -39 2 -54 2c-19 0 -34 -2 -44 -2c-9 0 -12 0 -17 1zM147 207h111l-58 144zM328 551l-208 -71l-3 7l195 99z" />
    <glyph glyph-name="Acircumflexsmall" unicode="&#xf7e2;" horiz-adv-x="444" 
d="M2 1v9c5 0 10 -1 15 -1s15 1 16 2s15 11 16 13c8 12 19 28 23 39l139 368h11l139 -351c16 -40 22 -51 33 -67c1 -2 15 -3 20 -3s16 3 19 3v-11c-6 -1 -12 -2 -20 -2c-9 0 -38 4 -60 4c-23 0 -43 -4 -57 -4c-6 0 -11 0 -18 1v11c6 -1 13 -2 18 -2c4 0 11 1 15 2
c5 1 12 9 12 22c0 10 -3 18 -5 23l-54 134h-125l-44 -118c-5 -14 -7 -26 -7 -33c0 -14 6 -31 25 -31c7 0 14 1 21 1v-9c-5 -1 -11 -1 -17 -1c-16 0 -39 2 -54 2c-19 0 -34 -2 -44 -2c-9 0 -12 0 -17 1zM147 207h111l-58 144zM95 480l112 123h33l110 -123h-23l-105 87
l-100 -87h-27z" />
    <glyph glyph-name="Atildesmall" unicode="&#xf7e3;" horiz-adv-x="444" 
d="M2 1v9c5 0 10 -1 15 -1s15 1 16 2s15 11 16 13c8 12 19 28 23 39l139 368h11l139 -351c16 -40 22 -51 33 -67c1 -2 15 -3 20 -3s16 3 19 3v-11c-6 -1 -12 -2 -20 -2c-9 0 -38 4 -60 4c-23 0 -43 -4 -57 -4c-6 0 -11 0 -18 1v11c6 -1 13 -2 18 -2c4 0 11 1 15 2
c5 1 12 9 12 22c0 10 -3 18 -5 23l-54 134h-125l-44 -118c-5 -14 -7 -26 -7 -33c0 -14 6 -31 25 -31c7 0 14 1 21 1v-9c-5 -1 -11 -1 -17 -1c-16 0 -39 2 -54 2c-19 0 -34 -2 -44 -2c-9 0 -12 0 -17 1zM147 207h111l-58 144zM316 576h25c-13 -56 -55 -65 -74 -65
c-13 0 -33 7 -52 13s-37 12 -50 12c-31 0 -36 -24 -39 -41h-22c3 19 11 66 60 66c21 0 42 -5 60 -13c17 -8 34 -12 46 -12c32 0 42 27 46 40z" />
    <glyph glyph-name="Adieresissmall" unicode="&#xf7e4;" horiz-adv-x="444" 
d="M2 1v9c5 0 10 -1 15 -1s15 1 16 2s15 11 16 13c8 12 19 28 23 39l139 368h11l139 -351c16 -40 22 -51 33 -67c1 -2 15 -3 20 -3s16 3 19 3v-11c-6 -1 -12 -2 -20 -2c-9 0 -38 4 -60 4c-23 0 -43 -4 -57 -4c-6 0 -11 0 -18 1v11c6 -1 13 -2 18 -2c4 0 11 1 15 2
c5 1 12 9 12 22c0 10 -3 18 -5 23l-54 134h-125l-44 -118c-5 -14 -7 -26 -7 -33c0 -14 6 -31 25 -31c7 0 14 1 21 1v-9c-5 -1 -11 -1 -17 -1c-16 0 -39 2 -54 2c-19 0 -34 -2 -44 -2c-9 0 -12 0 -17 1zM147 207h111l-58 144zM275 535c0 17 13 30 30 30s30 -13 30 -30
s-13 -30 -30 -30s-30 13 -30 30zM110 535c0 17 13 30 30 30s30 -13 30 -30s-13 -30 -30 -30s-30 13 -30 30z" />
    <glyph glyph-name="Aringsmall" unicode="&#xf7e5;" horiz-adv-x="444" 
d="M2 1v9c5 0 10 -1 15 -1s15 1 16 2s15 11 16 13c8 12 19 28 23 39l139 368h11l139 -351c16 -40 22 -51 33 -67c1 -2 15 -3 20 -3s16 3 19 3v-11c-6 -1 -12 -2 -20 -2c-9 0 -38 4 -60 4c-23 0 -43 -4 -57 -4c-6 0 -11 0 -18 1v11c6 -1 13 -2 18 -2c4 0 11 1 15 2
c5 1 12 9 12 22c0 10 -3 18 -5 23l-54 134h-125l-44 -118c-5 -14 -7 -26 -7 -33c0 -14 6 -31 25 -31c7 0 14 1 21 1v-9c-5 -1 -11 -1 -17 -1c-16 0 -39 2 -54 2c-19 0 -34 -2 -44 -2c-9 0 -12 0 -17 1zM147 207h111l-58 144zM149 535c0 35 29 64 64 64s64 -29 64 -64
s-29 -64 -64 -64s-64 29 -64 64zM169 535c0 -24 20 -44 44 -44s44 20 44 44s-20 44 -44 44s-44 -20 -44 -44z" />
    <glyph glyph-name="AEsmall" unicode="&#xf7e6;" horiz-adv-x="630" 
d="M2 0v9c6 -1 9 -1 19 -1c18 0 55 26 63 38l213 345c2 3 3 7 3 11c0 5 -8 11 -20 11c-10 0 -15 -1 -21 -3v11c4 1 13 3 23 3s43 -3 81 -3c102 0 147 3 165 4c1 -14 17 -38 21 -47c8 -19 8 -29 9 -41h-8c-13 66 -97 66 -126 66h-36c-9 0 -15 -6 -15 -16v-147h61
c27 0 57 0 57 29c0 8 -3 16 -6 24c2 1 5 1 7 2c3 -4 6 -7 8 -16c3 -12 1 -31 3 -43c1 -9 16 -47 16 -54v-14h-7c-12 48 -36 51 -139 51v-176c0 -6 2 -11 4 -16c12 -6 18 -8 34 -8c38 0 155 4 172 75h8c-4 -20 -8 -35 -19 -51c-5 -7 -27 -36 -31 -43l-124 1l-151 -1v11
c55 -4 55 -3 53 180h-127l-95 -157c-3 -6 -3 -12 -2 -17c7 -6 12 -10 23 -10c4 0 8 0 12 1v-8c-4 -1 -9 -1 -13 -1l-34 1l-69 -1c-4 0 -8 1 -12 1zM319 207v191h-2l-113 -191h115z" />
    <glyph glyph-name="Ccedillasmall" unicode="&#xf7e7;" horiz-adv-x="500" 
d="M151 -160l8 20c31 -15 63 -28 110 -28c38 0 56 24 56 44c0 37 -36 49 -67 49h-31l20 73c-148 12 -205 108 -205 203c0 125 100 230 227 230c70 0 106 -28 136 -28c9 0 18 2 23 4h8c0 -19 9 -47 10 -56c1 -6 1 -27 1 -35c0 -18 -2 -25 -4 -31h-9c1 8 1 20 1 30
c0 4 -18 35 -34 52c-23 23 -69 45 -123 45c-101 0 -175 -78 -175 -201c0 -86 48 -201 185 -201c72 0 129 27 146 41c15 12 22 24 29 37l8 -6c-8 -15 -15 -28 -27 -40c-13 -13 -58 -47 -164 -47c-5 0 -10 0 -14 1l-12 -51c36 0 104 0 104 -64c0 -52 -54 -69 -104 -69
c-35 0 -74 15 -103 28z" />
    <glyph glyph-name="Egravesmall" unicode="&#xf7e8;" horiz-adv-x="407" 
d="M334 339h-6c-6 69 -117 72 -140 72c-17 0 -25 -3 -35 -8c-2 -5 -5 -10 -5 -15v-148h61c27 0 57 0 57 29c0 8 -3 16 -6 24c2 1 5 1 7 2c3 -4 6 -7 8 -16c3 -12 1 -31 3 -43c1 -9 16 -47 16 -54v-14h-7c-12 48 -36 51 -139 51v-177c0 -22 15 -22 44 -22c48 0 154 0 169 73
h7c-1 -25 -4 -29 -25 -59c-16 -22 -18 -25 -24 -39c-11 2 -21 3 -31 4c-13 1 -52 1 -70 1c-33 0 -67 2 -100 2c-18 0 -36 -2 -54 -2c-22 0 -24 0 -32 1v11c7 -1 12 -2 19 -2c41 0 46 23 46 55v308c0 27 -4 44 -32 44l-28 -2v12l15 1c21 1 111 -1 130 -1c85 0 90 1 125 6
c3 -11 25 -67 25 -68c2 -8 2 -17 2 -26zM306 480l-208 71l16 35l195 -99z" />
    <glyph glyph-name="Eacutesmall" unicode="&#xf7e9;" horiz-adv-x="407" 
d="M334 339h-6c-6 69 -117 72 -140 72c-17 0 -25 -3 -35 -8c-2 -5 -5 -10 -5 -15v-148h61c27 0 57 0 57 29c0 8 -3 16 -6 24c2 1 5 1 7 2c3 -4 6 -7 8 -16c3 -12 1 -31 3 -43c1 -9 16 -47 16 -54v-14h-7c-12 48 -36 51 -139 51v-177c0 -22 15 -22 44 -22c48 0 154 0 169 73
h7c-1 -25 -4 -29 -25 -59c-16 -22 -18 -25 -24 -39c-11 2 -21 3 -31 4c-13 1 -52 1 -70 1c-33 0 -67 2 -100 2c-18 0 -36 -2 -54 -2c-22 0 -24 0 -32 1v11c7 -1 12 -2 19 -2c41 0 46 23 46 55v308c0 27 -4 44 -32 44l-28 -2v12l15 1c21 1 111 -1 130 -1c85 0 90 1 125 6
c3 -11 25 -67 25 -68c2 -8 2 -17 2 -26zM309 551l-208 -71l-3 7l195 99z" />
    <glyph glyph-name="Ecircumflexsmall" unicode="&#xf7ea;" horiz-adv-x="407" 
d="M334 339h-6c-6 69 -117 72 -140 72c-17 0 -25 -3 -35 -8c-2 -5 -5 -10 -5 -15v-148h61c27 0 57 0 57 29c0 8 -3 16 -6 24c2 1 5 1 7 2c3 -4 6 -7 8 -16c3 -12 1 -31 3 -43c1 -9 16 -47 16 -54v-14h-7c-12 48 -36 51 -139 51v-177c0 -22 15 -22 44 -22c48 0 154 0 169 73
h7c-1 -25 -4 -29 -25 -59c-16 -22 -18 -25 -24 -39c-11 2 -21 3 -31 4c-13 1 -52 1 -70 1c-33 0 -67 2 -100 2c-18 0 -36 -2 -54 -2c-22 0 -24 0 -32 1v11c7 -1 12 -2 19 -2c41 0 46 23 46 55v308c0 27 -4 44 -32 44l-28 -2v12l15 1c21 1 111 -1 130 -1c85 0 90 1 125 6
c3 -11 25 -67 25 -68c2 -8 2 -17 2 -26zM76 480l112 123h33l110 -123h-23l-105 87l-100 -87h-27z" />
    <glyph glyph-name="Edieresissmall" unicode="&#xf7eb;" horiz-adv-x="407" 
d="M334 339h-6c-6 69 -117 72 -140 72c-17 0 -25 -3 -35 -8c-2 -5 -5 -10 -5 -15v-148h61c27 0 57 0 57 29c0 8 -3 16 -6 24c2 1 5 1 7 2c3 -4 6 -7 8 -16c3 -12 1 -31 3 -43c1 -9 16 -47 16 -54v-14h-7c-12 48 -36 51 -139 51v-177c0 -22 15 -22 44 -22c48 0 154 0 169 73
h7c-1 -25 -4 -29 -25 -59c-16 -22 -18 -25 -24 -39c-11 2 -21 3 -31 4c-13 1 -52 1 -70 1c-33 0 -67 2 -100 2c-18 0 -36 -2 -54 -2c-22 0 -24 0 -32 1v11c7 -1 12 -2 19 -2c41 0 46 23 46 55v308c0 27 -4 44 -32 44l-28 -2v12l15 1c21 1 111 -1 130 -1c85 0 90 1 125 6
c3 -11 25 -67 25 -68c2 -8 2 -17 2 -26zM256 535c0 17 13 30 30 30s30 -13 30 -30s-13 -30 -30 -30s-30 13 -30 30zM91 535c0 17 13 30 30 30s30 -13 30 -30s-13 -30 -30 -30s-30 13 -30 30z" />
    <glyph glyph-name="Igravesmall" unicode="&#xf7ec;" 
d="M44 2v10c7 -1 15 -1 22 -1s13 0 20 1c13 13 18 20 18 64v278c0 35 -4 44 -21 59c-8 1 -15 1 -23 1c-7 0 -13 0 -21 -1v9c10 2 17 3 32 3c9 0 50 -4 58 -4c10 0 52 4 60 4s19 -2 26 -3v-9c-9 1 -11 1 -22 1c-25 0 -38 -17 -38 -42v-315c0 -22 11 -37 19 -45
c7 -1 13 -2 20 -2s14 1 21 2v-10c-6 -2 -7 -2 -17 -2c-12 0 -62 4 -72 4s-54 -4 -63 -4c-5 0 -14 1 -19 2zM232 480l-208 71l16 35l195 -99z" />
    <glyph glyph-name="Iacutesmall" unicode="&#xf7ed;" 
d="M44 2v10c7 -1 15 -1 22 -1s13 0 20 1c13 13 18 20 18 64v278c0 35 -4 44 -21 59c-8 1 -15 1 -23 1c-7 0 -13 0 -21 -1v9c10 2 17 3 32 3c9 0 50 -4 58 -4c10 0 52 4 60 4s19 -2 26 -3v-9c-9 1 -11 1 -22 1c-25 0 -38 -17 -38 -42v-315c0 -22 11 -37 19 -45
c7 -1 13 -2 20 -2s14 1 21 2v-10c-6 -2 -7 -2 -17 -2c-12 0 -62 4 -72 4s-54 -4 -63 -4c-5 0 -14 1 -19 2zM235 551l-208 -71l-3 7l195 99z" />
    <glyph glyph-name="Icircumflexsmall" unicode="&#xf7ee;" 
d="M44 2v10c7 -1 15 -1 22 -1s13 0 20 1c13 13 18 20 18 64v278c0 35 -4 44 -21 59c-8 1 -15 1 -23 1c-7 0 -13 0 -21 -1v9c10 2 17 3 32 3c9 0 50 -4 58 -4c10 0 52 4 60 4s19 -2 26 -3v-9c-9 1 -11 1 -22 1c-25 0 -38 -17 -38 -42v-315c0 -22 11 -37 19 -45
c7 -1 13 -2 20 -2s14 1 21 2v-10c-6 -2 -7 -2 -17 -2c-12 0 -62 4 -72 4s-54 -4 -63 -4c-5 0 -14 1 -19 2zM2 480l112 123h33l110 -123h-23l-105 87l-100 -87h-27z" />
    <glyph glyph-name="Idieresissmall" unicode="&#xf7ef;" 
d="M44 2v10c7 -1 15 -1 22 -1s13 0 20 1c13 13 18 20 18 64v278c0 35 -4 44 -21 59c-8 1 -15 1 -23 1c-7 0 -13 0 -21 -1v9c10 2 17 3 32 3c9 0 50 -4 58 -4c10 0 52 4 60 4s19 -2 26 -3v-9c-9 1 -11 1 -22 1c-25 0 -38 -17 -38 -42v-315c0 -22 11 -37 19 -45
c7 -1 13 -2 20 -2s14 1 21 2v-10c-6 -2 -7 -2 -17 -2c-12 0 -62 4 -72 4s-54 -4 -63 -4c-5 0 -14 1 -19 2zM182 535c0 17 13 30 30 30s30 -13 30 -30s-13 -30 -30 -30s-30 13 -30 30zM17 535c0 17 13 30 30 30s30 -13 30 -30s-13 -30 -30 -30s-30 13 -30 30z" />
    <glyph glyph-name="Ethsmall" unicode="&#xf7f0;" horiz-adv-x="537" 
d="M37 215v17h60v144c0 20 -11 35 -19 37c-5 1 -11 1 -18 1c-10 0 -14 -2 -21 -2v11c10 2 14 2 22 2c25 0 42 -5 72 -5c23 0 53 5 121 5c196 0 233 -157 233 -214s-23 -118 -78 -165c-45 -38 -93 -46 -143 -46c-32 0 -116 3 -135 3c-20 0 -58 -3 -69 -3c-10 0 -20 1 -25 2
v10c5 -1 14 -2 20 -2c4 0 19 1 25 5c8 7 15 18 15 52v148h-60zM268 232v-17h-120v-159c0 -24 0 -39 92 -39c39 0 191 0 191 176c0 76 -35 213 -192 213c-91 0 -91 -2 -91 -24v-150h120z" />
    <glyph glyph-name="Ntildesmall" unicode="&#xf7f1;" horiz-adv-x="556" 
d="M32 0v10c5 -1 15 -2 22 -2c3 0 19 1 21 2c24 15 25 80 25 83v291l-10 11c-12 13 -18 18 -36 18c-8 0 -14 -1 -22 -2v10c14 3 30 4 46 4c31 0 53 -2 69 -20l295 -334v269c0 28 -2 56 -22 74c-7 1 -13 1 -20 1c-6 0 -12 0 -18 -1v9c10 2 18 2 26 2c18 0 32 -5 47 -5
c11 0 27 5 38 5c12 0 19 -1 28 -3v-10c-12 2 -14 2 -35 2c-15 -10 -25 -17 -25 -66v-345c0 -7 -7 -9 -12 -9c-3 0 -7 1 -11 6l-320 365v-299c0 -19 8 -58 45 -58c7 0 14 1 20 2v-10c-8 -1 -17 -2 -27 -2c-11 0 -21 4 -48 4c-23 0 -42 -4 -52 -4c-13 0 -17 1 -24 2zM372 576
h25c-13 -56 -55 -65 -74 -65c-13 0 -33 7 -52 13s-37 12 -50 12c-31 0 -36 -24 -39 -41h-22c3 19 11 66 60 66c21 0 42 -5 60 -13c17 -8 34 -12 46 -12c32 0 42 27 46 40z" />
    <glyph glyph-name="Ogravesmall" unicode="&#xf7f2;" horiz-adv-x="537" 
d="M35 193c0 100 62 238 234 238c160 0 234 -104 234 -199c0 -100 -62 -238 -234 -238c-160 0 -234 104 -234 199zM81 235c0 -111 82 -223 200 -223c95 0 171 62 171 176c0 111 -82 223 -200 223c-95 0 -171 -62 -171 -176zM371 480l-208 71l16 35l195 -99z" />
    <glyph glyph-name="Oacutesmall" unicode="&#xf7f3;" horiz-adv-x="537" 
d="M35 193c0 100 62 238 234 238c160 0 234 -104 234 -199c0 -100 -62 -238 -234 -238c-160 0 -234 104 -234 199zM81 235c0 -111 82 -223 200 -223c95 0 171 62 171 176c0 111 -82 223 -200 223c-95 0 -171 -62 -171 -176zM374 551l-208 -71l-3 7l195 99z" />
    <glyph glyph-name="Ocircumflexsmall" unicode="&#xf7f4;" horiz-adv-x="537" 
d="M35 193c0 100 62 238 234 238c160 0 234 -104 234 -199c0 -100 -62 -238 -234 -238c-160 0 -234 104 -234 199zM81 235c0 -111 82 -223 200 -223c95 0 171 62 171 176c0 111 -82 223 -200 223c-95 0 -171 -62 -171 -176zM141 480l112 123h33l110 -123h-23l-105 87
l-100 -87h-27z" />
    <glyph glyph-name="Otildesmall" unicode="&#xf7f5;" horiz-adv-x="537" 
d="M35 193c0 100 62 238 234 238c160 0 234 -104 234 -199c0 -100 -62 -238 -234 -238c-160 0 -234 104 -234 199zM81 235c0 -111 82 -223 200 -223c95 0 171 62 171 176c0 111 -82 223 -200 223c-95 0 -171 -62 -171 -176zM362 576h25c-13 -56 -55 -65 -74 -65
c-13 0 -33 7 -52 13s-37 12 -50 12c-31 0 -36 -24 -39 -41h-22c3 19 11 66 60 66c21 0 42 -5 60 -13c17 -8 34 -12 46 -12c32 0 42 27 46 40z" />
    <glyph glyph-name="Odieresissmall" unicode="&#xf7f6;" horiz-adv-x="537" 
d="M35 193c0 100 62 238 234 238c160 0 234 -104 234 -199c0 -100 -62 -238 -234 -238c-160 0 -234 104 -234 199zM81 235c0 -111 82 -223 200 -223c95 0 171 62 171 176c0 111 -82 223 -200 223c-95 0 -171 -62 -171 -176zM321 535c0 17 13 30 30 30s30 -13 30 -30
s-13 -30 -30 -30s-30 13 -30 30zM156 535c0 17 13 30 30 30s30 -13 30 -30s-13 -30 -30 -30s-30 13 -30 30z" />
    <glyph glyph-name="OEsmall" unicode="&#xf6fa;" horiz-adv-x="685" 
d="M375 80v278c0 43 0 55 -118 55c-131 0 -169 -92 -169 -191c0 -101 79 -214 177 -209c19 0 44 6 57 11c53 22 53 39 53 56zM428 219v-175c0 -26 26 -26 34 -26c47 0 164 5 176 75h9c-3 -16 -5 -33 -17 -49c-5 -8 -30 -41 -34 -48c-21 2 -35 4 -51 4h-169
c-22 0 -44 -1 -65 -3c-22 -1 -43 -3 -66 -3c-100 0 -214 67 -214 214c0 28 12 93 55 145c64 78 133 78 159 78c27 0 146 -10 173 -10c102 0 147 3 165 4c1 -14 17 -38 21 -47c8 -19 8 -29 9 -41h-8c-13 66 -97 66 -126 66h-36c-9 0 -15 -6 -15 -16v-147h61c27 0 57 0 57 29
c0 8 -3 16 -6 24c2 1 5 1 7 2c3 -4 6 -7 8 -16c3 -12 1 -31 3 -43c1 -9 16 -47 16 -54v-14h-7c-12 48 -36 51 -139 51z" />
    <glyph glyph-name="Oslashsmall" unicode="&#xf7f8;" horiz-adv-x="537" 
d="M152 67l211 305c-30 24 -68 39 -111 39c-95 0 -171 -62 -171 -176c0 -63 27 -127 71 -168zM379 358l-211 -305c31 -26 69 -41 113 -41c95 0 171 62 171 176c0 63 -27 127 -73 170zM62 -62l65 94c-62 37 -92 101 -92 161c0 100 62 238 234 238c47 0 86 -9 118 -24l50 72
h26l-57 -82c66 -39 97 -104 97 -165c0 -100 -62 -238 -234 -238c-49 0 -90 10 -123 27l-58 -83h-26z" />
    <glyph glyph-name="Ugravesmall" unicode="&#xf7f9;" horiz-adv-x="519" 
d="M25 413v9c3 1 8 2 11 2l23 1c8 0 41 -5 47 -5c10 0 55 5 64 5c20 0 26 -2 31 -4v-9c-7 2 -13 3 -23 3c-23 0 -39 -35 -39 -56v-214c0 -55 33 -132 133 -132c140 0 140 120 140 156v162c0 39 -9 83 -52 83c-4 0 -8 0 -13 -1v9c6 2 12 3 18 3c15 0 43 -5 52 -5
c11 0 36 5 52 5c13 0 14 0 22 -3v-9c-4 1 -9 1 -13 1c-28 0 -47 -17 -47 -72v-171c0 -65 -12 -176 -176 -176c-165 0 -165 121 -165 175l-1 177c0 36 -9 68 -34 68c-12 0 -20 -1 -30 -2zM362 480l-208 71l16 35l195 -99z" />
    <glyph glyph-name="Uacutesmall" unicode="&#xf7fa;" horiz-adv-x="519" 
d="M25 413v9c3 1 8 2 11 2l23 1c8 0 41 -5 47 -5c10 0 55 5 64 5c20 0 26 -2 31 -4v-9c-7 2 -13 3 -23 3c-23 0 -39 -35 -39 -56v-214c0 -55 33 -132 133 -132c140 0 140 120 140 156v162c0 39 -9 83 -52 83c-4 0 -8 0 -13 -1v9c6 2 12 3 18 3c15 0 43 -5 52 -5
c11 0 36 5 52 5c13 0 14 0 22 -3v-9c-4 1 -9 1 -13 1c-28 0 -47 -17 -47 -72v-171c0 -65 -12 -176 -176 -176c-165 0 -165 121 -165 175l-1 177c0 36 -9 68 -34 68c-12 0 -20 -1 -30 -2zM365 551l-208 -71l-3 7l195 99z" />
    <glyph glyph-name="Ucircumflexsmall" unicode="&#xf7fb;" horiz-adv-x="519" 
d="M25 413v9c3 1 8 2 11 2l23 1c8 0 41 -5 47 -5c10 0 55 5 64 5c20 0 26 -2 31 -4v-9c-7 2 -13 3 -23 3c-23 0 -39 -35 -39 -56v-214c0 -55 33 -132 133 -132c140 0 140 120 140 156v162c0 39 -9 83 -52 83c-4 0 -8 0 -13 -1v9c6 2 12 3 18 3c15 0 43 -5 52 -5
c11 0 36 5 52 5c13 0 14 0 22 -3v-9c-4 1 -9 1 -13 1c-28 0 -47 -17 -47 -72v-171c0 -65 -12 -176 -176 -176c-165 0 -165 121 -165 175l-1 177c0 36 -9 68 -34 68c-12 0 -20 -1 -30 -2zM132 480l112 123h33l110 -123h-23l-105 87l-100 -87h-27z" />
    <glyph glyph-name="Udieresissmall" unicode="&#xf7fc;" horiz-adv-x="519" 
d="M25 413v9c3 1 8 2 11 2l23 1c8 0 41 -5 47 -5c10 0 55 5 64 5c20 0 26 -2 31 -4v-9c-7 2 -13 3 -23 3c-23 0 -39 -35 -39 -56v-214c0 -55 33 -132 133 -132c140 0 140 120 140 156v162c0 39 -9 83 -52 83c-4 0 -8 0 -13 -1v9c6 2 12 3 18 3c15 0 43 -5 52 -5
c11 0 36 5 52 5c13 0 14 0 22 -3v-9c-4 1 -9 1 -13 1c-28 0 -47 -17 -47 -72v-171c0 -65 -12 -176 -176 -176c-165 0 -165 121 -165 175l-1 177c0 36 -9 68 -34 68c-12 0 -20 -1 -30 -2zM312 535c0 17 13 30 30 30s30 -13 30 -30s-13 -30 -30 -30s-30 13 -30 30zM147 535
c0 17 13 30 30 30s30 -13 30 -30s-13 -30 -30 -30s-30 13 -30 30z" />
    <glyph glyph-name="Yacutesmall" unicode="&#xf7fd;" horiz-adv-x="407" 
d="M9 412v12l16 1c10 0 54 -5 63 -4l52 4c10 1 16 -1 22 -3v-8c-5 1 -11 2 -17 2c-16 0 -22 -9 -22 -17c0 -6 3 -15 7 -21l97 -142l80 124c5 9 12 20 12 33c0 20 -12 20 -20 20c-10 0 -10 0 -19 -1v10c5 1 13 3 19 3c8 0 41 -4 48 -4c8 0 40 4 47 4c3 0 6 -1 11 -3v-10
c-5 1 -9 1 -14 1c-22 0 -37 -9 -65 -53l-95 -148v-153c0 -22 11 -48 40 -48c13 -2 13 0 23 1v-10c-5 -2 -6 -2 -16 -2c-11 0 -59 5 -69 5c-9 0 -49 -5 -57 -5c-15 0 -16 0 -27 2v10c11 -1 14 -1 36 -1c12 9 20 17 20 55v154l-117 170c-16 23 -26 23 -33 23zM309 551
l-208 -71l-3 7l195 99z" />
    <glyph glyph-name="Thornsmall" unicode="&#xf7fe;" horiz-adv-x="389" 
d="M95 76v278c0 35 -4 44 -21 59c-8 1 -15 1 -23 1c-7 0 -13 0 -21 -1v9c10 2 17 3 32 3c9 0 50 -4 58 -4c10 0 52 4 60 4s19 -2 26 -3v-9c-9 1 -11 1 -22 1c-25 0 -38 -17 -38 -42v-42c26 0 58 2 87 2c63 0 117 -24 117 -90s-59 -117 -140 -117c-30 0 -48 7 -64 14v-82
c0 -22 11 -37 19 -45c7 -1 13 -2 20 -2s14 1 21 2v-10c-6 -2 -7 -2 -17 -2c-12 0 -62 4 -72 4s-54 -4 -63 -4c-5 0 -14 1 -19 2v10c7 -1 15 -1 22 -1s13 0 20 1c13 13 18 20 18 64zM146 293v-135c14 -8 27 -15 58 -15c72 0 92 49 92 88c0 42 -24 85 -102 85
c-25 0 -48 -3 -48 -23z" />
    <glyph glyph-name="Ydieresissmall" unicode="&#xf7ff;" horiz-adv-x="407" 
d="M9 412v12l16 1c10 0 54 -5 63 -4l52 4c10 1 16 -1 22 -3v-8c-5 1 -11 2 -17 2c-16 0 -22 -9 -22 -17c0 -6 3 -15 7 -21l97 -142l80 124c5 9 12 20 12 33c0 20 -12 20 -20 20c-10 0 -10 0 -19 -1v10c5 1 13 3 19 3c8 0 41 -4 48 -4c8 0 40 4 47 4c3 0 6 -1 11 -3v-10
c-5 1 -9 1 -14 1c-22 0 -37 -9 -65 -53l-95 -148v-153c0 -22 11 -48 40 -48c13 -2 13 0 23 1v-10c-5 -2 -6 -2 -16 -2c-11 0 -59 5 -69 5c-9 0 -49 -5 -57 -5c-15 0 -16 0 -27 2v10c11 -1 14 -1 36 -1c12 9 20 17 20 55v154l-117 170c-16 23 -26 23 -33 23zM256 535
c0 17 13 30 30 30s30 -13 30 -30s-13 -30 -30 -30s-30 13 -30 30zM91 535c0 17 13 30 30 30s30 -13 30 -30s-13 -30 -30 -30s-30 13 -30 30z" />
    <glyph glyph-name="Delta" unicode="&#x2206;" horiz-adv-x="582" 
d="M548 0h-515v13l241 505l27 9l247 -514v-13zM481 29l-206 441l-203 -441h409z" />
    <glyph glyph-name="Omega" unicode="&#x2126;" horiz-adv-x="709" 
d="M674 103l-23 -103h-216l-5 16c42 45 141 131 140 259c-2 177 -114 231 -216 231c-115 0 -215 -68 -215 -237c0 -119 82 -192 137 -253l-7 -16h-213l-23 103l16 1c21 -55 34 -65 72 -65h109c-59 43 -153 109 -153 236c0 153 122 252 278 252c161 0 274 -90 274 -242
c0 -106 -83 -184 -154 -246h111c41 0 49 7 71 65z" />
    <glyph glyph-name="uni03BC" unicode="&#x3bc;" horiz-adv-x="519" 
d="M404 425v-338c0 -40 7 -58 31 -58c38 0 40 73 40 95h22c0 -53 -9 -130 -80 -130c-61 0 -63 69 -67 152h-2c-24 -60 -59 -152 -142 -152c-54 0 -80 39 -94 90h-2c0 -111 29 -193 29 -256c0 -28 -16 -39 -34 -39c-23 0 -28 23 -28 51c0 82 15 165 15 248v337h56v-307
c0 -64 35 -94 69 -94c91 0 131 169 131 229v172h56z" />
    <glyph glyph-name="pi" unicode="&#x3c0;" horiz-adv-x="507" 
d="M463 369l16 -9c-8 -27 -19 -47 -31 -60c-14 -2 -38 -2 -64 -2c-5 -44 -4 -145 -3 -201c0 -43 11 -70 42 -70c21 0 32 11 47 29l11 -14c-23 -39 -56 -51 -84 -51c-43 0 -69 20 -69 94c0 68 5 155 9 214c-60 2 -134 2 -170 2v-18c0 -171 -47 -269 -58 -279
c-12 -4 -32 -12 -44 -13l-4 11c65 66 82 221 82 300c-63 0 -89 -22 -118 -44l-11 13c29 32 58 72 143 71c63 0 164 -3 252 -3c23 0 37 4 54 30z" />
    <glyph glyph-name="Euro" unicode="&#x20ac;" horiz-adv-x="580" 
d="M420 286h-276v-14c0 -12 0 -24 1 -35h275v-17h-273c12 -107 66 -209 210 -209c16 0 42 -1 90 14c42 13 71 34 87 62l11 -4c-29 -46 -57 -60 -85 -72c-40 -17 -74 -19 -123 -19c-175 0 -251 123 -259 228h-43v17h42v3c0 16 1 31 2 46h-44v17h46c28 181 178 224 253 224
c35 0 50 -5 92 -19c24 -8 32 -10 46 -10c15 0 22 2 36 8c0 -36 11 -36 11 -79c0 -12 -1 -23 -4 -35c-2 1 -6 1 -9 2c2 7 2 10 2 19c0 32 -92 96 -171 96c-83 0 -180 -58 -192 -206h275v-17z" />
    <glyph glyph-name="afii61289" unicode="&#x2113;" horiz-adv-x="348" 
d="M319 89l13 -12c-35 -56 -79 -84 -140 -84c-35 0 -61 9 -81 29c-20 21 -30 51 -30 110v64l-61 -43l-9 15l69 52v95c0 134 6 178 47 216c19 19 39 26 62 26c51 0 72 -53 72 -100c0 -88 -57 -161 -133 -233v-62c0 -110 37 -136 88 -136c43 0 79 30 103 63zM128 365v-112
c54 58 97 129 97 201c0 40 -16 81 -47 81c-37 0 -50 -56 -50 -170z" />
    <glyph glyph-name="estimated" unicode="&#x212e;" horiz-adv-x="649" 
d="M623 252h-484c-3 0 -4 0 -4 -3v-146c0 -7 2 -12 6 -17c47 -49 112 -80 183 -80c78 0 146 35 193 90h43c-53 -63 -140 -104 -236 -104c-165 0 -299 120 -299 268s134 269 299 269s299 -121 299 -269v-8zM513 272v147c0 6 -2 13 -7 17c-47 47 -111 77 -182 77
s-135 -31 -182 -79c-5 -5 -7 -11 -7 -18v-144c0 -2 1 -5 4 -5h371c2 0 3 3 3 5z" />
    <glyph glyph-name="partialdiff" unicode="&#x2202;" horiz-adv-x="481" 
d="M238 340h1c46 0 108 -23 141 -69c3 25 5 47 5 76c0 40 -8 86 -27 129c-19 40 -74 90 -133 90c-47 0 -93 -22 -128 -48c-13 -2 -30 21 -22 38c32 19 77 37 132 37c86 0 140 -40 182 -107c36 -58 43 -133 43 -175c0 -56 -9 -137 -43 -200c-39 -71 -95 -119 -180 -119
c-102 0 -169 66 -169 162c0 53 23 99 53 129c34 34 89 57 145 57zM255 312h-1c-44 0 -83 -10 -117 -46c-29 -31 -41 -75 -41 -126c0 -70 43 -124 111 -124c59 0 98 37 121 78c29 49 36 86 47 147c-12 23 -61 71 -120 71z" />
    <glyph glyph-name="product" unicode="&#x220f;" horiz-adv-x="617" 
d="M591 522v-17c-80 -5 -83 -8 -83 -38v-463c0 -42 5 -47 81 -51v-17h-215v17c79 4 84 5 84 51v471c0 23 -6 24 -30 24h-241c-24 0 -28 -2 -28 -19v-476c0 -41 0 -46 76 -51v-17h-206v17c73 5 79 8 79 51v463c0 31 -4 33 -82 38v17h565z" />
    <glyph glyph-name="summation" unicode="&#x2211;" horiz-adv-x="508" 
d="M485 78l-37 -144h-423v15l208 277l-202 280v16h415c1 -13 7 -78 12 -129l-18 -4c-7 47 -20 79 -30 92s-23 19 -92 19h-217l180 -249l-204 -275h265c79 0 86 3 124 107z" />
    <glyph glyph-name="uni2219" unicode="&#x2219;" horiz-adv-x="186" 
d="M59 238c0 19 15 34 34 34c18 0 34 -15 34 -34s-16 -34 -34 -34c-19 0 -34 15 -34 34z" />
    <glyph glyph-name="radical" unicode="&#x221a;" horiz-adv-x="488" 
d="M470 680l-143 -779l-13 -10l-203 430l-77 -42l-10 22l121 64l173 -376h1l125 699z" />
    <glyph glyph-name="infinity" unicode="&#x221e;" horiz-adv-x="658" 
d="M613 215v-1c0 -79 -61 -130 -127 -130c-54 0 -96 38 -156 103c-46 -51 -92 -103 -161 -103c-68 0 -125 56 -125 128c0 74 56 130 131 130c63 0 113 -52 158 -104c46 51 90 104 160 104c73 -1 120 -53 120 -127zM173 118h1c56 0 101 58 136 93c-38 45 -79 98 -142 98
c-54 0 -87 -47 -87 -99c0 -50 36 -92 92 -92zM489 309h-1c-59 0 -106 -65 -137 -95c58 -62 93 -96 139 -96c55 0 87 48 87 94c0 62 -39 97 -88 97z" />
    <glyph glyph-name="integral" unicode="&#x222b;" horiz-adv-x="305" 
d="M139 30l-15 313c-12 239 35 313 112 313c16 0 42 -9 43 -31c0 -17 -13 -27 -27 -27c-23 0 -22 31 -42 31c-18 0 -49 -27 -43 -146l14 -306c14 -285 -48 -331 -111 -331c-27 0 -44 15 -44 32c-1 14 13 28 32 28c18 0 20 -31 38 -31c31 0 48 65 43 155z" />
    <glyph glyph-name="approxequal" unicode="&#x2248;" horiz-adv-x="506" 
d="M440 328l21 -21c-25 -41 -58 -74 -111 -74c-39 0 -63 14 -107 36c-26 13 -54 28 -85 28c-42 0 -69 -30 -93 -62l-22 21c28 47 71 75 120 75c43 0 74 -22 100 -35c32 -16 52 -29 88 -29c37 0 62 19 89 61zM440 188l21 -22c-25 -41 -58 -74 -112 -74c-38 0 -63 15 -106 37
c-27 13 -55 27 -85 27c-43 0 -69 -29 -93 -62l-22 21c28 47 71 75 120 75c43 0 74 -21 100 -34c29 -15 52 -30 88 -30c38 0 61 19 89 62z" />
    <glyph glyph-name="notequal" unicode="&#x2260;" horiz-adv-x="506" 
d="M355 396l-42 -87h147v-34h-163l-62 -128h225v-34h-241l-50 -105l-29 15l43 90h-138v34h155l61 128h-216v34h232l49 102z" />
    <glyph glyph-name="lessequal" unicode="&#x2264;" horiz-adv-x="506" 
d="M458 61l-408 186v36l408 185v-40l-367 -161v-2l367 -164v-40zM460 -6h-415v34h415v-34z" />
    <glyph glyph-name="greaterequal" unicode="&#x2265;" horiz-adv-x="506" 
d="M50 468l408 -185v-36l-407 -186v40l366 163v2l-367 162v40zM459 -6h-413v34h413v-34z" />
    <glyph glyph-name="lozenge" unicode="&#x25ca;" horiz-adv-x="496" 
d="M453 248l-188 -310h-35l-187 310l188 313h34zM412 248l-162 273h-3l-163 -271l163 -273h3z" />
    <glyph glyph-name="uni00A0" unicode="&#xa0;" horiz-adv-x="287" 
 />
    <glyph glyph-name="uni00AD" unicode="&#xad;" horiz-adv-x="296" 
d="M51 244h145c23 0 53 2 67 4l-19 -36h-143c-22 0 -37 -1 -62 -4c-3 -4 -7 -12 -10 -16h-10c4 11 20 36 32 52z" />
    <glyph glyph-name="uni02C9" unicode="&#x2c9;" 
d="M11 523v26h237v-26h-237z" />
    <glyph glyph-name="uni03A9" unicode="&#x3a9;" horiz-adv-x="709" 
d="M674 103l-23 -103h-216l-5 16c42 45 141 131 140 259c-2 177 -114 231 -216 231c-115 0 -215 -68 -215 -237c0 -119 82 -192 137 -253l-7 -16h-213l-23 103l16 1c21 -55 34 -65 72 -65h109c-59 43 -153 109 -153 236c0 153 122 252 278 252c161 0 274 -90 274 -242
c0 -106 -83 -184 -154 -246h111c41 0 49 7 71 65z" />
    <glyph glyph-name="uni2215" unicode="&#x2215;" horiz-adv-x="167" 
d="M-166 -11l464 539h35l-464 -539h-35z" />
    </font>
</defs>
</svg>
